<mxfile host="Electron" agent="Mozilla/5.0 (Windows NT 10.0; Win64; x64) AppleWebKit/537.36 (KHTML, like Gecko) draw.io/26.0.9 Chrome/128.0.6613.186 Electron/32.2.5 Safari/537.36" version="26.0.9">
  <diagram name="Page-1" id="YLbulBBgMSLnygOKRuEG">
    <mxGraphModel dx="2269" dy="1460" grid="1" gridSize="10" guides="1" tooltips="1" connect="1" arrows="1" fold="1" page="1" pageScale="1" pageWidth="827" pageHeight="1169" background="#FFFFFF" math="0" shadow="0">
      <root>
        <mxCell id="0" />
        <mxCell id="1" parent="0" />
        <mxCell id="aw91FghNOW1bZm03r1ly-3" value="" style="shape=image;verticalLabelPosition=bottom;labelBackgroundColor=none;verticalAlign=top;aspect=fixed;imageAspect=0;image=data:image/jpeg,/9j/4AAQSkZJRgABAQAAAQABAAD/4gIoSUNDX1BST0ZJTEUAAQEAAAIYanhsIARAAABtbnRyUkdCIFhZWiAH4wAMAAEAAAAAAABhY3NwQVBQTAAAAAAAAAAAAAAAAAAAAAAAAAAAAAAAAQAA9tYAAQAAAADTLWp4bCACufkBQHM6b/D/A/Tw9worAAAAAAAAAAAAAAAAAAAAAAAAAAAAAAAAAAAAAAAAAAtkZXNjAAABCAAAAERjcHJ0AAABTAAAACR3dHB0AAABcAAAABRjaGFkAAABhAAAACxjaWNwAAABsAAAAAxyWFlaAAABvAAAABRnWFlaAAAB0AAAABRiWFlaAAAB5AAAABRyVFJDAAAB+AAAACBnVFJDAAAB+AAAACBiVFJDAAAB+AAAACBtbHVjAAAAAAAAAAEAAAAMZW5VUwAAACYAAAAcAFIARwBCAF8ARAA2ADUAXwBTAFIARwBfAFIAZQBsAF8AUwBSAEcAAG1sdWMAAAAAAAAAAQAAAAxlblVTAAAABgAAABwAQwBDADAAAFhZWiAAAAAAAAD21gABAAAAANMtc2YzMgAAAAAAAQxAAAAF3f//8yoAAAeSAAD9kP//+6P///2jAAAD2wAAwIFjaWNwAAAAAAENAAFYWVogAAAAAAAAb58AADj1AAADkFhZWiAAAAAAAABilgAAt4cAABjbWFlaIAAAAAAAACSiAAAPhQAAttZwYXJhAAAAAAADAAAAAmZmAADypwAADVkAABPQAAAKW//bAEMAAgEBAQEBAgEBAQICAgICBAMCAgICBQQEAwQGBQYGBgUGBgYHCQgGBwkHBgYICwgJCgoKCgoGCAsMCwoMCQoKCv/bAEMBAgICAgICBQMDBQoHBgcKCgoKCgoKCgoKCgoKCgoKCgoKCgoKCgoKCgoKCgoKCgoKCgoKCgoKCgoKCgoKCgoKCv/AABEICgAHmgMBEQACEQEDEQH/xAAeAAEBAAICAwEBAAAAAAAAAAAAAwIEAQUGBwgJCv/EAHcQAQABAQMHBAkIEBEHCQYEBwAEAQMFBgcIERQxNIECIWFxCRMVJEFEUZHwFiMyM1RkdKEKEhcYNjdDUlNVVnOSlLGzGRoiJTU4QldYY3J1doKElcE5RWJmotHSJmWTo7LCw+HiJylGg4XjKKW08UdIZ6TE0/P/xAAcAQEBAQADAQEBAAAAAAAAAAAAAwQBAgUGBwj/xABDEQEAAgAEBAQDBAcHAwQCAwAAAQQCBRExBhQhQQMVNDUSFlEHExcyIiQzNkJUYSVScYGRsfAjoeFDRMHRU/FiZHP/2gAMAwEAAhEDEQA/AP38AAAAAAAAAAAAAAAAAAAAAAAAAAAAAAAAAAAAAAAAAAAAAAAAAAAAAAAAAAAAAAAAAAAAAAAAAAAAAAAAAAAAAAAAAAAAAAAAAAAAAAAAAAAAAAAAAAAAAAAAAAAAAAAAAAAAAAAAAAAAAAAAAAAAAAAAAAAAAAAAAAAAAAAAAAAAAAAAAAAAAAAAAAAAAAAAAAAAAAAAAAAAAAAAAAAAAAAAAAAAAAAAAAAAAAAAAAAAAAAAAAAAAAAAAAAAAAAAAAAAAAAAAAAAAAAAAAAAAAAAAAAAAAAAAAAAAAAAAAAAAAAAAAAAAAAAAAAAAAAAAAAAAAAAAAAAAAAAAAAAAAAAAAAAAAAAAAAAAAAAAAAAAAAAAAAAAAAAAAAAAAAAAAAAAAAAAAAAAAAAAAAAAAAAAAAAAAAAAAAAAAAAAAAAAAAAAAAAAAAAAAAAAAAAAAAAAAAAAAAAAAAAAAAAAAAAAAAAAAAAAAAAAAAAAAAAAAAAAAAAAAAAAAAAAAAAAAAAAAAAAAAAAAAAAAAAAAAAAAAAAAAAAAAAAAAAAAAAAAAAAAAAAAAAAAAAAAAAAAAAAAAAAAAAAAAAAAAAAAAAAAAAAAAAAAAAAAAAAAAAAAAAAAAAAAAAAAAAAAAAAAAAAAAAAAAAAAAAAAAAAAAAAAAAAAAAAAAAAAAAAAAAAAAAAAAAAAAAAAAAAAAAAAAAAAAAAAAAAAAAAAAAAAAAAAAAAAAAAAAAAAAAAAAAAAAAAAAAAAAAAAAAAAAAAAAAAAAAAAAAAAAAAAAAAAAAAAAAAAAAAAAAAAAAAAAAAAAAAAAAAAAAAAAAAAAAAAAAAAAAAAAAAAAAAAAAAAAAAAAAAAAAAAAAAAAAAAAAAAAAAAAAAAAAAAAAAAAAAAAAAAAAAAAAAAAAAAAAAAAAAAAAAAAAAAAAAAAAAAAAAAAAAAAAAAAAAAAAAAAAAAAAAAAAAAAAAAAAAAAAAAAAAAAAAAAAAAAAAAAAAAAAAAAAAAAAAAAAAAAAAAAAAAAAAAAAAAAAAAAAAAAAAAAAAAAAAAAAAAAAAAAAAAAAAAAAAAAAAAAAAAAAAAAAAAAAAAAAAAAAAAAAAAAAAAAAAAAAAAAAAAAAAAAAAAAAAAAAAAAAAAAAAAAAAAAAAAAAAAAAAAAAAAAAAAAAAAAAAAAAAAAAAAAAAAAAAAAAAAAAAAAAAAAAAAAAAAAAAAAAAAAAAAAAAAAAAAAAAAAAAAAAAAAAAAAAAAAAAAAAAAAAAAAAAAAAAAAAAAAAAAAAAAAAAAAAAAAAAAAAAAAAAAAAAAAAAAAAAAAAAAAAAAAAAAAAAAAAAAAAAAAAAAAAAAAAAAAAAAAAAAAAAAAAAAAAAAAAAAAAAAAAAAAAAAAAAAAAAAAAAAAAAAAAAAAAAAAAAAAAAAAAAAAAAAAAAAAAAAAAAAAAAAAAAAAAAAAAAAAAAAAAAAAAAAAAAAAAAAAAAAAAAAAAAAAAAAAAAAAAAAAAAAAAAAAAAAAAAAAAAAAAAAAAAAAAAAAAAAAAAAAAAAAAAAAAAAAAAAAAAAAAAAAAAAAAAAAAAAAAAAAAAAAAAAAAAAAAAAAAAAAAAAAAAAAAAAAAAAAAAAAAAAAAAAAAAAAAAAAAAAAAAAAAAAAAAAAAAAAAAAAAAAAAAAAAAAAAAAAAAAAAAAAAAAAAAAAAAAAAAAAAAAAAAAAAAAAAAAAAAAAAAAAAAAAAAAAAAAAAAAAAAAAAAAAAAAAAAAAAAAAAAAAAAAAAAAAAAAAAAAAAAAAAAAAAAAAAAAAAAAAAAAAAAAAAAAAAAAAAAAAAAAAAAAAAAAAAAAAAAAAAAAAAAAAAAAAAAAAAAAAAAAAAAAAAAAAAAAAAAAAAAAAAAAAAAAAAAAAAAAAAAAAAAAAAAAAAAAAAAAAAAAAAAAAAAAAAAAAAAAAAAAAAAAAAAAAAAAAAAAAAAAAAAAAAAAAAAAAAAAAAAAAAAAAAAAAAAAAAAAAAAAAAAAAAAAAAAAAAAAAAAAAAAAAAAAAAAAAAAAAAAAAAAAAAAAAAAAAAAAAAAAAAAAAAAAAAAAAAAAAAAAAAAAAAAAAAAAAAAAAAAAAAAAAAAAAAAAAAAAAAAAAAAAAAAAAAAAAAAAAAAAAAAAAAAAAAAAAAAAAAAAAAAAAAAAAAAAAAAAAAAAAAAAAAAAAAAAAAAAAAAAAAAAAAAAAAAAAAAAAAAAAAAAAAAAAAAAAAAAAAAAAAAAAAAAAAAAAAAAAAAAAAAAAAAAAAAAAAAAAAAAAAAAAAAAAAAAAAAAAAAAAAAAAAAAAAAAAAAAAAAAAAAAAAAAAAAAAAAAAAAAAAAAAAAAAAAAAAAAAAAAAAAAAAAAAAAAAAAAAAAAAAAAAAAAAAAAAAAAAAAAAAAAAAAAAAAAAAAAAAAAAAAAAAAAAAAAAAAAAAAAAAAAAAAAAAAAAAAAAAAAAAAAAAAAAAAAAAAAAAAAAAAAAAAAAAAAAAAAAAAAAAAAAAAAAAAAAAAAAAAAAAAAAAAAAAAAAAAAAAAAAAAAAAAAAAAAAAAAAAAAAAAAAAAAAAAAAAAAAAAAAAAAAAAAAAAAAAAAAAAAAAAAAAAAAAAAAAAAAAAAAAAAAAAAAAAAAAAAAAAAAAAAAAAAAAAAAAAAAAAAAAAAAAAAAAAAAAAAAAAAAAAAAAAAAAAAAAAAAAAAAAAAAAAAAAAAAAAAAAAAAAAAAAAAAAAAAAAAAAAAAAAAAAAAAAAAAAAAAAAAAAAAAAAAAAAAAAAAAAAAAAAAAAAAAAAAAAAAAAAAAAAAAAAAAAAAAAAAAAAAAAAAAAAAAAAAAAAAAAAAAAAAAAAAAAAAAAAAAAAAAAAAAAAAAAAAAAAAAAAAAAAAAAAAAAAAAAAAAAAAAAAAAAAAAAAAAAAAAAAAAAAAAAAAAAAAAAAAAAAAAAAAAAAAAAAAAAAAAAAAAAAAAAAAAAAAAAAAAAAAAAAAAAAAAAAAAAAAAAAAAAAAAAAAAAAAAAAAAAAAAAAAAAAAAAAAAAAAAAAAAAAAAAAAAAAAAAAAAAAAAAAAAAAAAAAAAAAAAAAAAAAAAAAAAAAAAAAAAAAAAAAAAAAAAAAAAAAAAAAAAAAAAAAAAAAAAAAAAAAAAAAAAAAAAAAAAAAAAAAAAAAAAAAAAAAAAAAAAAAAAAAAAAAAAAAAAAAAAAAAAAAAAAAAAAAAAAAAAAAAAAAAAAAAAAAAAAAAAAAAAAAAAAAAAAAAAAAAAAAAAAAAAAAAAAAAAAAAAAAAAAAAAAAAAAAAAAAAAAAAAAAAAAAAAAAAAAAAAAAAAAAAAAAAAAAAAAAAAAAAAAAAAAAAAAAAAAAAAAAAAAAAAAAAAAAAAAAAAAAAAAAAAAAAAAAAAAAAAAAAAAAAAAAAAAAAAAAAAAAAAAAAAAAAAAAAAAAAAAAAAAAAAAAAAAAAAAAAAAAAAAAAAAAAAAAAAAAAAAAAAAAAAAAAAAAAAAAAAAAAAAAAAAAAAAAAAAAAAAAAAAAAAAAAAAAAAAAAAAAAAAAAAAAAAAAAAAAAAAAAAAAAAAAAAAAAAAAAAAAAAAAAAAAAAAAAAAAAAAAAAAAAAAAAAAAAAAAAAAAAAAAAAAAAAAAAAAAAAAAAAAAAAAAAAAAAAAAAAAAAAAAAAAAAAAAAAAAAAAAAAAAAAAAAAAAAAAAAAAAAAAAAAAAAAAAAAAAAAAAAAAAAAAAAAAAAAAAAAAAAAAAAAAAAAAAAAAAAAAAAAAAAAAAAAAAAAAAAAAAAAAAAAAAAAAAAAAAAAAAAAAAAAAAAAAAAAAAAAAAAAAAAAAAAAAAAAAAAAAAAAAAAAAAAAAAAAAAAAAAAAAAAAAAAAAAAAAAAAAAAAAAAAAAAAAAAAAAAAAAAAAAAAAAAAAAAAAAAAAAAAAAAAAAAAAAAAAAAAAAAAAAAAAAAAAAAAAAAAAAAAAAAAAAAAAAAAAAAAAAAAAAAAAAAAAAAAAAAAAAAAAAAAAAAAAAAAAAAAAAAAAAAAAAAAAAAAAAAAAAAAAAAAAAAAAAAAAAAAAAAAAAAAAAAAAAAAAAAAAAAAAAAAAAAAAAAAAAAAAAAAAAAAAAAAAAAAAAAAAAAAAAAAAAAAAAAAAAAAAAAAAAAAAAAAAAAAAAAAAAAAAAAAAAAAAAAAAAAAAAAAAAAAAAAAAAAAAAAAAAAAAAAAAAAAAAAAAAAAAAAAAAAAAAAAAAAAAAAAAAAAAAAAAAAAAAAAAAAAAAAAAAAAAAAAAAAAAAAAAAAAAAAAAAAAAAAAAAAAAAAAAAAAAAAAAAAAAAAAAAAAAAAAAAAAAAAAAAAAAAAAAAAAAAAAAAAAAAAAAAAAAAAAAAAAAAAAAAAAAAAAAAAAAAAAAAAAAAAAAAAAAAAAAAAAAAAAAAAAAAAAAAAAAAAAAAAAAAAAAAAAAAAAAAAAAAAAAAAAAAAAAAAAAAAAAAAAAAAAAAAAAAAAAAAAAAAAAAAAAAAAAAAAAAAAAAAAAAAAAAAAAAAAAAAAAAAAAAAAAAAAAAAAAAAAAAAAAAAAAAAAAAAAAAAAAAAAAAAAAAAAAAAAAAAAAAAAAAAAAAAAAAAAAAAAAAAAAAAAAAAAAAAAAAAAAAAAAAAAAAAAAAAAAAAAAAAAAAAAAAAAAAAAAAAAAAAAAAAAAAAAAAAAAAAAAAAAAAAAAAAAAAAAAAAAAAAAAAAAAAAAAAAAAAAAAAAAAAAAAAAAAAAAAAAAAAAAAAAAAAAAAAAAAAAAAAAAAAAAAAAAAAAAAAAAAAAAAAAAAAAAAAAAAAAAAAAAAAAAAAAAAAAAAAAAAAAAAAAAAAAAAAAAAAAAAAAAAAAAAAAAAAAAAAAAAAAAAAAAAAAAAAAAAAAAAAAAAAAAAAAAAAAAAAAAAAAAAAAAAAAAAAAAAAAAAAAAAAAAAAAAAAAAAAAAAAAAAAAAAAAAAAAAAAAAAAAAAAAAAAAAAAAAAAAAAAAAAAAAAAAAAAAAAAAAAAAAAAAAAAAAAAAAAAAAAAAAAAAAAAAAAAAAAAAAAAAAAAAAAAAAAAAAAAAAAAAAAAAAAAAAAAAAAAAAAAAAAAAAAAAAAAAAAAAAAAAAAAAAAAAAAAAAAAAAAAAAAAAAAAAAAAAAAAAAAAAAAAAAAAAAAAAAAAAAAAAAAAAAAAAAAAAAAAAAAAAAAAAAAAAAAAAAAAAAAAAAAAAAAAAAAAAAAAAAAAAAAAAAAAAAAAAAAAAAAAAAAAAAAAAAAAAAAAAAAAAAAAAAAAAAAAAAAAAAAAAAAAAAAAAAAAAAAAAAAAAAAAAAAAAAAAAAAAAAAAAAAAAAAAAAAAAAAAAAAAAAAAAAAAAAAAAAAAAAAAAAAAAAAAAAAAAAAAAAAAAAAAAAAAAAAAAAAAAAAAAAAAAAAAAAAAAAAAAAAAAAAAAAAAAAAAAAAAAAAAAAAAAAAAAAAAAAAAAAAAAAAAAAAAAAAAAAAAAAAAAAAAAAAAAAAAAAAAAAAAAAAAAAAAAAAAAAAAAAAAAAAAAAAAAAAAAAAAAAAAAAAAAAAAAAAAAAAAAAAAAAAAAAAAAAAAAAAAAAAAAAAAAAAAAAAAAAAAAAAAAAAAAAAAAAAAAAAAAAAAAAAAAAAAAAAAAAAAAAAAAAAAAAAAAAAAAAAAAAAAAAAAAAAAAAAAAAAAAAAAAAAAAAAAAAAAAAAAAAAAAAAAAAAAAAAAAAAAAAAAAAAAAAAAAAAAAAAAAAAAAAAAAAAAAAAAAAAAAAAAAAAAAAAAAAAAAAAAAAAAAAAAAAAAAAAAAAAAAAAAAAAAAAAAAAAAAAAAAAAAAAAAAAAAAAAAAAAAAAAAAAAAAAAAAAAAAAAAAAAAAAAAAAAAAAAAAAAAAAAAAAAAAAAAAAAAAAAAAAAAAAAAAAAAAAAAAAAAAAAAAAAAAAAAAAAAAAAAAAAAAAAAAAAAAAAAAAAAAAAAAAAAAAAAAAAAAAAAAAAAAAAAAAAAAAAAAAAAAAAAAAAAAAAAAAAAAAAAAAAAAAAAAAAAAAAAAAAAAAAAAAAAAAAAAAAAAAAAAAAAAAAAAAAAAAAAAAAAAAAAAAAAAAAAAAAAAAAAAAAAAAAAAAAAAAAAAAAAAAAAAAAAAAAAAAAAAAAAAAAAAAAAAAAAAAAAAAAAAAAAAAAAAAAAAAAAAAAAAAAAAAAAAAAAAAAAAAAAAAAAAAAAAAAAAAAAAAAAAAAAAAAAAAAAAAAAAAAAAAAAAAAAAAAAAAAAAAAAAAAAAAAAAAAAAAAAAAAAAAAAAAAAAAAAAAAAAAAAAAAAAAAAAAAAAAAAAAAAAAAAAAAAAAAAAAAAAAAAAAAAAAAAAAAAAAAAAAAAAAAAAAAAAAAAAAAAAAAAAAAAAAAAAAAAAAAAAAAAAAAAAAAAAAAAAAAAAAAAAAAAAAAAAAAAAAAAAAAAAAAAAAAAAAAAAAAAAAAAAAAAAAAAAAAAAAAAAAAAAAAAAAAAAAAAAAAAAAAAAAAAAAAAAAAAAAAAAAAAAAAAAAAAAAAAAAAAAAAAAAAAAAAAAAAAAAAAAAAAAAAAAAAAAAAAAAAAAAAAAAAAAAAAAAAAAAAAAAAAAAAAAAAAAAAAAAAAAAAAAAAAAAAAAAAAAAAAAAAAAAAAAAAAAAAAAAAAAAAAAAAAAAAAAAAAAAAAAAAAAAAAAAAAAAAAAAAAAAAAAAAAAAAAAAAAAAAAAAAAAAAAAAAAAAAAAAAAAAAAAAAAAAAAAAAAAAAAAAAAAAAAAAAAAAAAAAAAAAAAAAAAAAAAAAAAAAAAAAAAAAAAAAAAAAAAAAAAAAAAAAAAAAAAAAAAAAAAAAAAAAAAAAAAAAAAAAAAAAAAAAAAAAAAAAAAAAAAAAAAAAAAAAAAAAAAAAAAAAAAAAAAAAAAAAAAAAAAAAAAAAAAAAAAAAAAAAAAAAAAAAAAAAAAAAAAAAAAAAAAAAAAAAAAAAAAAAAAAAAAAAAAAAAAAAAAAAAAAAAAAAAAAAAAAAAAAAAAAAAAAAAAAAAAAAAAAAAAAAAAAAAAAAAAAAAAAAAAAAAAAAAAAAAAAAAAAAAAAAAAAAAAAAAAAAAAAAAAAAAAAAAAAAAAAAAAAAAAAAAAAAAAAAAAAAAAAAAAAAAAAAAAAAAAAAAAAAAAAAAAAAAAAAAAAAAAAAAAAAAAAAAAAAAAAAAAAAAAAAAAAAAAAAAAAAAAAAAAAAAAAAAAAAAAAAAAAAAAAAAAAAAAAAAAAAAAAAAAAAAAAAAAAAAAAAAAAAAAAAAAAAAAAAAAAAAAAAAAAAAAAAAAAAAAAAAAAAAAAAAAAAAAAAAAAAAAAAAAAAAAAAAAAAAAAAAAAAAAAAAAAAAAAAAAAAAAAAAAAAAAAAAAAAAAAAAAAAAAAAAAAAAAAAAAAAAAAAAAAAAAAAAAAAAAAAAAAAAAAAAAAAAAAAAAAAAAAAAAAAAAAAAAAAAAAAAAAAAAAAAAAAAAAAAAAAAAAAAAAAAAAAAAAAAAAAAAAAAAAAAAAAAAAAAAAAAAAAAAAAAAAAAAAAAAAAAAAAAAAAAAAAAAAAAAAAAAAAAAAAAAAAAAAAAAAAAAAAAAAAAAAAAAAAAAAAAAAAAAAAAAAAAAAAAAAAAAAAAAAAAAAAAAAAAAAAAAAAAAAAAAAAAAAAAAAAAAAAAAAAAAAAAAAAAAAAAAAAAAAAAAAAAAAAAAAAAAAAAAAAAAAAAAAAAAAAAAAAAAAAAAAAAAAAAAAAAAAAAAAAAAAAAAAAAAAAAAAAAAAAAAAAAAAAAAAAAAAAAAAAAAAAAAAAAAAAAAAAAAAAAAAAAAAAAAAAAAAAAAAAAAAAAAAAAAAAAAAAAAAAAAAAAAAAAAAAAAAAAAAAAAAAAAAAAAAAAAAAAAAAAAAAAAAAAAAAAAAAAAAAAAAAAAAAAAAAAAAAAAAAAAAAAAAAAAAAAAAAAAAAAAAAAAAAAAAAAAAAAAAAAAAAAAAAAAAAAAAAAAAAAAAAAAAAAAAAAAAAAAAAAAAAAAAAAAAAAAAAAAAAAAAAAAAAAAAAAAAAAAAAAAAAAAAAAAAAAAAAAAAAAAAAAAAAAAAAAAAAAAAAAAAAAAAAAAAAAAAAAAAAAAAAAAAAAAAAAAAAAAAAAAAAAAAAAAAAAAAAAAAAAAAAAAAAAAAAAAAAAAAAAAAAAAAAAAAAAAAAAAAAAAAAAAAAAAAAAAAAAAAAAAAAAAAAAAAAAAAAAAAAAAAAAAAAAAAAAAAAAAAAAAAAAAAAAAAAAAAAAAAAAAAAAAAAAAAAAAAAAAAAAAAAAAAAAAAAAAAAAAAAAAAAAAAAAAAAAAAAAAAAAAAAAAAAAAAAAAAAAAAAAAAAAAAAAAAAAAAAAAAAAAAAAAAAAAAAAAAAAAAAAAAAAAAAAAAAAAAAAAAAAAAAAAAAAAAAAAAAAAAAAAAAAAAAAAAAAAAAAAAAAAAAAAAAAAAAAAAAAAAAAAAAAAAAAAAAAAAAAAAAAAAAAAAAAAAAAAAAAAAAAAAAAAAAAAAAAAAAAAAAAAAAAAAAAAAAAAAAAAAAAAAAAAAAAAAAAAAAAAAAAAAAAAAAAAAAAAAAAAAAAAAAAAAAAAAAAAAAAAAAAAAAAAAAAAAAAAAAAAAAAAAAAAAAAAAAAAAAAAAAAAAAAAAAAAAAAAAAAAAAAAAAAAAAAAAAAAAAAAAAAAAAAAAAAAAAAAAAAAAAAAAAAAAAAAAAAAAAAAAAAAAAAAAAAAAAAAAAAAAAAAAAAAAAAAAAAAAAAAAAAAAAAAAAAAAAAAAAAAAAAAAAAAAAAAAAAAAAAAAAAAAAAAAAAAAAAAAAAAAAAAAAAAAAAAAAAAAAAAAAAAAAAAAAAAAAAAAAAAAAAAAAAAAAAAAAAAAAAAAAAAAAAAAAAAAAAAAAAAAAAAAAAAAAAAAAAAAAAAAAAAAAAAAAAAAAAAAAAAAAAAAAAAAAAAAAAAAAAAAAAAAAAAAAAAAAAAAAAAAAAAAAAAAAAAAAAAAAAAAAAAAAAAAAAAAAAAAAAAAAAAAAAAAAAAAAAAAAAAAAAAAAAAAAAAAAAAAAAAAAAAAAAAAAAAAAAAAAAAAAAAAAAAAAAAAAAAAAAAAAAAAAAAAAAAAAAAAAAAAAAAAAAAAAAAAAAAAAAAAAAAAAAAAAAAAAAAAAAAAAAAAAAAAAAAAAAAAAAAAAAAAAAAAAAAAAAAAAAAAAAAAAAAAAAAAAAAAAAAAAAAAAAAAAAAAAAAAAAAAAAAAAAAAAAAAAAAAAAAAAAAAAAAAAAAAAAAAAAAAAAAAAAAAAAAAAAAAAAAAAAAAAAAAAAAAAAAAAAAAAAAAAAAAAAAAAAAAAAAAAAAAAAAAAAAAAAAAAAAAAAAAAAAAAAAAAAAAAAAAAAAAAAAAAAAAAAAAAAAAAAAAAAAAAAAAAAAAAAAAAAAAAAAAAAAAAAAAAAAAAAAAAAAAAAAAAAAAAAAAAAAAAAAAAAAAAAAAAAAAAAAAAAAAAAAAAAAAAAAAAAAAAAAAAAAAAAAAAAAAAAAAAAAAAAAAAAAAAAAAAAAAAAAAAAAAAAAAAAAAAAAAAAAAAAAAAAAAAAAAAAAAAAAAAAAAAAAAAAAAAAAAAAAAAAAAAAAAAAAAAAAAAAAAAAAAAAAAAAAAAAAAAAAAAAAAAAAAAAAAAAAAAAAAAAAAAAAAAAAAAAAAAAAAAAAAAAAAAAAAAAAAAAAAAAAAAAAAAAAAAAAAAAAAAAAAAAAAAAAAAAAAAAAAAAAAAAAAAAAAAAAAAAAAAAAAAAAAAAAAAAAAAAAAAAAAAAAAAAAAAAAAAAAAAAAAAAAAAAAAAAAAAAAAAAAAAAAAAAAAAAAAAAAAAAAAAAAAAAAAAAAAAAAAAAAAAAAAAAAAAAAAAAAAAAAAAAAAAAAAAAAAAAAAAAAAAAAAAAAAAAAAAAAAAAAAAAAAAAAAAAAAAAAAAAAAAAAAAAAAAAAAAAAAAAAAAAAAAAAAAAAAAAAAAAAAAAAAAAAAAAAAAAAAAAAAAAAAAAAAAAAAAAAAAAAAAAAAAAAAAAAAAAAAAAAAAAAAAAAAAAAAAAAAAAAAAAAAAAAAAAAAAAAAAAAAAAAAAAAAAAAAAAAAAAAAAAAAAAAAAAAAAAAAAAAAAAAAAAAAAAAAAAAAAAAAAAAAAAAAAAAAAAAAAAAAAAAAAAAAAAAAAAAAAAAAAAAAAAAAAAAAAAAAAAAAAAAAAAAAAAAAAAAAAAAAAAAAAAAAAAAAAAAAAAAAAAAAAAAAAAAAAAAAAAAAAAAAAAAAAAAAAAAAAAAAAAAAAAAAAAAAAAAAAAAAAAAAAAAAAAAAAAAAAAAAAAAAAAAAAAAAAAAAAAAAAAAAAAAAAAAAAAAAAAAAAAAAAAAAAAAAAAAAAAAAAAAAAAAAAAAAAAAAAAAAAAAAAAAAAAAAAAAAAAAAAAAAAAAAAAAAAAAAAAAAAAAAAAAAAAAAAAAAAAAAAAAAAAAAAAAAAAAAAAAAAAAAAAAAAAAAAAAAAAAAAAAAAAAAAAAAAAAAAAAAAAAAAAAAAAAAAAAAAAAAAAAAAAAAAAAAAAAAAAAAAAAAAAAAAAAAAAAAAAAAAAAAAAAAAAAAAAAAAAAAAAAAAAAAAAAAAAAAAAAAAAAAAAAAAAAAAAAAAAAAAAAAAAAAAAAAAAAAAAAAAAAAAAAAAAAAAAAAAAAAAAAAAAAAAAAAAAAAAAAAAAAAAAAAAAAAAAAAAAAAAAAAAAAAAAAAAAAAAAAAAAAAAAAAAAAAAAAAAAAAAAAAAAAAAAAAAAAAAAAAAAAAAAAAAAAAAAAAAAAAAAAAAAAAAAAAAAAAAAAAAAAAAAAAAAAAAAAAAAAAAAAAAAAAAAAAAAAAAAAAAAAAAAAAAAAAAAAAAAAAAAAAAAAAAAAAAAAAAAAAAAAAAAAAAAAAAAAAAAAAAAAAAAAAAAAAAAAAAAAAAAAAAAAAAAAAAAAAAAAAAAAAAAAAAAAAAAAAAAAAAAAAAAAAAAAAAAAAAAAAAAAAAAAAAAAAAAAAAAAAAAAAAAAAAAAAAAAAAAAAAAAAAAAAAAAAAAAAAAAAAAAAAAAAAAAAAAAAAAAAAAAAAAAAAAAAAAAAAAAAAAAAAAAAAAAAAAAAAAAAAAAAAAAAAAAAAAAAAAAAAAAAAAAAAAAAAAAAAAAAAAAAAAAAAAAAAAAAAAAAAAAAAAAAAAAAAAAAAAAAAAAAAAAAAAAAAAAAAAAAAAAAAAAAAAAAAAAAAAAAAAAAAAAAAAAAAAAAAAAAAAAAAAAAAAAAAAAAAAAAAAAAAAAAAAAAAAAAAAAAAAAAAAAAAAAAAAAAAAAAAAAAAAAAAAAAAAAAAAAAAAAAAAAAAAAAAAAAAAAAAAAAAAAAAAAAAAAAAAAAAAAAAAAAAAAAAAAAAAAAAAAAAAAAAAAAAAAAAAAAAAAAAAAAAAAAAAAAAAAAAAAAAAAAAAAAAAAAAAAAAAAAAAAAAAAAAAAAAAAAAAAAAAAAAAAAAAAAAAAAAAAAAAAAAAAAAAAAAAAAAAAAAAAAAAAAAAAAAAAAAAAAAAAAAAAAAAAAAAAAAAAAAAAAAAAAAAAAAAAAAAAAAAAAAAAAAAAAAAAAAAAAAAAAAAAAAAAAAAAAAAAAAAAAAAAAAAAAAAAAAAAAAAAAAAAAAAAAAAAAAAAAAAAAAAAAAAAAAAAAAAAAAAAAAAAAAAAAAAAAAAAAAAAAAAAAAAAAAAAAAAAAAAAAAAAAAAAAAAAAAAAAAAAAAAAAAAAAAAAAAAAAAAAAAAAAAAAAAAAAAAAAAAAAAAAAAAAAAAAAAAAAAAAAAAAAAAAAAAAAAAAAAAAAAAAAAAAAAAAAAAAAAAAAAAAAAAAAAAAAAAAAAAAAAAAAAAAAAAAAAAAAAAAAAAAAAAAAAAAAAAAAAAAAAAAAAAAAAAAAAAAAAAAAAAAAAAAAAAAAAAAAAAAAAAAAAAAAAAAAAAAAAAAAAAAAAAAAAAAAAAAAAAAAAAAAAAAAAAAAAAAAAAAAAAAAAAAAAAAAAAAAAAAAAAAAAAAAAAAAAAAAAAAAAAAAAAAAAAAAAAAAAAAAAAAAAAAAAAAAAAAAAAAAAAAAAAAAAAAAAAAAAAAAAAAAAAAAAAAAAAAAAAAAAAAAAAAAAAAAAAAAAAAAAAAAAAAAAAAAAAAAAAAAAAAAAAAAAAAAAAAAAAAAAAAAAAAAAAAAAAAAAAAAAAAAAAAAAAAAAAAAAAAAAAAAAAAAAAAAAAAAAAAAAAAAAAAAAAAAAAAAAAAAAAAAAAAAAAAAAAAAAAAAAAAAAAAAAAAAAAAAAAAAAAAAAAAAAAAAAAAAAAAAAAAAAAAAAAAAAAAAAAAAAAAAAAAAAAAAAAAAAAAAAAAAAAAAAAAAAAAAAAAAAAAAAAAAAAAAAAAAAAAAAAAAAAAAAAAAAAAAAAAAAAAAAAAAAAAAAAAAAAAAAAAAAAAAAAAAAAAAAAAAAAAAAAAAAAAAAAAAAAAAAAAAAAAAAAAAAAAAAAAAAAAAAAAAAAAAAAAAAAAAAAAAAAAAAAAAAAAAAAAAAAAAAAAAAAAAAAAAAAAAAAAAAAAAAAAAAAAAAAAAAAAAAAAAAAAAAAAAAAAAAAAAAAAAAAAAAAAAAAAAAAAAAAAAAAAAAAAAAAAAAAAAAAAAAAAAAAAAAAAAAAAAAAAAAAAAAAAAAAAAAAAAAAAAAAAAAAAAAAAAAAAAAAAAAAAAAAAAAAAAAAAAAAAAAAAAAAAAAAAAAAAAAAAAAAAAAAAAAAAAAAATBQAAAAAAAAAAAAAAAAAAAAAAAAAAAAAAAAAAAAAAAAAAAAAAAAAAAAAAAAAAAAAAAAAAAAAAAAAAAAAAAAAAAAAAAAAAAAAAAAAAAAAAAAAAAAAAAAAAAAAAAAAAAAAAAAAAAAAAAAAAAAAAAAAAAAAAAAAAAAAAAAAAAAAAAAAAAAAAAAAAAAAAAAAAAAAAAAAAAAAAAAAAAAAAAAAAAAAAAAAAAAAAAAAAAAAAAAAAAAAAAAAATYwbBQAAAAEwAAUAAAAAAAAAAAAAAAAAAAAAAAAAAAAAAAAAAAAAAAAAAAAAAAAAAAAAAAAAAAAAAAAAAAAAAAAAAAAAAAAAAAAAAAAAAAAAAAAAAAAAAAAAAAAAAAAAAAAAAAAAAAAAAAAAAAAAAAAAAAAAAAAAAAAAAAAAAAAAAAAAAAAAAAAAAAAAAAAAAAAAAAAAAAAAAAAAAAAAAAAABMAAAAAAAAAAAAAAAAAHGtU8lAca5E+vp5gNcifX08wGuRPr6eYE9dhe7wNdhe7wR7rwvd3xK/DP0Duxcn2wjs/Jz9D40/VPc3u6P52nlcf91xrDD1X4V+3kb8Yoz8mtpKXqywr9u4v4y18v4iPKf1S+aHgb7q7u/G6OPuMf0/5/q45ZL5qGT/AO667vxmjpyOZ/RflcKfzXMn/wB2F2/jLnk8w+kO/KWWPzZ8mP3aXf8AjFHfyrNvo6/cYWHzasl/3c3b+MUdfKc3c8vh+h82rJh93t3fjB5Rmn0OVsfQ+bVkw+727vxg8ozT6HK2Pox+bpku+727PxijnynM/p/z/Vzyvj/Rl82rJf8Adzdv4xRx5Tm7jl8P0Pm15L/u4u38Zov5Tmn93/Z15fCp817Jj93t2/jLPyeYfR25S05+a5k/+6+7vxijt5Vmn0c8rYU+ahk/+667vxmjjksw+jjlrH0Z/NEwT91d3fjNP97jl5+jjlZZ/NCwX91l3fjVHHJZl9P+zjlcP0PmgYO+6CL+MueSzP6OeUwq+rPDH26jfjJy2Jzysq+rPDH27i/jLn7jGctjPVphn7cxvwj7jH9Dlsf0c+qa5ftxH/CPuMf0cctiPVNcv24j/hH3GP6HLYlu7dy+746CLjuxcn2wjunJz9D41O6l3+66OeUxOPihlrsL3e7OTXYXu8DXYXu8DXYXu8FNcifX08wONch+7KfhA51yJ9fTzAa5E+vp5gNcifX08wGuRPr6eYDXIn19PMBrkT6+nmA1yJ9fTzAa5E+vp5gNcifX08wGuRPr6eYDXIn19PMDnWqeSgGtU8lANap5KAa1TyUByADjWqeSgGtU8lAca5E+vp5gNcifX08wGuRPr6eYDXIn19PMBrkT6+nmA1yJ9fTzAa5E+vp5gNcifX08wGuRPr6eYE9dhe7wNdhe7wNdhe7wNdhe7wZ65D92U/CBzrkT6+nmA1yJ9fTzA51qnkoBrVPJQHIKAAAAAAAJgoAAAAAAAAAAAAAAAAAAAAAAAAAAAAAAAAAAAAAAAAAAAAAAAAAAAAAAAAAAAAAAAAAAAAAAAAAAAAAAAAAAAAAAAAAAAJgAAAAA41qnkoCPLve7o1NFpMpUHXzMaYWhb5fUanXJX5fFK/KzLUm5T8n8PfMX3byf7TRxFPMPo5irZ+jRmZdskEPfMeXdyf7RRojKcz+ikVLENCXnJ5FInsspV3U4rxlOYTPXCRlVqd2rLzrsg0PnrlNu6nF3jIM1nfD/ALOYyuy1vnyMg33exnPy7mK/lVhq/Pq5A/uuo0/KWaHlthrVz5Mg0Smit+tPyjmbr5bYlD5/rIL9v6+dz8j5m0+R2U/n/cg32xkeY+R8zceR2k/0QHIN7uk+Zx8qZkeRWEf0Q3Il9deX4s0/I+ankVhP9ENyJfXXl+LOfkfNDyKw1JnZG8iUOu43j+LHyPmcOPIrDV/RNcj32ivr8WW+Rcy+v/ZbyPx0P0TbJb9yN8ufw7zM8j8drfooeTn7gr5c/h3mZ5H46P6KLk6+4S8Wn8Osy+rjyW01/wBFDwL9wl4fjVP9zv8Ah3mjT5H4/wBGH6KJhX97WT+MUR/DnF/e/wCzn5YtI/optw/vZ2/41/6D8Ocf1/7OnkVhD9FD/wD6Y0/vP/0NP4c4vqeSwj+ihW/72P8A+af/AG2b8O4aPJYateyh4jrueTOP+Nf+hr/DtxOSYZ//AGj+ih4w+4KN+Nf+g/Dw8jw/RH9FBx5+9/F/GXP4fS7fLUpfommUr7j7t/GWj8PMrW+Wsbn9E5ym/cjd/wAbp8iYf+SfLEI/onGU77krtdvw8Plk/RJ8rP3P3c5+SMqdfIf6J/ok+Vr7QXa0/h3lX0ceR/0c/oj2W37QXc4+RsrdvJKx+iPZbftBdx8jZWeSVk/0RzLX9z92+Y+R8tPJazj9Eey1+4buc/I+VufJKp+iOZa/tbdx+HWVuPJayP6Ihl49wXd+KuPkfLGjySs5/RDsvX2vu/8AF2j5Gyxx5JWP0Q3Lz9bd34s5+Rsr/wCauPI6zn9EEy9eS7vxU+RssdvJax+iCZevJd34qfI2WHktZx8/rl3923f+KufkbLXHklZL5/XL17tu78VPkfLTySufP65evdt3fip8j5aeSVz5+fLz7vj/AIs5+R8tPJKx8/Pl6+3sb8WPkfLTySsl8/Pl5+3sb8UavkXLHHl1X6OPn2Mu/wBvafiifyflP0ceW1Smevl4l7L7p+KuY4PyqNoPLqsHz5WWr7enyhlX0c+XVkvnycu/3WU8x8oZV9Dy6qfPe5efuto5+UMr+h5dWPnvctf3WSPOfKOVfQ8urJfPYZbfu+kOPlHKzy6sfPR5a/u+k+d2+UMsPLqyXz02W37vZTR8n5X9IX8vrpfPL5X/ALvLyc/KGWHIVkvnicr33eXkfLuWfRn8srpfPEZXpmzHl4NMcN5VG0Q6+W1j5vuVP7vLx87n5dytp8trpfNsypfdZeP405+XstZvLazV+bBlE+6u8WnyrK/ov5XWS+anjn7rZLnyzLTyqsj81HFP28ktPleWuPK6x80TFP29kHleWuPK6yfzRMU/b2Q48rxHldRL1V339v5Dty0nLJeqqX7vktPLS45U9VUv3fU5aTlT1VS/d9TlpOVPVVL931OWk5VX1UV93fkOWk5Zq+qqvu+jTy0OOVlD1Ue/quvKtHLQl6qZv2wOWk5WWt6qZnu6nmauWhxysuv9Vk73dV15Vo5U9Vk73dU5U5Vqeqqb7u+Np5V15VL1c3z7vo55WTlZJmOb60b/ACHHKycqx9XV8fb2387jloaPKWHq7vv7fSfM55X+rjlWl6u73+3sho5dz5Sy9XeJ/t9I8zNy8nlKXzRsT/b6Q55Y5aWPzR8U/dbI87pyrRytRz80bHf3WSPxp25XLHHK1kvmrY6+6y8fxlxy+WOfKqyHzVso/wB1t4/jRy+WHlVZb5suVP7u7x/GTyrLGbyut9Ufm55VPu6vD8aceVZY0+V1m5837K/93d4/jTN5Rlf0hDy2s5rnGZb4e3KVeP40zfL2Wy58truPnmcvn75N4/jK/wAt5T9Dy2v9Vfnmsvn75d4/jLP8uZX9Ic+XeAfPTZxf770/8aPl7hj+UceXeF/eV+e3zi/3y7y/GnPylwx9XPl/grfPiZw8Oun5pV4sk8IZXPZzyFdx89tnNfvt3i2fKXDLjy/wHPz4mct++5eLJ8pZb/KHIV/7zj59HOV1L6bl4Hynwx/KHkfg/VL59POZ/fIvLztXynwu48k8H6ufn085OH//ABdvBm+VMt/lHPkXgfVn8+/nSfvuXj5nX5H4Y/lHbyTwf7x8/ZnSfvmXifI/DH8oeSeD/ePn7M6T98y8T5H4Y/lDyTwf7x8/1nRfvm3h5j5H4Y/lHXyTwvq5+f4zrv3zLw8zN8j8MfyaHkng/VP5/jOu/fLknyPwx/JufJfC/vH6ITnP/vnSXPyRl38meR1/qp+iJZ1v75dufI/DH8m48j8D6n6IlnW/vl258j8MfyZ5H4H1S/REs6398yR5j5H4X/k3Pkng/VP9EWzsf3yZHncfJHDJ5L4LX/RBs6798y8Gn5H4Y/k1/JPB+rL5/wBzsf3yby/CZfkfhhz5L4P1Pn/s5399y8fO5+R8u/lHHkngfVx8/wCZ0n75N4+dq+R+GHHkvhufn/c5H99y8POy/I+Xfyh5L4H95x8/XnLfvtXg1fKnDP8AKHkfg/U+feziP3yrwcfKWWfT/seR10vn184f99m8fO4+UMs/o0eR1z58fOM/fJvH8ZdvIOGTyLwT58fL1++TeP4y1fKWWM3kdZx8+Nl+/fJvH8aPlPhhp8k8D6p/PT5fP3ybx/GXT5dypx5dX+p89Tlt/fKvH8aavlzK/pDjy6ufPN5fP3yry/GXHy5lZ5dXV+edy3fvk3j+MO3y7lf0c+W1/q2vnqMvf7794/jTn5ey3+UceXV/q2YWdxnE/vmXh+Ms3ylwx/Ju3kfg/V2kLPSzlYlPpmT2WOBeF4/9mTkngzvLs4efZnJROauUq1r10dvkbhiP/ZuJyKvO7uofZGM6KH7LFMavXFZfw84YRnhnwJ3d5cvZQM4SLzT+Td0j+zPNufZflqXy1Wnd30HssuVXk00SsP3dbdVHmz9mOV4mL5PxO7hdllxFSui+sBxuElmn7McU95R+T47u4p2W+6qc0zJlSnVef/22T8Icyj/3f/ZCeEPD/uu+uTsr+TKZT9esIz4/9oYLf2Y5phjSEo4PsvNrm7JLm6z6aJ9+28D4TR4drgfNMMadP9nl4cjsPYuDs57IRjXk/rBlLu62r8JfN2uHs0o7ww8t48x0h5zCve753NCmUtuphY1GMUbABQAAAAAAAAAAAAAAAAAAAAAAAAAAAAAAAAAAAAAAAAAAAAAAAAAAAAAAAAAAAAAAAAAAAAAAAAAAAAAAAAAAAAAAAAEwS16vQDxjE+WjJdgb6KMd3bB+ESVK2V6R+jh1/wA15q253epMadkizd8K95wrxk3v/N8fS+nrcE5nmMdXp1sjs4Xri+Oyo8mn0L5JZFf4+8ZL6DD9nfiR+adf8npfLLxOb2SnLXNpoh3BdsDhaPTw8D5bEN05JVns8cvvPpzk773PF0eB8GjPT+RstWnI67xaZl9ziL63zKXeP9mk9qehHDmVxs3eXV3Szcb5Rpm+Y9vm3/8Aqdo9TyjLIdOXrtGbyr5mb7PkW/8AaWn4pW5RHU69DU4U1TldBq55SFdU6a+dl+Jo5NXVa+Wpqcmy1OvQaOB1FFBzqdOl10kNTp0mkhqdOk0kNTp0mkhqdOk0kS1OvQaBqdeg0EdS9NDqGpemgDUvTQBqXpoA1L00ArqPJ9wu2khqPJ9wmkiepU+19XGorqdehzoGp16DQNTr0GganXoNA1OvQaBqdeg0DU69BoK6nTpNJDU6dJpIanTpNJDU6dJpIanTpNJDU6dJpI4dgBbUvTQ66yGpemg1kNS9NBrIal6aDWQ1L00GsjFqBl5KXb4mxqdeg0h1Yaa+Wrnkod/ihm6OgAAAAAACbYKM7OAx16nS0NDETZa76aR01S1ynSOdZca50/EzauNE9d1z/wDdpcJg41uaOdXOuV6BwjrvppA1300gyBjrvppBDXq9DTqJzJjhoS1300glMmA0p05pWauvU6TWXGsIa3Na3DKbN0sg05k1omWhLXOn4jUNc6fiNRq676aXATQS12Z5KeYEhoAT1yvQDV1300tmrjSFNc78/wDNjcsdcr0DQhrlOlr6s3U1ynSdTqprlOlkcpNCiYorrlOl36s3VTXKdLI5a2udPxNWrrq5+Vr6UOcg/wA3Dq1J65Xoc9GToa5XoOh0Q+V/0qec5tq0c69TpNZcfonPCq4cojoozjXFGu0JqM6jX79aE1GdRMTAAAAAa4or8pXy0derrzaTs7NgTa4o2BNjrvppHfSGQ6Mdd9NI76QtrlehjcmuV6GxxrDjW5oatrXZfkHPVXuzN8rL8Qd2ZvlanGra7r18lfOc4aOe7NPJTzBqv3Xp0nOtGkMtah+Srnm4Z9Ftbp5asnOOWGtU8tfO1c4ulDvjxGc45xxoz7vd+95Vc6sHKPK8KZyGWDDX0MY6vqw7R/znaPOucPZXmHSeryrOQ18L2pku7KRnIZPZejFs6Pf0H3PJ9btPw3ymbfZ7ld6daMPnrHDOPD+Z9j5FOyTZvOVGHYRL5v7uBO2aveNf++/Lc34HzWjPSNf93zVjL/HrPfFx4muTE8PXrjvGwkWFfq8eul8XiqxEPPjE7N2AFAAAAAAAAAAAAAAAAAAAAAAAAAAAAAAAAAAAAAAAAAAAAAAAAAAAAAAAAAAAAAAAAAAAAAAAAAAAAAAAAAAExMBQca1TyUB67yu5z2SHIrB1zHOK41hb02R/qj0q2UZlmMaVI1bamV2bH5nzPlG7KFe03t8LJdhLtH/OF4/8D9Cp/Z3ijeX0tfI8GLeHovG2cVnD5Q/2Yyl3j2n7Bd3rVm+2qcN5VRxa6dXtVctr1XiOqUm77OkSPhHrr0+SbdZU1SE16OFdS9NANvU6dILsYanXodtBbUvTQ6jHU+j43fSXTWFtS9NDjWXdLU6dLsK6jTpddRXU6+Wvmc6Q50YanXodHbSHGo16Byz1GnSONVtT6Pjd9HXojqNOl0dtXGp06Q6mp06Q6uNTr0Box1L00JudGSYAnqdehRxox1L00KaHRzqNegc6udTr0JuNFtS9NCZ0RUcgmTNvAd5NTr0BoKOQAADv0AFBMFBQExQTY6jTpHbWTUadI51WHRMUcajXoDVXU69DtpDp0TdnAAmoACYKAmmKAJqJgoommmoopqfR8bromm7ACgMdS9NDrqMnZNxqdfLXzGkDlMa+p16HfSHXWR0dk1E3Gp18tfM66u2jnU69Dno46jl3R1L00JqI6nXobBQGuCMyG0CczZTqTczu62You05jrOy0bsd8aN3VF2URmu0OssXV1a4JqAKJpqNeZt4NAJjGaDEE9FfLV252RjvrqOOeZXoQ3EmsEw1Po+NHQFgZwaBNQNT6PjBQE+aH6bQTABPU69AMO/OgHCYAmmCgw1OnSl1dtJcOXVPU+j43XR20Jm3g6uOyY7udS5Plc6SOdS9NDhz1YqOBNRHU6+WvmBTcwNS9NAMgY76DIADU69DNoajSMtSpMBkCbOm2NTr0Caiiiep16E0waHOp06Q6uAUBsChrlegU6gJgAhM278MyGnl9Pmcc4z8nUeU5O847L3khprmT7HV4WHaPF/bbO2Z7mU5XmEaTGsf1eXZyCtZ2famZp2Xnk5RsS2GTzLzcUeBb2+73xH9r/rvyniD7POR9BHV8ZmeS8tu+0boys5Or9lVgXLi277e3+w8mTTS/N/LMWHrOF4XL4oeR61TyUSQcgAAAoAAAAAAAAAAAAAAAAAAAAAAAAAAAAAAAAAAAAAAAAAAAAAAAAAAAAAAAAAAAAAAAAAAAAAAAAAAAACYJsY9e5W857JHkghWtMV4hsO30puNK+uV4Po8qyDM709HqV8rsWZ6Pj/Lx2QDK7j+moZN+T3AunwyPGa/8D9Q4d4Hy2l699b4GR1qv5XoqZrt9TNcvqdIt7e33i3kPv4wxhjSHrqanTpamhtajXoZxnqdPLTzJoaSpqXpocaw4bkOH5EogY6nXodnPRRNwKKOdTp0pps9T6PjcdTqOQFAFExRMTUAFATAAAATAHOp06XXSXHVJZyommCgmCgmoCYAKAAAAAAACgAKJibQmJqAKAmAAA0JjOoAoCYAACaaaigmmmooAAAAAAAAommmoKJptdQAAAAE02u0NCYJqCYNcUacyH35zKSohNhC8w65sctdRRrqCYJgmCeuV6HGom5UTBjNcRsMXQTUTTABzuXUmJKCiYAKCYJjQmmKDOKAAmJgAmoONTr5a+Y0gcpifiTp2BwAJg53513EnYEwBQGuooAJgKAAAAAKJgoAAMt8TGSgommmDL346/wBVGTqJqKKAKKCaYooJiaiYmNcGmoFnaTaskSx26jbhYgxVcsywvq5L8t7C3sPGNZc/FLP5TUfSubt2UfLTkkpSHlH/AOUt1eSTvNj/ACHx2a8E5Xen9SfI5pwzjj9i+0civZMM13LTKsblpi6tz3tyqbhfXrXx+wfmNvhXMqXbV8ray+xXfQUG9oF8wOTNu6bS3sLX2NvH2PnGNsgAAoAAAAAAAAAAAAAAAAAAAAAAAAAAAAAAAAAAAAAAAAAAAAAAAAAAAAAAAAAAAAAAAAAAAAAAAAAAADxTH+VDB2TC4rfFOLr6pHsLCnPRarSv2+mGGitUsWp6PjrL32Q/E+MuTb3Hkp5NIEHR+yEj2x+r8O8C6TrdfZ5ZklT/ANZ84TazL9vm3vu+58i3t7feJEj11+kxS5F72vLNrUaeRzzi+i2p06XLO29Tr0M7noy1L00DvoyE1AbACYAQx2hRndhRMABMUUATFAAAcbl1g5AAAATBMFATAAAE1AUAAAAAAAAAFATUFExNQUTAAAAABQExMFAAAATBMAAAAAEwUE0xRRMAExNoATTABQTATExRRNoTT1Po+Nja9E1HRPU69CgA09T6Pjc6Do772U6mtvl1bQqhM2cV+4k5Ua032VCdlHKYmommCYCY11FBMATBjvjvuMmRnY6l6aGvWGhkgzpqCgJ+ft+l0BwJqCjOJtAJiiYmCfv3oUAE/EnPYUcCaYAfDeAJgmNCgmA4ibQQFGWpemgNCEEMhNluYoxA1Po+M6gCjGJtAAomAAAACgJgoCagAooAomJgAmoAKM401AmbeCbO1wT1PU3ZnbMuPhi+oepTIHr7N0YeUh7Jzd87LOezZZf/ALPMdSL2urw3PfXrtl/xvns04Uy66+ezPIq+F+iuaP2SPJDnJ6MM31WuGMS/ae8K81t955f1R+U5vwtmtHC+NsZfgq9IfSr51kAUAAAAAAAAAAAAAAAAAAAAAAAAAAAAAAAAAAAAAAAAAAAAAAAAAAAAAAAAAAAAAAAAAAAAAAAABMAHofORz1cFZHbvtrjw3y6Xhf8ATbH0c1j/AC31WQcJZjmO+z28uyKxZno+IMqWV/GmV++e7ONb9pb08Xj09qsf5D9gynKPIn3Faty7x7U+j43vdW1u6nTpGdsanTpTUb0OElCblyAKAoCYKAAAM6gJigCgmAKJgACgJgoACYKAJiagJiagomJqCiYJg0AACYKQ9vAAEwUAAAAAAABQAAAEwUAAAAAATEwTUFGcATaAAh7eDrGziE3ZyommmooomAmmKCgmACYKCYACag51OnSHVx4km69lB1aczbwX7u/dNy5dfMcyPEb7m69NehL1Gq1gmomoJijXBMEwExNQGcTAExNMUUTE2W+dQ5Y+Hv1NwAmoCYAmAA0CaYomAAMN+dxJ0FBQABMTBQAAAFEwAczNnEO7gAHHPuXQOHKbllD2V6kxiCbQKM4omENz2B3E1BRMAATFAUAAUTAAGGt0dvikcOwJiagm0JqMaaYMNTp0nVNwzpnfkPcgbECfTkd+V1iwnWG7yI7Paq868uzV5p9jZonZTL3wDyYOTvL3Tuhd/tVhiCvttl/LfmnEHCms693wmY5Hyb9C8LYquPG1zWGKMKz48+Bb00x5Ed+dPCduAmKKAAAAAAAAAAAAAAAAAAAAAAAAAAAAAAAAAAAAAAAAAAAAAAAAAAAAAAAAAAAAAAAAAAAAAADRvC9ruuiDbTrwl0sbGPTTbW3K8DrFb6dyZfG+dDn/AMm951vk6yHTKdp0aLwvnR/2H6fw7wlhw4ecuR0h9blmRaf9XxnyvWs2dM12bXt9v4xIfrVOnyD6uZ+Jsw4Tkbmo9FEecd/hhfUvTQ7aOujaZ3CigoAACgAACYAJqCgAAJiiYAAAomCYNAmAAAzibQKJiiYm0CYKJgAoAAAAAAAJgoAAAAAAAAAAAACiYmmDQACYAAmoAAADODQCYJgAoJqCYAAKAmAJgJigJqCbXBMTaM2bo56tMy0Ojv6bp5mmq0VXir0nqAJg4m+yoTsIAmACYmmKCYAlM0zKO8jlAE0xQABNMUcb71pujAcAOOfcufYDjcwYgAmAAACgomBMFO4B3kJgJiigmmKEwO4CgAJgAmCiYJgAAAmACgNAJgoDOKJiagJqJqKKJgAoCYmACagm0JthjUa7QmJgmmozjXE09Tr0CbjkT5nI7ym+0OYnRC3U5t7lzXs8rK3mrTNdwvP7r4at/wBkMPyfqX8h8ZmvD8X9/wD9Pic0yH4X6gZt2dBkxzk8FWWKME3zye36O/7vrX1yJaeR+T5nVxUsUxO3aXytiryz2Y8VJsNgAAAAAAAAAAAAAAAAAAAAAAAAAAAAAAAAAAAAAAAAAAAAAAAAAAAAAAAAAAAAAAAAAAAmADxzKDlPwbkuwzbYnxvfUaDHsKc9eVVSnTzG3OkQtXrc1MaQ+CM6HO9xrl1lW2FMK8m3ujDVKbvSmi0mfy37Dw3wnl9PDHxT1fd5bkVaq9OQ4epP0J77s9Tp5aeZ10lDSW0k4bep18tfM40hzoq6OFFBzqdOlx1c6M3LgAAAFBMGcGgEwAABRMATBQGwCYCYKAAmAAJqCiYAmoADOCgJg0CiYmmKKCaYooJqAACgAAAKAmAAACYAKJjCZs4pdxmqJqACiYJibQJgomOdz9NqWw4VE1AATBMFABNQAEwTBQFBMAEwAT1yvQ76wm13I1wacxWR4jf8zmejUetVda1LGuV6HToJuBNQTBrgoCYCYmCmudPxIag7iaYAKAAmNdsFGNMBhqdOkddXA6pgCgAAACYAAoAb76bAAAAAAAIe3gAADHfQYgJgAmG+emwE1BRMExMFGwGcUTGOpemhQZJjHXfTSoMWgGdoEwAUBoBnGMzZTqdJ3GLgATUE2hNRnUBMTExNMBnTBNq7mI7vLcnWVPKBkVxnYZT8kN+9onWHt8f6nbWf2PlvGtZTF+JiY1iXzma5XzOz9TMyzPtyfZ1uDrDTWl34lsKfrhdFvt++ch+M5plWOnj/AKPgLFflYfQGtU8lHjJuQUTBQAAAAAAAAAAAAAAAAAAAAAAAAAAAAAAAAAAAAAAAAAAAAAAAAAAAAAAAAAAAAAAAa4KA9c5dsvGDMhGF7a+7/mcmsjR3vAp7ZbVbspyzNL/VsrZXgtTt0fnplsy240y74m9VOJ5vrFh+x93/AFOxfuOS5NGW4dMMP0GvllSu8Uh7eD6iHpuyhIJtoTbMPZxdY3F3YUAFFBMAFFBMABMUExQTTFABMUATAAFAAAUZxNQAUTE2gAATABQAAABMAUTE1AUAAAAAAABnFFBNMGgUTBQGcTaABMFExNQAAAUTBMTUABMFBNQAEwBNQUBMABMATUAAEwATBDXKdKh1ayghNmibpJ8zp+JqxbtFR4tM2cXoTu9xJ1Ta6gmAmAJpgJpqCjOJtAAJgmCgmoKM4mAAJgJiYDHw95DsyHZjqXpoHOjEdwAEwUE0xQAA7z/6cAAAAAAAEwAExRnE2gTFBnTUUBMFABz4nwBmmAAOO8+lz0HLgTUUAE1AABQEwBNQEwBNQUTEwJm3gommmKM6bXUTUTTTTGtCmzblQ2Q2dncN/YmwViWwyhZL791C9YHrrBZrc68TNcq5p+o+YJ2QnC2dXheuF7+0QcZwaaLwgaPbv4zkPyPPuHcWSYumz4DM/B+42fTb5FkUaBRQAAAAAAAAAAAAAAAAAAAAAAAAAAAAAAAAAAAAAAAAAAAAAAAAAAAAAAAAAAAAAATAB6xzhc5LBWb1hbuxfcylvNt6frfd31S2tG7KcpxXMXRtrV+afnPlFyqY0yv4nt8U42n9vt7fd4/1Kxs/sfIfuWT5TFGNIfpFfLJrNGFC0Pcd21CHaW1D28HPZ1bjgUBRQUFEwUE0wUFFBMFATAAcw9nFN2jdwOwmKNCabOoJgCgAAKAJjXUGwmACgmCgJgAozibQAAKM4m0ACiYmoAAAKM4moKJjXaBsJgAoDODQJs4NAAAAJgCagomAJqAmCYKACagAJgCYomoooM4mKJiagAmoAJgTA7tcATas1ol3jZrzR0daoo6W/wCbzczXUbqzoWl6SYJa9Xoc6ONWDhymCYKJgmzpgooJqAmCYjNBkAAACgJgCaYmy9+AyBMUUFE0xjO2cVBiDCXsCV4e3gM7XGhQAE9z790gAA4/Vb6DCZt4DiQcgAAMpoMQE1BnUR7+9NLY69VmN2TAUZ2cPbXrduw5WBnGXvx0GTgAAAAYbi7KOHUBQAAAABNQAEwBNQTaE02NRQZ00wTTBNrpjU3JHZDZnduLMTZPMZwcqGT2dqF6wJHe8iP/ANjl/wCgz2q3OvKzXKuZfrrmDZ8WGM7jJ1XkztXgYsgU/Xi6OT+c/kcp+JcQ5XOSTr2fmfjVorvot4yagAAAAAAAAAAAAAAAAAAAAAAAAAAAAAAAAAAAAAAAAAAAAAAAAAAAAAAAAAAAAAJgA9c5wmXTC+QXBVviu/dFbetNECN9UtbRvy3LsV6IiNm7K8qi1bfnBlVypYny1Ynt8bY3nev+Lx/sX8XyH7lw7lHI7Pv8tr8s6h7b03YJpthQbANiG7w6dlHLhQAUUEwUBNQAUUEwExRRNNNRRRNNMUUTE0xQAAAFAATZxRQAa6g2Gca7QKAAomJqCYKM4ooCgmCgCYA11BRnE2gUABRnBQATTFAGgTZxRQa6goAAmCYAKACYAJpg0AmAAAJqCiYmooCYmCYNAMYm2AAACYJgjNd42cRs09S9NCrolN9jRzI0J2zi4Hid9zdOx7j3HSptAACYJqJuZmzim7uE3ImmoJpgKAmAJgAoCYAAJgwm+xoDMZwAAUE1FExrtAmCnwLQ4FEBNQAc+btGhQSAAA+HcAAAAYwgYgoNCYKAmziagz3zrSHLoCiaaiYomozqKJgAAACaigmoKJiYCiYKAAAAmoKJiYAJqAmmmAJjONcTa4NdnTaM10kUycZU8Z5vWUODlbyXzu0ToEj1+w+y2f2PlsGaVvOsWr53M8r5io/aXMtzxMn2eLklscb4XpSPPsKdqvm59PrkS0fiGb5R5PmUxHd+d2PAmvg07PdLAiAoAAAAAAAAAAAAAAAAAAAAAAAAAAAAAAAAAAAAAAAAAAAAAAAAAAAAAAAAAACYAPE8rmVvC2SHBMzG2KpVLCPHp/0q9atNydI2Xq1ZtT/R+aGW7LZifLxlEt8a31WnaP8AN93/AGGzfvOU5PFDK9Ifo2WV5rVnj8KE9x6bfhQhJsJuWwCig2AUUTUAFFBMATBQUAATBNQABxzwa9Kjhym5AEwABQAAAAAAEwUBMFExNMUaABMFAAAAAGcGgTBQEwAUATAGuoNhMATTFGgExNQAEwTAEwUBMHO+emxxuOFRNQGcAAUBMAAE1FAABNQUTAFBMTUBMHEzbTrCdkARmqSSiom6yZNdnd1d9ztDqq8Mvqa9uZ0eo1XKgmoAAmAAmmJpqDQmJgmAAmCgJgAAmAAJgmAACgAmomoAJgoB4kmJqAAAAAAB7x+MAAAUABQTE0wTBQEwUTBMAABRMceft+ly4cuHIACaiiiaaaigmAoAAAmoCYAAAmoCYmJpgmDCZs4ibWTTTZxpppuuvmGmzvJM1nOjxnmf5WbDKjhad3jSvar/ALv91xnkcQZVF3pL5fPss+F+5mRXK/gvLtk6unKngid26De0ftthWtdn+g/ELVSaOOYl8FhxfFDzFFyoAAAAAAAAAAAAAAAAAAAAAAAAAAAAAAAAAAAAAAAAAAAAAAAAAAAAAAAAAACYOsxHftzYYuKRfd+TaR48ex7bb29fI58CPo5rw/NTOxzlL6zkMoVtZwadowzd9vou+P8AZv4zlv2zhPKeTy6cXd+n5HlnLVtHryHDfXvYdtDhDOumm2ExTU+j4xfRRodGwCiiagmoCYoJgzijQmKAmAoJgAAACiYx95gyAAA9/fEAAAAAABqepuNAcgAAAAAAAAAAmJpijQAAAAACYmmKNAJjXUGwmANdQbDOJgAm0CjOJgAAJgoJgAAAJiYDYON862bcVcjjUa9AvowHIAomM6Y2ACYANcE5gd2jM2U6lHHdoTtvBR0eNX3Nbab0JeJzXrvSndxrlOlHWHPVw6uRMUZxNQcbko43cpuXE7bwVhxLlJ0Ewh7eA6dgcJgbiADnXeT5BzrLgcJ/AeIAAAmAAAAx3zqFHGu8nyA4BzqdOkHAMZ2ziDEAAFATBQAGMIIYgJiagoKAoAmAziagooDOONy612dnqXpoQGKgAKCjOJps6g0AAAAAJigKAAJqAmKAmoCYAmoCYmCagmmm11BNnTQnbOLo4nZrI3N3RrzNnFBN0N9Q9dB9U9iMz4peb9lN+YNlDn/8ksTSO8beR4nJ/wDU+F4syr4sM3H5pnmV6x8L9iNer0Py1882QAAAAAAAAAAAAAAAAAAAAAAAAAAAAAAAAAAAAAAAAAAAAAAAAAAAAAAAAAATB8HdkOzofVlfPzEMDTv1psP2YkR/q1p9jfpPCXD2KY5593kOVxh/6vjvmqHDfqb6120NNNtal6aDRNtJiiiaiiaiajYAUFBMUAUUExMFAAFBMUAAAATABMAAAAUBMAAFEwABNQAAAAUZwUBMTaABRnE2gEwUAAAAAAAAE2cUUAE0xQE1ATABQATTABMTUAAABMAATUABoFGdRNNRQBQTAUTFE0wATBOZt4DiWvMCd2rNHEOqmzWh1eK3/M5no1HpVXQTGqWpruVFE1BMAEwBjrlPJTzgxUBMTE1BQGcBMFABoTGcBMAFBNMTUFAGO59QoxAAAAABMFATBQADv0ABMUZxNQTaAFAUAATTTBQATBRnU8STAAABMAAAAAAATBMaBQUTEwFATBsBnBMATBNQTaBNnGummmmNcGumm0002nMZ0ZeL3rHpZ80Od2i2sPaGfVit1Itv2J7EFnpUzkMi/wAz3Gt49uxZhGnaratfbJcb9xaPx3irKop5jq/Lcwr8tY0fY751kUAAAAAAAAAAAAAAAAAAAAAAAAAAAAAAAAAAAAAAAAAAAAAAAAAAAAAAAAAB83Z+GdHCyK4Hpgy451PVLfPJpZR6U+pWf2R9LwrlWK/PO4o6R/v/AOH0eRZXzFv76f2b8/Ilfd1e32/jEj7M/dqdN+izLu4UJ0TdimKw9nEdY3XEVFABRQbDOCgooAKCYAAoAoAoJiagmCgJgA0JjOoJgCgAAACYAAKAmJqACgJgyhJjIAE1Bxz7lz7AcgomJgx1300pOdZZKuFEwBNoABMUTE2gAEwAATEwUBMABQTUBnBMTUAAAABMc7k7bNDh1Z01AAFAFBQBh5u0aHQcO4momKJgKA1wTE2uKOrmbeDvLidnSzVXR4fM78q9zd7jQnbeDpC8uUnQmbeA7TsDsJgCYAJgTATE1ABMBxuXWDkAATY+Od5jnv0YjuCagm1xoUAABlCdI3GTMJtgAAd+gAAAAmCgCY43zrBymJgn360CiagoCYmoACYAAozpigomMdzBiAAADiZtp1uZHEIgcQ9nFwOAAABRMUUE01FAAFExMAAEwTUEwTTEdzBFnGtM28HaHaN2CLq05gztdnZ3j8yGDybNZzhsTZpOXW6cruF6+sx5Har3j/Zo3L9m+ez+vzeWvls9yvmcT998mWUbC+VjA11ZSMLTe3wL1i2dtH/r0fiNqpyOPR+eRi+J5G7igAAAAAAAAAAAAAAAAAAAAAAAAAAAAAAAAAAAAAAAAAAAAAAAAAAAAAAJg8Syt5TriyRYAvDKNifldpsLvj9s5q+2LVKfN34wr1avNWdH5RZSMqV8ZecoU/KFin2+33eP9hs/3D94ynKOR2fquV1+WbV3wtL3oVtu0hw2dy2B2bMPZxBcFFGcUFEwaE1GdRRQUTABQExRRMUABNQBRnE1BRMTaATBMZQ9lepzG4ycAAAAAAAADiu2w62ccqACagomACYKCagAyhJjIAEwFBRMYc25c2126jh2BMTTGwCbQKJgmAAJgmAAAAADXBRMTUAAAACHt4OI2B0UFBNNNRRoTATFFAATE1ABrtA2BnTE0ZmynUO6I5aczbwc9nWdmnMaJdXjN87eDTOzQ8WmbOL0u71Gsm0CaYmmmKAoAmAADGEDETAUEwEwUEwTTBQExRMUUEwUATBQAGwCYJgAAA5hexqDgAFGca7QNhnE1BOYp3BMAUTGEzZxWkcOon367dQdVFGdMUE1BRMUTAAE/hvByDgAAATBlM2U6mdzO7FocCYAAKAKAJigAoCYAxmgxBMEwGdoaaibXUE0xrqJozWeHSWnNY0Z2aMzZxZ+6Dx6+Yft+kZ36E9glzx7OLLnZomNp1dFv35ha3t/L+7jvzXjTLJn9dfnGdZZyv6L9SHwrwgFAAAAAAAAAAAAAAAAAAAAAAAAAAAAAAAAAAAAAAAAAAAAAAAAAAAAAa4KA/Orsm+cTTKZlBj5D8Lz/wBabo9dvCv2aT9j/qv0ngnKdcej9E4Yyv8AVPv3z9ct3an4H6jGF9JzbyKHDRYW9B2cRaFhRQFAbDQzqCaiagoKJiiiYmAooomAKJiagKKM4moAACYKCiYAAAAAAAAAAAJgoCYmoKJgmCg53LqBwoCYAJgoAOOfcgcpibQKM4nvwCgoAoDOI+PenldewydhxM206ydhgAAAAmJqAAAAmJqAAmAAoCgM4KCigAAmJqCgMN9dNxw7gCYmmom11Brg69QdfNm6VE3iN9TfI9B6jpRoFBNNQAFAEwAATABMAFPEh07KCSYAAmAAmKAAKAmCgJgoCgKAmCYAAAAACYy3x0GLgAAATaBRnABMTUBMFBRMTUFEwABNRMTUAAAATATABMAFAAUAUBQABMAE1ATEwTBNNRrqKJpjXE0JmynUmITU02qmm0999NiO7M6ybCQdGhhLG+JskONrqynYLndovW6bwsrWOz2qnOy8rNK3M1X7/Zo+cJhnOcyD3FldwzM5Ntr0fv7R9RkU9nZvwrNa808Wj8u8ety0vaCKKgAAAAAAAAAAAAAAAAAAAAAAAAAAAAAAAAAAAAAAAAAAAAAAAAAAAAJg9N562XmFkKyQTbyg1/XS8Kard1PLaPWyGpFzMtHt5DU5q3E/R+YkOsyfMt502dW3nW/rsiQ/e6dPWX6dOLlHfwoTWzOwTTdgmKCiigooKKJrbn1OuybJ1UUE1AExRNNNRRRNNRRQEwUTFBQGcFBQGOpemh11kZOoAAAfDdDkHAAAAAAAAozibQKM4m0AmAAON9UHIDOOdyWHCIKAoJgAz1Ovlr5nTQNy+/pDAFAFABlzb66dRFwAON86zcYAAAAmAAAAAmJqAmAoACgoCYKAAAAmJqAAAmJgx1L00KOmkpTNnFoSRnbeBDvLV1ynSOWhNJdo3dLfc7Umh1eJzHoNjrty6xocgmKJigDiZNBUEwUBMEwANTr0DpoDhxuQmxmbOIMwAAAY7kDIAAAHO+g4AABQAAEwAAAAATATFExSuy263WBPxI7A7AmGuV6HPQHcTaBlqXpoZxkmAAONT1xyOXAA1xnUFGO5O6bJ0aAHG+dYMAE1Gep18tfMromg4FGcBQUTFAFAUATUBMATUBMTBME2NoTbBNnGuDTmbOI6zu1x1RmoxuztVFna8zZxZ+6bob6huB9f9hWzx+TkNysVzdscTO03Die30XTbSPqU3/1PheKcsm5GkR/g+E4my34Z+/fse/NnxyYNgAAAAAAAAAAAAAAAAAAAAAAAAAAAAAAAAAAAAAAAAAAAAAAAAAAAEJNpyI0SvKlcrTSm2oPy6z6MvEvLtlqt4EDk9uum4PWrvpT6rafu7R+x8J5TNPF1fq+RVoqVNIetrhhc/O+4w7PRtvIIcNnRb8Jy5nZYdFAUE1GhQE2womomCaigCYoJigAomoCYKAJgKCiYAAoCYAAAAAAAAAAAKJgACaYKDn3l0qDgADx0AABMFATAABQE1BNMAUBQEwTEwATAABQUa4moCYKACiYAJgJgooAAAAAAJiYKKCYCYmACYJtCbWmbadZI1pqiMOp1zp+JoWeO3zMXleXjc1pVa80WjdiOyYoCgAAAAAACYAmAmJgAAKAAmCgAMN9BmAAACgmAy59yFGImAAmKAOYXsag4Bn45xZxgoKeJI9hPxJ2ABMAAFAATADxICHt4Oew4h7a9buOUxxM2063MjB3TE1HHh7yc9nDlw5AAPgWhwKICYJqAmAoCabQKCgKAJgAmoCYmoCYmCaaiYommNcGmommDXZ02umztdNN18yGzpvGb1tJlxS7C+bmndonQZFla2Fv9htOQ4idJYLdXmn7pdjTzwoOd3m9Qr4vCbSuJbopqmILH+M+yf1n4jxDleOnP9J/3+j8tsV4r2X0g8pkUAAAAAAAAAAAAAAAAAAAAAAAAAAAAAAAAAAAAAAAAAAAAAAAAAABMHofP8y78jIhkRn6hM0Xte9NTu7m+qct73D9aLmYRh+j28gyvmrEy/NG54XNX/wDUP3ym/VXlEHZxRY3dDGoNDYFFBNRoTAUBWHs4qd3WN1x1a4o2GcUAUATBQTFAEwAAAAAAAAAAAZwUBQAAAAAAUABMFAYwgZJgmCg43zrBlD2cU3MONxDZNRwJgoAAKJgCYAAAJgAJiag5786HHUZuVBMTUBMABQUE0wAUBMTUAAAAAABMTAUABMATBRQaaabTUTaczbwXlXs6CZs4tPd3eNTNvBodo3dRrlOlobNZamu+mkdmIoTNvAcyDuAAymgyABQEwAYztnETZCYziagmoAAKAAoCYAAMoSYyZwaExQEwUAADfgY+8wYigACYAKJgAmKJjXBsAAwh7OLmBw4FPhvB2E3UFBNoFGcEwBMGW59QMQAAAEwTE2gUZwBNQFFAUATUBMTABQGuoCYmAztDXUGuJpTNvAdu6A7NcTTTGvM2cUZ3Z2uim15mziz92d0N9Q3A9u9jXzsZmZ7nNwJkud/ycxJSzu7EEfo/cWj53P8AKpvfovkM9yz4Z+/fvRAmwbwh2M2JM7fYW9O2WFtp5q0fjz4JsgoAAAAAAAAAAAAAAAAAAAAAAAAAAAAAAAAAAAAAAAAAAAAAAAACYAPzHz9cr1MteXm2uO5Jvb7pwx6z/af3b9j4Tq8llur9QyOrNas9Y3NDfcvYd5CZ2GW1qfR8Z1W6qCjYAUTUUTZal3n/AOTO0LNDOpDHWBR1TFGwziigAM4NAAomCYAAoACYKAmAAACYKJgmCgJg0B796HIOAZxQE2gZQnMDJwJgomAJqCgCYmoKJiagJigJpgAoKJiagJgDHcgRBQEwUTE1BQUExME1E1BoAEwABMBQYwnXsMXYAAAEwUBMTUAAAAE0xrgKDWmbadbozupmbOLX3Wnd0N87OLQs8cvubphNNRSXj67Qx32aKMNy6wcgtrvppFEQUABQAAAExMAEwBMUTGu0CgJigKKCaYo2BnTBSHt4M4m0CiaYmmKCagmNBM/68GwJgNcUAUE1BNMUABNXfPTYyNCS4p7y+NEYTNnEnccOwAAJhD28HPYHAKCiYmAAAAozibQAAmAACjOJgm0CY0ACgJiYAAJqAmAJgmmomKJpjXBMGuCcwTa6abXTTa6bG15kJmHiuIon/kyoW37C9hMzxORnDZvdMluKZv8AykwT3rbfx0b9xy35NxXlXJ5i/K8xr8v477ZfPvOUAAAAAAAAAAAAAAAAAAAAAAAAAAAAAAAAAAAAAAAAAAAAAAAABMHrDOvyuQ8imRS/cVfV6R+1R/vnLbcqq83mOj1MrqTasxL8vrmh83dv6vb+u2/9d/QlOm/VZl5BChak1szcZ024NCmp9Hxgo0JgKCaiaiiiYmKKJgAooJigJqCYAomAAAKAmCjODQJgAe8ugAAAAAAAAAAFAAT8dBQAAAAFGcTaATAE1BRMAY7kDEBQUZxNoBnUBNxz76DAABMUUExQFE00xQBMTaBQEwAABNQExNQAEwTBNQUTATAUBQEwBMEwTBoTNnFscd3Vy9jiXGLd4tfU3ytErS8dmTHoqNEaGvD28HEKMJmzi5d42ZjlMGwACgKAmCYAAmoJpgAAJiagoAKOfB3lp2A4EyYKKCbHfUxzz7lz7ExyAJgmANA459959ibv0c/DdDlx2EnUAUUTUHP6ncgcCYNAJgCagomJqAJqDYZxMDU4nQAmCgomJqAmAAACjOJtAAozibQmoCYJiYoKJgoCiYJqAmJqAmAAAJgmmomKJpiYNcGuommmomJteYjLp2TRSa0zbwZ03SX1C8rhnefdjwzkpmaVnZ3DjfXe0XVesnudiD7H2rl/8L5/PasXsu6vj+KK3w4n7+wJsK+4Me+Yc7TYW9KWthWtNr8cfBuxAAAAAAAAAAAAAAAAAAAAAAAAAAAAAAAAAAAAAAAAAAAAAAAABMHwn2TfKfLxPjS6MlNyTaUsINNbvDQ/SeCco+LHzz9E4YrTTqffPnWFC1ya/U3uO2UZ1IULXeajOo2E1AUUUTUaE1ExRMFBTfh1FHUAATUUBRnEwUAAAAAAAA1Po+MAHHjnFm7jlpAABnBoAAAAFAAT1Po+Nz0FEgTBoAAAADU69DODQAM/E+KHZz2YO7hRMTaAAZxhuXU0DNMExMAABMTUAAAUAR3zqdd02TsommooAAoCYAAmACagJgmMdd9NIMgAAExNoAABnE2gBNpibr5i0bqOkmbOKztO7xq+5vlbJaZeMzWxpTnbOLrO41XYTGhsAAoDmHs4gTNnEEgUAAAEwFBNMAEwU34AFAUBrigCgmmDPfOtINz63RNyAJstRp0mgTZujnqDIBMGgTBjuajuxHQFExRsCYDD9z36O/fq5miU7Mh2TFAABMTUF5e/M2LYcbn1ORkmJqCiYmoOZmzi6SOHAAKAmCgDOJtCYAMdycbDFyAAomKAJqAmJgmCgAJgAmztCagmCaY11BrgmCaY10002dNNNN1kyGkm8OxFdUORD0VZXk26nNP2s7DPnP8AJzg81SDhe+5/b79wh+t8/wDjbL9xaPx/PqvKZi/Lcxq8tY6PsR4zGAAAAAAAAAAAAAAAAAAAAAAAAAAAAAAAAAAAAAAAAAAAAAAAA6bEt/wMN4Ym37LrSxsLCwraVq619bnRavE2MeF+VmOMVzMouUe98bzPH5Fr2jT9j/cP6KyipyWWP2WvW5au2IULS9Fm3X3LrcOqoKKCiagomoCkPbwd42THQUBQTFBNNQBRMAUTAAAAFAATAAAAAAAAAA95dAAKM4KAmCgJgoKJjHc1BioAAOfeXS5HDgAAGcFAUBMTUAFAEwTAGEzZxBwCkPbwBMGuCgKCiYoCYCaYCgAoCYAAmmAJgooJgJiagJiigAmAACYAzqM6jKZsp1DrP5nXzVHVotA8dvnwrYlZeFX3O9vejMtcuiaWhuM46+Zt4NDR3UhQtAEzbwBOHt4B3bAJgoAAACYAAmoKJjOz8T4jjswHKgANgGuNCgzgJgAAJpiiaiYyhJjJMTaBQBQTAAABMUUE1ATAAFDc/TaAACYoJgAACagomCYAAAm0AmCgozgmJgoCYAAJigCYoAmoCYmAAACaY1xQFE1BMTa4omJtdNRNMTBNnZ00xozNtOtnnZndBieHzczJLO99diazoJmbfnaQLnvmd2jDeLP1uvH7HZWn7i0fH55lU9cMf8l+d8UV9I+/fuu/Nny6gAAAAAAAAAAAAAAAAAAAAAAAAAAAAAAAAAAAAAAAAAAAAAAAPm7sjeVHk4FyIcq54UvRb3xI1SxfUcLZZN/M4fVcK5ZNmw+GcKQtSham/c8L9Gtu81OnS7dWDRsanTpZndm0JqJqCYoAomKJqCYKKCYoJgomoAomCYAAAAozjGE0DEABnBoAABnBQUTBQTUHPjnBx3GaAKCagoAAAzgoCYm0CgAAOd96gcAA53LqddhKZt4Owp4k69gdhMFATBsM4mDHUadI50liOAAEwABQTBRRNMAUBNQAEwBMAEwExRQTUBMAGcGgAGdRNRMBNNMATTTBqzV42GvMmLDwzE81rleXh99beDfDS0GloYTJrO5ShqO6tZmpUUUcAAoAAAAACYJgoAJqCYDHwd5AxBRMUAFE1FGW+jOiCiYomJibiZtp1tCaqYJgoACgAy95gyABMGvvvpsGhQZ1dcp0gzBhD2cQceOgCgAACYmmNCkzbwZOwNYCaiajXUFYezijG4k7DYZxNQATaATFIe3gh2BwJgAAAmooJiaigmNdQUTE1AATAGuCjO0NdQBNrzFFGuAmmmmo11BrpiaYmzpoTIehnTdVLh95OtxneF39y5cLl2M+HT16xt+22Fv9iedanSdXg5rU5qr9w/fjsdec3Dzqc1bDeUXlzu33tHj6nfNdPjPI/wCKj8ezatyeYafV+XWa8YrGr3489JQAAAAAAAAAAAAAAAAAAAAAAAAAAAAAAAAAAAAAAAAAAAAEwAfBHZBMb+rbK3HwrDnaIF0R++Kfxj9a4GqTixdX6lwvV5SlD09d8Lw08r9Dh69xs6nTpST1XTcCgommKAJgKKAmAKAKAmAKAQ9vB07A4AAAAAAAAAAAAFGcTaBRMEwUE1ABQBnBoAHMzZxBwCYKAAM4NAAAAAAoziYDQAAAKM4mCgJgmAAAKJigJppqCgJgAoKJicPbwd42B0E2dQaExnUTUTZztvBQYAJiagAAAJiYKJiaaaYmomm1wa8xQa/fqijwLHXeVNr2qrZWeITJi8y2NXxH08i7t2RHZhC7y/3qO/SGWu0m1BUcqAoAAAAACYHjoJg2BncQ9tetONhyzifjrQCgomKQ0xbc+p0EV1GO5CbJMTaBRnAE1E1EwE3MPZxUHCgAAoCYOfHOAMdy6wce/B2Ze/fiHVQEwAU1Po+MEwUABOGO0g6pgyhOI2URcqNiHt4HdMY0xRoATAATBQTUBQUZxRMTBMAAAE1FGW+dSbliO4DXABjNcyIuBQEwBRNnUTUExNrqKCabXBMUTTGtqdehMQTTa7Om1ZqUbM7xDE8LyMjO+1Pkf/OQpk+zgL8zbL6m11HF0XWropT3TyP/AEdsfD8a1YmNH5rndX9a+/fsi/P3zoCgAAAAAAAAAAAAAAAAAAAAAAAAAAAAAAAAAAAAAAAAAAJgA8dyg4wu/BODp2LZ0v1mNG7bSq9KrNrMIwr1Ks2bGnZ+ZE3FFMo+K5+KJmyfItdD+iqVKKE6Q/a5xctUdi3vNZQmWd1FNRp0uoyBQZ02gAEwAUFFE1GNQUABMAAAAAAAAAAAAAAAUTE1AABRnUGhMAAAAAABRnE2gAAAAAAAAUBMAAAAFEwBNQUZxrgAACiYoCaaagoCYAAoCYJqAmJgoACYAAJgAAmmACaiYmJpppptcZ2wKOvmbeA47u4uXCsuZD13mZuaZ+ZevMt1y9xe0TND6Otcaq0PUWudPxPae1rK0Kbo56OjurufWz7LNSY1uO4OVoVNSHGiw5bAKAAAAAAmCYKDOp46ziiYmoCgomAJtAozibQKM4A53N0HDuJtAozpiiZMc9nPYd3Djw9+6AcgAz3PrBxNBiCgMYe566DEFATBTmhQwTBz4fhAOAUBMAEwTGhsCYCaaiiYmoCYmoCgp5+36WcTaBRnBMATAABQGuooJqAJgmoACYAmCagJqEzbwZ02uoomKJpgDTaAFGmKKTGMdeM6bONWZtp1s87PPdHfPhYx45g/KFiXIVlNuPK1hjvedcV4WdrTr/d/7DBYrc3i1fKcQVuZqv6QMguVG5ctWSHDOVO5tHab/uezl06/3f8Atvxuxh0xTHZ+axs8xScqAAAAAAAAAAAAAAAAAAAAAAAAAAAAAAAAAAAAAAAAAAAAmD547JJydbzdpNzd0NR7fJs++H1XBVOJzPo+i4YnWzq+IrihzYUGwhQn73h3fp1t3sKF4aszI2JmzihLhw7jHU6eWnmUderIRAAU1yvQo66wJuwomM6goKJgmAAAAAAAAADOCgA5h7OLtG44RBQFBRnBQAAATUFAGcGgAAAAZa76aQYgA53LqBwAAAACgAJgAoCYAMtRp0s4yUGO+gxBNMAExNQUFGG4uuztsk6uwoCYAAAAmACagAM4AmAACiajXaExME1Ewa4mJs6aaYJsdcp5Kedm6umsowddvq+rCFTyMtrdntPesLBNe4thC0vH5l5nNPVmctk7mzcL659gfR5ZZelllrWHyD3Zp5KeZ93q+r0bsOa4d13ZZOHt4DjuoOVAUBXXeT5A1UhexqEMwZa76aQZAAAAmM6YKa5XoS1gUdABNQTUG4xjGHM0LDJ1AAAHG+g5E3HPuXQ0OjlNwAb56bHO7ncd3AAADLfOoGQEPbwAAmbeAAAMd8BiAAAAAAADDU6dI7awzHZxrlfJXzjnVgO7Ka6TuMvgXFETaQ1zp+JnAFExNQY74DJMAYTJjmZ1HDgTUUANc6fiAmbeDrOyibsGudPxOnQHAAAmCYAJgmmoA11FBNNriiaiiaagmNdMa4m05mzizpteZs4s7O6W+dnFxO7O8JxDD9v0sjz7b9gPkfTLrTKBmr3hkivmd2+dgq8e18n4Pafq+Q/J8/q8npP+L8lzGry1t+gD59lUAAAAAAAAAAAAAAAAAAAAAAAAAAAAAAAAAAAAAAAAAAABMHyh2Q6/KTuRdOCaaNFfXrewfpXAtWJmZj/mj7jhirOnMPnCFC081H6k+yiFlGVhD2cU3aN3A6pigJgmoAmADQmM6gCiYAAAM4NAAAM4KAoCYmoKJgAoDODQKJgAAoKM4moACgAoCYOdy6gcAAAeOgAAAAAoCjOJtAmCiYJg0CYACYKKJpiiaaYJgCgmCigmJgooJpgACbOoKJiag0JpgJiYAKJqJiYDCZs4uZc93Dh3TTE002uoJjOMaaGuU6RLSGtNmpuj2Rmv4JmY1xRruo+0Pjcztavn80tPquFkvrWFo0vnuaeLzUOtxtkUrii5LeFqD2a2beXvVq2Pjh+V2cdk5vnI9lxvbDN9e6O9/vb9nyq1zuWv0PLbPM13jMKbpmvSa95b3frl26qDooKANgFAUBQFAAUhusAiCgmomCYzgCiYAm0CiYmoKAAmoKJiagA2GdnAa7Q0NhnZxQUUEwAZ/wDjgwBQAAAEwAAAAAAUBMAAAUcc++9AMBQAATABMIe3g6dhNcFBRnBMYwnMDFwJqKAJtCgzgAmAAAJs4m0CYAJpqJpqJqJiaiagmoomCaY101GvM2cU02umm05iUbM7q5kNmZ3ieJoflr8TKPqrsDeWv5n+e1bZP5k7tEHFtzWtj2j7LJ5HsHw3Gtb+yph+W51W0uav3GfAPnVAAAAAAAAAAAAAAAAAAAAAAAAAAAAAAAAAAAAAAAAAAATAB+fmfBlFpJziba4pvtFhd1k/buB6n9nP2Dhirplejwi4PA+vtNdrZabC790syCbQCiaaaibOKNCYJiYomJqCiYmCgAAAAHv3oAABRME1BoTTAZwUE1BRnBQFAABQAFGcAIe3g7RsJrCgDODQAJgAmACkPbwc9gcAAoAKAJiagomDOJgNAAJgKEzbwdp2GO+uoyTTTBMFBRNMca9XodtZUYeOuooDCZs4u07jh1GM127DJ1EwAATABNMTAA1yvQ7aSJuoomAomCYNdMTTTBnTmbeDGm0ZqbO6+XN08qidrdns+kfeuZTkHg4XyPWF+zt+vD13nflubWX57Ytve3IuSE8unOkJYurDuPToa+axLc3L4K7Mtm1zJ2FIGXDCsH1+6P2Q+9PvuFc20nq+84Ysa4fuIfnlcvi79tfevIIU3Qzo7NrfQYjqz30dlR2WhBGzIFAUBQFExMFExjNXlnYTfZUJ2HLIMoTtO4ydQUE2gUZxRMTUBQZ751pjj3m6jJ2ATBMUABMFAUFAY751AQgZAAAAAmCgJgr79+oAnMmAzBMFAYQ9nEHAAEzbwHf+JQVR8R9PIDiF7GoE32NAc751Ax1yb5fiddQdhxO3Pg6/wu07uXV2YzU02IoA43PrTTZ751ORPfHdfdEcgKJiYAJqAKJiYmoAmmJgA11FBnBoEwTBMUTTE0xqzNtOt0EUk2lN9lRMdZMZu7z3jN8+FkHc5muUP5kmefk9yh+58V2Vbf73y7V8/n089l74jPKuld/SVCk8mZZ6zyac2jRR+TvglwAAAAAAAAAAAAAAAAAAAAAAAAAAAAAAAAAAAAAAAAAAATB+e+f3k817LbbX5C9z2T924GtzGWv1/hnD/ZT1xhOHN1J9hhejbd2ysYommmoAKJps6bnflHDgciYAJgCgJgoAAAACgAKM4m0ACaYJgoCgAAAoAmomom2GcFATBQY825KDIABnBoABnBoEwO8nPQUcAoCYxhOYGTgTUGWpemhMZJiagAAozjXaAFBNQTTATExMBRNQTE1BoEwABNMFABNME1BoTTBME0wBNQUZ1AUTBNMaagM7Oomm62azsbr9ep0s2ibyjN5yezctWWuBhaD7RYSO2yHzuZ2eTl4uaWoqv1NuS44NyXLYXJB9ojvz58SqDYB4vldyfXNlSyd3tgi+aesXhd1pZVUrWPiw6w21Lc1LcPwdykYGmZHcsl+5G769vum8O9/vf7h/ROUW+dyvR+317PMV/v2cPbqT21ezsoU3VGdJhrnT8TTrLjSR3VW1300uukjadmcTaFFE1AUTAFATUFGcTaGdRnFEwBNQTaBRMUTE1BzD2cXaNxmiCYAoDDnmV6Fk3CybKEKIiigzqAAAAoBD28ATBQAAEwUBMFAATBl8MBiBzw99ABxvvWOzkdk/EhQAAAAFEwAE1E1BRnBMFBNoE0wUBnBMTBMaBoFGcTTABMTBNQTBNMTAUEwATTUTTUas0TaszZxTTa8xMdTNGd0OKdnF5bz3hFpM1PE91X1D+oXxGtfwLR4ua/meJmfpX9O+T2+qX5ga6L7r4xd1la/9W/IX5c8gAAAAAAAAAAAAAAAAAAAAAAAAAAAAAAAAAAAAAAAAAABMAHw5nhzf/alO+DP3Dgj29+s8Me1PVsKFSvfv2d9w9BnO2cWdJimCiYmJpqJiY0JiYAomCYAAAAoAAAzg0AzgoCg45996HIwcCiYAmoAAKAAJqCiYACgCYKAoCYAmoKJiiYnMUAGHifB2/hGbqJqCiYAAAM4NAmAACYKM7Qm0AmCYmJgmCgmJijidt4OZ3JYOBQGM127DF1AE0wUBnUGxNNnEwATATUTUTE1BNRMGuoJppgmjM2U6kOyXd1Mzbwec8x1MyWzWrTLatPsfsVGSSlLmvbLBOg0749Zu+r8/z+18D4rMrPOPtN4jEmACgPyr7ONkA5OEMpNxZxVzQu8b270vj77yPYWj9R+z3Noifih+ocH5nMf9CXxpCm00a7Cfq77B3YNdRnbibQoDYh7eDtGw2HUFE1AUTAFAAAUExNNRMTUAE2gUBRnAE1BRMAUTE1E02hRsM7Om0NAM6gEPbwAAABQAFAYfqd9BwAADjc+sGAAAAKAmDjn3LoByCgJijGds4ijHxIHHh79BgDLwd+gyGhMFEwTE2gGccw9nF1jccTNvAnYTdgTE1ATAE1AFExQTBMEwBMEwTUTTFEwAAExriiaaiYNKZt4Js7UTHUzRndDinZxeW8969xp3py9bedb6S8nNPSv6Xc1K8O62brgq8K/VsORdP/Rvx+1GviTD8ojZ7FQcgAAAAAAAAAAAAAAAAAAAAAAAAAAAAAAAAAAAAAAAAAAJg+E86bvzLFO5vA/eOEemWRD9YyL2t68h7jxfTd2yNmE0jcNz6h12YurqM6aaigoooziaiYJiYAAAp4kzibQKJiagomJqCiYmoKb56bAAANT6PjABzqdOlMcAmoKJgAoJgz599ByAoKJgACagomAAMd8BlrnT8QAAGuV6AAY6l6aHOgycDHfXIycCYJg2FBhvvUmJAAoKMebfXCjFyCYw1ynSDhMUAE00xjuTvsoxcgmJgAJiYCagomAmCYACgmmoJqJiaYoJjXUGumDOAztKZM0M6TqL6mvPeFLpokO+cTXzAwvC9vnyO1R3zuZ4OrxM0udH68ZBMncLJdkwufBUPk7td9n2+v8AGaOf06HxlufimXy8PMUHIAAD0Z2QnIV83rNUxPgaHTv3ufaW13fCORT9Q9fIbXJ5jEw9vIbXLWdPq/DDDU3vLv2D2i3sPWZH9R/RFN+yvLYcxpcuw31RnQHDbh7eDp2aGy4FIaiaiYoAom2GdRlCUGIKJgomommAmoKJhqdeh20gUdQBNoBMAZ6pVxoMt96nVwzcIJqKCiYKJiigzqTNvAHHPvvQDPfOoGIAK771AzABMADU+j4wc756bAY8+5c+wGAAAAKanXoBjCAmgc2+jv0YjkBMUTBnChA5BMUZbmKMQZQdnFMY650/EmAGp16AANc6fiddRN1E1ATAE1BRoGuzqCagmCYAmomJppqKJgmoJpqMdyHXZhrdXbRzqwRVTmbOKajX1zp+ITas0TarOOnmbOLr2ZJdFfULQixPAMde0vCt7vKtelf0fZhk2l7ZoWTqb4a4VjenxPx+1H6UvyeNnuJByAAAAAAAAAAAAAAAAAAAAAAAAAAAAAAAAAAAAAAAAAAAlK2cAfB2c1N/9ql60r5H9AcIx/ZkP1/I/a3hMPbwe72bU3dnTE001ExMFFGcTaExME0wAAAFEwAAAAAUFGcTaAABRMExNoBMTUFExNQUTE1ABQABQUTBQTBTXK9CYATNvABQTBRMAAAFBMFExNQUBNMAATAAFExRlO2cQY+8fjATBNMAExNRMUATAAABMBMAGgTZxMBQTFAUTTE2dQUTExpqDXTE0xRNN1EuZ5We08206iZMp8TxrTxLT3P2OjJhTKFl7j33OgdvgXB69X74+FzWy+QsWn6dvGYwAAAGrNhUm0B+FXZNMinJzb89K+7qpCpY3Tif9cbmrTZZfX2b9z4HzWbuW6P2jhizzNf/ABeo7lmV+/v0F9A8nhzdcY0HaM6SbQooCgKM6ijQm3GdNNoAAGwzibYKJpgmAAKCjOKJibQJqDYBRjE9xX3cbDogoACYCiiiiYADnm3LpBwCgHvL4wAUBMHMzZxBwAADmXuIOAc756bAcd+gAAAmANAM7H4YKMdT6PjFAAUTFFAATBRMTUBMTATBMAATABNQTUaBnBMAFBMTBNNNRNNRNQTExNRMUTBGampKLOm1Zrv3Tasx0HUzRndBfWxnh57wPFvtNv1vCubvKtemf0M9jCvml85iGTWZXwYds7L435Jfj9fn/B+W2fyvoRjSAAAAAAAAAAAAAAAAAAAAAAAAAAAAAAAAAAAAAAAAAAASlbOAPgPOM+mpOf0Fwn7c/Z8i9reGw9x4vpnf+FmzoppgJtdRNRNQTUTExMBMAAZwUFAATUFEwTAFAAFBMFEwABhM2cV+4k5FEwTHPNuXNtUHAJqCgJ65XoBQAAEwUBRQZa76aXTURdxlCdIGLgFBRMAT8dc9wdxSZt4JgAAoNdMUBMAFATFEZ2ziKMgAE01ExNNMUAUTTUa6gomDOoNCaagJiagoxiYJqAoDOJqKJpqJtAM4JiMzZTqd42czui6OGuzjXUHEnca9bpG6Fp0U2bp56vNeU6eZM/K+esPnc2fod2LnJFTBORS3xxNhaJGIJHbaafsb4a5pro+PwvqRmdgAAAEwfn72efNp5GUjIfdeXi5IPb5+CJHbZFKfVI3L9m+34JzSYzPkvr1fa8HZlNXx/uX5bXLN9xP31+pvJLlmV1NnQd2mzNxNRRRQBzD2V6nMbu3dm7urcTTAUhuY3cTum7ujYZ1BMGhMUTUZwBNMbAOYezi7RuOHYZTNlOpzO4ydwZxNoFBMBlvjru43YuzkUFBMAABlD2V6gYgoCYKAAAtvnUDiHs4gwmgyAA8dABrgp4kB4kDGEOeyIuoJuJm2nWOZYDuy30GQJihMFO7jfOsHIAJgmADHnhVTGSYmA0AzgmJqAm0JqM6ibQmmmAmoJgJjXUUbDGNNoBMTFE0xriicxNNribTmJjp5mzil3Y3U3z4WGWN4Lf8A7bweXb3YrXpn72dh2m612PzAta+5+VZfG/H7nuEvyazGsPqhJEAAAAAAAAAAAAAAAAAAAAAAAAAAAAAAAAAAAAAAAAABMHHivAHwLl9+mte3wh/RHDPtWH/CP9n7PlvtcvCt+fQO26jOkmAJpppiiibOM523gmowGdMAAFEwTFAFBNQUATFEwUBMFBME1BRMUTE1AUBMAFAABMFIe3gCYKAAAAKAAmACgomJqCgCYxmuZGTuCYAmoCYAmoCYomomoooCaYmoCaYAmmAJqJqKJgJgAzqJqJgJgAKCYomAmCiiaYJiaaiYJibXBrpiEzZxWncaMva815bpJs3mq8248jC2cn+GJuU/KfcOCLk9vvC8dFHx+Z2dZfL5pafsJgnDELBOFIGFbvpSysIEazsqdL5V4zuwAAAATB45lNwVcmULBN64GvmH26PPu+1sbamjwcuitWOVwRMStUucvbjR/OxlQyb3xkQy54syLXzXtFtcV82tl9+jfuLT8B/SWUW+eyt++5XZ5mto7C5ZviL3HR5Xck2ngZ4QhtujuAooKJgNDYUZ1E024zqJtA2Ie3gh2E1wUATUTAATEwBQCHt4KAAACiY12hnbAoJqCiagAmAAAAAoADLfAZAAw786AVhbOf28EQUBjrvppBiDHwW8wGQJgy3PqBkCYoACgDHvH00AjMBQUBRPvIcdFE3Kfv74gO8gTEwUTBRnE1BRMa6gm0JqM6gAmoM6bXaGgTATE1GuomJqJgmCYJpqJzEY2d5a6zlpzEYZ2m6putmibp728DzLezz3heIPbeLzLm7yrXpX7p9hMma52P7ClfJyrZ+PW5/X5fl9n1EPrtJAAAAAAAAAAAAAAAAAAAAAAAAAAAAAAAAAAAAAAAAAAABLxXgD8+cv/wBNi9vhL+iuEfbYfs2X+2S8Whved+yjOkxmus7uI2YuzommmKKJpijOomM4AAACiYAJgoJqACiYAAKAmCaibQmoCYKAAmACgAAAJgAoAAB796HI53LqcDgABQUBMFExz45wdv4hJ2AAFAExMAAUATFFGcTAUE1AZ01ATTTUUUTFE0xrqCiYAM6iaiabQKMYm0ACYoCibOCgmAmANcGumJg1002pM2cU3SXWS/ZcXmYXj3HUzK6K7XkWrjxrWF9KdilyP1xVlSn5X5sLRHuenaY9f418Pmr5Cw/RR5qSgAAAAJgA/Jvs/mblycNYtuHOmuaDq9hMp3OxBI/7Fpy36l9nua6YuSfp/B2ZaYY8F8Jwpuj7w/Yn3Lya4puidrqFtmjZ3zhBRNoZQ9tet3jZxGzbg7OLlKNmabsoomoDYTUUUBNMUUAUAAEwTEwTBQUBRMTUAAABRMFFBNQAATAAAAUAAE1AUE0xoAc88OvQDgAE/EgTBluYMQAAABoExX9z36h3Ev8A+40NIm7AKMa7LDqFGSabYZ1Gu0CaYmomKKAJsYKAoCYmDLfHTcZOABNnUTUExQTE1BMAE0xrtCYCbG0NcUTTTaczZxTdZ3aM7bwcTsi6+agm6G9nFzd57wvEG3i8K08u0/cnsFkntvY/MOciv1G8pf8Ag/IM09xfltnr477LQRAAAAAAAAAAAAAAAAAAAAAAAAAAAAAAAAAAAAAAAAAAASlbOAPz5y//AE2L2+Ev6I4Q9tft2X+1vFtT7yfQJdFGdJlNdO5LVcAomJgCYCYJpgAAAKJiiYmoACYm0CgOYezimEzZxBwCagAozjHcmgYgKDL34mMgATAUFExMGe+dbnccuAABMFAAT1yvQCgMtcp5KedzrIxcAAAADnXKdLnUZuBlC0Q6uRFwAobl6bR2E3ZNQExxufWBuToOXAJppqJqCiaYmKCgmmAAJqCjGo11EwBQE1EwTFAAEwTTBMa4NdQRmbKdTO4YpoOtvjZwZcO7FcdXL7z2MNq48m1hdXOrrdNTh+32/tD5XM7Or57NLT9ScxrJFTI/kDui5Z0OnJvCTYdtn9b418+9ygoAAAAACYPTGfbm/wAHOVzXsWZMJPPbSbttK3dX3xyPa/8AbbcqtcpmOr1crtctYj+r+fy6Kzbgt7e5Jte0ToEjVLeP9htOR62/p2pHPv3TryjzC5L711qZnk0KbrrKg7B1Xa4o2BNsCbY13XVHCg5UE2wKAKanXoDqAAACYAmmAAoAmKAmoAJqDYGdMaFAAU1zp+ITTE1AAAcw+/AcAApuYmz59959g6dHI4Y6n3n/AOQoxFAFAAY751AxBxL2g4/68GQJgoAKJ+Ojns5mQnR3Obfeba7jnXqdIMUwUAHHN9/TUQUAUAY76mMmca6gomJqBqfR8broDqONz63Owbn1mw5cCaYmm0JqCYAJqAmm1wTATaGM1k7O0Itbs12dNpzE3Ts0pm3g4nZJ101BN0N77eDJcee8NxF7ZV51vd4lr0j9v+wOftC7r/nuV/g/H809wfmln9u+02dEAAAAAAAAAAAAAAAAAAAAAAAAAAAAAAAAAAAAAAAAAABKVs4A/PPOD+mxevwl/SHCXtkP23LvbHjkN7CfZRnSBNME01BMExNQGhnGcEwAABRMFBMAAAAFEwTE2gAAAAAAU7yAAABMGX59yMnAmCgAAJgoAAAACYKAmCgAOYezi5gcOAAFABNQBMBMa7QNhnBNMUE001FFExRNMUUGmCiYM6iaiYA0CbGDQJpgm0AJqCYJgJjXBNMa4JpptdNN18uZzcHnW3lWnWc1Kf73kWrT5y1aeysyrIt817LzA5MyD2+6bo78kPjbNnq+ftWn6nQYnIi8mkTk15rGnM8VjbYAAAAAAAJStnAH4U9mDyAUzf8APZtL0uOD2m6cWx+6Nh9j7Z+7ftfA+azby6YftPDOaczlj0Ncs3yP0l77zG5ZjGzuzZ1FGhNnD28AVBsCbYUFAUBQGwCYAAACaYAJqM4NAAKCjGJtAKJpiigAKACYJsfeYLAAA58c4A4BQTUE0xQAFAAAAHHPvvPsBgDKaDIGO5gxAFGXm7foBiKAMdz6gWZxNQTUAUJm3gOZB3TBNNM1OvQmom0AzgAAmAAAJgmmomKAJgAM411BrqJjO0NcEwa7Om1pm3gDUE3WzWdN0V5exZLW7z7TxDEfs+Dzre7w7PpH7Y9gP/aGwv57lf4Px/NPcH5tY/bvt1nQAAAAAAAAAAAAAAAAAAAAAAAAAAAAAAAAAAAAAAAAAAAa07c+APz2zgfpsXr8If0hwn7ZD92y/wBreOvYYRMUZ00wTATBMTaE2Xj3p5U3TuxTcKAAJgCagoAzibQONz6wcs4NAA5h7OIONz9NoAKM4m0AAAoKJgBMdpB1AE/HQZ+OcXPccuABMBQUTE1BlNdJGUPbwOwOBMFAY676aQYgoCW5dbnYU3LrNhl796QNTp0uFE+bcubaO/VwOXEHbwBVMTABNQUZwE0xQExMTUUEwBMABnAE1ATGu0AmCgoztDXABrtAJgmNdoGuxjXBNnGpM2cWdijZ1syZ+V5Vp4Np1c6ZWHC0VeHafO2n6L9jWyI0yYZIK4rn07/v+vbrbT9jfHXHz2F9JMrsoAAAAAAACYPiLs3ma5Z5cs1u3yh3NB/X3BH64xvvf7vkPr+C815HM9X13DGZzWscv/ffjbdEzvKwmwvq9H73T3frTzC5JvtDQzvMIXu1BBm6LqKDYTTbCg2AUBQFAUABQE00xnUGgGcGhMUTExQEufcufYoOQUTBRNjvgmyFAUAAUGdlvgMoe3gADmZs4gzAAEwHHn7fpHLkd2M0CEDEFAATBzD2cQcAoDH34DIE4fefg9vAFDn30ctfx0d24CU32VCdhnCBiDXGhQHMPZxBOZs4gkCjGNdsGU1nGINdoTUZ1AAABnUTTUTUTJm3gmoAmom1wTTUTUE01E01E000002jO28Aak32VAddNZ2d0N77eDJcee8RxH7Pg863u8Oz6R+1fYC/2jNn/Pcn/B+OW/Xy/N7PqH3GkzgAAAAAAAAAAAAAAAAAAAAAAAAAAAAAAAAAAAAAAAAAJglO3PgD898uX02L2+Ev6I4c9sh+65d7Y8chvoGPsM7gAGdNNRNRNRnUATGcBRMTBQBMFABMAEwVh7OKbmHCjgAAAAAAABQE1ABRMATBQEwUBMFATAAAAABQEwAAUFAATBQBPx0UUTE1AATBQGcTTBQAATABQGumADOomAommACagAAmm0ACYmCYJg1wa6Y1wa7OztOXV51u48uzDo5kx51p5Nl5hm+5PJuV7K7dGFYXhkev/e3zHjTEdZfLZs/Wu5rng3Jdthc0CnrEfk9qpR8o852IAAAAAAAAJg6XGeGLvxphebhO+eT26PNjWllbU6Kutfx+Twxilera5e3Ew/nQzh8iEvN5y+4wyHS/81T7TtH8dG5fsH9NcOW+dyzo/dcts8xX8Lx2nhe+tNNSe42PMYc1jZ3db677oMnLuomoooztgGwKKAoCgAKAJpqM6iagAm0Jgo2BnGcAAUBNQFEwUAAUAGdQGO+dQMQUABQATTFFAAAAATAAABx3n0gwBn+67yByDjn1PUtIORRQUTBj3j6aANRp0gyABMUBRjqXpoBiACaaaagJqMPHOCY4BRoE2dRNRRRNMTFGdNpqKAomCagmmJpiYJzHE7q9k3LhNnTTBozUxoTNvATddNEYdLefgZpYbbxfEXheJbeJZ2ftB2Ab9o/Z/wA+SH4/mnZ+beO+6GdnAAAAAAAAAAAAAAAAAAAAAAAAAAAAAAAAAAAAAAAAAATBjN3TldQPzyy6fTZvb4Q/pDhv2qH75l3tbx6G9h5nYZ3cExNNMTTFAGUzZTqdJ3TZJJpgAAomACgmAAzgoACgAozibQAAAAKAmAADKEDIAAAEwAAN89NjncHAAAmCgKCgKAmAmKMvfg6MhwACiYKM4m0AAzpkwAE0wUUAExMAAE1ATE0wAUBMTBNQATFAUTTAE2dRNRNNMa6g10xCZs4u07jQlaHmYbjy7cOtvmY8/Ds8m46TXOa363n2nk2n3B2KbItyeTCvDLJPhUpS2p2q761fIZrb16Pl7GHq+13hpqAAAAAAAAAmAD8n/khjN2gYevDDWdTcsCtK2tv3Pvi3j7f9B+l/Z/mnw4+RfpPAmaa/9F+etyTa67YP2l9+83uXaxs7voe3gOeyrY4bjONgZ1BRSGOsqDq2BQE1BRQABMEwUBMABNQTAUBNQFAAAA54VQUEwTAc88OvQDgAFAUBQZ0xoTE1tcp5KecdeqI7K7l1CjgAHEPbXrBgCgJ+/fiBxTbb9YG59YOdcr0AAJqKJqJtAAxnbOIMQUBMUBQABr9+gJpiiiaY459y59iY5AUE02gATBMUZxrqCagmCYJpjVmtBLJnExROY6yJopppjQnbOINCZtp1ibr5ojDpbz/3M1xhtPE8ReF4lt4lnZ+0vYBP2j3I/pJJ/I/H802fm3i/mfc7OzgAAAAAAAAAAAAAAAAAAAAAAAAAAAAAAAAAAAAAAAAAJglO3PgD87s4D6cl7ff39IcI+2P3vLvaodL4k9h5ijOommJiYzpptACYmKCaaYAAAprlehMATUAAAAFPEmdz2FHACagp4kzg0CagomJgy3IDUvTQ50GLuKJgAACaga5qaYAa5XoA9+9DkHATNvAAAAUAUE0wAZa76aRoYgoADHXfTSDEAABME0wExMFAUExjuTuMXIJgCagmmKM6g0JpqAmJgmmAo11AFAE0xMBMa4JpjTBpqM7SlbODxcO7yLezqJkx5tx4sbJYZwzNxpieBhaFz28+R2qO86zZYbVp+veQnJzCyRZK7owPD8Xj/qtP1/hfnduer5rC8ycigAAAAAAAAAJg9TZ4+b9cudDm34myP31Cpb90LvtKxq6fapHIp+ob8stxTzGNNv8A7bMstctZ+/fz18vDcnBt4TsIXxA79um8LSJbx/4zketv6Ryi5N+er91m1Nqr9+8iuWbpeou8xg7nwY2dbXKdLtrI7B2TAbAKCbYFFIe3gOO6kMc91AAUBRMYa5TpOo4TABoBnTFE1AAAceft+lQc+/viAAABl5u0aB0ZDg1yvQJqAmADn9z3kDMGUPZXqBkDjcusdGA4AZ6pNFHIJgoCYOd8BwADHXfTSDnc+sDXNcA1PRvtR3Z744csXIoKJgn3kCgJiigMYQoxBNMY6l6aHXWRi6jHUvTQ7ajF1AFExrqNDnfUxwDHUvTQ6aBrvppddIGLkY7kmIqCagmziYCY11FE0xNNNrpjTmbOINMTaM1nTdPfPhZJee8Rv151rd4eaP2i7AF+0Xsv6RyvyUfk2b+5PzTx/wAr7mYEgAAAAAAAAAAAAAAAAAAAAAAAAAAAAAAAAAAAAAAAAAAEZu6crqB+decB9OS9vv7+kOEfbH73l3tUOkg7eD2GaN2yxotMGM0TYiYJjOoKJqJppgAAAomCagommoAAKAJgmDQOIe2vWRsOQAAAO8gAAAAPEgATUBMAAAAAAAAABQFFATBQAAEwAUBMCG6wDqmJgACaYKKJgJigJgAmAoCYmoCYAmKJgCiYJgA10wTEwa4NcGuDTmbeDDOzz2lMlvItYXiWrbx2b7GjBbeVh2fTXYzsi/Jxplft8cX7C7fHueP6xX+MfL5rZl8949rWX6Ovm2RQAAAAAAAAAAAEwfhv2ZHNn5OQzPOtsbQq9ouLHsfW4/w7kezfsP2eWfgxv1vhrNeaqxifOOF5vt8J+pvrXmNy7HEM7sWQUUGwJtgTWg7eA7RusOygm2BQBQFAUBNMEwAAExoTExsM4m0CagoAAAAAJgmDQDOoACgKAmCgJgoCYAKAmABD28AceHvLQDkEwZTQZAb2AKOdTp0g4Bx4e/RRyADHcgWBrigKJsYNgM4Jiagm0AzqJtCgxgmCYmoACYmCYNcEwExMaAGmmzsJ2zimOvnbOINKY47ptGagm6e+fCyS894hfu2nVV51r8zxM09K/aLsAP7Riz/pHK/wfjuae6PzXx/yPudFAAAAAAAAAAAAAAAAAAAAAAAAAAAAAAAAAAAAAAAAAAABrTtz4A/PPOE+mvO+EP6H4d9sf0LkXtjoH0LzhnZ3MzZxdJEnAmomJpgm5h7OKfcZpiaiYmAKAM4m0DPn3Ln2AwBaEhDmGK7gAABzM2cQcM4m0CgAJgoDjc+sGAKAAmCgJgAAAAAAAlM2063MirgJjns57KOF2EPZxHWNzch2Zph4k7dhN2GUHZxBiAAAmKJiYmmCYmoKKCiYJpiigmAmAJqAmJgAmoKJiaagoomCYJpiYJgmmJg10xrqDTmJSzteYwXWHC6iZNePcfOQ0OV353m8S0x2n6iZjORSmSDIlB1+tNevHvuQ+Pu3Oz5fDhe7mZyoAAAAAAAAAAAAD4k7OJm2cnLZmgzsa3LB7fe2Cv1xg6Psf1T/AGH03C2a8jmWr6fhazFbx+Xh+M9x312+FHm1+r+MP6Ep/r79hqPYMLv3Y6s7tgUh7OLtG429cr0OdE1XKbYFBoTbjOKQ9vAd+6g5BNQUUAYwbAZxPx0BoFBnExRnBQTaBQAAAATBMFGW+AxE1AAAU8SBQEwUAA3z02AmCmudPxAmADjmmdYOQcb51g5ABMGx4kDCHs4g4FAAUNcr0AAACiYAomzigJ65XoBjNdYGLsJgCiYoJiiaaYoCaYoJiYNdoE0005mzil3UTciYoomo1xNppptOYmNMTaM1nTdNfW1xDz3iOIfbaPCtbvKtelftN2AD9odE/pDL/wAH5Dm/uT8m8P8AI+42d2AAAAAAAAAAAAAAAAAAAAAAAAAAAAAAAAAAAAAAAAAAAS8V4A/O/OD+nRen39/QvDntb+hch9gePwdj6K5+V5mHdygiJiYJqJgmJgmAmKJqJgmAJgoAzigCgmoAAAAAAAAAAJgozg0CYAJg2ATABMAAAFATBQAAAUUFEwUBMAEwAAUTTEwBMUUE00wUUExNQAExRnE2gTUBMTZ1E1ExQUZ1E1FABMa7QJs4mAmNdQa4NdMaYmnyNlOpC0yWmnMedaeTadbM2163i3XmQ9h5neSSmV3LXdNyVhdvjx5HbpNdPg5D5fNbnV89Ywv1biQuTBh2UONWnytjSlKaXzrzGwAAAAAAAAAAAAADocaYVuXG2Fr0wvfcTt9heF32kSTYeWz5dK0MbrVnq/nRy8ZDpWbZl+xJkKl/5qvC11f+Ojcv2D+juHM353LJh+/ZZZ5mt0XuWbofTNjyKHsr1MaEbtsSbCg2AXheyqOP4lR0UFGwAJsoQpGywCaYooJgmDQDOJtDO2ExsM4m0AAoG5em0AAATZ+HvIGAJibcBMAAAFAYzNlOoGIKAAoDCHs4gkCgAOP/ABwOaH1geHvLQDkAD4bwAA9+9A7dXPefQK9GO5Dlx4O8gZAmKJiigADONdoBMIe3gmCYCjXFBoBQUeWmKAmNdQTUUUZ2dCZs4qKd2t4kCaagmNdRRxM28E1O7BQabOztNMaMzbTrE3WzNnFNndZfW1KGN4ff3s+LzM3eVZ9I/a3sCH7Qu6/56lfko/Gc29xh+SR+2l9vMqgAAAAAAAAAAAAAAAAAAAAAAAAAAAAAAAAAAAAAAAAAACXivAH53ZyH04b1+EP6I4Q9tf0LkPtUOhgeDg9628q0mimomJgmJiiYmKJgoCaYmAmAM4KAoKAmAAAAAAAAABM28HPYHAmAAADjn33ocjlwAAAJgAAAoCYAAKCgAAKAACYAmAoKM4CaYmCigomAmJgoCYAAAJqAmJpiYKNAMaiabQKJtdQATZ1EwTUTa4Jpjr1BNMQpt4MFrd5Vp1E3m8Dz7lx4OHC0K1772vFtXHl2sL747F7kg9TOCbwyjToWi3nyNEf72+EsbvBtdH1yzoAAAAAAAAAAAAAAJg/JT5IGyDy8MZScJZzdywvWJtO5N8f9y0fqHBFz4oin9X6RwfZ6fcvhW5Jvu7eH7I/SHm0TcWNghtqJKAooNyGmLa76aRxrCkII2W1yvQHVQcqCaiaiiYm0AziiYmoKADOomACgoCagKAAAAJpiiuu82uCbME/EhNQAAAAFAANcr0A53MHAMfz4MgcQ98p1A5AABjD/AD4Mgcc+5dAOQBQBjO2cRRiCgJ650/EKAoTNvAABMTABNMAExMUTUUExRNMTEwTFEwUGdMGmoommoJjXUUTTBnTa4OvBpzBN1czZxTZ3WX1tShjeH4h9nXreZa3eVa9K/bHsDP7Qq7P56lf4Pxa965+T/wDrS+2kHIAAAAAAAAAAAAAAAAAAAAAAAAAAAAAAAAAAAAAAAAAACXivAH535yX06b1+/v6H4Q9tf0JkfsDx/k7i+gh5tzZgyIrTXMiLhNMATAAUTABNMABlqXpoTTYpg0AAAAAAAAAAACag51ynS6ajhwAAAAGp6mACYAAAAAAAKAmCgoACgAADjnnV6XUcoifiQKCYKAmmAmCigmJqCiYmoCYAAmCYAAJs6igJigCYAJgmADTTUa4NcGuM7CZs4s7pLrZczm4vMtPCtOtmU1zwPJ5x4fwuyyf4MmZQcoV04Whe3z5Fk8DxrOsvEze10frhktwPCyd4IgYUh+IR+1Pk3nPJQAAAAAAAAAAAAAATB6H7I1m3w85/NVxLk4pTv3V9agffeQ9bIc15LMns5FZmraiO0vwKw1Jm+vwplfX48i1sfwH9KU7j93edXLN0Qv480Y3fQ+/HV0VEmwoo2ExRRNQFAW16nSONYWHICiYomJgomAOdd5Pkc6y6ay4d3CiabHfFBkA0CYAMtz6gZAnvvpsABQCHDHAOigAAmAA43PrByCgMYQMgJm3gADDm33m2g53PqBkDjmmdYOQTBluYMgAcaK65qQ79dHI5Y751CjEGWpemgERoUBMGXg7yBz3lqSbjpowTcsZrvGw43LqcDhYUYxMUa4oCaiYmDjXK+SvndegwdlE0wmzRBrtC6bOJgJjXUUY676aUxzqdehnTagNGaOsbtGZs4uI2dZaM1BN019bXEPPeH4h9nXreZa3eVa9K/bjsDX+T9uL+dJP+D8VzT3R+XWP2f+r7TRRAAAAAAAAAAAAAAAAAAAAAAAAAAAAAAAAAAAAAAAAAAAS8V4A/O/OS+nTev39/Q/CHtr+hMj9geNXe9/C8y3ssyswKJgmCgzpgAomAACYCYJgAAAAAAOffvS5HDgAAATUBMAAAAAAATAABQAGPvwGQAAAAoACgCYKAAJgmCaYomCgCYoAx5tycDFyEzbwdZB1AAAEwEwTUTUTFBNnaAAE01BRNME01EwTUTTBppqNcUa6bG1pUz8idtktOqmTKfE+etPnbTr5rxsO7yrr6u7F9kTrinG9vlTvqD6xd+7/fXy1mdIfPWn6APOSUAAAAAAAAAAAAAABMEJkTkzoVYM2vt20H4Idkezd5ebfntYjuqle0XTf0juvc/wDX9nZv3PgbNudy2YfuPDNjmMtl65uXvOa/QXrvItyZtnntpyKJtC0JQWE1AW16nSOusLDszg7eA4hUciYomAAKJgAomz8T4unZNg7goACiYKAAAAKzNnETcAAACigzqAmAAAACgAAMObcubaDgFAAY+MgxBQAFIYJigAmoxmqDEAUABRjufUClIWpgixg2Azjjn3IGAAo1xRNRNRjE/HVFFGdnTUUTFE1ExnUa6gmAmJptCYJibWmbeCMbptKa6usbtERdbO28E2d1V9bUoZ3h+IfZ163mWt3lWvSv297BP/k/sO/znK/wfidz18vy+1+3fZyaAAAAAAAAAAAAAAAAAAAAAAAAAAAAAAAAAAAAAAAAAAACXivAH51Zyf06r06n9I8Ie2P6EyP933j127nXqerhZLbNlYhQExMTZQnaSGPjrqmomAJtCaiagmCaYAACYmoACYKAAAAmCgJgTNvAAEwAAAUABKHtr1uYHLgAZ7n1g5ABMAFBQ95dA6DO4GhRxuQowBMFt9BkAmCaYCgmmmMZrnuoyd1EwTTAAAE0wABNQExRNRNRNNRQZxNNoAFEwE0xNQTBrg11BNNRrpqNeZt4M7O66Vs4M9rZ5NrZ0kzbwfO2XztrZjc8LuzLsIUL2+3t+1PIsvDtP1jzUMl8PJBkSujC31esft0h8XdePhey3IoAAAAAAAAAAAAAAACYPzy7Phm8wsW5ELpy9XLC0z8HyO+Pg77Tgq3MY9P6aw+74MzOZ8fxfAnd+YMKboh2E2a/oB+mvK4WnUtdGduM4oCjQNhnTbAKQyHHdsDkE1ExuM6iagAKCjOACiaiaaagAKCajOoKAoAoJiYKAJstz6h3ZDlQTTFFBNMAFATBzE2AzAAABOZt4AoBD28AATBQHEvfgczATBQUVmbOLLO6jhqEwAQ8HfvtA0NmEM6KagmoKAmJw3EA6CagNA12doE0xMTUUbAzppqIzXHZSdkXImoJpiaYNAmzqJpqJTNvATaiabVmkOktCZt4JpOsmbOLp2Z3WX1tRhneHX77S8y2w5p6V+4XYLP8nfhT4XK/wfjObe4Px2P20vsplUAAAAAAAAAAAAAAAAAAAAAAAAAAAAAAAAAAAAAAAAAAAS8V4A/O7Oe+nPen39/Q3B/tj+hMj9geNXbudep9BhZLbh1Zk1BRnTE0wFBNNRNRMAE1BMATABQTBMBMFATBQGO+gxAAAA+G6B2THUAAAmbeAKCgAAAJgoCYzgoo5h7OLtG44dgBRMFFEwATBQBNMTBMFExMTUUEwUUExMAAAE0wATUBMFCY4haU3REUUTBNNQUTTTUFE0wYTNnEEmgTY1GuoNaZtp1uku87NRwgwl7a9SEbsFt1MyY8S08W06blba9byLTwbOz3t2PXJBNypZbY98zIH603R69IfK2p0iXjWn6ePGYwFAAAAAAAAAAAAAAAAAeEZwGS25stOSG/cl98RO3WF73baWNafylK/jzS/ShrpWprWol/P1izAd8ZKMfXrkovmnr1w3haxLf/ALj+nalznsrfv9azNmt9/LcuKbrlHpXGaHcMjgUUUaE2xDRnYbDqKCYJtwUBNRNRQGwzg2AzgmCibL3mJsWgGcGgTEwUUBRNMBRNMUBQAATAGhlCEo2ZDooDXGhQTBNQCHt4AmAACkzbwAmbeAHiQAAAAJgAp46692g95dDsAMtd9NIIijL36DEUcTtvB1nZxLPXKeSnnZ+rlFYTZwUEwBRMHMPZxcdnaN3CDqyhOIcQxcugKJTtvAczu1FHdMBMTUBnExRxL2ukqNR3Ta6abTBozU4Z3WzNnFNndXfDKPEMXbODzrW7wbL9xewa/wCTwwr8Kl/lo/FLnrZflNj1D7GRAAAAAAAAAAAAAAAAAAAAAAAAAAAAAAAAAAAAAAAAAAAEwfnbnRfTnvXqf0Rwh7a/oThj933jV27nXqe9hZLbN1STEwZzx1NQTTUExRNNNQUTUZ1E2hNRjUAABMEwE1ATFATFAATUFAUTEwAATc7n6bRRIUAATBQFBMEwUAAEwUUABMBQUTAAATTExQTTAAFE0wUUEwBNMFABME1BsJiaYJqAAomCYJpqCiaaagomJiagmDXBMUQmbOLpLvDWcOjXZ02lK62e1ceTawuum7k+etPnrTq52zi8Wzs8u0/SDsa2RemTrIpTFc+DSk6+eV22mmv1N8vdtzL5zDh0fSTynZRoBQAAAAAAAAAAAAAAAATB+PfZrsgEvAGcBAyy3JC7RBxNG7VPr5ZPIfsXA+Zz4c6P13g/M+bqx4L5Eg7OL9bh9W8l1300vKQ1WHDYFFFExRRswdnFNGNlx1UAE1AUTUUTFAAUTBRMEwFExNoAE1BQTUBRnTa7QKAAoACYoACYCgAKAmAADjn33oBn4sDIAAHHPuXPsByAACYAooDLm/6cUYgAA459959g5/qw34d0xRRMTABNMAE1GuKCiYooMaagJiaig1xoa6aaYommJgCiYCajXBpzNnEZ2mDRmbadabO0ZibO6G+dnFmncnZ4hf2zi8y28m0/dLsIX+Tuwb/Ltn4nc9yn/B+T2vyvr9NEAAAAAAAAAAAAAAAAAAAAAAAAAAAAAAAAAAAAAAAAAABMH5250X05716n9EcIe2v6E4Y/d941d/saPpuzJa3V1L00IoaSxZ3VMGW++m103TZan0fGaHVNwMprvGyUbMXR0AUTABMAABMBzD2cQcAnrlegc9AcAoCYCgomM4AKAoCYKAAAMdS9NAMgAABM1OvQJgoM6Y0KAoeft+kdASBRzuLqo4dgmJusibqArvwbuAATTBRRNMT1yvQ56AkJgAAAJiYooAJgommCgmKJpqCiaaagommmoCbXUGuAmo1wa4mhyfD1M9tC06+Z35sq8e08O06ud4et4lx4kPIchWT2blQyu3DgeDTeJPr/AN7fO5tZeZYtP10w1cELDVxxrihe0RrClnR4DxHZAAAAAAAAAAAAAAAAAAAmD5q7KHm88nLzmu3vd8Lf7o/XG7/vnIo9/hi1yWZvoeF7XLWNPq/EK6JPr/f33l/SlO5/ZT9neXQu/YbIztwF4e3g7xsKuRQUXhTRJUdFBNQUUBRMExRQUTBQZbm42Sc/qtyVdHLOKJiagKDXUGwJgKJpqJiagKDnXKdIOAY7kO+7PXKdI5cb56bB0THCgKACgJgHiQAAMtzBiAAADne/vAOAY74OTc+oUZDuz12k2oOQY7kCwJgmKCYCjLXKeSnnR6iKw43PrcDialA41Ks1w7dXDh2TUUcTtvB17jl1TUZ002gTTGO59SajVFGvrnT8TQHiQJs4AmCYo1waaabXTTaUzbwdOybrprrOzO6S+tiEM7w/FHt3H/c8u3uw5p6V+63YTf8AJ44N67Z+KXPcZfk9n8kPrtJEAAAAAAAAAAAAAAAAAAAAAAAAAAAAAAAAAAAAAAAAAABMH5450H05716n9D8Ie2P6F4W9geK3fuNOt9PHZjuKMKSbQmMYAoJpgoCYziiYmoomACYAAmAACPj3p5QZAoAAAAJpiigAACYKAAAAACjOJqCiYm0JgAoAACYKKM4eJAmomM4AoooJpiiiYJgmmAANdQGcFBRnAAAExRQExRME01FFE0wTTUFE0wAa6YmNDXBMTaaibXk7ODybbyrTTmbeDyLTxLWzq5syul4lpitPsLsWGSHXp14ZYr7hc1Kdpu98xauaxo+VtYX3E85JQAAAAAAAAAAAAAAAAAAEwad8QIV83fbQJ/tFvSlNIPwVz2cg0vN0zlcSYApTvCReNrLu/wC98t/Q3COa87lmj93yKz5pX6PALkm6H1rS7uEyOYbSjMKNDYTUFE24mmpDHWVB2UAE1ExQUUTABRNRNNRMTUBQTUTUTHMPZxcwd3DumomAAKKCaYKCYoAoAAJqCgAAJgAAKAmB3kABvnpsABQEwBQAFFAAATBQE/EhRMFE1E1Bz4fvDr1HCIxhOs7jHx11UATFAZ2M1GBi7AmAo1wQm+xoo79khymmAJqCaajWmbeDp2GtNSTa032NCNnSd2jM28E0mhM2cRneOzO8xmeKYo9u4/7nh292LNPSv3c7Cd/k7cDferX8r8Sue4/5Pye1+V9auiIAAAAAAAAAAAAAAAAAAAAAAAAAAAAAAAAAAAAAAAAAACYPzxzoPpz3r1P6H4Q9sf0Lwt7A8bu/cnv2mSyyRRa6iYzqAmCbXE2wCgmmomJijOomoNdQbCYomJgoCYJwwZc8KoMgUBpgoACYKAAomCYKAoAAAAOYezi6xuOHUUTE2gAAAUBMBNMTFBNMUAAUEwaE0wBME0xMBQTZ1FAYQ9nF2jd0lw6u4AAmKM6abQomooAADOmNCaagommCbQJs41xRNNRrg12dnaEvY8m28Gy0JrwXjNWHD1y+bC5fq9uw2dXlWn6vZrWTCJksyJ3RhblaO3Vj9tkdb418+9jAoAAAAAAAAAAAAAAAAAAACYPzf7PLkE5Nvh+4M4y5Iem2umRqk+v8Vy333BWZ/BL9D4PzKYj7iez84IW+/CH7q+9dzB28HI3k02wmKw9leoVjdccKCbYBnC9lUcRu5HRQFBRRMExQTAUEwAABNnGhQAAE1EwUBMAFBNnGXvNpXYu7ln/44m5AA95fGKAmy1300jrqyHUBxz76DkAHG59YOQAUBOYACkzbwBOHuQr2THdsATfcVAcQdvAHMzbwBxL2jmWA7sZrpI41OnS7qOAcTNtOtOdhyzgCYAoTNvABnUTaGdrqCjGJjQmoNcTTFExMTUTBKb7Kjjsr3QdHDVmpptWYd3Ts0Zqac7uvmjM6S+tjPDO8Pvr215dvdhzT0r95uw0f5PjA3wflPxex+aH5RY7PqtnQAAAAAAAAAAAAAAAAAAAAAAAAAAAAAAAAAAAAAAAAAAARm7pyuoH5650H05L16n9EcIe2P6F4Y9qeNQ+84XM93ZjjSHLhJpzNvBRNsMaiYzgJiaYNgTFEwTE1BnUGxNNnUEwBjNBkAAACgMfgPAGSYAJiagmoNhMUTE2gAAAUZxNoAAAFATAEwUE0xNNQUATEwAUARmuHSd1nK4mJs4m0AmJgAJqJgACYmJqCg0CaYoJpiYKKJppqCiiaaiYCiaM0ERRrpqJgnM28HE7JtST7GqEMlt1Mub+R89afK2mg8S4xw90ZgeSGZlRy2R5k6D2+Bd/r0nS8C1MRGsvnLT9O4uzg8ZjcgoAAAAAAAAAAAAAAAAAAACYPWmdXkXh5ecgmJMls2nPPu617R0Wn7hXLfH5HDq3ZXb5a5/i/A69LtvnAmKr1yb4n364bw1Smn/Qf0llFvnp0ftta1zNX79uQpuh7iru4e3gzxsgpqdehpc6yqzrKArB2cXWdxd1TUBRRNQUUAE1GdQBNoTbCYCbnzdv0OBw6JgCiigmKAmmJgAAACbQKQ3EbLTuo5dkwUAABQTBRMFBNMTAUABQEwABQE2v46NDYEzxIUUTCHt4OYB3GMHZxFGICYCgCagM4JjCHs4u0bjh2AUExMTYzWcYtAJjXFAUa4NdMFExNQTaGuDXmCbTTTa4m0ZrjsOsmbeCUbs7pr52cUJ3TnZ4hiz2mvW8y28i16R+9XYcv8n5gX4BX8r8Uuevl+VWP276nSZwAAAAAAAAAAAAAAAAAAAAAAAAAAAAAAAAAAAAAAAAAAEwfnlnR/Tmm9T+iOEPbX9DcLfu+8c8Se4wpgmJiabCHs4jjuzTdAGMPZXqc9k2ThNNRMBRME1AE0wBMFAUBMAAGU0GSYJibQJg2EwAUAAAFGcTUBQUBMFE0xNRMFBMAABMTUAAFAE01ATTUFExNnUGwTTE0wATExRMTUBMFExNQUGgEwTTFExMGgBNNQUTTBNNRMGuKJjQ0xnJgOulvFt3Or5+1Dqa7KdT5248GGhX8+w2Xk2n6W9j9yKfMuyQ2F9zd/vj12Q+UxTpGj599AoCgAAAAAAAAAAAAAAAAAAAJgmCgPxX7MFm8S8iudxb5SIUL9acax+3f2nkezfsXBGa/DifqvDVjmq33MPmuG/Un2bvYcwee32cFGgUGwzjYBQTUBsAozg0CiYACaaibYZw3t23B1TAFAAUBMUTTTTAAFFATGu2NDcBh4nwBmAACgAAAmAAoJp9+gACigMdTp5aeYc6SxHDjxPiO/ZyOWW+ugyZgBRsGuKMv/wBQJsU1CHt4Dv3ByxnbOISxTEwIe3gA0ACbOCYmACYCajXAZ1EwTUBMTBrijXmbOLpI03CbXmHd1l18zZxHV10zbwT7pTu6a+dnFmndCdniGLPaa9bzLbyLXpH76diC/wAn3k9/mmv5X4nc9fL8pseoh9OpoAAAAAAAAAAAAAAAAAAAAAAAAAAAAAAAAAAAAAAAAAAAJStnAH58Z2P05716n9D8C+3P6G4X/d94tC3Sr3/4WP8Ahcurq12cY6l6aFE2ImA2E00xME0xNQBnUGxNGa6zs7RuyRdhMTBQDXOn4gUBMAFAAExrqCgKM4KAoAAKAmCjODQCaaaiijOmmJqAmCgomJqDQmM6goAJiYooozp+JJqNdRNsCibOomAmoCaYoCaYoCacPbwHaNlE3UTUFAAUATTFE0wUUTABME1BNNRMUa4omDTTTTk7eLNDPb3dfLl0ePawvlLVt083bxeLc3eZhef5o2SGZlry1wLjpX1iwkdukV/inz9mYiNZeJafrDAhwIEOwhw6aLGwp2uxppfPPMbgAAAAAAAAAAAAAAAAAAAAAAJg+SuzB5tvJy85qF7XtdEHt974ap3Rgf1Nr3+GM25LMn0PDFmK1n4frs/Gi6JWswbCbqL+gKlvn37Bpo8hh7d+aknbuExsUZ+8uhNRUUUBsJpqA3BMTTZb6o7shy2GMa7Qm2E0wE2gUZ03OuU6R11lwo6stz6nXZyxdncExMExzvnpsdhw6gCigmooooAoAoACm++mwEwAUAAmCYCgmmCY0KQ9vAcQmOVJm3gDjXeV5A1hyDmFohVBmmJgmoKCjCHs4ibncxRxrlOl01HDuoJgmJgJgoACYmDHc+oEQAY7n1Ju27Fndk5veTuox30GLoJb56bHZ2YOrs101GtM28BNqKJoTtnFnGhNE3XTNlOoSdJfPhGd4Zi32m363h293k2vSP6A+xLftBMmv9HuR+V+MXH5Bh2fSTM7AAAAAAAAAAAAAAAAAAAAAAAAAAAAAAAAAAAAAAAAAAAJg/P3Ou+nPN6n77wj7a/obhf2B4j4k+nYRMTUE001Expd+dLX1TbKCYmAmmJqJg0JjOomADDxzgr3cd2bM5UBMAAAFAAATBMFoSYyUAAAAFGcTaBRNNNNNQUBNMAFBQFBNMUUTTAABQTTDXK9DvrAOgAJgoJpgmKA1xQTTATFABQEwAUABNNNRRNMTGgUTTaAZxMUTFGuKNeYoo1wTZxpSprzrbwbTqpsx89cfK4XTV1zRTqYLLybT757Ffki5FyZP52VGfCprF4Se9revhsnytmYidHjW32E85IAAAAAAAAAAAAAAAAAAAAAAAB118QYN8wLe75nIpbWEinabelPAD8Es9fINLzWs6S/MmMyD2i6Z8i1vG55H8Xy37lwlmvO45h+8ZHY8zyvo9fwpujno/QWh3EPbXrQTdkJgooKKCiiYoom2BNQTUFFAEwE1BNRMAABnAAAAAc7n6bXUcOoAAKCbQNgUBQABQAFAUZxNoAAATYzR2hkOoKAHeQAJgp7x+MFAUBMExQABMABNQTAE2gGcEwABMEwTBMBMTTaAGu0AzgmNdRRNnUa6ibTTTas11lxGzTmurl1MzZxdZ2ZZ2dTfOzihO6M7PCcUfsXb9bzLbDmnpX9CHYtO9MwTJrT/V+z/LV+K341zLT+j8Yw/kfRCLkAAAAAAAAAAAAAAAAAAAAAAAAAAAAAAAAAAAAAAAAAABMH5+51305pn8l+/wDCPtr9+4W/d94dD3Hi+lUjc9+9KaLXmbOKsuks2ZIBMTAZ88GvSJMZmziOjgZ2W5OjuyScjQmJqJpgCgJgAAAxg7OIMgUATBMTUFEwUFtTp5aeZLWHOkotLgABnr1ehndNXI4AAAATE1BoTBzM2cXEbjNyzg0JgAx1300uOjnVi5cAAADOAJgJqAmJgCYoM6aagJgoACgKAmoJiaiiagmmoKJpgJqNcUTUUa4o1wa8wTa3I2cU4TtbOulTOZ89afMWnTzZnkeRcfL4XcZP8FzMoeUK6MEQvb7wkWVi8azceXawv11yW4LhZO8nd0YRg19agRbOyo+Uec8lAAAAAAAAAAAAAAAAAAAAAAAABMH58dnYzZ6YuyVXVnD4XhUrOwjI0T/42Ny31XCeZfBmMPvODMzmt4/3D8xY2pTe/oXtEh/QFN+mO4h7eDmNmN2romy1300u2iizsopDdI2doUcOqgNhRNQAFAUTBMUGdQBMAFGcAAAAAATAAGW+qDFRQUFAIe3gKAKAAAz3Prddhy7AJuNcmQxyxm6JlR3U30HAA0AmmKNwZ2n46NCgmoJgJigKJgoCYmJqOP1W5OOmw51yvQ6CYAHfqYAAmoCYmCYJgmAztDGaDEE0xNRRME01EZoztVMdemNeZs4jO6eY6dk3U3zs4ozunOzwrHX7F27zLe7Ba9I/oe7GX+0RyZf0Xjf4vxa3+Z+MYdnvlB2AAAAAAAAAAAAAAAAAAAAAAAAAAAAAAAAAAAAAAAAAAATB8B53X085nVR+/wDAvtz9+4Y/d94RD3Hi+lUjdmmimmmAn46JpiaYoooziaYAM4KAAmJqCYAAeJAAAAoAAAmAKJiagAAooJgozppiaiagKAACg5hexq4nZzG7hy4AATAATE1A8dde4OwJgACaYJqAJgM6YKAJppgCigoCgmAAmoKJtcUUTUTBMAExRrqKJqKNdMa6ajTGdqSZXMzW4Y7Vt1UuZ5Xytrd8faavK2163j3HhYX1d2MDIpXFGN7fLDfcH1i7/wBj/vj5/NbujxbGF+gDzklAAAAAAAAAAAAAAAAAAAAAAAAATB45lNwVcmU3BF64FvqHS2jz4tpY21Fa2GakRK1S5y1uH8+OVrJzfORHLXizIdfPrFvcN4Wur/x0b9xafgP37g+3zs6P3bwLPMVvvmMKZo7yfYpuzh7OINhnUUaE2wztCiaiiibYE2wCgAAKM6YoNhNMTE1BRNnTBRQTUFExMFAcw9nFxOw4dAUUFABsJppqNAoKAx3wGQG++mwAFBMABMAUAZzfZUBgAKAop8C0DgHRlCIGQJgCgCYAENnABoE5jLIOoAAxmbKdTmdxi4E1ATEwTTBMTFE2hRNnGM7bwcRsMXQTGhGdt4OYcSj4k4OzTEGpN9jRLs6d2tM2cXRJ06abpb58KEpvBMon7GSOtntvPtekf0Y9jlh6nmOZMqaduFo3+L8Gfjb3gAAAAAAAAAAAAAAAAAAAAAAAAAAAAAAAAAAAAAAAAAAACYPgfO9+nJL6n9AcDe3P3/gz93ngkPceL6R3jdlufWkiwdAE0/HR07qDhpgoM4DmZs4u07pd2UzbTrcd052YO7oJqJs4oACYKAAAmCgAKAAAJiiYAAmCgmACYKJpqKKAAAAAAmJqAACYAACYAM4m0AzqAJgCYzqJiYAmCiiczbwcRs6xuKuwoAmCgKJgJqAmmKANcUTUUa4omKNeYDUmbOKY1hjaEjk0o8Wza1eFmtp1EzZTqeS+ULnueZfMywuWF7fbyHzlm4821hfrRmtZIIWRPIpdOCYfJ9fpH7bIrXw2lXyzxXsYFAAAAAAAAAAAAAAAAAAAAAAAAATTE2cfll2fTNoph6RcOdjhiDz+t3diGR/F/uLTlv0nhXN+Rxz/AEfoXB2Z/Fh+5fBd3yddpp0P3ancffW3kMOYzM7sHUGhRSHs4uJ2UUdBsCbOHt4NDju2Wd0UBQUAE01AUE1ExrtAozpiaaigmAAAoKJgKJqCgCgyh7K9SbuxUcgKAAoAAAJqATNvAGO+dQMfP2/SKGudPxAAb76bAU8dAGgBzuULoBwJtgTa4omKAAACY533qTFfhjqIuomACagAJiagJiaYmmJqAKJpqJgmAmNdRRMEZqbidmqm6NMTaM1NN1c11ndN098+FmlN6/yi/sdb9bPcedb9K/o/7H/FpEzKsmlKbaYVjaX4VinXFo/HHudMAAAAAAAAAAAAAAAAAAAAAAAAAAAAAAAAAAAAAAAAAAATB8GZ5f085vwd+68De3P3/g3934evoXeUPa+vduyjOkluQMATBsDO0wZ751ibkTBME0wUBl4j6eRnGQJgmACgAAAJgoCiYAAomJjOoKAAAmCgKJgomCgAAx3PqcDJyJpqCiYACYAACYmmKNAwmbOLLO7tG7h1dUxQExMTTBoUAGdNMBRQUTABQFEwATTUUZ02u0KCgJqNdRRpqKJpqNNRRpibiVTyPPi48S3DpZkzyeR89afK2nWa5TyU87xdZeV1fQnY2sivzUcttMbTdxuD16v3x4Nm5MPnbWHV+mTxE1AAAAAAAAAAAAAAAAAAAAAAAAAAExNQetM7XITcmchm9YmyPXz7Ve93WlnYcr7Ha/uP9vQ71dKkaRs3U7XLWdZ7v58uTFl4FxHeuSm+fWL2w1b2sS3/AKlp/wB5/SnDlub2Vv2Wvh5mtPjvI4U3XYT3N212sPZxcs7YTUUUUbDOm2AUBsAoCgGudPxB1BME1ExsM4moJ65XoaGdRnHOuU6XXQcOwAAKCiYAKKNdRRQGW59Q42ZDkBQAGcOZoBgDLfOoGQmoCYAoc8KoAAHv74gUAFAUTBQATABQBMAGW5JjFMAOeHvrp0E3cTAUGOu+mlMc751pjAAE2cTBNQBRNNRMEwExrqKJpjXTTa6Y1JmynUOk7uvnbOInLrZvsqOP4knTXz4WWU3rzKH+xdu83N92Cz6V/SbmN/tRMnX9FIv5t+K4t3409uJAAAAAAAAAAAAAAAAAAAAAAAAAAAAAAAAAAAAAAAAAAACYPg3PK+nJM+DWT914I9BL+gODP3eh6+h7jxfXu0bs2dFDxzgOO6czZxCCHs4tMOsOGZJMFBMUTE0wTABMTUY7k4GToJgAAAoAAACiYJgoKJiaaYoooJgmACiaagoACaigmmKCiYACgJgAJgoJgJiaYAJiYoCYCaagmmAACiagKJgAomm0KKJpgmmoKJppqDYmM7QmDXUaGumNdRRrpjTTZ2hfEryPEt4Xz1q26WZM8r598s061mU7RDhae327ycFnV4Vy1o/VTMXyJxcieQm74c6BSwvW8Ka5ePl08t85cnWXmYXulndlAAAAAAAAAAAAAAAAAAAAAAAAAAAATB+LXZvs2fkZG87m6cv9ywe0XVjuP2qfb+/bH/ifqHBObaYuSfo/DWZ/qv3T5VuWbqXeL9ifcvJIU12HbsbOooooCgm2BRQFBNQFBQE1ExTx0ATATGdRMAAGgGcAFBlrlPJTzjuyHKagCgCgm5h7OIp3Zbn1g5EwUABNRoTPHO8ku6g6AKAKeJAmAADKEDEUABRQAAAEwAEw8dTBMATUBMTUBMTUBMATZxME1ABOYn3WlMdkwExrqKJpjXZ00pm3gDRl7B0l187ZxE5dZNdZ3SdNfW12Snd61yhewt+t5mb+1sFr0z+lzMspq2ahk85Faf8AwpF/Nvw2zP6WKX4xijW1o9qoO4AAAAAAAAAAAAAAAAAAAAAAAAAAAAAAAAAAAAAAAAAACYPhHPN+nJafBrJ+68D+gl/QHBn7vQ9d3fuT6+HNpXng16WdJqAAeOu3dNjzb66psQUE3G59bnZNg4TBNMUXg7eDOmwUBMUBrgyg7OIMQAAUAAABMGwmmommmKAAmAoAKJpqKKCYAKAmAAAAAAmAJgAAmmCgmzqJgommmKACaYmACigmmm0KCiYANAmJqCaagJpigoJpqJtCiYomzjrxRGaO8bNORs4s0PItuiviW+ftYXy9q26WtazKvGuXHzWHC9xZiGRT5tmXiBSbuF0d+Xg8m1Pwxq8K0/V6Ls4Pm3VUAAAAAAAAAAAAAAAAAAAAAAAAAAAAEwfN3ZP81aJnWZqd+YWh8n9drpj90bgt9PjPIenlduat+Jl7WRWeVtRh+r8HsIXxMk3LYa7A9fsPWrf75yH9G5Pc59+v7PM4U16a7yCFNZmdvuwoKKAoCjQNhnATWnbOI7zsyHKiaajOmNAJgM4BM28HWdwdgUAAUIe3gOI2UHLGHsr1KQ7/AMSI5UABMGwDnm33m2gkDYBQGMzZTqHSd2Ike8fjHYFlBNNoUUZ0wAAAUZ8++8+wcsB3UA9/fEOf6g7gAAJppqJqJg595dLoJO4NAmxigNNQUTFATTE0xMBQTBNNRNNRNQTFEwTTGumm1pm3go4nZqTE+7r2aM1GXHd1c1ON0p2dPfPhSlB60yie0yOtnuPPtekf0xZoX7V7Af8AROL+bo/DJ/8Al+M4vWvZ6LsAAAAAAAAAAAAAAAAAAAAAAAAAAAAAAAAAAAAAAAAAAAmD4Rz1/pyTfg9k/dOBvb39AcGfu9D1/d+5PssLm3syZUmuCYAmoJpgCYJpiYDGds4jtLIdUxMTBMTBQAAAAAAFAUZwATTPEnfs6dhy4AAABQTUFABzD2cXHccOQABMFExNQUTE1AZwAUE0wATExQTTGcTUBoUGdMTBRRNNMUBQFAAFExQBMEwUBNNRMUTUGuo0NNMa6ijXZ2doXrK0U2POsw8XNbbxa+ZlNL5W4+OwuqiTObR9nqx2XhWn6i9jWyD1yP5ErG/r6gdove/69ukfev3D5O3Os6PNwvoxmdlAAAAAAAAAAAAAAAAAAAAAAAAAAAAAAavNNB+CPZKc1+Zmj54N+3NCg/8AJvFknuvh/wDr+32f9V+6cD5rNzF1frXDFjmaz1Jcs3S++fTPJrl798LKO0h7eDvGyCrl3GhRsM6bYE1AUFGcHbwHWN1R2BNsJiaiajOAmCYAAoAofAeLkHcE1BQAAUBQGHvLpBmCYKAfDeAAmAmJtwGuDYBMAUBNluY5ZDuCgKAAEPbwHMJjuoCYzthjE4btC8JuzkTEwTUBMATAABNMExMBQTUGuztAmJgmoomDXTUTmM7pOzTUSa8xx3dZdfM2cUezr3dfM2cUe6bx2+fCSd3gON964PMzf2t5Fn0z+mXNV5FI2bpgrk/6txfzb8PtTpgfi89bUvY47gAAAAAAAAAAAAAAAAAAAAAAAAAAAAAAAAAAAAAAAAAAJg+Ec9n6clp8Hsn7rwN7fL9/4M/d567u/cn18O1pkmkmmMOf7+CQKDOmJgKCaYmCgCYKCaYJs6agJgoAAAAACiYAomAAmmJqJiagomCigmCigAAAB4669wdQAABNMAATAATUBNMUBMTE0wUUGdMBNQABQUBRMAGhMAE01FGdNNoExQFGmoommo68UaYoy5HI0Fu2861aeO3xMfKWsL461beKTZnPzvHuPDwvaWZDkLlZwecJAuSdC0QIHfd4yP5H1N5dm1EdZfN2rUzOkP12gw4MKHSFDpSljY02PmnVcFAAAAAAAAAAAAAAAAAAAAAAAAAAAAAATB8M9nTzU71y9Zr9jlMwVCpb4kwFI7oWH8bH0fKW9m+m4WzWKOZPpuGLPLWdH5B4avvXYVhNp9Xf0HUfrTy2FNah3qCaigoKNxNMUFoSbrDIdVAUBQFBMBRME0wTABQUUE2cUaE1ABQTBQBQTBQBzuXUGzgAAFABM8dBl7zBiCgJgpDEwUZxNoMBRQAaAZwAUBRjzb6Cm+AxZ00xQTAAEwTUEwEwATEwExME1AFGumomAmJqKJpiYo1Zom1U02tM28HE7uJ2aEzZxTl0dfM2cWfum8dvnwknd6+x17dYff3l3HkW/SP6cs3DkUi5BMIRPJhuL+bo/ELX5JfjEz+tTDz0dgAAAAAAAAAAAAAAAAAAAAAAAAAAAAAAAAAAAAAAAAAAEwfCOez9OS0+D2T914G9vl+/8Gfu89dXfphQeL7CN3a2uzJITNnEcQw3IcsRNQTTE0YQlGyw5ATEwUUZwBNRNNNMAAAAATFExNQUATATABNMFATBQFBQTBRRHx708rQMmcUTE1ABQEwUBNMEwAUE0wTUABNNNQUTTTUAFAZ0wUTExRQATBQFAFE01BRNNNQTBRNMUa4o1xRCZs4ijWmbeAtOzTGVrXryNFHn2bT53NbTx6+ZnlfK4Xy1t4xOroYrOB4Nq4/TrsX2b38yHIn6rL6gdovfEFe22/3r9w+Tu24npLzsOF9NszsoAAAAAAAAAAAAAAAAAAAAAAAAAAAAAAADq8RXDAxNcE24b55Hbo86NaWFtSn2Pl00OtbFO5L+dTO0yIys1POexnkQlwNMCxvHW7n+BW3rnIf0Nw5m/PS/dchsff1/v2jgm+9dfXtbyWGzQzthqGwNDYTFFGduM4AoKKAommoomCaiYJgAAoCgCYm0JqACgOfN2jQDgFBMAFAAGW59TjZ03ZOXDHXfTSDEUAUAE2WuamDEATZ7k5cuXDuCgCgONz6xzs5FwAAExM95dCajHc3GwydATE1ATAEwTBNQUZxMEwATAFGuoomziYAoJqNcGrNE2qmm1pm3gmOvmbeAm6qZtp1uEp2dNfUxlQeucT/srY/f3n5v7YwZp6d/UBkFh6nkewxyP+ZI35t+HPxp5iAAAAAAAAAAAAAAAAAAAAAAAAAAAAAAAAAAAAAAAAAAAAD4Nz2fpyWnweyfuvA3t8v3/gz93nru79yfXw7WmQzNdnAUBM1yvQJgmmomomAJiYDmHs4puJ2cJuQTa4AKAAAAoziagAJiiYCYAoAmAAAoKAoAAmAAAmCgAAJgCaYAomJigAmmmmDQoJppigAmmCiYmKAAKJjQoozgommoKJiYmmoAmoohM2cR2lpDs11FGummlJ9i5w7p293TSpmij5+xafCZraeO35tr1vn7Oz52281zR8hEzOGy8XRhTT3jY993hX+L5Dx7NzR5VrDMv1+ui7odzwY8CDzWFhY0srGml806t0AAAAAAAAAAAAAAAAAAAAAAAAAAAAAAAAAH5X/JGubxfFnhHDud3gqFprcFK3diH4Ny617X/t2j7jgvMpy/M4xS+04OzT4vHjwfo/MnDeKYXiU/2/Y/e6b9Mez7lmVZYZ3cwnMja1OnS50c9BpXWhJptpMUBQATUBQTAAbCaYKAJqDKHsr1EOJ3ZJuU1ABQAAAFBNbcxNiKJigJgAAmCgCgAAAmANgoxqAod5AACgAKKAmDLzdv0OoxRE2gUZxMBMTUBMTUBMAExNQTTAEwE1GuKJgmoCYmm0JqDXTTaUzbwTTaiY6+Zs4ibr5glLx2+dyqyuMTwC9v2RhfzhZvNzfeHlZr6V/UXkf+ldh/+Y4v5uj8PfjTyYAAAAAAAAAAAAAAAAAAAAAAAAAAAAAAAAAAAAAAAAAAAEwfCOez9OS0+D2T914G9vl+/wDBn7vPXd37k+vh2tMU2ZNoUGdMTGOpemgT0YibnxPg57JuHCbmHs4jvOzgdATTATBMATABQAABMAAGcUBMFFATTUUTYwhRkJppqACiigJgJiYCgJgoKJiaYAo0CbOCagAAmmmmACgmKACgM6YKJiYooCYCYoKCgAomAmJgJqNdRROYOezXF3XtCgzpuuveVSEz24eRatvFpkyvxvl7T4a06WbMr8byLOzw7T9HexW5Bvme5IrfKPfkHv7E9e2x9PuZ8nc3ebhfWbM7JgoAAAAAAAAAAAAAAAAAAAAAAAAAAAAAAAAD1rnO5Ernzjcg2Jcj19Q+TbWF/XNaxOTSRT2q05dP1Fp/VrzqV7HKQ2U7HKWo8Z/M7euD72ySYpmZJcSQJEe9Lhn2sS2j08nItH9KZTbxX5nV+31rU2602JewsL31p7ye46vOLlmssOHfa5Tpc6ueg0u4DahJusrJuygKCagAmoJpg2BQAAAAAABQEwUABQFBNMUBMAABzD2cQcACbKEKMRNQE2gZbZv39BVi4d1AU9/fECYKAxhOJ2UZOigCigmmEzbwc9juw95OBTm3LpQ/oJ78u43cf/46jlNnBQZ7miMHUYzUxOZsp1JyMWgATTEwExMExoTABNMa6iiaaiYNNNnaM11ncloTNvB1TaEwSl47fPhHWXgsv9n4P84Wf5x4eb7vLzT0r+ovJd9L+5v5rjfm6Pw9+NPIQAAAAAAAAAAAAAAAAAAAAAAAAAAAAAAAAAAAAAAAAAAATB8I57P05LT4PZP3Xgb2+X7/AMGfu89d8jdOD7LDsjb2YujhNMExrtjOozqCaYJgAJqJpppgKJgmJgA5h7OIOAAUTAEwUTABMAAFATAATFFAAAAAABMAAAGdQAEwABNQBNNMTABRRMTEwUBMATUAABRRNRMATUFFAE01ATTTUTUUa8zbwHaGmOzXaFE2ceOYjmaOZ49m5q+LzWHjM6ZXQ+UtPnbTyXNvyXTcvOXi4cnML2iRI7beEj7DG5Dy7M6dXzdp+yVy3HAwzcthcVyQ6WNhGsO1R6eR806uyAAAAAAAAAAAAAAAAAAAAAAAAAAAAAAAAAABrsY/Dz5IfzW7PJVnMXDnHXJD7TdOPI+q3vWN9Sm2P1T+s/XeCMznwscw/TuDs05qr9y+I8EX1NhX3qXuh+sS+qe4Lkm664aHeQ5qibstcr0ONYdFVXcUTbCagom3td9NLOmyBQFBMFAAFAATBQEwUBQTBQABQTBQE0xQBMGwmCiYABMABrijcBMUAAAAABRRnAACZt4AAmAmCgAJgoCYAmAmAJgmDXUaFGdNMTTFExRMBMBoaYNcTam+dSabSTHXg05gzS8dvnwskkvCafRbdfw+z/OPOzf2t5Waemf1G5PvoIub+b7H82/D34y7sAAAAAAAAAAAAAAAAAAAAAAAAAAAAAAAAAAAAAAAAAAAEwfBmev9OS0+DWT914H9BL+gODP3eh67u3c69T7HChbXZUmuB46CagJpgmoCYJiagmmCiYmoJgozgCYAANhnEwAAUTE1ABRMTUAFATTAEwFAATFAATTBNRRoTTTABNQABRNNRNRME00wABRRNNNQAEwAFFExNRMATaBNRQTUATFATTTUTUExRrg1ZmynUKNUUa97yqamz24eRatvAsTTO/Hz9q0+NtWnRTZlfX3j4LjwrmF+iHYiM3mmFsl8jLjfkGuvYl/Y+lvtsoz4y3vo8fC+zmZ2UAAAAAAAAAAAAAAAAAAAAAAAAAAAAAAAAAABMHzl2TzNVgZ3maHiXJzyYXy17WEbujh+3+xSeR7Buy61NXMIl7PD1qMuzPp3fztXZyJllA1+bA7ROsJFrZXhYfYbTketv6Jyi5z8v2jTq9jYJm952D0XDzmHomVc9Wd2UOY4dnYqOoCgNgUbAzqAomCgoACgAAAAAAKCYKAAAAAAAAAAAAAAKACgKAAMufcgYgAoAziYDQDODQKMYmAAAAAAAmJzNvAEwEwFExRMTTE0xRNoUTZwTGuoo1wTZxppptOZs4us7jSmbeDqm6+Zt4JTsm8evnwusuJeHQ/o9uv+eI35x52be1vKzL00P6iMFfQpc/8AN1j+bfh78Zd2AAAAAAAAAAAAAAAAAAAAAAAAAAAAAAAAAAAAAAAAAAACYPhHPZ+nJafB7J+68De3y/f+DP3eeurt3F9jhRt7OEUhMTAAE01E1ExMTATE1BNNNRlr1Ol10kYuwJgAACYKM4AAAJigJqAAmCgJgCYCgJiYKKCiYmmAAAACagAAAzps9er0Ousu2ssHV1AATBQAAUTEwABRRNQAAFE0xQBMUExMUBNNnUQ1ynS0O2stYdmmmJqDoMRzO8njWbj5vNsLwW+a0fP84+U+GXfZvuSK+su+Wq6MlkHxiR22f/E2f7t8/ZuPEtYX7QYKwrcuCcKwMK3Jye0x4EftNhR84yu7AAAAAAAAAAAAAAAAAAAAAAAAAAAAAAAAAAABMEp23gD8AOyo5tMLNzz6MS4X5ULtFxY1/X3D/wBj7Zy/brP8N+w8D5t8GN+xcM2eZr6/V6KuXXYczUpr9Hes8yhzQd/D2cWdz2bUJodo2bSjlaDt4OJ2dIWcuGxrnT8Tjo41UcuisPZxO7iN2Y6KACigmACgDLc+ocMRyAoJgoAAAAAAAAAAAAoJgooCYooKMdyBiAAmAKJgmJqACiYlufWoOUwAAAAAATE1ATEwExMAUTE0wBRPxIUa6gJjXFE0xrpptNMaaY05iabrpm3g4nZN49fPhdZcS8UifR1cn88Rvzjxc39seXmXpof1DYM+hO7/AOb7H/sPxh+MO3AAAAAAAAAAAAAAAAAAAAAAAAAAAAAAAAAAAAAAAAAAAAB8EZ6/05LT4NZP3Xgf0Ev6A4M/d6Hrq7fZcH2WHZC3s2GRJMEwATE1BMAE0wTZ01GhNNNRRMTAAAAATBMAEwBRQTATFATUFExMAE1BNMUBQGuCkPbwdo3E3YUZxRQTTBNQAAAZ0wBMAAAAFFBMTEwAABRRMTFAABNQTTUFFBMTBMGumomJtXXfTSO+kNVN0a8mV/8AsW4QtW3iN8S9EN89atPlLVp4lNrqb5+zgfOWrj9DexK5sPIwXg2dl7xVCpr9/wCmxu2n2KN4fwnyty501eNhwvtJmdlAAAAAAAAAAAAAAAAAAAAAAAAAAAAAAAAAAAATAB+fvZ983jk5Q81+Pl2uWD269sB3hZyu3aPFeX+o5f8AxvdyS3yT6jhizy9n+r8iddhzaWF9Qp/rFu/oN+oPKLm2c3t4O4hg7KDrqg3ISg2gFBuCagKQzu4jZQdGwKAmCgCgJgoAAACgAAAMt8BiAAAADLcwYgAoCgNcFBRQUAAAExMFEwTAE1AAaBNnFEwAAAAATEwTUAaBnTAa4mAAmKJgmKJpjXUURmbadaYhM28EYTakx1GmmNOZs4pus7urmbOJ3dnQ3z4XSWaXilz0/wDaNckL/WCN+ceLm3tjysz9PD+ozDX0LXf/ADdY/m6Pxh+MuxAAAAAAAAAAAAAAAAAAAAAAAAAAAAAAAAAAAAAAAAAAABMHwZny/Tktfg1n+V+68D+3y/f+DP3eev7t3F9jhRt7GuU6UNUnDoJgCaYKCbiHtr1uJTcugw8c4CbhMUBMFATBMAAEwUTBMEwAUABMAFAATAAEwAAAAFATBMAE1AAABjTGhQTTAEwAAUUExMTTBQABRQATTTUAUTE1BRriYKJigmNdQa6YhM2cXbsJOqbXE3QYml1pz8zzrWF5dq48emPAtYXylq27jITkim5ectVwZLINPWayO23h975Hs3g2Hzdp+yuHLlu/DNwx7gubkdqjQY9LGx5NaeDk8z5lw7MAAAAAAAAAAAAAAAAAAAAAAAAAAAAAAAAAAAAAEweI5aMn1zZXskd/ZOL8hdvsL+ue1iW1h5fl7OrrXwxi8NetairciX81mLrtl4BxvfuSqb7fhq+LSJ3x/oWn6j/YfuWU29J0fr1e1pW+/dvct9eGj6WJbHlMKa7OXbQpuuNJu3Ic13ctty5bigmDYBRQUBQFAUE1BQAAAAAABQTBRQTTBMUUAAAAAABQTBQFFBQAAABMFEwTBMcQ9tetyMHcGgcanXy18zOOUwAAABNQTBRjBQYzRzDFN3BQGdrgAmAKJpiYomCYo1wa0zbwShNqOg1Jex1nclpOo6uZs4p9x4xfW1odIeN4Uh0+alh3R90Eb848TNvbXiZ96eH9R2Gf2AhfBbJ+HPxl2IAAAAAAAAAAAAAAAAAAAAAAAAAAAAAAAAAAAAAAAAAAAJg+DM9f6clp8Gsn7rwP6CX9AcGfu9D1/du4vscKFvY9+9LP1ScOomCYmprlegTABNNNMUTGdQBjvoMgUBNMExNoBMUTAEwAZePenldO4xdwTBQUTEwAAAATZ1BRMAUHMzZxdOw4cCbQNhMTTBNQAATE1BRnE2gUZ000wAAAUUTE1BRMTANcr0NDtrAzuyaaYAoDQJsYmoolM206152VYMiTXFGuCYmmmm0JUqicYWK3b0dFfXfnPR8/asvlLVpqcquiHbzfqD56zgeJauPubsUObxTDGCpGXzFMPRPv+lbG7q19zeX+s+duT10eZhfZLM7KAAAAAAAAAAAAAAAAAAAAAAAAAAAAAAAAAAAAAAAmD8Mez6Zp1Mh+dRHziMMwe0XJj3k9rnyPqdjO5G38Lkdrfe8KZpOGX6BkmZTykeC+NMGYkmXN3n9nfovOPpHnlzTPDCek0O6hy9K3OONHd650/Es5bkOYKOwhikbKDOpqeuLKMtz63ZRioNgFAUAh7eDiCWw5AAAAAFBMFATUBMTBoTBQAAAAFBMFFATFFBQAAAABNMVmbOKYzTEwATUFExNQEwABxufW52HLgTABNMExQUTABMTTBMAUTBriiaYM41JmynUoJTPeXxDhppuWmDTmJnd1czZxUdZ3dDfOziz93M7vHsKfTOwr/SmN+ceHmv5nhZ/6Z/UFhn9gIXwWyfi78ZdiAAAAAAAAAAAAAAAAAAAAAAAAAAAAAAAAAAAAAAAAAAACYPgzPl+nJa/BrP8AK/deB/b5fv8AwZ+7zwG7t04vp8KdtyIJgmJpgoJgCaYCaaYACYAKAmCiY4m+yoDlMATBNoHML2NXWNxmiCYKAmKAmAAAACaY2ExrqCigmmCagAomJqAAAAACaaYoJpqJiYCgCiaaY0KCaYmJqAAmJgAAmoJpgKJg1wTTGuom41yvkr5wTmTNDOk8evmXqXgedawvBtXHXxImtvj7Nl8fatPO8kGS6blsyv3Rkehe0SPXbwkfYbPkezfOvOfq5hXC1zYTwxBwxcsLtEaBH7VHsNOymhmHbgAAAAAAAAAAAAAAAAAAAAAAAAAAAAAAAAAAAAAAAmD1FnpZpOT3PRyGXrkRygxNFlNp2675/wBUiSeR7C05C9axNPDrqtVtcta6v58M5TNQy1ZpOVKdkjyn3HokQNwn/U7xjfZOQ/TuHs1m50l+meBmNbx6rosHXvMr3nNfW07jU8xhX14XqNDvIezi1NDsocx1G/DmOXMS31XDcTBoUBRQFAUBRQAAAUEwAUUEwAFBNMFATFAUAAAAUABQAUBQABQEwEwTFEwBNQEwAABNQExxM2063IwdxRMExrgJgoKJqJiiYzpgAmAmJqKJiaaajTUUTmbOKZ3TTTaaajUl7HWdyWlM2cXV1nd1czZxT7uzx2+fCd3XE6HBP038K/0ojfnHh5t7bDws+9O/qFuT9ho3wazfi78ab4AAAAAAAAAAAAAAAAAAAAAAAAAAAAAAAAAAAAAAAAAAAJg+DM9f6clp8Gsn7rwP6CX9AcGfu9D13du516n2OFC2uyvOT34aGuCYztgUTBnC9lVnHIJjOAoCWo16AcgoCYCYomNdoFGcATAAATFATUBMFABRMTBRnE2gUZxNoAAE0wTUABNMUUTTEwUAExQZ0xoUE0xRRzvo6buB3FAY002wTZwTEwAATBMEtcr5K+cc6OU3AoNdMTZxNoTRmbKdSbpO6Kbh18qZqaNtK06edWZLl/7nzHj2dXw+bWm/dUWHcsPXZr46zcfPW8L707HHm7Vye4Vt8seKIX673/u38TGZXZ9SgAAAAAAAAAAAAAAAAAAAAAAAAAAAAAAAAAAAAAAAAAmD05njZluSHPPye+o3Khc1OTMjU7ZdF8WG8Q7T/QXrWZq4lq1nFXnq/D3PDzHsrWZflAt7kyhwK6jbyP1nxBH3aZZ/8b9IyvP+cfY+BmPMvVcWVMh95zH2lS3L3ph5Dct9PTb3fw5mnffCDsYbt3aG/CmrxLhvQ5rs5WhTXcbKYmNDYhd+qOIZa9TpUcastc6fiU1caA4BQBQTUABQATAAABQAFEwUAABQTBRQExRQUAAAUATBMc756bHUcOoAmACagpqdeh10gHUTAE2uoo2ExNMTTFGgExNMATATE989NjuJuRMBMSmbeCjt3YJuzXFGuDXZxrTNvAGpM2cXQaaQ6uZs4nceO3z4Tu64nTZPPp14W/pRB/OPCzb22Hh596aH9QFyfsNG+DWb8YfjLfAAAAAAAAAAAAAAAAAAAAAAAAAAAAAAAAAAAAAAAAAAABMHwjns/TktPg9k/deBvb5fv/Bn7vPXt37j6eR9PDHb2TUQE1ExMAAAE2uzpue/Ohp6uOrNmcgAKAmAAmMoSYxBQTTTUFAABQEwAExNQExQEwAAAATTABNQEwExQABRNNMUAAFATATABQBNNMTE1ATEwATABMAExNHXfTSmJ65TyU87hNF0TTFATa4ONHOzXLTPFpq8q6L5l+I+sPls2zZ8tYsNS6o3dmZqcKD2+397vzqzZ1fM27T6ozXOx+33im+Y+N8uEHV7osPXY9zV+rfy3dmh9w3fDgwIdjBiRO02Nh63Hp5KNDQ3QAAAAAAAAAAAAAAAAAAAAAAAAAAAAAAAAAAAAAAAAAATB4llhyM5LcueCrfJ7lUwrYXtdMj26NbuMHjfeT0IszUflBnwdhQym5GZdvlDzbKSMXYZ+r3D47d38j7I+xyviiaD3/Azv4tnwny7al3yreJL1iwtrD2+wke2WX9R+lVc252X2FazzLvrmvSY9Ju5t2sO+nqLu+13k+QG2KN3XdSpoHdsQ5muOd3Lb1zp+JzqDqooomoAooKAAKKJgomoJqAAAAmCgomKAKAAAAyhAyAFFBQABQAAE0wBRnE1ABMBoBnFE00wAATAFFGca6gmoKM4AmAmJqCYJgAmKJpiUvam7ygOWumNOYDTBozU3WHWzNnFPu7PHb58J3dcTrcl/fmWfB39KYP5x4ea/nfOZ96Z/T5cv7ERfg9n+R+LvyBuAAAAAAAAAAAAAAAAAAAAAAAAAAAAAAAAAAAAAAAAAAAAmD4Rz2Ppy2nwV+2cD+3y/oDgz93oeBXfuFep9jG7Fb2S1Omu/wDmaI6MJmziS4cOBhCheGo4cDlMTBMTBMAAATBsM4moKJgmmKAmCigmAJqCiYmoKAmAmJqAmCYKACbOoo0JppgmAJigJpw9vAdo2UHUABMUGdNQUAFEwABnE2wTZwTEwATABMAExNrs4x1300u2rroxdXVriYmmmoomzs6lIVHm2rTFZtOzwzg6+cTTNSuSD294FniDV87azJ9O5IszfGt/3LqV+Qu48GR7fSvtr4G7Z518/ht81Gr3ZkJzQMj+QXkV5WF7lrOnW1Oe8bxp22qkbs8bvbi66gAAAAAAAAAAAAAAAAAAAAAAAAAAAAAAAAAAAAAAAAAAAAJgmxj5dztuxPZrWdrMtsUTsP1uDElaaa31clO18u2r/p09jy3q180zGp1horeP49Z+c2cj2HXPBzcZVtNyewKY8w3Y89JF2c8iy/l2D7bKuNZiP159HXzrr+i+Z41tS7pdvc18QZEG2sPb7C39atLJ+i1c253d9JWs8y7SFM785nqNrt4cxoaHaa5TpBaELxs3hy4hzHI2XAoomKNACgAoozibQmoom2ATABQExRMUUEwUAUAABQFATFAUAZwdvAcQ5HIJqCiYCYM4NAmAmCgJgmzgJgoCYomzqKAmAoCYAmAmJgmoCYA1xRMEZooiDXTGmmOvBpzNnF07OO7r5mzil3cvHb58J3dcTRyRfT3wd/TGD+ceHmntr5zPfTw/p4ubcI/3ij8XfkDcAAAAAAAAAAAAAAAAAAAAAAAAAAAAAAAAAAAAAAAAAAABMHwlnr/TitPgz9s4J9BL944M/d54Dd+4V6n2MbpW9nHiThBrg48c4und07uNz6nOznZi7OwJtdnTUBQBMa6goADODt4EjBNNRMABNQExQTUAAFATAAE1ATE0wTUFE0wAAEwBMEwBQABRNNMUAGdMAUUFEwE0wUGOu+mk1hyxZ3ACYAJgmACeuV6BNPXOn4hxqlM2063R0YOBNnHMvYomnrlOln6s6MukOjNhtIW7TyPJ9kxxplBmajhW4ZEjT4w+dzbiF41jMn0Zkv7HNPm8mwnZVb+1enueM+Tw5xml2Pil87cseHhfT2TrIhk6yWw9RwrcMew98fVKsTC8wBQAAAAAAAAAAAAAAAAAAAAAAAAAAAAAAAAAAAAAAAAAAAAAAAAEwAels4HMPzY85yBT5qWTeNWTo9ZvGN61Jsv661W5mVaekrV7OCrtD4Hzkuwe5T8n3Jt77zasV937q9trc94bz/U5b7DKeNv519PWzrX9q+OcbYSxrkivj1MZUcKXjcVt/wA4Rv8Avv1CrmmK5u+irZpUs/sGtDma49ptdnrlegaG5DvpMWhzVBtgoKKCgoAKAJgoCgoACigAw1ynSO+jgcgooJgoAoJgoAoAKKCiYKAAAAAAJgCYAACYJgM4CYACagCaiiaYJgAAmJgmoJgAmmomzqIzWiSWrM2cXadxGa5jYasxm7DTmOo05gd3VzNnEdZ3eO3z4WfuYmpkTh6cueBoX+uMH84+a4h/M8TPPTv6dbm3CP8AeKPyB+MNwAAAAAAAAAAAAAAAAAAAAAAAAAAAAAAAAAAAAAAAAAAAEwfDGet9OW1+DP2zgj0D954M/d6HgF3bjwfYwjbZeOsyDTUBMTUBMFE000wAFGcTUBQEwTTABMAAh7eDiBRyoAJgztCbQmmoKJiaYo0CYCYmmACg10wAATUBNMUEwAAATE00wAE1BjrvppX0h20lkg6iY11AUUE0xMAAT1zp+J06JppCbQmA1wTTTExNl5xxpCeijPctMUWnmOTzIRldyozf+Stw+se6JD561xC8W1mT6gyLdjkwvcvJsL8yqT9ft6eLU9rfGWbL5+1ajV9IYXwPhbBMLUsKXDHj2CLz3dgAAoAAAAAAAAAAAAAAAAAAAAAAAAAAAAAAAAAAAAAAAAAAAAAAAAACYAAPDMrGRPJZlouP1M5UsDXfe8elNkqPp0fyKulLBykdFucmt1fE2cL2D3C82Hb31m04s7k29dlz3l65HfZ1uNczjZ7VXOsH/rvibK9mg5yWb1Nt4WUPJteNLH7YR/XY34dm/RavFmW3H0lbMK9l4JDk633lCfRvZ5tsQ2hw7CHMBsDQpDTFFAAUUTaFFGcUAAUFAFBMUABRQAHP7nvIcd2Y6AooCgJiigoAAAAAAAAoziaYm0JqKJthjGuooJppgAAAJqMNz9NqajhQTTAAAEwTBMAUTTExRNMa4NcGmmNab7KgOsmbOId3XzNnEdZ3eO3z4WfuYksgv7YLA39MoP5x4eZ/mh4efemh/Tfc24R/vFH4u/GW4AAAAAAAAAAAAAAAAAAAAAAAAAAAAAAAAAAAAAAAAAAACYPhfPX+m/afB37ZwR7dL954N9ph4Dd248H2NrdG0xZkEZoMQIYMNS5PlE3AAmmACgJgAJpiYoJpgAomOKwtSUHIAON9cKMHRQUBMTTABQATBNMATBRMS1yvkr53bo51curgABNMTTAGWvU6R21YpuqgomJpgmACagJgKJiYADHXfTS50hxqxcOgmmCYmIa5TpUEmhNhrdGNRLn8dc3LjNhghQpkzvKFB7fbvmrWbstqw9tZMMznK9lQ2XDqEf3RJfK2uIXz1rMn05kkzAcluB+TYz7+r3Xt6e6XjXLOryot6PetzXJctxwqQ7kg2FhYeTk02pMDsQTBQAAAAAAAAAAAAAAAAAAAAAAAAAAAAAAAAAAAAAAAAAAAAAAAAAAAAAEwUBMAGlfVyXNfcK2u+/INhIsLenPYSKU0VB8v5wvYmM23LTS2vnC0CuEb2r4xd3tX4D38r4hzGju9KvmViu+J8vXYvM5DIxCt5tz3f6prpsPGLt9s7X/IffZVxtPZ79fOpfOtpyJkGZbw5kGRYW/ueQ+zq2ph71W1zbN6PNy3NiGdnDYSGwmom0KCigmKCgAomKKJqADLXqdIoyTUUUEwAUEwUUBQBNQUUAAUABxr1egcauRyAmJqCaYDGDYKM4JgCYAAAAJigmommAACYmCagmAKJpiO+dYoxTGumNcGmDTmA05gd3VzNnEdZ3eO3z4WfuYls2z9sbgX+mUH84+Z4g/PD53PPTv6ZoG5WP3h+Qvx9tAAAAAAAAAAAAAAAAAAAAAAAAAAAAAAAAAAAAAAAAAAAmAD4jz14X/tS5Pwd+x8Ee3P3Lg32p6/u+neOpVfcxvq5t7NGazoMQTBNoFGdnTAAABMAABME01ABMAAAAFEwBQTE1ATE1ATBnUTUTATAATExQEwBMa6YJgAAoCYmCYAAAJgAAmCYmAJpgmmmAIc3lr5nPOOvwtXXNG2cy3LfIIxa+J32CsmGULKFN1HC2EpEj+PfO2eIZl4tnMn0Hkw7HNfd9UsJ2Ua/tXp4Y8d8TazR5FrNH0vk6zZ8j+TuHYVuXCUetv7oZHgPPokHkwuToiaNHhBcFAAAAAAAAAAAAAAAAAAAAAAAAAAAAAAAAAAAAAAAAAAAAAAAAAAAAAAAAAAAAAATAB6lyz5lmb5l35Py+OcBxte8F4RPW7VorZtmNSei9Wx49bZ8UZd+wx5QcL9vvnIliuPe1jT2i77xp64+7r/AGhRHrXvVc51/bPk/KHkdyhZIr51LKHhO8YFvYeCTG9bfeZVxBiuPpq+ZVbLx75Snlq9rnGzRZ3cqKDjXK9Dno0OXCigJgooomoJqKKAmCgoCjLXfTSONIYtDkZxQFBMFFABQFFABMFAExNQUABMTBNNQE1BRMExMAAEwUBMUTTBNQABMEwATAFGuKJpgmNdMa4NMGjNBpS9gS66Zs4jrO7xu+dlOplQlt5sn7aTJ9/TKB+cfO8Qe3Q8XO/bYf0xwdysH4+/Hm0AAAAAAAAAAAAAAAAAAAAAAAAAAAAAAAAAAAAAAAAAAACYPinPW+mlyPgz9j4H9ufuXBvtTwDkbjxfYpW9mtqXpoENWqLJgnMdoTTdUwAAEwAAExRMTTFFEwTAAAABROY6zs57JuzuAx5tycDFyOIO3g6xuOXUTTBQTTABMTFATTFATExNMTTAAE2wGcTATBRMTUTEwEwExrqCgmoCaaYmMdd9NIOYcG+r6manckGs+3edzTDzT2Vk9zN8ruULtE2+uT3IgPk7WfS8a1nz6DyY5gOTvC1Nevzla/bvBs5k+ctZro+gMLYHuTCsLUrjuCPYPOYXeMYo2CgAJgoAAAAAAAAAAAAAAAAAAAAAAAAAAAAAAAAAAAAAAAAAAAAAAAAAAAAAAAAAAAAACYAAPHMaZL8nmUKDawccYTu+8LD3zG0uvMLYbGLD3fJeWnsOmSy+pdvfeSDENvcFvb+LVr62+rynivDR3el4OZWder4yy8Zk+cJkImW/qowlItoP2wu712yfouVcWZZde9XzDHZeoflaadS0Pq+cfQfCyXWc67yfI51hz0cOF1AUUBRRMAAUFFAExRQFBMFFBMFFABQFATBRQTbAo1xMAABMTbDOAAACYAmACgJgAmmoCgmCYmoJgAmAKNcUTAmIyd2u6jXmOO53aboNKZt4DiWpMHPd1czZxZ+48bvnZTqdWaW3mr/tsMAf0yi/nHzvEHt0PFzz21/THB3Kwfj78ebQAAAAAAAAAAAAAAAAAAAAAAAAAAAAAAAAAAAAAAAAAAAJg+Oc8K5e6GVDk1p7nfsnA9z+zn7TwtGuUxLwqHcepwtM6tX082tWWMLrJsJV2aOp16HPRXSGrqXpoc6yaoTtvB2dXIJgxg7OILM411BNQAUZxNQUTTBMAh7eAAAACaiYoAmoJgmmCjOJtCaYAmCiYmKAmmCaYKCYCY10xRMATUTTBzrlOloTSZ1DXK9CYA413leQ1hxrLAdBMTATAExQh8mnKrqPt5ctfEzYbXKPOMFZBsp+NdzuGTYWHuh89Zz6cbxbefcm9wZO8wK5NFhNxvO7f73eBaz34N3zdriCLb6DwTkVyc4KhalclwR4/B89zLw+b0eZwbk087I7u7hQvDUG+AmCgAAAAAAAAAAAAAAAAAAAAAAAAAAAAAAAAAAAAAAAAAAAAAAAAAAAAAAAAAAAAAAAAAAAAAA1J0OFOpqk2H2+mjn00B6AzguxuZtmXjTOm4UpdF6/bC7fW3s5VxBmlOOrZXzLDVnq+J8vHYlc4HJnLtp2TukbE90V2WFN5sn6HlXG+k6avpa+d/R8xYquLFGCL57jYmuKRAt7D3Q+0q5tll3o9+tYx2d2hvnW9Bsbeu8nyOdYc9GbW4UZ1E1FBnaBoTTUaGUIGIKJqCgomKKJppqKKANAJgAKAoAJgAJgomCYoCbQCYoziYzg0AAKAmCcxnaBRNNNQABxM206ydhgmJqDCZsp1CiQoJgDTmbOINcGnMRg7tKZt4Orp2aU0cTs6yXtEsWzx2+d0qyzs4nZ2OaT+27yc/0yi/nHzvEHt0Pn889th/S5B3Kwfj78lbQAAAAAAAAAAAAAAAAAAAAAAAAAAAAAAAAAAAAAAAAAAAJg+Ws5n6YXJ+Cv03hPd+v8KezvB5vsqPq3R4xM28HqO/d18xoVaaYj4j6eRz2EXAKAmJgmoJgJgACiYCYJgAAAomAKCYmoNdMATAATEwTATFATBNMTZxNoE1ExMTFDXOn4k0xMTAUTT1yvQCaagJgCYJhrnT8SafVrqDj5XlQ+dl5vEczUd1hbBOKMad5YWg9vYLWaY5eVazSo9tZPcyvE98d+43navYe53z1rPZl4trP4h7vye5sGTvBdO8bg1j3w8mzmfh3XhWs1uWdntaFckGFC53hsbtYVyaAdjqNOkG/CheGoN8AAAAAAAAAAAAAAAAAAAAAAAAAAAAAAAAAAAAAAAAAAAAAAAAAAAAAAAAAAAAAAAAAAAAAAAAAGuCgAPX2VnNtyMZd7m1HKTgS77wr4JPN2yy6uWvWuZhU2XrWrFZ8Z5euwxS9FvfeQTFv/ANHvL/uct9llPG0Ufyvfr53GL9u+Q8r2brlryKTdSyh5Nbxj2Hu+sXtln+G/RqvFuW3H0tbMK9l4LC5PuJ9Hzj0tG27OE2hoTBQE01E1GhRMBQUFBMFGwJpjQJgoKJgomAoJgooJiagCjOJtAJgJpppqKKJgomoAAmAACaagKJqAzgCYAJgCjXFAGumNeY6dnEtKZt4Os7ktR0dHXTNvATdfL2jjFs8cvnZTqZSXb5n37cnJv/TKL+cfO8Qe3Q+dzz21/SvB3Kwfj78mbQAAAAAAAAAAAAAAAAAAAAAAAAAAAAAAAAAAAAAAAAAAAJg+W85b6YtPg1X6jwn7a/XMg9peGTdEyHofTRGjrPWHRX1CbN4WdLqXpoaVdHU+OtDhzM2cUxjvnW6DB3EwAT1OvQ56CbgExMFATBQTBMAAFAUTBHcjZnWGhrpiajOmm0DOoNCaaYKCaYmAmoa5XoOqaYm1wATZ00tcr5K+d06u+sMHdy51ujprDjqa5Tpc9XRhr1Ok1gT1300uNRi4EwJs3Q7zKOzHXqdLJ1NWOuV6B2NNfJVzzrjRTk8nR3nC9ft/c8d5uG0w3LT2Fk8zbMr2ULcbh1Cw90SHztrM5l41rNHvjJh2PPDFy9+45na/bvBs5l4b5q3mtyHvbC2SzC2FoepXJcEawed2ZHZ+pXooyjtYVyeAFtRp0gvChaQb2o16AVBQAAAAAAAAAAAAAAAAAAAAAAAAAAAAAAAAAAAAAAAAAAAAAAAAAAAAAAAAAAAAAAAAAAAAAAAAAAAAAEwaN+4auTFEKt337dthOsPsMimmgPmrLx2KXNtyuUkTsLwbfDF62/jF3V9a/AevV4gzGps9StmVis+P8tnYr85DJLEt5mF4Hqvg/wDNu8/gPu6vG8w+lq55E7PnC/bvv7C0zuLjS45EGdYeLyI3an31XNssu7vfrWK1ndo/AeL3GxlrvppZNRPXK+SvndtYdujFV2UTUTUUUUAUTBfXK9DjU0cuRMFBRQTAc65TpOp1ZpgoKJigCYAJibYKM6YmAom2M4zqKJqJgAAmmCYKKJihqfR8bppAOBMEwTBQGmNDYTGmDWmbeCbidmpMO7iWjNHVoppuul7Rxi2eOXzsp1MpLvcy39upk2/ppG/OvnM/9th87nf7CH9KkPc7Hqo/IH5MuAAAAAAAAAAAAAAAAAAAAAAAAAAAAAAAAAAAAAAAAAAACYPlzOL+mHT4M/UeH/b369kHtLxGJtfT408LVvyFRzUnRxieLTYWnno9NZ1+p16Bx1abQsmAmJgKCbOANNoFGcBMABMTUFBMTFBQExMAEwTUE0xMBMTAATEwTTUTEwTTBHXfTSprCuqKbMJiYJgJpgJqDXYxjrvppOdhxolrtPJTzMvOy5+GEq0pC8e7Qz3M2lhiw7TDGGcT4zmalha4ZE941riF5drMnv7Jb2PTKJijv3G83ufYfYHz2DiDV4tzMn0tktzOMjmTPk/LQbj1m390SHj3c15vo8qLHMbvZ0O5IMGmpQoNKdNWdBbU69AM9Rr0MYz1GnS2Cuo16AVBMGwAAAAAAAAAAAAAAAAAAAAAAAAAAAAAAAAAAAAAAAAAAAAAAAAAAAAAAAAAAAAAAAAAAAAAAAAAAAAAAAAAACYPXuV/NjyJ5doOqZT8BXdeHvjV9FpT+utVscn+VbDbs+BG740y8dhkkxuRb37m7Y9pY232nvqnrf8AU5b7HK+OcziNdnv1s88OtGvjS+Q8rubPl3zfKW9crmTa8YFhYbLwj+uxv+rfa5TxXltzd9RXzyvYevIciHM3Kc+s5t6PNNjW6+WjVzkLDU0MN86nV1ZuywCgAAoAoAACiYKADYTAABMTUFE01EwE0wUUE0wUUE1AEwTBQExQFBnFAaYAAJgmNCYJpjTBqzXWN3WGjM2cXV1aaabrpe0cYtnjl87KdTKS8jzJP28GS/8ApnF/OPks/wDbXz+dfsIf0oRdnB+VPyRUAAAAAAAAAAAAAAAAAAAAAAAAAAAAAAAAAAAAAAAAAAAEwfMGcv8ATDo/VOFPbn6vwr7Q8M3N9H0xQ7/lRcuzXmwYU3wuU3T31ctIdNNGnDijFCsxo6dqcNdRRHU6eWnmTUTnbOKgiJiY02hQZ0wAExNQUATFBMUZ1GEzZxaE0hQE00xNoZwaE0wZxMExQE0xRNNNNnEwTUTTTUa4mm2JjOmJiYCgmxjV1300gizs7V1zW5mpw4Pb/g7zLWbcgxWbHxPaGS/M5zhsqHaJsHCHciB7ovF8rZ4ufPWswfSOS/sXuCLopYTso1/917em2PT2t89a8abm7zLWbRZfR+CMj+TvJ1D1PCtwR7CiLA8mAABMFExRQAAAAAAAAAAAAAAAAAAAAAAAAAAAAAAAAAAAAAAAAAAAAAAAAAAAAAAAAAAAAAAAAAAAAAAAAAAAAAAAAAAAAAAATABo31cly4ngVgX3d8adGtqe0yI9LWzB80ZwXYpc2PLTTXcMXH6kb2903LTm/wCj0/KttXNMxqRrD1auZ2K274xy89iszm8k1Lebhi74+LrpsPDdu89r/kP0bKeNZh9JX4mfMtpZWtxS+4t7wpEG2sPF7w9btH3lTN8suz1fTVbNayxhTPcT3VW2NAmCgoKAAomCsPZXqcOO7Ny6AoomKJgoAAKa5XoTAATE0wFATABMGwCYomoCagCYNcUUTUFBRjEwTUEwYzXEbNCLkTBps40pm3g7fwus7NSZs4pzu6tN1TddL2jjFs8cvnZTqZSXkeZB+3gyX/00i/nXzuf+3Q+Xzv8AYw/pQi7OD8fflioAAAAAAAAAAAAAAAAAAAAAAAAAAAAAAAAAAAAAAAAAAAJg+as5n6N/7M/R+Ffzw/WeFvZ/FeEPsV02dNrtAmJuom4Wr4l+Vo5xX4XR0gzYTY56w0mx1NTr0M6jXmbeCbrG7Hm3Ic9GqOQTTAFExRQTE1BRnATZ2hNoBMATBrgAmmCYA19c6fiHbVMdkwTTTFE2umomDidt4OJTYOiaYJs4a5qaabU1ynSM7DXfTSNDUmTOdl51xo7nBeS/Khldmalk6wHeN4fx+j1t4triHHSeZazKpWfQeS7sWeN78pr2V/F1LvsPtfGfFWuIM2vvn7OaeFG06vqDJFmf5BckPJ04WwlHt5HuiTz2lHmPm3tKHCiROToi8mlKdYLgAAAAAAAAAAAAAAAAAAAAAAAAAAAAAAAAAAAAAAAAAAAAAAAAAAAAAAAAAAAAAAAAAAAAAAAAAAAAAAAAAAAAAAAAAAAAAAAAAAmD1plmzUcg+XO7reHlHyb3dJ5VtTnk0p2u1/DovXsYac/oyvVuWvAn+j4iy8dhIxLdHJt78zd8plLangue+tFNNPrPl32WUcZzi9a+lr8TxVjXxXyJlRyBZechEvU8p+Ta8YHaP84Vp22zfomU8W5bd3fTV8wr2YeKQ5UObzQpz6TnHpMtFejztXNtGkNvXK9Dkca5XyV87jQYuVFAAUATUGcGhNRMAE01FFBoBMUTTAExMFFATBQTTAUATAFEwE1HEzbwBgmoAmAKJg1xRKZt4JuJQTdGmDrwakvYgm0Jm2nWj2Hjd8+Fwz93lWYNT/8AHTkvhf612P5Xyme+3w+e4n/YP6S4uzg/KH5YqAAAAAAAAAAAAAAAAAAAAAAAAAAAAAAAAAAAAAAAAAAACYPm7OZ+jWN1f4P0Xhff/J+scK+zeK8I8SfVtjXaExMTUTGdNpzoMKa0NDx++8L6Nyq1U9I6y4xQ6rv2FvzU46k3v3/c6DU1Po+N3dmjqXpocaQtrKLllAUTUTUUTTBQEwTEwATAUEwTTEwTATEtcr5K+c1h26MB1TBME0xMTATBriYmJs4JptHXfTSCMOZMvuZqdywdft/c8d5ly1lWJCLOOo9t5Lsw7OGyodomzIHcCB7ok+2PnbXFeN4tnPKj6hyQ9jlyP5PaWE3FVe786nun2r8B8tZzPBdfPWs1t2Hv64sMXJheHWBcV22Eew+wWFGF5LsgAUAAAAAAAAAAAAAAAAAAAAAAAAAAAAAAAAAAAAAAAAAAAAAAAAAAAAAAAAAAAAAAAAAAAAAAAAAAAAAAAAAAAAAAAAAAAAAAAAAAAABMAGjfNy3PfkCsG/IMeRHt/brCRTtlnXzg+ZMtnYms13KjS3vnC9w1wvetv4xc/tX4HsX0VXijM6cPTrZ5YrQ+LstXYnc5zJFybe/MJQY+LYFh4bt3n8B+g0/tEmY1udX1lbiWrb/bPmu8ba8sKy+42NIUi6Z1h4veMbtVo+1q5vll3d9NWs1rO7GDN8r07a0NvvzpcuVUxRQEwZwaAATBMUUFAAFATBoGWu+mlnFkxNQExNQAExMAUATFEwBQTGG59Q7bJKOyjONcaEZriNhKZsp1OjhrM7lpzNnFR1ndoS9ibmd2smg0Zm2nWl2HjF87adY4eW9j4/b7ZL/6WWP5Xyefe3Q+X4m/YP6TH5Q/LFAAAAAAAAAAAAAAAAAAAAAAAAAAAAAAAAAAAAAAAAAAAATB86Z0X0RRup+kcKP0/hP0PivCN9hvptpeq1/HvTyuzjunNCNmO/DomDXUTFE050GFNGh43feCJviLVTuOMWHq6SbrsPfaNK+znfOoRaepemg0HEzZxdBhqNOl10l00RdndMUTUFExNMAcTaVhOewwdxNMFBNnGuKI65TyU846ayxHCYJgCaaYAmmmmCYIzJmlMYg1JkyF46zc47aO1wTk8yh5UJmpZO8B3jeH8f8AU3i2s0xUtnmWs0qVn0Rkg7F9iW+q2F85bsXUj2Phu67a/wDffK2s+wvnbXEFrXR9Q5L82HI/kfg6pgjCMew98SfXbR4HMRgfOYrtuzu9iarTy0Z0XIKAAAAAAAAAAAAAAAAAAAAAAAAAAAAAAAAAAAAAAAAAAAAAAAAAAAAAAAAAAAAAAAAAAAAAAAAAAAAAAAAAAAAAAAAAAAAAAAAAAAAAAAAmCgJgAA9c5W82DITl3hW0LKpk0u29q18YrG9d/DWq3L9TaVq1qzVfFGWrsHV3RpVvfmbRlJ7TH+5++qdss/6nLfc0uOb9SNbk9Hv1uJrE/lfHOWzN+y85t1828LK7k2vGBY/bePG7ZGtv5HLff5VxZltzd9bXzyvZeJwr6uWZD7ynPrdYek33IrCmg4ATUUTAUBNNRRRMFBbfEdxF2BQUTE0xRQAAFBNMATBRNRPxIExRPXKdLjqKOiiYMNd5PkBJNQTUa6ijXTE002nMdpdpaaLs0xndbNHEbPHJGzgzXN3HZ5v2OvvzsgmS7n/+LLH8r5TPfb4fMcTfsH9IT8nfligAAAAAAAAAAAAAAAAAAAAAAAAAAAAAAAAAAAAAAAAAAAJg+ec6b6J43W+/4W/ND9S4J9F4rwPxH08j7Du9JFyJgmAJsdRp0mgxBMUTaE2jNuSFO34HjU3BHuJp5xf4XQ9+3LM0TWrZ16xKuua5tOhqMiTXaBrqKDGom0JiYomo11E0wY69TpUEUxNMTBME0xNQTTFFE02MFE2ummm55tXSWtorC8BzhpLQhS6TJmpXLBkT7f3PHeZczdLDYe1sluZNnDZUN8gdwIPvn2x85a4sxy82znlTu+mMkXY2MkGCqa9jisi/53vivrX4D5e3meG5s+NtZrbsQ+grjwdcWGINIVyXfYRrCxpzcmwo8fmZZJs6u4csygAAAAAAAAAAAAAAAAAAAAAAAAAAAAAAAAAAAAAAAAAAAAAAAAAAAAAAAAAAAAAAAAAAAAAAAAAAAAAAAAAAAAAAAAAAAAAAAAAAAAAAAAAAAAAAAJgA6y/sNXFieBbXNflyx50eRvFhIpzVdYtTtBMPlHOF7Dlm35XKW19ZO+TIwVetac/cbdrX+o+jrcV5lSelVzGxWfDeXnseGdXm4y7flTLj9U1w2G73xc1P+3yH6ZlHG+XXtn1dbO68Q9Mcq96WUvU/aLew9vsJD7Wp+vPYm3zS+u+OtTe2tcp5KedjdNZcKO6/NM63Dtug6OyigmKCgoCYKJgA0AzgAAACagJgmoCaY0NcFExRMabQmM7YmNDXBNMa6Y1Zm2nWOjTmbadbo4a0zZTqcJOsmhGzx++fCyod3nHYz+/eyCZLtP3W2P5XynFft757iX9hD+j5+UPyxQAAAAAAAAAAAAAAAAAAAAAAAAAAAAAAAAAAAAAAAAAAAEweg86T6JYz7fhf88P0rgj0fivX8PbwfbY9ntNSZs4u44E0xQBMATTmDvKY5Aa7Qm1JtxwpwPG76ydV8SaOcX+CXjczu1cu+tbr1VhTYU0DUvTQ41g0S1Lk+V1NJSmbeCbhMEwJm3g4kTVGuoJs4mmo1xMTE2cFBMBoZ0wGdN1VL5h1m6lC9ft/e7HcuuMMPOMEZu+XnKf2juJhHULCR4xePrT5u1xDMvNtZjL3Xk77GtclNXnZRsXyJ/veN61ZvHtZ88u1n0Q+iMl+bxksyYfQvhGPYe+Pqj521a514tq1zUPYMKE87dgmdG67s6gKAAAAAAAAAAAAAAAAAAAAAAAAAAAAAAAAAAAAAAAAAAAAAAAAAAAAAAAAAAAAAAAAAAAAAAAAAAAAAAAAAAAAAAAAAAAAAAAAAAAAAAAAAAAAAAAAAAAmADXlQ+RM5GqTOTS2p1aAehs4bsb2a/nIUtpt94R7kXtX/PFy+tWn/A9mpn2ZU++rZVzKzXfDmcL2IfL/AJNeTr2Suf6r7psPqHJ9bm/+t+h5V9of0fV1c7jFH/Wl8uy7K/MCzO4mJ7ikQZ1hvEe8fWrR97NrFde/zVSywhzHprNljFtcr5K+d26NLF2dwBQTUUUBMFExQBMATBNoBMEwBNMUGhMTUZ1GuoAJgmm0Ao101GuDXZxqzWhxGzRZ3LXmbOLp2Z2jNRjYeNX1tcRszS9hdjE/yiWS/wDpLyfyvleK/boeBxJ+xf0cvyd+VqAAAAAAAAAAAAAAAAAAAAAAAAAAAAAAAAAAAAAAAAAAAAmD0LnR/svH6qv0HhN+g8KejevfEn0b6MmbeDnsztdrTE2hNRQTTa6igCYCibDU6dKbv1SHKYmlNhQpu/NA8VvvJ3Cm9+wfWHXRfR41NhX1cm/QNrUOYU2HNanXozZXdGaOI2Q1Ovlr5g0hg0OiaYmmNWaO0Mk3Vrs4x8e9PKomiA0CbGNOZfMP7/bs48gwRksyu5QubC2EpHwiQ861ms7vJs5nL3Dk77H/AEmd+5VMXaPe8Z85a4hedazF7vye5tuR/J3z3LhGPp90SfbHztrN3i2rEPYsGFCRQdnD28BndpE2U62XDu5x7Nh2Zmwzs7YAAAAAAAAAAAAAAAAAAAAAAAAAAAAAAAAAAAAAAAAAAAAAAAAAAAAAAAAAAAAAAAAAAAAAAAAAAAAAAAAAAAAAAAAAAAAAAAAAAAAAAAAAAAAAAAAAAAAAAAAB62yz5seRTLzc1vc2VPAd3T+303jVtFpZ/wBdbwM1ilMTE/5LVLNuu+Ic4XsH1vC5HdvNpx/bUrTbc99V2fyOW++yrj6f/evfr8ST/wCs+PMqORDLzkGmallQybXjA9/19ds36JV4hy26+krZlXsvE4cmFM8D6PnHpt7XKdLNrLQrr9PrPiaeTG3rlehm1hz0a6zuKCgoAmCiYmCYCYAmoCYJiYKCjXAFBMTTAaE5mziKJpjXFEJmynUm692k0OzXmbOLN3Ta7om62azRsPGr33Gpc3Zp2eyOxdf5RLJp/PdPyvlOKvbnzPEv7F/Rm/J35koAAAAAAAAAAAAAAAAAAAAAAAAAAAAAAAAAAAAAAAAAAACYPRWdLvcd9zwo/Q+FPyvX8HbwfVvoWAm12gATUUTBMAATBRrtCabOomCgMNTp0uOrjqjNhVm766NGjxG+slsOb39B9YaucdPgeNzId9YX32DrFg9R00mFYd9Q5u1ldtYk1GnSOWnqXpod+jp1TmbKdSM7u3dFw5SnbeCXd0ndhqdeg0hwnqdeh16J9U3A0pkyH9/Zx22F8luVDG1P1kwj6x7okM9rNppMFqxNZ7IwTmT31L79xxf39njvm7XELzbOY6PcGCc2vJdgnc7g1i390SavH5rA82LNuHseF3luTzmJ2DINxRnbUHZxHHZ2cPZxdOycbOwhexqnKDfSTUE1E0wAAAAAAAAAAAAAAAAAAAAAAAAAAAAAAAAAAAAAAAAAAAAAAAAAAAAAAAAAAAAAAAAAAAAAAAAAAAAAAAAAAAAAAAAAAAAAAAAAAAAAAAAAAAAAAAAAAAAAAAEwAdZfeGbjxPArCv8AuONOj2vsrGTTtlPjB81ZeOxR5tmV7k2984YuH1M3tb+MXd7V+A+gyninMqb2q+eWK0dXxnlq7ErnPZMaW8/CXKjYmge9ue0/AfomVcb5Xc2l9LXzqta/bvnvFGFMdYJmalja47xgW9hvEeRFtH2tS1ll57GKzXw7tKHM156barpr0eY5M1hQFBQFEwAATZwE0wFFBMEwAATExRNRRRnGuKNcUTTUa4ommNNMa032VBCWoJOrmbOI793QXzunBlnZDu9mdid/yj+TX+c+W+V4q9vfL8S/sH9Gb8nfmYAAAAAAAAAAAAAAAAAAAAAAAAAAAAAAAAAAAAAAAAAAACYPR+dH7Cx4vuOFX6Fwn+V67fWPolAabQzgomKJiaiijXAE0xRMAFNT6PjOp1TBMBMY6l6aBo6palCm8440h4rfeS6FN54PrFu1c46fA8bm4Wxtcm2BW3sGrnHX4ZamuQvHfWLcdmuJozZulkdmpr0PoNXGquue4oPbznHbSG5CydZQ8VblA7Q83mpxMPMzUeZ4WzW6U79xVf39neJazRktZlo9pYXyKYJwvuNwx3j808Tmnm8KFBhbk89jdpChMqC0HZxcwN5ym3oTp2dp3bzhFvwoTom7SDt4OuLZNtQ9nFBBdNJsJpqAAAAAAAAAAAAAAAAAAAAAAAAAAAAAAAAAAAAAAAAAAAAAAAAAAAAAAAAAAAAAAAAAAAAAAAAAAAAAAAAAAAAAAAAAAAAAAAAAAAAAAAAAAAAAAAAAAAAAAAAAAmAAADw7KBkTyYZT4NtAxvga7bwsbanPrMbatVu5nVnpK9a1hqzrD5ay2dhtyPYppbTsl9+yLgt6+L1p2yzfaZTxtmVF7/gZ54/d8m5bOx45yWSKHby4Nxd14Nh9Xu5+jZVxbldzu96vmGKy9G88PvK+oPaLf3PIfWPYWTaE1GhMTcb8O27BN1EwE01ATUTTBRQATGO+JqMRRhrlPJTzg4FGuKJpiaaiYJs6jTE2nM79E2mDQmaJlWXqPGb63FzDLOz272JKH/7x7J5o+2fLfFcVe3PmeJeld/RI/MX5moAAAAAAAAAAAAAAAAAAAAAAAAAAAAAAAAAAAAAAAAAAACYPSudH7Cwfc8Kby+64U2euYe5Pq+76vsmOExnTUaAE1BNQATAAAATAEwTGhRnExNQTT1OvQDqpmTu5b632A45yJPgavzIME+4Tm4PgIWSDBPjsFzzjN8Dfrk7wTXcYTLo7aQ2oeFrkhblBjg7WD3l53nYGK48guWboecxu+h7OLzu7F3bMHZxQYG0JtqE5hGXZwoSTl2EPZxdY3dG9B28EodIdnD2V6knDaTZ24mzthNnUTFAAAAAAAAAAAAAAAAAAAAAAAAAAAAAAAAAAAAAAAAAAAAAAAAAAAAAAAAAAAAAAAAAAAAAAAAAAAAAAAAAAAAAAAAAAAAAAAAAAAAAAAAAAAAAAAAAAAAAAAAAATBNQAQ13k+R3+GGjSEtc5H11fOaw68nDWmX1SvPoaMNaJaeUdNMprlNDR2ejs+KuyhZr2Cr7yXW+VO44GoXtB9d7fHfecJ5tMz1erQ8eNNX5+XLNm6lom1frMPr28AACYJpiagJgmAommCigmJigmoAmmJjQ1wTTUTBKZt4Dt/C1E3VGamm60HXzB1l49fW4s0M87PcXYhu/OyJYD+F8t8VxV7c+a4k9O/offmL8yUAAAAAAAAAAAAAAAAAAAAAAAAAAAAAAAAAAAAAAAAAAABMHpnOi3Cw632HCr7rhTu9a+JPtH1QCYJgKDXUBQTAAATTFFBMExRMa7YDGooJg0JjODOM4y1GnS66O2izs7JibYGch79wZ03l9yTIU2FzvFwUnlXMTvoezi81i/hb+p9Hxs6Lb1GvQDah7OLOzt+GJtqE7Tum7GDt4MqbdTTbUPZXqRnZnnZtIs4CgAAAAAAAAAAAAAAAAAAAAAAAAAAAAAAAAAAAAAAAAAAAAAAAAAAAAAAAAAAAAAAAAAAAAAAAAAAAAAAAAAAAAAAAAAAAAAAAAAAAAAAAAAAAAAAAAAAAAAAAAAJgmoNdRoaEyZSlFojRpiNHTzb4auVb+UaMyZTk00UVmdW+I0c650/EayaQ+aOyHZxOS7C2R+8MFzr+j286fH73jvtOD+H8zx5l8X1bsv8DD8Oj8y9frvul+ycpD6bV2GvU6WZy09cp5Kedp1k1Zsw19c6fiAABRjAGu2AxqAAomKANcUbDOOvaFHMzZTqZ1XA7tdMa4ITNlOpORpJptMTdfM2cRHs8evrYzRu5l7u7D1/lI8F/y+W+L4p9DD5jiX2x/Qu/MH5moAAAAAAAAAAAAAAAAAAAAAAAAAAAAAAAAAAAAAAAAAAAAD0rnR7hYfCH2PC277rhR60g7nwfYy+yVdmdrgAmoJgmoAAACYAANAM4JqJgACgJgzqJiiYACagmommmoo7eFfU2F4fjedyrz+VeR3NlDg155rzbuUMeGu8khXzcc3cq/G87lWDlXaQdnFDuwTu7SDs4oTui2mFRtQdnFRljZtM6LcTTUTZ1AUAAAAAAAAAAAAAAAAAAAAAAAAAAAAAAAAAAAAAAAAAAAAAAAAAAAAAAAAAAAAAAAAAAAAAAAAAAAAAAAAAAAAAAAAAAAAAAAAAAAAAAAAAAAAAAAAAAAAAAAAABMEwakzZxaGh00xbG9Gns8QxVja5cMQNdvu+7CwsLDbbyHrVq3PR+jD261TTD1fMGX3suOafkf5NvEj4vpes2w8Wu59rU4HzS/HWOr16tDDD4dy2dmnyz4/pbwsnV3dwIFvskU9tff1OBss2hunwsfZ81zMqONsUX13bxTf0ifb2/jEh9xtGj0ZdjDykae8tLLybjV3fzRaeSrNyrh28LE/MzI6q+qrXObSco51O7lPLQ5Q+KCFN8FXR0X1yvQjrCamt1cqOdcp0pimudPxI6Sox1300uoyFEwBQFAUGca6igzqNcGuoJpjTmbOKY15mzimmhN9jQS7OqmbOI47PHr33Piy29nL3t2GKH/AO8SwjT/AE7R8HxT7c+S4k9O/oPfnL85UAAAAAAAAAAAAAAAAAAAAAAAAAAAAAAAAAAAAAAAAAAABMHpnOj3Cw+EPseFt33XCj1nd248H2MPs7jJ2SBNMAEwTUAAAABMAFAATAUABNMAFBNRMAUTTUFBNnEwaABSFNmwqbGdndzDyiX1D5q00svlMM/LxO7v7myvQvHKvO8qxTh6PKuZU8zubGtyTNs541irih5Vuo76DNhPPnVhb7GNxRnbDOzgKAAAAAAAAAAAAAAAAAAAAAAAAAAAAAAAAAAAAAAAAAAAAAAAAAAAAAAAAAAAAAAAAAAAAAAAAAAAAAAAAAAAAAAAAAAAAAAAAAAAAAAAAAAAAAAAAAAAAAAAAAmACMrbxdKn5XM7vRWcPn45tGbXCkcrKNlKu6Pb2FOeBrPbLX8B9RlXCWZ53Omj6GtlvjWOr85M5f5IVl33SRcebhganIrTx+8OfR/GfKP2TKfstxR0vQ+ur5FiqbR/q+IMreePnM5eJVvMymZSLwte3/5ujSu12f4D76rlOWUvQNuKrOLu9fwoT0V3ZQdnFlndxLbhkOIbcKaOHZa7L8jNrLnWG9DmuFnaa7yvI50gbGuV6GZnbXdqoN7u5yfrfiR5Rxq29cr5K+d1d+jYhzGWJRZa5TpcO2sL65XoZnU1yvQo0ORRRNRH4GOezId0xQTUTTGumomom101GmmNcTaaabVmssbk7PF753Ko4fQvYU/8olhj71afkfB8U+2vkuI/Tv6BX5y/OVAAAAAAAAAAAAAAAAAAAAAAAAAAAAAAAAAAAAAAAAAAAATB6ezk4em4/wD576/IcWuJ9nwls9XXe+zjZ91c3ZOyQJpgAmACYACgAomKA11AUBMEwAAABQCHt4CagJiaiYAommAmCYAAOYU2bCJiJdHf3NlQvi6OToryaVp5Hm28qiesMPK4cUaYnn2F8tkKbTROrq7521lejxbWVPOrmxPc0yneM3S8WzVx/wATwOV02drEl6OeiGPBqwttAUBMFAAAAAAAAAAAAAAAAAAAAAAAAAAAAAAAAAAAAAAAAAAAAAAAAAAAAAAAAAAAAAAAAAAAAAAAAAAAAAAAAAAAAAAAAAAAAAAAAAAAAAAAAAAAAAAAAAAATBMFAAQmTokGHrs6vaKeHy0B8qZ4HZeM0rNJu23sL3xj3WvTk057puivbbT/AND7Lhz7Ps0zzFpp/wA/5/V7dbJLVmdI3fmNnQ9nsznMvvIt7lyP8j1K3Vb17T3vzSPw37TlP2XZbQ9e+rr5F4FSfo+KL6vrFWKL87uYrv8AkXhbyN4kSZXbX6Rq9/po5g3HTwUcauJl28KFo5qMrh2MPbwZ3XsrqdOlx0cKOibYZ02z45wX7qLQ9vBSNleztWR3UBRnZ1oQ47NrXOn4hVWFNBu676aWMW1zp+J06Oei2u+ml00d21D2cXMAgoAJtACaaiYoJjXTUa4NKZt4OYdJ3QmIzu4aaCaM1GNydnjF77nxc3GZ9HdhHh/+8SuD4DaPguKfbXzXEnSu/ft+cvzlQAAAAAAAAAAAAAAAAAAAAAAAAAAAAAAAAAAAAAAAAAAAEwepM5P9g/8A576zIN5/wfZ8JeqeqLvfbRs+6ubsnZIEwEwATAAUE1ABRMATAUABMEwBQAAFATE1AUZxrtCbYZxrtAomKJppqA0Jps4mmJtg2YV93zcm4zmKPgvdkeUnC8uwxl5vm5qd+98PFuZNgxPCtZW9l4Zy04Vvzk/K1nUsLbyVo+Vs5X8M/V4lrKbnZ5jFvmDMppiSqVedPgYsMPPmtiwt1FEBQAAAAAAAAAAAAAAAAAAAAAAAAAAAAAAAAAAAAAAAAAAAAAAAAAAAAAAAAAAAAAAAAAAAAAAAAAAAAAAAAAAAAAAAAAAAAAAAAAAAAAAAAAAAAAAAAEwAAer8tOdvkFyBwLaXlQymXbd1OTT2NvJp8vT+o9jK8hzLPfQx/m21srseP+Z8KZzfyRfkkwDybe58hGBbe/7alOa8JPrcZ+m5T9kuLMMX69OsfT/y96rw1O2B8D5y/Zh8+DOWgyLlrjGlw3VI8Quevav9t+pZV9nfDGRz16PZrZbWrz+lL5p1GbN7+nXh3w+r0ew2oVyUobDuoULQyuky2Rw2NTp0uukqLal6aHZRZnGep16HTom51Po+N36ptqHtr1o9ndaG5hXu3EBQTbCYoCiajYFBnDXOn4mhNua50/EydHbVSHMZ4lytrvppc9VtZbOuV6HOsO6rIJa5Xod9YUcuiiaagmo1wTTEJmynUzuHXDo1xNpzB1h49e+58Wa4g+mOwd/5QW5/gFo+C4p9tfN8Senfvi/OX5woAAAAAAAAAAAAAAAAAAAAAAAAAAAAAAAAAAAAAAAAAACYAPVOcn+wX9ofT5G+t4R9U9PU28H3eF+gXN227MyYJg5m+xoOZ3SHCYKAAKAmCgmoNhnGu0AAAmAKAJigAAJgoJgmAozqJqJpqJjOooommCaiaYCY12gAdlcuUTGuGKd5TnnYMrym68m7lWO09jYXzoKVpqWKYP8A8+O+YtcPTh/K8y3w/q9n4byhYZxNydN3zrCr5S3U0jSZeDiq4ojXD1eQpMSgAAAAAAAAAAAAAAAAAAAAAAAAAAAAAAAAAAAAAAAAAAAAAAAAAAAAAAAAAAAAAAAAAAAAAAAAAAAAAAAAAAAAAAAAAAAAAAAAAAAAAAAAAAAAAAJa1TyUB66yn5z+QnIrCtpeUfKbc909p26xJo3VcizO7pMR/wA/zbquW2bMviHOS+SHMgGBeRbQciVzW+J7elN5rXtcd+oZX9k+Zz66XrVsmj+GH5+5bezXZ9mW6XIph3GVbhg/YIEf/vv0+r9nnDNJ9BVy7wKm8vmzGmPMZ5WpdL5yiYtvG97bxiRbybS1facn5e9HrE6tSFcdKC7b7i0c/EOz1GvQi6atvUadKZq3dS9NDPo4ZCjc1OnSJuNTr0Ciom2PHQEwFFFFGwzpqJpqJhrnT8SvR26NiGk79lE3dQUAGdNsJtCgJ650/Eo7dF9d5XkZdXOsr676aXVfSVmd1TFDXOn4nXVRN2E2dRrzHWHWd3VzNnFlc90xkacxn7puivrYxj6Y7Bd/lBbv/mi0fG8U+2vmeJf2D98X5y/OVAAAAAAAAAAAAAAAAAAAAAAAAAAAAAAAAAAAAAAAAAAAATB6yzh/oVr6eF72RbPruE/VvSUJ+lz+V+j2t28k85MEwUBMEwUBMEwUBQE1BNQAGcGgEwUFEwBRMAUBMEwbAJiYJgmKJpptAM4CYJgJgmomomNAjqXpocaCOibD3Kf2hzpEs7y7C+WrGuF9k7X7D3w8Kzk/h2+sRo8u3lfNPZ+DM53BN+01K+69z7fySHytjhzNPDj9GHzdvLMOr2JCvq5r4iUlwZlLfk+CtHznLasE18UYurfdkgAFAAAAAAAAAAAAAAAAAAAAAAAAAAAAAAAAAAAAAAAAAAAAAAAAAAAAAAAAAAAAAAAAAAAAAAAAAAAAAAAAAAAAAAAAAAAAAAAAAAAAATAAB0GMcoOC8n1y2994sxTGu+NYe3W8i32KVKeZXdIjCpHgRu+I85Ts9+abke5FvcuTyfbYtnWG3ud7X+G/Tcq+zDM7sfrvT/n+j2auTYcMfow/PjOX7Pnnb5aYFtEyayY+E4Nvs7n7z+G/Ucq+y7LKe8f/AC+grZd4FaevR8b4nxrlFyiTLeZjfF14z7e3p26kiRJffdtHodIasKE2NEy7KDceljcbuxhQtAOxgwWdWZU1OnSOG4CiYomotqXpoHXWVtTp0udJcKOHCgKanTpBRMAUTUUE1EwTBNRTx1q7uOzYZXKYooCgommopD2cXSHPZnrlehw50lym7MNd5Pkd9cKrZ1300sjtpDY1300s7jWU9d9NIsxTGwmOqmbeDrG7tO7QRdU002vMZ2d0V87nTrYydn072CD/ACgsD+Z7V8bxT7c+a4l9PL97H5y/OFAAAAAAAAAAAAAAAAAAAAAAAAAAAAAAAAAAAAAAAAAAAATB6zzhvoUr/JfSZB+eX1nD3qnpTk7adb9InZ+gW12dME0wAATUABMFBRMAATUAAE1BRMUTGu0CiYomAAAAJgCagJiaiiaaYM4m0JiYmoAJgJiiY11BMTUTTQ1OnS2DZubFGJ8MfsJfsiwebdrRmDDhyj4XsbBWdBfMLTDxvA7fYe6I1Hzlvhyezw7WVw9q4Yyt4JxTX5WFfdK23hsHzVvKfFidJjo8PDXmNnlbCiAoAAAAAAAAAAAAAAAAAAAAAAAAAAAAAAAAAAAAAAAAAAAAAAAAAAAAAAAAAAAAAAAAAAAAAAAAAAAAAAAAAAAAAAAAAAAAAAAAAACYAPDcpmWrJnkiuS2vrKPju7rosbDbbT5PaqLVsqzG5+XZerWsWdn5yZ+XyQ3gTAsCRgnNKu+l/wB7Vr2ruvb7vZV/0Pr369w59k+KJjnv9P8Az/8AT3PAyaZ6eM/K3LFnoZzGcDfNvKyt5RL6mdv2WFJWmN+B7B+7VOG8spx+oS+mq05xdddXgcG4Xoaqay7OFcehlcNyFcY0Oy1Ovlr5mcU1Ovlr5nbo46tnU69Dq5bKY7BNRjqXpoUdtZZanTpHPVQcqfAtI6qDs2E01AUBz4O8kxmmAoommoDHUvTQnoMk1FFBxD28E1HIKAmNCgCYJgKJigC8OZrrGo51zp+JNRTXKdKYnMmOBrzNnFm/hdp/M12V1aaaaUzbwQ7Hd0d9bizM76k7BD/lB7v/AJntXwnFPtr5TiT08v3pfBPz5QAAAAAAAAAAAAAAAAAAAAAAAAAAAAAAAAAAAAAAAAAAAEwes84T6FeD6fh33CH1vD3qZelOTtp1v0Wdn39tts7OmACYJqACagAomAKJgAACagmoK806nQl00EnQUUFEwAAAAABMATUBMTBMAE2uAAzibQACaiYmo0CYzppijONdsE9NOnzO3xM/KPJ8L5eMoWC66nr3dCw+wSXiWuHcqzB5NrK8WGdXtnBec5ha/aUgX7B1G26fa3yFrh7xMH5erxbOV6d3su7L0u69LPWbul0teTSmyj5zk8VLX4nl/F8TZdwABQAAAAAAAAAAAAAAAAAAAAAAAAAAAAAAAAAAAAAAAAAAAAAAAAAAAAAAAAAAAAAAAAAAAAAAAAAAAAAAAAAAAAAAAAAAAAEwca1TyUB6OzlM/wCzX81G5NfyrZTbuj21PaIEeVTWLX+o9/KeFczzzpSjT/T/APbZWy2zY/M/MrPB+SMMoOLLO3wtmp4P7l2X23n+uWn9TkP2rhz7Jstoz+vS+krZLXx9NX575Y85LL9nG3t3WysZRr6vS2kfZ5Prf4D9Qp5RldDpQ7PoKtSas6zOrxSDcfNqFHprzLs4Vx+VjdHYalX7X0E23qdOkU6tmHoh1TdG+m7qan0fGOOqiblsKJqQ9nFljcUamgTUUBQTUBRMZ756bAVAATGwmomCiabLXfTSmMWhQZ0xNRQUbANcUABQZwGhME0xRME2hPXOn4gW1300vPaGMx1hGd2nrnT8SXR1a6SaM1lhxOzo75md5sqD6p7Bd/lBrv8A5otfyPg+KPbXynEnp5fvS+DfnygAAAAAAAAAAAAAAAAAAAAAAAAAAAAAAAAAAAAAAAAAAJgA9cZw30LVe9w97lD6bh/1MvSln4X6Jhfp9xk7MQJgJgmoAJpjYBMAFAAAAATUFExMFAAAAAAAAATAEwTABMZxNoTTUBMTUAABNMAUTTTAEwATZxNsZ3Z3PifE2GKaLlv2RYdFXm8tlWYbIzUxRGkvZeC86CXEpqGOLv8A7RHfOXOGsOP0L5u1ln957QwvlPwVifRS5L7j1/iKVfNWcr8Wh0xRo8uK+uzyZhRAExRQAAAAAAAAAAAAAAAAAAAAAAAAAAAAAAAAAAAAAAAAAAAAAAAAAAAAAAAAAAAAAAAAAAAAAAAAAAAAAAAAAAAAAATAABpT73u654mvT5lLCwp5aOsVeukE4nyhnadmOzO81667eym41i35ekfbBujRaPvuG/s84nzyekdXs1sjsXJ0wx/k/LfO/wCzu52uXK+be5Mm0jlYTuOntEe7uaT+G/Z8n+y7LqMb9fr3fSVci8Cv30fGd9XviTKZb92cdX5b3xNkU74tryk9ttH6TrOWy9LWaGLonCha7zUF5nR2UG49LG67tuFC081AbkKF4aujhdw6OwTUUE1tS9NBoMRRuJpqCiiiiiYoCiYKCiYAoACgDOooJgoommmmKJqDQmQ9nFGFGw6qJgAmKAoAlM28Ep2UQcqKJibOoCiabQx1300s4xTEpm3gjG7OwZU2uzs7pL53SrGPqHsF3+UHuj4Bavg+KfbYfN8Seml++z4N+bqAAAAAAAAAAAAAAAAAAAAAAAAAAAAAAAAAAAAAAAAAAAmAD1xl3+haj3cgfT8PerelLPwv0XC/TrjJ2YgTATABNQATUFExRMAAAAAAAAAAAAAAAAAATEwExMAAGcUEwATAEwBNMUBMBRMTATABNQGdncw6TIczXYfrFv73JxRMaShykvO8FZwuNMMd5zqUvCw8uh83a4cw3nl2sr0e2sGZdsE4pp8rW8NXt9HtEh83byTMqu8PCt18NV5t27k8qne+jlcHznJ6bMvxNhrdQAAAAAAAAAAAAAAAAAAAAAAAAAAAAAAAAAAAAAAAAAAAAAAAAAAAAAAAAAAAAAAAAAAAAAAAAAAAAAAAAAAAAAEwdDibKDg7BEC3vrFV+xoFhYe329tzaFeTv2YiMGy9Wrasx0jV8MZ1/Z4cgWRzkSLlyQwrfE162HrVbePTvayq/T+HvsyzS9P69P8Ao9XwMmwx0wvzCzquywZ32dFKt4M/G0i6rrt/8z3N61Z/hv2rh3gXK8kxaz0/3/1fTVssreB+aej5y1Lx6dvD656evZtwrjrUJnVvQrs0eFk5x11U1L00OHLd1OvQzioNwGWpemgcawsOWwJtgZxnaBoUbCYoKCgJqKAKJqJiiYoAAmANhMAE1FE002hQZxRMTFAAEwZbk67LbsXV2E1EwTTUExNRoTTUE1GuzjHXfTSy6SnqxmMrL2Q5HsqMt1CNnSzNvB5jl9M9g6mUh9kGuCv2eDaPluKfbXzPEnp39AD85fnKgAAAAAAAAAAAAAAAAAAAAAAAAAAAAAAAAAAAAAAAAAAJgA9e5ePoWq93h/d9Nw96t6Jfpn0fp1zZ2DExozNlOpePypsXImAAACagomAAAAAAAAAAAAAOIO3gDkAAAAEwBNNRNRMTUTBMTBQTABMTUTBnTTaBRMTUE1ATBQGcUTE2wGdna4JtA8owxlQxtgrnhT/WPc8j2t4trKcOYTro8q1lXwvZ+Dc565bwpqOKYWr23uj6m+at8O+JgnXBP+TxLWWRq9n3LfdzX3D1y5ZtLfk1ptpV8naiYw9XmYest53cAAKAAAAAAAAAAAAAAAAAAAAAAAAAAAAAAAAAAAAAAAAAAAAAAAAAAAAAAAAAAAAAAAAAAAAAAAAAAAAAmAACM6bCh00zK0B6Xy75/WbXm9QLaXjrKXd1bfk+IRpPbLR9DlXCmZ51OkRpDZWy+x4785c4z5Ikx5ay7e5Mh2Do0Kw8Xn3hTtlo/acp+xrLcXr+r6Otk9fFP6L4zy357+XnOM5HymUbHV5W2sfUPqb9Hyrh/Lck9C9evWxV95emtS17fnttxBuLnB2Gp16GNxpDnU6dI56tjU+j43GsOuijo7Lal6aHXWXXopqXpodXOrPUuT5Q1lfU6dI6KCagKJqM4e3gmOQbCiigoCigm2ExNQE1FBMBRMEwUFEwFFE0xMa6iiiYJqAMdyBkACYoJqCg12doTTFBQZ1Gu0CbOo1uRsr1I21O7BhE02NrTNvBNlhoXvufB4VtF9F9hY7z7IXhL+P5Vo+Vz72+Hg537a/oRfnT85AAAAAAAAAAAAAAAAAAAAAAAAAAAAAAAAAAAAAAAAAAATAB69y8fQtV7vD+76bh71b0fZ+F+i4X6fcZOzECYCYAAAAAAAAAAAACgAJgAAAAAAAACYCiYmmAKJiYM4NCaagAmmmM6Y0AoJgCaYooxibQoommAAmJgmAA19T6PjaBv3NinE+F5mu3Lf0iwpV5s5ZhvR+lsw3Mq+F7MwXnQS4lNRxXd9JFPdEd89a4RmY/ReHay7R7TwzlJwpiulO482la6PafC+Rt5Vjjd5uHwMUbPIkGdQAAAAAAAAAAAAAAAAAAAAAAAAAAAAAAAAAAAAAAAAAAAAAAAAAAAAAAAAAAAAAAAAAAAAAAAAAAAEwAdDjXKFgvBUCk7FV+xoNj5ZMntS1etiuflWr1ZtbPkrOW7NFm55G7K3g4NtO702w+wV9bfovD32YZnmG/T+kPY8HJrOz87s5Tsx2dRl95FvcdwyfU3Bt/cPtlP679syr7PeGMj2/WHt16HgV3yTfWIb6xRrE2+58i3t/fL72er0eTdXqNNOv9z2ZqbGp+OONGXVbU6dLKfotuFCZ2lUcgK6lyfKONZc6l6aHOjos4AFAUGcFFBQFFGdNQFBRQAUUBQE2gUTFExRMTBlqXpoTdtWKjqAomoJgJgCagmomCgAAJigKAJs6iYomKCYmmo15mziO8bNdNVNnTTY2NKmzi863sm6y99z4PMee999hyl6n2RfAn8fKtHzmfdcueRnftr+iV+ZPzoAAAAAAAAAAAAAAAAAAAAAAAAAAAAAAAAAAAAAAAAAABMAHr3Lx9C1Xu8P7vpuHvVvR9n4X6Lhfp9xk7MQJgAJgAoCYAKAmCgJgAoCagmoAKJgmKAmAAoKJiYAAJgCYJpgoCYKCYJigmmJqJqJiYmKAJgmmKCagCagomoJpgmCagJgmAADGFSbC79hV7QTi1jqz8o88wVnC4mwv3lfdKT7DyvDtcN4LvWI0eXayzR7ZwZlrwZjWn6iZSwt/c8h8ndyTMaO8PB5fWOjzTWqeSjx2VyCYKAoAAmCgAAAAAAAAAAAAAAAAAAAAAAAAAAAAAAAAAAAAAAAAAAAAAAAAAAAAAAAAAAAAAAAAmADjWqeSgPVWWvPEyD5B7o1/HePoFh73+W/VvYyrhXNM8nTTp9ejdXy+z48Pz7ztez/RI0C3wvkDuSnbtG/3g/a+HvsZ6/rvV7dfJ8WKf0XwFlyzwM4LOAk92Mc44vG1p7njSvW37DlOV5ZkfoXt1qtStOuJ607dMnb9oehzjfq2O5lPJRm5yXHxNjUa9DIaw41Lk+V21lx1Z6n0fG66uG4ziYAovqdegcaQ5HQE1ANT6PjHbVlqVJtXQZanTpNDSVHDqanTpFFAZal6aE9BkA0KNhnAHO+dTQozTFEwFFBMTBNQE01AUFGcTFFE00xRRNMFBMBQABMUBRNME1ExRMUExNNRrtA02NoTBrcj2NHm3NmGNnEyZoeYg66TujzLjC9zdiNm6n2RbJt/OXLfO59GuXw8fO+mWv6OX5i/OlAAAAAAAAAAAAAAAAAAAAAAAAAAAAAAAAAAAAAAAAAAATAB69y8fQtV7vD+76bh71b0pZ+wp1P0XDu/T7f5WDsxAmAAmAACgAAJgoAAACYCgmCiYAAAKCagomKJiYKAmCYmAmJqAACYoCaaaigmziYCabQAmACaaigmAAoJgJiYoJgJgAACbXaFGWnU2b4nPJvKML5XsbYXmb92+w9zvOuZVleLD9Hk2sqxvamF85LC189531ogW/kfI3uHuQnWNniYcqt4t3sG7r2u+9oOtXdLpbU6HznJzR3eX8XxN13AFExNnFGgFAAAAAAAAAAAAAAAAAAAAAAAAAAAAAAAAAAAAAAAAAAAAAAAAAAAAAAAAAAAAABMAEJ0+JCi65Omdo5OjnrWoPkbPC7MZmsZqdjIuvkYipfl9x6c8C6K9t0fy+W/QuG/s+zXPcUaR0/7vfrZHatTpG788s5Ts8ucBlfg9xck3JjYWhSKc1eXTRaP2DJ/srynLvWYeYe7XySvVnp0fFOL8oWNcpsq3vnFN/SJ9tb+CRKfqdPWg9jaUu/WTqLdzK/W0ZebcOwhQtCjrK2p06XTVw3GZRNRNRMZal6aBNimoooAmoCgAAKJgAKKAJigAAKAoKAooACgKAJiaagAAJgoJpgCYmAmoAoAKAJiiYCaiYomAKCaibOommNMaGmmm17LwMN1NGaxRuxtC+dzp1vGee9sdixmVhZ/GTWv+sdPyvnM/9uefnX7B/Sa/Mn5moAAAAAAAAAAAAAAAAAAAAAAAAAAAAAAAAAAAAAAAAAACYAPXuXn6F+L3+Hvc303D/qZelLP2FOp+h4d36fb/ACsHZiBMBMAAAFAAATABQFAATBNQTUFEwAATABQExQEwUBMAExMBMTUBMFBMUTTTaBRnE001EwFATEwATTAUUAEwTUBMTATAUAABMEwAAdlcuNsT4YmVpcc/tDNh8DKswhhuZRjwvZ+Cs57kaNSxvA1f+PfJW+HIxegeHayuI/M9o3Lie48UQtduOdYW9PLpfNY63wT1h5cf0dskioAAAAAAAAAAAAAAAAAAAAAAAAAAAAAAAAAAAAAAAAAAAAAAAAAAAAAAAAAAAAAACYIS+VSJyflqeEHzjnd9lAzX80C5ZHKxZi+PPv2w9ow/d1e2SLV9Pw9wRmmdY4jTp9f/AA9PwMvsWJ6Px3zwOzVZ0mdJJkXJhObXBWHPF4MPk07b2r/T5b+hOHeBsqyPH8URzEvsK+W1q06PkKlJt9zdfnXhrEiRskyX6C9TpEO8hXVRxzjpMuygwWQdhD2cUIcS2NT6Pjd+rr0b0JN2nZZsQUYxQUUE0ZrrLtDFF2UUHMPZXqduzp3ZuzgBQUUZ2dNQUBQUE1FAAAUABQUcQ9vAUVBsAmAACbOoNCbYYxrtgM6gmAmmmDQoM6YmooAKJgAmKAomAKDGo11FE01ExRppjVnbeCY1pvsaM0bM6Vntp1PMuM0OolbnxeZb2YYew+x5TO42e5k3nf612X5185n/ALdDzc6/YQ/pqhbpyep+UvzRYAAAAAAAAAAAAAAAAAAAAAAAAAAAAAAAAAAAAAAAAAAEwAeB5efoUr1ve4e9yh9Lw96mXo9+jP1NMeeCYACYAAAKAmAozgCbQ2AATABMFAa7QANhnEwAUBMFATAAABMTFBNNNQFFE0wE0xQTEwTAATE01GcTUAAUABMUAE1ATABQExMAAE001FATAYQ78vq5Zmu3JPkR3WK2G/HVzbq/C9mYKzk76uXvK/IHb7D3Q+Vt8OvnLWWPamDsreDMbcn9b53J7f8AYKvm7WUZjS/M8u1V8eq8reewgJg2AAAAAAAAAAAAAAAAAAAAAAAAAAAAAAAAAAAAAAAAAAAAAAAAAAAAAAATAABMHy1nldlqzUczPk9yMW4upet+U/zRc3rlpT+W+w4e4JzTPJ+n+/8Ap/8Ab0a+XWbHR+XGel2ffL3nNXDb4KyHVpg66pFOa3j6dYtrL+X9TftmQfZdlmRYtb8aPpvByHxas9ej4VmTL8vqb3cv2fJvC3kbxIkv1B9B0jpDehXJWvMxuszq7OHCdtl3YQYNKOrO7SFChbGdwqOVAbAm2PEgUFFBMExMBQBQBQUTTUBMTUFHOp08tPMOjMdxNQBQAAFAUBMaFAUABRMTTBMYbn1KOWabhNRQBRNNNMTTUFExNRNoTUZ1FATFEwUBMaEufcufYDAUGdRMUTmbOIAo0JvsaJtDSZ02vM2cWNKNmpyNvF51vZjhoSZnee15ltgeT5m8zuNnVZPpv+tUX868bM/bnm5j08B/UDA3Kx+8PyB+atoAAAAAAAAAAAAAAAAAAAAAAAAAAAAAAAAAAAAAAAAAAEwAeB5efoUr1ve4e9yh9Lw96mXo9+jP1NMeeCYCYAAAAKAAmACgAAAAAACgmAmKAmCgJgoACYAAJgoJpiYCiiaYAmJiaiYmCiYAJgmmAAooJpgJgCgomJqCaiagomAKJgmAJqCYmAJjXFHNazIdNdhV9fV+J5/KPNsFZd8aYY8f7oWHvh8za4dZLeVxO72rgvOCwpijk/KTfWLbyVfN3MqxUdpeHZynXZ57EmwptNMKbpeQ8pcAFAAAAAAAAAAAAAAAAAAAAAAAAAAAAAAAAAAAAAAAAAAAAAAAAAAAATABpX1fNzXHCrPvu8Y9hHsPbraR4AfDmeN2e3NEzW71tsHXJe1MV35XZYXRX1uy/l8t+icN/ZhmmfT0h9DVyK5bnTBGr86s4zs/edlnCWU+5smlI2FrotubTdtdEj8N+s5Z9l+X5Fi/tHo9/wAHIfBpzpi6PjO+r0vrFF9Uvu+50i8J9v69IkSJXbbW2fonJvV00IVyVq4JnV2up9Hxjhuw4Ttu0N91Z2wzjYh7OI7TupD2cR2bAmoCgmoKNgTBMZ1FGhnUY1E1FFFEzU6dJ1dOiibgUAFEwFFBRMAFAAAUFAUUABMFEwTGO+Ou7li7O4AACiaYmJpibQoJpuPD3lo2uOznu5dHdQExQBMUTFEwcd+dI79WCaqagozjTTeg1Z23gDUm+yog6/wtXkbeDHcQjZqzNvB5zFDSvncqvLYXZ5vMvU84LB0z/WmN+cfOZp7bDzcx/YP6k7m3CP8AeKPyp+atwAAAAAAAAAAAAAAAAAAAAAAAAAAAAAAAAAAAAAAAAAAEwAevcvP0L8Xv8Pe5vpuH/Uy9Kv0V+pJjzwTATAAAABQAACGAAAAAAAAACYAKAAmCgAAAJgmAM6YKAoommCjOJiYoCYKJiiaYmAAmAAoCYmAAAmoomJtAoziagKCjOJgKAmJgAJgAozpsaju8M5QsT4ZpouabStOlmuUsOONMUavPtVXs/Bec9Bnd54qgavze36Xy9vh6ezxLWVxE9HtC5cT3LfMPXLvnUt6eWjwZ6z0eRiqYol2SSIACgAAAAAAAAAAAAAAAAAAAAAAAAAAAAAAAAAAAAAAAAAJgoCYKAmAADQv3EtxYbu22vy/byjwo8enfEiRXmswfAWez2f8AzZc3SztsL5G7Tk42v3ywJHe1laf6fLfpfD32ZZpf057/AEe94GSWZ6YYfk7nKdk3zvs8OTb+rnKLJu+6ZFO97oufvWzsfP8Aq37llPCOWZFP0/59X0tfKq1Wf0pegu4NPK+ver8TuoVyVqxukzq7OFC0Oy7Y1GvQ6mrcg7eA6y2k3Vuan0fGmm2BRQFdy6hNcCHs4jr3UHUFGwJgmJqKAoJgKJpjQoozpgOdz6gZgmoKJqAoAAAoKAAooDjXK9AOQAYeJ8Gd37OByy3113dGLs7gAAMpqbp3Ys7uKJsdyBimom0Jq7l1JqGuU8lPOm76Q4HKYJiiep9HxgmNCYoJgmo19c6fiOrQ1J2zim5lpJu7XmbOLz2dpzHnsPZo3t4Hl22FhkdmVh5acLTf9YI35x4uae2seZfsIf1UYZ/YCF8Fsn5C/L3YgAAAAAAAAAAAAAAAAAAAAAAAAAAAAAAAAAAAAAAAAAAmAD17l5+hfi9/h73N9Nw/6mXpl+gv05Ga74dmNi5TAATAABQAAAAAEwUAAAAAAABMAFAAAAAAAa4KCaYmAKJqJpqM6iagm0JiYKJpgoJpiYAAJpgKKCaaYoAoJgoAJqAACYmoACYJiagAAJgmmommmxqNyFfV93JTXbjndoSmpEwwcq9g4Jzk75hU1HFNKSPfFHjWcowxOsdHg2sqe1cL5UMLYoppgTeD5yauLTo8uakxHR5MggAAoAAAAAAAAAAAAAAAAAAAAAAAAAAAAAAAAAAAAAAACYAAAAPWeXjO3zfM2S4u7GWvK5c2H/lqesWM6T67af1PZttXKcxznpR/8K1K1jxvzPi7Oi+SJM1jJzcVvd+b1aW2Nb9+ofUo1j/L5fLfe5T9mOY3Z/Xdvpo9ivklmY0iH5c54nZVM77PJ5NvcuOMbajhu3/zBcte1Wf9f69+18O8C5ZkuLWej6etllbwPzS+fYEClKPt3qTLtIVyVqxukzq7CDBdd3eersdTp0ou2krVhak0uza1Po+NDRNtajXodU9VgUFFAUBQTbAAAKCbYABRMTTFGhNsJgmmanTpAUAFExQExRQExQAABQUBQABQABMTTUAAAAAATBTxJNNMUUTTTBNQUTUExjNFGQJijXAFAUTGhrpqJpjXmHd2lpsbs0eQyXNk+7XmbadbzmLu669dvGjx7bFDUwLM1PKhcvP/AJ3jfnHz+a+2wxZl6d/VXgqXyZWFLp5VKbbvsa/9XR+Vvy524AAAAAAAAAAAAAAAAAAAAAAAAAAAAAAAAAAAAAAAAAAAJg8Dy8/QpXre9w97lD6Xh71MvR79GfqbGa4w7PPYuUwAEwAFBNQUZxQAAAAAAFATAAAAAAAAAAAABMATATE1BMUEwUTTFAABMATBMABMAaAAZ0xMAAExRQAATTE2hNQEwUBMEwATAABNNMFE001GdRjUZw6TYc3XoVdXedgqsNyq88wVl5vu5e8r774sHkWcoeDbrvdWFscXJimFrsKf1vm3lu7BQAAAAAAAAAAAAAAAAAAAAAAAAAAAAAAAAAAAAAAAEZNpSNyPl6A8f5GUPAE2nemLLutv7UvyuYxtC/K2vorNyh4JhQ9bm4qu+xp5ayqOOXxROzjlp12epcrXZFcznItB1vG+XnD9jT7BYSu22n4FHtV+Fs0vz+XT/GY/8/7K1cusRu+CM9f5I1u6FDn4LzPsLazb+1eqe8K+t/1OQ/Q8q+zLFGLW9P8A9f8Al71bJZ1/6z8nssuVHLFnGY+tcpuVbHl4X7eVtT2686e0/wAjkfU37JUq5VRyvkcT6mpWpVNfi3eOwbgpyfC9yZbpxO6hXJo2UddWXV3EGDoRcTLf1OnS6K6SoOrcBtajXoHOrPUuT5Q1UhwtI4ZgvqdegFQUBQFABNQTBRQFE0wBMUaE1ExRNMBNQUTFAABRMUAZzNvAGAAKCgKAOdz6gZgmmAACagAAACiaaaYx3PrUcsVHdRNNNMFFBnUAAATBPU6dI56AumzjXaGgGhppjXZ1GpN9jRDsNPkbeDHcSjZpTHnMjrb28Dy7bPDqLo7zxNddPsE+z/OPFzXd5eZelf1X5IJdJ+S/D06v1a5Iv5uj8hfl7yYAAAAAAAAAAAAAAAAAAAAAAAAAAAAAAAAAAAAAAAAAAAEweB5efoUr1ve4e9yh9Lw96mXpN+hP09Ga74dmSWLlIAABMABQUTAAAEwUAAABQZ0xoAUABMFATAAAABMATATEwAFBMUEwUEwAAExNQUa4moJpigAAJpiigmmCiYooJpiaiYAAJpigAJibQCgmmJgCaiYmCYCajOCaajOzu3wzfM25ZuvQnj2qrwrdR7uyfZToV+8nRN5WjpfP3K2kvDwVNJedsbkBQAAAAAAAAAAAAAAAAAAAAAAAAAAAAAAAAAAAAEwfI/Znc7vkZouZXia/rmndoxHfsfufcGiv1Tl/VP6r3+Fspm5mb2sjrTasv5xrLHmUSsyPflcfX12+tN47qWj+latN+m24h3tMqmUCdzzMeX1I/wDqdo9KaWJmmlLr5sqbM32frHU0fCcmyg3H5GpxMuxg3HqQTOrsYMHw1HWZbcKFoCZbWo06RxrKuo16Bxq2YULQEyvCHCwNgGep16AcgoDYABQAFdS5Plc6SM3CagmomJpigACgtD2163EbOjJ0cAmo0AmoJgCgAomAACgomAKKAAoDXZ1GU1aN00XYUAmbOLO7/wAR4kOvdOHs4usbuY3UdnUFBMBNNRRnM28E01WcTUFExriie++mwVUHCeudPxAmKAomKNcUTmDtDXTWa6ajTYxqzWNGWjJ37i8+4zQ0b58Ly2Z41yu9JVj8IeJm7FY3f1SZtczX8geEJtfq2HYv5t+Qxs/LMW7ztymAAAAAAAAAAAAAAAAAAAAAAAAAAAAAAAAAAAAAAAAAAAmD17l5+hfi9/h73N9Nw/6mXpl+gv05Ga74dmSWLlIABMAAFAAAAAAAAUEwAUBnTGgBQTATUBNQAAABMTATUTEwUBMAUUTTBQTAAATTBQGcAATaEwAUAE0xMFBNRNRnBoEwUBMTBRMTAFBNNQTUUTTEwBNRMZwUTGcE01GdnbENhso2ncXNfOpMNqq8i1Ve5cnWONdid/UfO3XhYXnv6mVyWV2WAAAAAAAAAAAAAAAAAAAAAAAAAAAAAAAAAAAABKVs4A/A75Irzp5WVXO4sMi0abouHAV3aJEb7NOtvB+B2t+2/ZzlU+Jjh+n8LVZ8CtGF8CQYOmdofsb2JnSHb6jXodNZS1ht6l39od3Vtaj0UaE14ULSNDaGdsJiiibYTUbiiagKAoDYABQFAE1AGwmmo0JgKJpiYAAoAACgmoAAKJQvZVaHb+FVndVAATAABQUYanp30UZg4mbeAOQAAUBrpgAmoCaagomACY5mbKdTmd3Pdw4cCYAACiaagACczZxBMUTFExoTAGhppjXTUdWKMZry2NozNnF5bN/E0b53Kry0HiF/e08XiWmGz6V/UrmaTazs1LJ5L+z4Vi/m35NHV+XW5/Sn/nZ7UTSAAAAAAAAAAAAAAAAAAAAAAAAAAAAAAAAAAAAAAAAAAATB69y8/Qvxe/w97m+m4f8AUy9Mv0F+nIzXfDsySxcpAAAJgoAAAAAAACgzgoACYKAoACYJpigKKAmAAAJpiYADnU6dIOATBQTFBMAAFE0xnUTaExMAAFBNQUTE1AATTAFFBMGcGhMTTTaAAEwATTFBNQATE1AATTE0wBMGdnUTTbENgu7sOHd5hgu+e/el87ZpPCt4nubA9967CeIxPKgAAAAAAAAAAAAAAAAAAAAAAAAAAAAAAAAAAATB47lQxpCwBk8vjG8/2i6LutZdvT+RZ/Lq14jotWiMVrSX8r2cJlPvjLRlxxHlGvedrFvf18Ws2sn+L7b+o/2NL+qeG6U0MonFL9z5SatOccushQtHNR9E8rd3EKFo5qOjMtD2cXMbtPdtQdvBz2JZanTpX1hNtal6aHGjprKzhwpqdOlxpDjq2HLo51GnS50d9Wep06Xd0bANgGUIGQKAomKJiaiiiiYmmommoACgAAAM9yBUTE1BQTABQAFATBzuXUDMAUBQAAAAABNME1AATTUFE1BNNxM28Bz2YJuDXOn4jq56A4Nc6ficay5HLhlrvppTW0hiOwCYAJiiYow30WSHZMUTTUQm+xom57uumMnZdp2XseDLcZY3acx50bsrQlQ/Kx3GaHh1+e016nh5sjZ9M/qIzBJlJmZTk1l+XB0X/sPx7x/zS/J7EfpS9yJJAAAAAAAAAAAAAAAAAAAAAAAAAAAAAAAAAAAAAAAAAAAJg8Dy8/QpXre9w97lD6Xh71MvSb9Cfp6M13w7MksXKQAACYKAAAAAAAoAAACYKAAACYCYooACYKAmAM6agJgAoCYAmCgmKAACYJpqKDOKAzqCiYoCYM6g0JigmACiYAAmomJqCjOmAAJgJgKM4m0JigmACaYAmmAmmmozpqJpu8wxM5nj2qTybWJ7awPN0PlXzr2TB3PgyjZAAAAAAAAAAAAAAAAAAAAAAAAAAAAAAAAAABMHxv2bvL1TIhmN3/HiTqWE3EtO51h1cv2f+w+n4Wqc5mURD6fherzVnV/PBdcHRydQo/qGrPd+n3J16vIIOzio86XZjMooo2FBQG4JthNNlqXpod9HbVZy6gooDYUTUABQFAUZwUUAUUTTGdsJgKKJpgAAKAAoCYAAKAAAoAAKAm53PqFHAooAAAACaYA43z02JOzBy7JqJgACYJqKJpppqAAAAAowmbKdQ5hwOAExRMUa40AAomzqOrmbOLidmhrzGed2d11j7Jxd3cteZt4PFYnXXz4WPu6/R4tf/tNv1vCtsVn0r+nHsaMrXMxHJZLr4cHR/wDF+O+POmr8otR+tS97JIgAAAAAAAAAAAAAAAAAAAAAAAAAAAAAAAAAAAAAAAAAAJg9e5efoX4vf4e9zfTcP+pl6ZfoL9OTUY0xMAABMFAAAAAAAAUAABMFAAATABQAEwBNQExMUZxNoATUAABMTUBMAFATAAATE0xQFAATBQEwAAATABQFAY1BRna7QmoziagKCYAmJqAACYNAmmmJgJiYJiYzuwhy3n2qTy7WJ7Pyf32+IzfZ41l7WwxLpy+TXk18LzmB3YAAAAAAAAAAAAAAAAAAAAAAAAAAAAAAAAAJgA/ED5I7zjeRiPL/AIfyE3Nf9KWWHLv1ufH98cv0o/bfs5yj4su10fq/BtWa9f79+bty756eR+y49ns3tnkkPbwdZY3YpjPU69DT0dOiru7tmDs4ibbGduM4NAozg0DcZxNoFE01FFFE0yGO0ijsJqNxNNNQBMTTGhRsM6aYAAKAAAoAAACgoAACbGEQoxFFJmziAACgAKM4m0DGm2363HYYoKCiaYJqCjOACYmKAmmCjOoACg0KJppgACY0wUGhOZs4jQmADXTUdemo10x17GNWZtp1vO7Mjr758LB3dPo8Vv32l4NtG16V/Sv2J6ZrnY+slsvTtwrHp8dX5Na3j/B+QW/VPpFiSAAAAAAAAAAAAAAAAAAAAAAAAAAAAAAAAAAAAAAAAAAATB69y8/Qvxe/w97m+m4f9TL0q/RX6kmPPBMABMBQEwBQAFATABQZ0xoUAAABMFAATABMFBMBNRNRMAAAATUABMAAAAATUBMTBQTUE0wUZ1E1ExQUZ1E1ExQAFBRMFBNMAGdRNoTE2caBMFGcTUBMFFABNMBNQE00xMATBNnUGd5hgubXQ+Uzd41jd7kwPN8L5J4jzAFAAAAAAAAAAAAAAAAAAAAAAAAAAAAAAAAATB4vlPxrcuTDJ9e2Or6ndoj3Td1pa20ivg+UotUrc3mMREL1qvNWofy/5zuXy9svmcRivKje+y9L4tbWPX+L7b+o/wBh/WGUZNyOVP2mtTmtTnwZ7vG7lhaNj2mN3UKFpcDaVGwJthQAbiabYTTUUGUJ2jd3nZZ2dAFtS9NCbrpKw6qCYAKACigCiYCaag2E0xQGcUAFAHMPZXqBmACgJgACgAJpiigM996wcgw/c9+gzBQAAFATBQGumJpqOPgWgdXI7CYJpkzZxdp3E3ZQE1ExMBNQUUTBNRQBMUTTTE1AaEwSmbeAIJqNeYmo02caPI2cWO5u6dmpM28Hns/Z118+Fj7un0eM4k9peXbRj0r+jrsNMvXOxwZNq+S5+T+V+PZrP9oPyez08d9VMDGAAAAAAAAAAAAAAAAAAAAAAAAAAAAAAAAAAAAAAAAAAmADwPLz9Clet73D3uUPpeHvUy9Hv0Z+psJmzi4jZ57hymAAmoJqCiYJigAAAAmoAAKAAAAJgCYAAACaiYCiYAoCYAJqAAAmAACgJgoJgommKCYACYoJigmmCYKAAzqKNCYoJgmCiYKCaaaagCaiYmoKJqJiYAAmzpqKKJppgmAAmmmmxvIMMTNTmvEtUmW1ie08FX1X1h8rZpQ+bt4ns25Z2ucmtfI8xF2AAAAAAAAAAAAAAAAAAAAAAAAAAAAAAAAAJg/NP5IqzvIGSzNzi5vVyS/lb3xhTRIrH22UbZy6v0L7Pcsmcz519pwxl0zY++mO78P7Pv6dH0v6PqPu7fSHlEPZxcM0bu8h7OLrG7p3UWcqKDYE2wJthMbCaagKCiig2E0xoTUTTUAATFBRMUFATUGhMTTUTFBMFAAAExQaBRnFBMFAAAAAAFAAAAUAAAABQEJ2zimJJqAACYmCiaYoJqKCYommmKJigCagmKAoM6YKJiiYomDXBrs7Q68Gu8saUzbweeydnXX13kxOjxbEu2vW8y3u7d39FPYNpdZnY18nvwLlU+N+O5pOl+X5Bmf7d9fMLEAAAAAAAAAAAAAAAAAAAAAAAAAAAAAAAAAAAAAAAAAAmADwPLz9Clet73D3uUPpeHvUy9Hv0Z+ppzB5nYHAACYCgAomAAAAmoAJgoCgACYAmAAmomAAAAAomAAAJqAAAAAAAAmJqCiYKAmCiYACYAKCYmCgAJgoAAJgAAAmJgAmJgmCgAJgmJqJgAmmCYCYJs68Taz3GPDs88wXfXkfO2aTwreJ7awrfel8i8x5WCgAAAAAAAAAAAAAAAAAAAAAAAAAAAAAAAPHMbYxuDJ/ha8Ma4qmdog3XGtLaVbV+x8hTlos4o03VwRFjFPgx3fzMdkVzxr3zxM5m+sqvIm6xdVZOqXTH+wxuQ/qDg/J+SyyZfr2U1OXrTL1LcFNPf8AV9rLvi+jyGFD09+uHV2MHbwZuxLeaU1tRr0Dtq2tS10dWwmmtqXpoHXVkOyiY2vEfTyNCbJNRRRMZ2dsAAAoKCYmoooAADDxPgBD2V6hwzUcpqCjOKAAKAAmooJud9cuXDhwoCYAAAKAmCniQKAAx8e9PKDIAFATAYxrtAJqACYmzigDYJgAJiYMqwqQk1GIANdRRlvnWmMk00xoTGhME0xrijVms8qNOdt4JuI2afI2cWS3sm1Jm3gwdkHXXz4WHu6/R4niVkjd2f0M9gSma32NbA3K8nLtn4nmnr5fkGZ9fHh9osTEAAAAAAAAAAAAAAAAAAAAAAAAAAAAAAAAAAAAAAAAAAmADwPLz9Clet73D3uUPpeHvUy9Hv0Z+psJmziRsxuBME2Pj3p5Rz3YjhQE1ABRMUBMFBMEwAUTFFATAAUTTEwAAAAAAFEwAABNQAUTE1AAATBQAEwBNQEwAABQTFBMAAAFBMAAABNMTUFAAE0xMFE0wAAAEwBMTBMBMExNMBnY3kmGJupeDwPEsslp7awVfL5WzSfOW8T2REl05dNFXmItoAAAAAAAAAAAAAAAAAAAAAAAAAAAAAAAH5rfJG2efZ5DM2CyyFYVp+vuPOT2m2/ioWzl/h+wfoX2eZPzmZ81D6fherzVmPEh+FlwQKUpo8r+j53foMy8rhwnCbuoOzi4lxLbVdG4DYUG4CiabYExQbCYoKKJptgTTE1AUAAAFAUAAAUBNQTFGwmmAoADiHt4A5AFFBNNoFGcAATAABnvoOQAAUAAAAABNMATATUc+DvLSm6JJuAFFBNRQATAUGdNMUFBMUE1BQa6agDXFEwTBrzHntDSmbeDp3cdmlNcJQ0LP2NXm23R1szZTqeZ3S7vFb32cWW3u5l/QR8j1S9c7GrhWvkvOV/g/HM+9wfk2Z/t33K8l5oAAAAAAAAAAAAAAAAAAAAAAAAAAAAAAAAAAAAAAAAACYAPAcvH0LVe5w/+b/J9Nw/6p6RfpD9SYzNlOpxGzGwg7eBOyblymAmoAAACY2AABMAABMAUUBMBRNMTAAUTE1AAAABRMUBME1BRMUBME1ATEwUABNQUBMBMAAFATAFBMUE01EwUExQAUExnUTTFGhMUAABnTTUTATUABMFAZxMTBMBME0xNnUGxjdjcs3wdLz7W7FaexcFXz5Xydqk8S3ie28KzdELS+beW78AAAAAAAAAAAAAAAAAAAAAAAAAAAAAAHXXvPhXPAtp82bq9hY0029vXwK4eu4/ma7LFnbWedxn0YgxZDv8A7fcd1ya3Tc8b6n2qw9naf1uXo87+luBsomnls4n6rldSa9WcUdnoq44OvbX2r0pnR5LCcS6O0g7eB2JbSqbch7OKbvOzYUdFoTvOzrG7aQdW4JgNhoBNRQTbCY1xnUBQAFBRMUTaBRMUTE1BNQUZ1BRNNQbCYomAAAMt9BkAoCYAAAmCgAAJ+OgoAACgKAmACaYTNnEE1AZxjZ95053S45YpOFATUUFATFE00wE1ExQUGuoKJtCagmzqJzNnEU7pgnMBMGnM2cWNoaUzbwTGnM28GdxOzSmsaDrbfwMdtN4te+zi8y3u4l+/HyOhLpyuxpXHT7Bfk3/B+R59Gt/R+W556iJferwnjAAAAAAAAAAAAAAAAAAAAAAAAAAAAAAAAAAAAAAAAAAJgA9e5efoX4vf4e9zfTcP+pl6Vfor9SB5aYAAAJqACiYAoAAAAJgAJqACiY11EwAFExQEwTUAAAAFExNQAAUTE1AAATBQEwBNQAEwBQBQExMAAAAAFFEwBME0wBQFAATFGdRNRnTUTATUBMAExMTATEwEwEwUGEL2NWdgeZ4Km6K0eNZeXa3e3sFXzp5nxF2k8XDi1eawdvBnQbIAAAAAAAAAAAAAAAAAAAAAAAAAAAAJg+OOzV53XJzUMyq97W6Jui/MTU7k3R/X9ny/wPyvp+Fcpm7mb6DI602bOr+cGV3Q+V5t48Zf1XS0fpWHTV5XcWo6OZedU51eRQoWlldXYORsKJtgFFBuJjYTTbCiaig2AE1GwJiYCbYAAAAUUUTE1BRMATAAAUGUPbXrTGQKAmCgAJgoCgAJgA433rA33rByCbQKM4ADODQyhAyABjCdY2GKKhD2cR1jdMdgABNNMUFABzvnUm6OGd3GgTZxNoUE1DxJbsomiCaiYo1wTATE01GvM2cWNR14NKZt4JjSmsbO0758LGi8TvnwvLdu796/kcuVTldjsg8mv3Rzv8H5JxROmYvzPPI1sR/z6Pv94T58AAAAAAAAAAAAAAAAAAAAAAAAAAAAAAAAAAAAAAAAABMAHr3Lz9C/F7/D3ub6bh/1MvSr9FfqSY88EwAAAEwUAABQAAATATEwAFATBNQAAUTE1AAAAAAAAAAAAATBQExNQEwUFATBRMFBNMUABMAAAAAFABNRnBQTaEwFATTFGdRrtDOKJjOJtAJgCYoCYmmCYCYJgJiabO7a5JupTeLPa3YrT2pgu+ufa+LtUnztvE9pXJO1yE8NibgNgAAAAAAAAAAAAAAAAAAAAAAAAAAEwAfz9fJC2dXycu2dpZ5Hrkm9vunJ7WlnSlfarWdy/Z/g/wCD91+zrK+Sy3SH6dkVfla2n/5IfBlwQKUpo8r9cnd7Uy8xhwnCbuYO3g47EtpyLQlZdJ3bThw7BNnTUUbgmpD2cXdy2EHAoo2FE1ExRMTaBRnFBMFABoFGcAFATAAAAAFAUBMAAAAFAAATAAUBMFATUBMGcGhQGPiPp5APE9TBkCaYJqAmm0CbOoommmoooCYCYAoKJpiYJigoommAommNcUTBMEwa0zbwY2hpzNvBMaczbwZxpTNtOtjQjdp3zuVWNGXid8+F5bnu/dz5GylU5fY+q8n7DimT+Sj8k4o9xfmWedbER/j/APD9DnhPAAAAAAAAAAAAAAAAAAAAAAAAAAAAAAAAAAAAAAAAAAATAB69y8fQtV7vD+76bh71b0fZ+F+i4X6fcZOzzgAAAAAAAAFAABMBMTTUGwzgmom0JgJqAAAAAAAAAAAAAAAAmJgoAoCYAmAoKJgoJpigCgJgCYAACgomAKCYKAzigAAmmAmAKJppgoJpgCagoziYmACaYJgmCiaakPbwdcGzLc2ed4Lvl8jZpPEt4nt7Cs3Q+TeI8rBQAAAAAAAAAAAAAAAAAAAAAAAAAAEweoM9/OEuTNhza8S5Vb7n8mw1C7rTV+3/AFS10fqHrZDT53MonR6WV1cNux90/ltxri2+MdYivfGWKJ3b5t73hazLenRy39UZPUmjOj9Xw6/Fy7auKFTa9J0mXlUPbwJdW60DstRr0M2sOusMml1b0JndZ3bQiy1L00O+jtrKzl1UFG4mmNAomooCiabLUvTQ7ayMnUAUBMAUUE3O5OXLhdw2GcTBQGuoCYAoAAAoCY51Lk+V21lz1cOruy+BCbFQUTAE1AUBMZw9vBMcgoCYJgy3zrBkAAAmMJmynUm7d3A6sdS9NA7asZjiSRy7CaYCaigmAoa50/E7au2iep9HxurjSGuo4UZ2gUE9cp0s4NA102hNMTATGuKNab7KjNGzv2aczbwdHLTmbeDONKZtp1saEbtO+fCxoPE758Ly3bu/dH5Gl/aISP6UyfyPyfiX3SX5nxL+3h+jL598+AAAAAAAAAAAAAAAAAAAAAAAAAAAAAAAAAAAAAAAAAAmAD17l4+har3eH9303D3q3o+z8L9Fwv0+4ydmYEwTAAAAAAAUAAE0xMBQBNRNRMBNQAAAAAAAAAAAAAAAAAExMFAFATAAAE1BRMFAAATAEwUAAABQAZwABQEwTUTUTFE0wUTExNNQEwATBMa6iYJgJgmCYKeOs7O8lwvN79pSvkeJZeZae1MGX0+Vsvm7ez2Rcc3XoTzEm+AAAAAAAAAAAAAAAAAAAAAAAAAACYPx1+SRs6/kXve9w5q1z102NnTuhfHN0fqLPlv1v7PspmJ536P0DhmtEVfvofkhZwO/37tVfUW56PLblhaNjhN32o16HHQ1bTkbCiakMG4mm3BMaBsAA3EwFFAUBRMUEwFAAAAAUBQGuoKJibQCYAomAACgKAmCgJgACgCYAmooKJqJgCagomKJs4NCYAACYmmoAJppgAAKKJgJgKAomJppqAomoDOCijXUUTZxMAUa7ONaZt4Izuo1ERpTNvBMaUzbTrY0I3aUrbxY7aGF4dihnML9zfkZeV8vmO3tT/WqQ/IuJ+uYvzXiadPH1fpG+YfPgAAAAAAAAAAAAAAAAAAAAAAAAAAAAAAAAAAAAAAAAAJgA9e5efoX4vf4e9zfTcP+pl6NfoL9ObCjz0wAAATBQAAAAATBNQEwAUTBQTBNQAAAAAUTE1AAAAAAAAAAAATEwUBMFAAATBQBQAAAExNQUTBQAUTAAFE0xRNMABnUGhNNQE000wUTTUBMATATExMBMTATATE2dndhcs38iNpO09i4LvvRzvirT523s9q4Vm+R4zyXlQAAAAAAAAAAAAAAAAAAAAAAAAAAPFsreUG5cl+T69sol+zKWEG6butZVvbeSnIppWr+DFuIwx3Wq1eYtRD+XLO0zgb3zi84bEWWK95+s0va8LXtNfsMbkewf1Nw7T5HKn7FNWa9SfBeH3HCrtfSOuKXklx7OLpLJLtndpbCiaig2ExtQdvBPujLaHUUUbAKKJthMUFFBNQBNRQTAUAAh7OIACg2ExMAABQAAAEwFBRMUBMAPePxuXYcOygmAnrlOlQUTBMFBNQU8SS7Oe45cMpqYxAAABjNBimANdQUZxPXKdLrrLtrKjq6uNy60xyoJqKCYCgKJiaaaiaiigJpiaaiYomCYAo12caM7bwdY2VhrzUXDUm+yol2GnN9lRgQ7tK+fCxoPDcUM5hfuJ8jH82ZZf0StNmMZP5H5DxROmZPzviaP+u/Sx8y+ZAAAAAAAAAAAAAAAAAAAAAAAAAAAAAAAAAAAAAAAAAATAB69y8/Qvxe/wAPe5vpuH/Uy9Gv0F+nKKMYJgAAJgoAAAJgCgmJqJgAAACgJgmoAAAKJgM4NCagAAAAAAAAJgCYKAmCgJgoAoCYyhE7DFQAAAAAUTAAAFBnTFAFBMTUTUTAFATBnUTaGcBMTTUBMTFBNMTE1E0wBNMBMEwGd5dheb5fI+TtPnrT2pgi++fQ+duvCwvPrnl0tOT8rVldnYAAAAAAAAAAAAAAAAAAAAAAAAAmD82PkifO5pkszZrLILhWdTuti637VI/io3I9m+/4Gyfm8wi2+u4ZrzFn75+FljLpPppo/oqtS0foVzDo8kgwuaPoXZJd9Dhiczq7RR3bUHbwUdZNRr0Bq2k3VuJpthRMUGwmKKCiajYEwUUE1EwAUBQUZwAUBQUZwABMFATUUFE1AEwAUBMUTABQAc+DvLTscOXDlwmoKJgmoNCYmCaigm4h7eAMAUBMGO+Axh7OIJgomCajGZ3443dWLo6qJjXaFFAE001FBNQFEwTTAUTBNQUTUa6aiczZxBMGM7bwdZ3d+6KKrVmpjRTGnM2cUxrzHmyzunmbOLKPHb228WW2nOz9uPkYj9qDij+l9p+R+R8Ue5S/OuJf279MnzL5gAAAAAAAAAAAAAAAAAAAAAAAAAAAAAAAAAAAAAAAAAABMHrzLt9C1XvZB7nD6zh31UvRz9CfpCijGCYAACYAKAmCgmmomAomAAJqAACiYmoAAAAKJgM4NCagAAAAAAAJiYKAAKAmCgJiYKAKAAACiYmoKJigDOoKJpqAAACgmAmAJigAmAmJqJqCaaYJqJqJiYmAmJgmommCiaaagmCjOzu1uabqWnQ8Kyy23sDBd89HW+UtUnzlvE9o4Vm+R57A8mBQAAAAAAAAAAAAAAAAAAAAAAEwa97zYcGBbTZ9PWbGmmoP5p+y0508rOqz5MQ33Am9vuq6eTWBc33rket8t/RHA2UcllU4n7HltSK2UzMbQ+crig+DyP0iVJl5rBg66mxzOjtYOzi7Tu0Sus6KKKNgTbEPZxTG4JqKJqJigAo2BNQFABRQTAUTEwUABQAFAa7QKJiagomJigmmooCagAomCigmeOgJqKCYCYoNCYAmoACYBM2cR2ncTdQAAGPvMGIOZnflQcJh4km790xym0JqMYAmoooCYCaiagJgmo11FAUTE1E1GuooM4mCYo12dRrzGcaYNGamNGYxxsm6y+dvB57pDxbFDOhhftr8jDftT8Yf0wp+R+Q8Ue5S/POJf279O3zL5gAAAAAAAAAAAAAAAAAAAAAAAAAAAAAAAAAAAAAAAAAABMHrjLx9Clep9Nw97hD63h71MvST7p+jthR56YAAJgAAoCYKCaaiaiYoCYKAmCagAAAAAAAAomJqAAAAAAAAAAmCgAAAAAJgoAAAKJigJgAAomCagommoAJqCiYAKJpiagJgAAmJgCaaagJgCYCYmmJqACYmommmCjOMIO1G5sxYXmOGL6r4Nj5+1SfN28T2jhW+9D5vd5jz6FN8FWUb4AAAAAAAAAAAAAAAAAAAAAAJg+SuzDZ13IzV80C/rwued2i/L9p3Ouev8Zy31HC2VzfzONH0HC+VTZs6v5v73kzZk2nIm3hSRIkU74kfZn9Q0qb9Pw4e7ym5IXO7yyzOsu5hd5VdnSerfWdmxqdOkTbkPZxUGwDZhexqC6aagmoCgKACigKKJqJikPZxTE2gE1FN89NiaYAoKJgCbQKJiagomJqDnc+pNy4HdRRNRnFAa7QKM4Q9nFpgT3L02uBQGW+JOWTo4TUUZa76aVE2LOoNCYzqDQmAA53zqTcudS9NCbhkCYJgmCiYy3xN2YjqJiO59ajua76aXTVxpLJw6gAJgCiOu+ml20V6snVwmKJigAKJpiczZxdZU7puomCaaiaY1pm3gmo1AaM1nGhN9lRj7putvnbwee6Q8WxQzoYX7W/Iuf7VLGX9MKfm35Xxp7pL4Hij1P8Aq/UN8e+TAAAAAAAAAAAAAAAAAAAAAAAAAAAAAAAAAAAAAAAAAAATB63zhfoW4PeyD3KH0vCHqHpd+hP0dRRnTAABMAFAATBQTTUTAUTAAAE1AAATBQAAAAAAAAAAAAAAEwAUAAAAAAAAAAFEwAAABQBME1E2hMBNQAAEwAUTE001FFBMBMTUE02cTUAEwExMEwUTEwTUTBNMBjZ3c3NM/wDJ5Fqk821ieycF3z5Xytmk+bt4nsi5J2ja8xF5MCgAAAAAAAAAAAAAAAAAAAAANcH4O/JB+dlyMsuc1GyL3LydYunBkfvin2aTy37v9nWUf2dL9V4XqcrX+/fn3ZwO6E5+y0p0h7cTpDzK5IfOxT1Y5dhD2cXEbuO60Jql0bQm3AbANgTUBRNRsCagKACigAKKJgAKJgCiYAAAKAmCgJgoAAAKAJgoACagomAJqADQmJqKJppqKCiajOJtAozibQCYJiYJgoAAmAJpqHiTr2dO46uAHHh790Oezt2YO7sJppigKKCibOm12hoUBMExRrpqAJpjXmbOIDO0NeYxjr2gaM1nGnNYp2TddfO3gwOkPFr2ZriUv2t+ReP2rWMv6Ucn82/IuNPc5fAcUft/836hvmXyQAAAAAAAAAAAAAAAAAAAAAAAAAAAAAAAAAAAAAAAAACYAPWecL+wXB9NkH5n1fDvqnpN+hP0FQTUTTATABQAAEwUE01EwFExQE1GcTaE1AATEwUAUBMFAAAAAAAAAAATEwAUAUAAAAAFEwBNQAUTAFAAAAGdQUTTUAE1AAATAAFFGdrptAomoJpiYAJppgCYAomJpgJiYAmJgmCbOyhzUbTPaed4Zm+0PlbL5u29k4Vmvm3lvO4U3wVBvgAAAAAAAAAAAAAAAAAAAAA9WZ2+Xa5s2vN7xNlfvmbTRdF3WlrHp9ltP3HIbsrpxbzCJiG3K63M2PuH8uuVHHN8ZSMXXrlCvifJt517Xjay7eRTyct/WWT1JoxpL9rw68ry8rXDB1CBzUe1PWWXFOsvJ2FlW3JoTbcL2NVEv4m2OW4JqQwUBfxPiCsPZxBsAJqKKJqA2GcTaABSZs4s4NAAJiiYKCaYoAAoCYoAACagCigmJgA0AzqADQmAJqACibL4Ym57sR3FExnUIezio6xufDdLnu4HdwM6gJqDO1xRzrtZlBy4HdRMTTUBNMBMAFFExNNMTAUaFExGa6woTXZ2jdiOziZt4Oew5cDTTaGu0DYYxrgmztDVnbeA5aKbhozWMaXI28Ga7si0762sDO8SxQzmF+1PyLn+1exz/Smn5ur8q4z90l8DxR6iP8X6jvkHyYAAAAAAAAAAAAAAAAAAAAAAAAAAAAAAAAAAAAAAAAACYAPVucJ+wUf7++m4e9wj/B9bw/6l6hfdPv01E1BNMAAAAFATBQTTUTAAUTAE1AATEwUAUBMTBQBQAAAAAAAAAAEwBMFAFAAABRMUABMAFGdQaEwAAAAABnUTaEwAE1ATEwUBMFFEwTEwBNRME0wEwFE002u0AmJgJiiYmomJppppiabvsMTefneVZeJa3eysGTaPk7Lw7ez2Rck3yPMSeQAoAAAAAAAAAAAAAAAAAACYAPyR+STc7Kl2YZuTNcwxOp26fTuhf9P4r9xZv1H7O8o18R+hcG1pxTHjfV+QUCuvz39Az0h9ZPSHlcPZxWZXbajXoHXWFoeziEbuwHVtQgVh7eAm2RNQFoQLAoCgKJiiYzh7eDQOQAYwdvBxDmWTlwJgmDQCaiiaaYKKCagomACYKCiYx3Prd3OzJy4UTE1AUBNQAUTGdQaExNQUTE1GUJRNizqKCaaigomAM6gJpjOymgTSVGIoTNnEBMTTE2gUZ1EwAE001FBMBRMAExQFEwBRrs6goJpiUzbwdf4RyiOum+yom0NKamNKy/wRuDSmMsIw05mzi89n7PFcSvNw7u3d+1HyLv8AtbMd/wBKafm35XxT7nL4Hif9tH+L9RnzL5EAAAAAAAAAAAAAAAAAAAAAAAAAAAAAAAAAAAAAAAAAABMHqzOR/YKP9/8A8X0/Ce/+T6vh31L00/QX6CommoJpgoCYAAKAmCYzqAKAAAADKanGwxUBMTBQBQEwUAAAABMFABluSfSYGKgAAAAJgoAAAAAKJgAACiYKAAAAAAACYAKM6ibQmAmAoKCYmmJqJqJqM6jXaGcUTATTE1ATEwExME1BRnAE1ExNNNnZ2/Dm8zBaZLTzfBc189ZeFbe1MKzfI+beW8xg7eANkAAAAAAAAAAAAAAAAAAEwdLjHF13YPwvPxVe/K7TYQI1pb29dPg5LrWjm/DiVquHmbkeBD+X/P5zg5OdfnNYryvWesavNvLtV36xTxaw9b5D+peDqvl89H7HUr+VeB9y9f3DB0PtpnV0xS8kg7nwcMmLZveJCqgO0BsKDYTFBNsCagKA2AE1FFE1EwFFBMUBMAbCY12gUATBMATaATUAFE1EwUFEwBRMAATUBQPHQExRMY7m7jDc/Ta5dnKjqozibQCaiiaaagKAmoJhD2cRNQTTEwUTFABMTA8dTdu6fjrQ6njrO57CbgBOZs4u07u07jq7AomAKJgmoCaiYJjQ11BsMY0wTTGnM2cUY2aGmiNOZs4pjRmbadbGlOzr758Lz0HjeJXm4dzu/aP5F0/a1Y6/pTT82/MeLPcJfAcTft/836lvk3yQAAAAAAAAAAAAAAAAAAAAAAAAAAAAAAAAAAAAAAAAAACYPVGcl+x1h/JfU8K7vtOEu708+/fcKJpgAmAAmAM4NCgmCYoAAAAAACYmCgCgJgoAAAACYmCgCgAAAAAAAAAAAAAomKM6ibQmAomoKJgAAAAAAAAAJgAAAoM6YKM4moomommomCYCaYAmCYAomJiYmoKM4mommJqM6ajGzvJsMzXj2nlW9ns7C03wVfJvEew7lmaaaGdndqAAAAAAAAAAAAAAAAAACYPhjs7+dHycg2ZleGDbln9ovzF1O58bT4LL93y32HBlPnc1+Gez6fhirzFj79/PdZWdLwpG0P6jrU9H6TcjR5tccHUaaHSWN3G+tDhYctmDs4jrO7bUdWw0DYTGwzigm2BNQFAE1FdyHRmOAUbW+JpsQTUABQE1FfB3lp2OHRw6O6gmmAoAJqCiYomCgyhOkOZ3cw9vBw4YChM2cWmUxITmTFBTv1MTUGXvxNyz3zqcbuHDkT3302KCu5dSblwo4Zb66buVknDXUUBNzufUOXCbua5TpdtHXWTXNTq6uoJgm43LrFGAo433rBhufptBjrvppZ3bRiOwJpijLXfTS66OuksXZ2E0wUTUUca5XodOjtpLlw7JiaYoCiYJiiYoozjTBMUaczZxZo2UaUzbwQGlN31Mac1j7ozu1r528HjRszzs8TvnbwZYdo2fs/8AIuX7XbKF/Six/N1fmfFfuUvz/jL9s/VB8k+TAAAAAAAAAAAAAAAAAAAAAAAAAAAAAAAAAAAAAAAAAAATB6lzltwset9dwru+14TeqX2T7cUExMEwFATE01E1ExQUa4moAoAAAAAACYAAmCgACgAAAJiYKAKAAAAAAAAAAAAACiYAAozqDQmAAozibQAAAAAAAAJgoAM4AmomommCaiYJpgJgCYoJppqCYACYomJjOmCaY2E2duXNN5mC0yWnsvBd9PlrVJ83bxPZdyTtG14bE8mBQAAAAAAAAAAAAAAAAGuCgP55Ozz5zfJzk87aZgK5Z3b7rwXyqR4+mvrVJWj9W/or7NssxUZ1n6aP2fh/wfKMt/8A9Oj46uCDSlNL9Pndxil5hC1HwuGPq3IY7NgUW1GvQOdW0o4bEPZxHPZsDhRNNsCagKAoCjOKAoDXaBRNRRRMATFEwAUBMAAFAAATBQUABlufWmMVFBRMZ1BRNMUPeXSom55ty5tqbnqeH7+o4ZpgCagz7y1Jw5VQcJqKAAmJgoAACaaYmoKNcUUBNMTTUABNMUTUTUZxNRQFABNROZs4jrO6jO6tdoUTFAExRNNQBrpjXTUa0zbwRjdRqIjTmbOKY6+Zs4saHZpX1seejO7x2+try0H7MfItf7X3KD/Siy/N2r834191l8jxj6h+qb498SAAAAAAAAAAAAAAAAAAAAAAAAAAAAAAAAAAAAAAAAAAAmD0/nJ+wsH2XC277PhPZ6vfXPuU1E1ATEwATATE1AAATBQBQAAEwUABMTBQAAEwUAUAABMAFAAAAAAAAAAAAAABRMUZ1Gu2JqJigAKM4m0AAAAAAAzqDQmmACgAmCYCYJgmJiYm0JiYACiYmmoJgozjXaBRnATTE0wbDGmzg7a9aF1nwPMcFTPyPnrLwrWz2phWb5XyDzHmsKb4Ku7O3wAAAAAAAAAAAAAAAATB6Rz+s5K5c1XNexXlXvmdSwrBu601CtfqsnR+os3sZFVm5mUQ9TIavMWv8H8xF94hk4yxRPxPfV4axPnW9rMt6eS05b+ssnpzl79kiJjq7yFBpBg6G55kzq7qDs4iTsxNQUUBuAoom2tS9NCYsJqAoCgKJigKJigCgAKDnfOpnHCgomCgKAmJpigJtAoAmAAMoQ7TuyHVzN9jQc93HiSjhRMcTNvBMYKCagAozigIzNtOtRyxTdwHO5NCbNMAY8++jsyTdQGMJQYgKCbOzs+fcugGEPZxBn+q30UYCgmJpqEzZxcd3Wd01XVMBQGdRjvnW6buqzh2TFE1ATExRj79BiKJgCibOomCM7bwBFMQnbOKbQ0Zm3gzjSms40Zmzixs7XvnZTqeR3Y3iWJd3r1IYfzFT1UP2a+Rav2v+UD+lFl+btH5pxp7pL5HjH1Ev1XfIPiQAAAAAAAAAAAAAAAAAAAAAAAAAAAAAAAAAAAAAAAAAAEwems5berDqfYcK7vvOFNnrR9g+wTUTUEwEwBnTUBMUAAAAUAABMTBQBQAEwAUE0xRQTTFAFATEwUAUABMFAAAAAAAAAAABRMUBME1BsJijOCgmoAAAAAAJgAAAAoCYmCYAmomommJiiajGNdoAE1BMBMBRMTUZxNRMBNNMTTBN3dzTe/XmWmS09n4KnaNL4qy+dtvY9yTdLz2B3YKAAAAAAAAAAAAAAAAmD8bvkmjOfnXnbYdzU8J3h8rZcindC/6+Sn7iz9PK/Xvsuyv/qRens/S+CvA5THHjy/KK4N/q/onFs+nxPNIWpaWBhl2QztyGO0tgdm1CBYTbAKCbYBQFAUZwUFAUBRMAFAUHHn7RpByAmoAoJgJqCiYJiYKKCiYmoooJsoRAxUFGcUBME1BMUZQh1ndZN1a/fqvV36Du6KJgDnfep13cuHZww786B36uFHRsM411FBRNjufWm7bMVHVt65XoZxKEJsZg6dgcJjQmCgJs4moJgJqAAACYCiYJgozjXaGhMBNQTUaYJgmKNaZt4M3dRqIDrpm3glOw0LLwIXEY3a19bHgwwvGsQeBmjdnqP2W+RaP2veUH+lFl+btX5/xv7nL5jjL1Uv1YfDPigAAAAAAAAAAAAAAAAAAAAAAAAAAAAAAAAAAAAAAAAAAEwelc5fe7DqfdcK7Pu+FPyvWL6p9ioJqCYCYCiaaaYoKAJiYKAKAAAAmAACgJgCagomJgoAoAACYKAAmJgoAAoAAAAAAAAAAKJgmKCgomAAozqCiaagAAAmAACgJgmoKJgommAmAmAmmACiaaiYCYCYJiagAJgmJqJiaaaYmmztyFN0TWdN51gqbo53ytl4lt7QwvN8NXi3nk4HmkSXTl00VZ0G0AAAAAAAAAAAAAAADosbYng4MwrOxTfVdEeBGtLa3rSn1PkK+Dh1lavh1nR/Lzn0ZxEnOTzoMU5YZXJkyY828Laxsa0+oRuR63yH9U8N5PyeVS/bKlSfAqz4LwW4dnF9tOzJi2eVQoXhqxptsQbgNgGwDcE1AAbAKAomKACgom2EwBQABQAAAAU8dS7g6AoACYKAoHjqbt3UHUATUGhMTUbCaaYJqACiY12gbDONdRRsJptdoFEwABRMTUE1ATBMc765cuHDhPx0FBnBRHc+sUZAJiaYjz76O/Ri0Ojjc/Tai5crOCYzu0ibsKKKJqNcTTATE1GhMAUTFEpm3gl3EHQTTEJ2zim0NGb7KjOOvmbeCY05vsqPO7M7SnbeDy7jHb3eO3/4ODy4Qq7v2Y+Raf2vmUD+k9l+bq+H439zl8vxj6j/N+qj4h8UAAAAAAAAAAAAAAAAAAAAAAAAAAAAAAAAAAAAAAAAAAAmD0hnL/svYdb7nhZ+h8Kflevn076kUTBMBMATTUTExQBQEwAUAABMAAAATUFEwAABNQUTBQAEwAUABMATBQBQEwUAAAAAAAAFExQAAAFE1BMTaEwAAAAEwAATUABMAFE000xQAE0wFGdNrtAKCaYAJiYAAJiYmJpgmzpibyjDE3yPnrTzrT2hhibzPnbLw7b2Fck3yvOYHdAAAAAAAAAAAAAAAmD4d7PDnR2eQHMkvjDlzX3SPeuLqdyYGj2z9X7P/AGH2PBeU87mfwvqOF63NeP8Afw/npuvX58Dufof1DU6Tq/SOkTq8yuKDqNFmWeru4VNS/wB4lu7cZjU6dI0NgTbAooM7YBuAAzh7eAKs4NA2GcTUUbO+dSaaTQCaiiiYCaagmmooKAJigMIXsau07ue7hZwJgAoL/qt9ZxgoMoTpAw3P02u7s5UdRNRRNNhufU7bDh2ExRQTTUGU3vxNyxHdRRMATDc/TaOUx3Za76aTVNjqfR8bj9Jz0S1OvQq4Z7mm5ZJuGX58GIMdS9NAMQTBQAEwY76mMUxNQUTExQ1ynSAKCaiaiaaajnfOpNNIUY676aVFGIJiiaagCaY10xrptjTZ03WzPfvxs405rz2dqcrY864xW93jl/8Ag4PLhGru/Zj5F2/a+Y5/pPY/m3xHGvumJ8xxj6iX6qPh3xIAAAAAAAAAAAAAAAAAAAAAAAAAAAAAAAAAAAAAAAAAACYPRWcr9Eth1Pt+F/zS/Q+FPRPBH1L6kUTBMBMAAZ01ATBQEwUFAAExMFATAAUFEwBMAFAAAAAATBQAABQEwUBMTBQBQAAAAAAAUTAFAAAUZ1BRNNQAAAABnABoATBME1BQBNNrqJgKAJpqM6abQJgAmAoCYmACagoziYmmmCaaabO7C5ZupI2qSVrE9i4Kvmr5SzS1fOW8T2ZhWboeIxvL2dnUAAAAAAAAAAAABMAH8+PyQpnMTMuGebaZK7is9YunAMftVKe/uX7P06H9A/Z3lXx5frL9P4Wq8v4HWXw/cPsa9T9lxPo8W7zmFqWnwsLC7ETbnjo69m4OqgNgTbAKApDATUbAmoAKKKJqJgACgANhMa6gmmCiiiiajOAAoKJgCgAJqCiaiYmoKM4AKCagomJqCiYAA4m6PEhyqm4Q7z6FHfozHRRMa/iTQHfqXVz0Jmzi6OBQTmbOKgomAACYmCM1oGTOoCYCYACYJiYoNCYztCYCaiYmJiYJqNACYommomoJs41wQm+xomo052zimrDrpjH3cNWa8tndZy/Y1edc3ZbW7pL/AN9pweXDNV3ftF8i7ftccc/0op+bq+H4290l8vxl+3l+pT4h8UAAAAAAAAAAAAAAAAAAAAAAAAAAAAAAAAAAAAAAAAAAAmD0VnD/AESxep9tw/vD9D4T9E8EfXPoQAAEwBNNRMTAAFAAUUZxNoTUBMAATABQAAAE1BRMTBQAE1BRMATABQABQAEwUAAABMFAAABRMAUAAAAAAAAAAAABMAEwAATAAGdRQa4mCYmCYKKJiaagomCYmAAmJqJiaaaYmmEN2uo4XmeGJuja+dtPEtvamCp3O+RtPNtvPbnl0tOT8rVF5zsAAAAAAAAAAAAATB4FnHZXbjyE5FsTZU8STe0Qrmua1k8q38npzK5VVm3mcR2balabPjxD+VjKPjS98sWVy+sr97XjrNrfl8SpUj+va0tH9e5PVnLsrmJ7v2animlhmtO8tu4bhpSmij2ZlKZ1eXQYOh0dW2M7YE21CHWN2Sjq3E01AbANgAFExQAUUUTE1Gwmmm0AmoAoommmoJpqNA2Gca4ooJigJgAoovD28E00FFGwmmmoAKJjXFBoTZQmcWABNQTUCF7tTcg4FATHGuV6Bz0VTcJqAmJgKKCiYmo4mbeCiaoOddrp1JnEgTFGUPbXrHSGI4AAa4EzZxTBNQUTE1GXvN1WaLU6thjUTTTTBMUFFEwBRNMTTUTBrg1xRps6jrZ23gxw6xs1Jm3g8xFoXltp1PNnZitPHr62PMQfth8i8RdGavjGX5cUU/Nvz/jSNc1l8vxli0s6P1BfHviwAAAAAAAAAAAAAAAAAAAAAAAAAAAAAAAAAAAAAAAAAAEwehM4j6J6PvuF9v8AJ+k8KejeFPpntgAAJgmozqAmAmCgoCaYoAoACYmCgAJqCgCYmoKJgAAAAACagomAAAJgoAoAAAACYmCgCgJgoKJijOoNCYAAAAAAzqDQmAAAAmAAAM6ajQmmCiaYKCaYmACYCYAJgozgCYACYmCYmCaaYmJu5wvNprrzLTBae0MFTObnfL2Xj2ntDC0ymjRXwvCeM7sFAAAAAAAAAAAATB+X/wAktZ0MzAubtc2bxhObonYvnfrj8C5PNy/TofoX2dZX8WZ4X2/BlfW1Hjy/ELkXfeFbw00f03TmNH3cTGjzu4dlOtOd0p3ds4Sbgm2FB2CaabQNxnTbAmA2AUBlCdY2dp3ZOzqoCiagCiaYKKKJgCgxmuJ2do3ZOjqAAKAmOfE+A7Mx1IY5jY+G8FHDYZxNQTUABMTUFATBQEwUTHH7rvIc9mCjhRMEwUAE1BRMT79UGc32VE3MbOfgWlNwmoopDUTExMBQExxM28HWdhy6iYAJgAmACaYJqAAoAmmoJppiiagxmijEAEwTZ2hMGuDXmOOzmNmjNZHd187bwZ4GjY7Kdbzbu7rG7XvZ5Vp5Lx3EnsHnU3NV+3/yMfF0ZoWI51fq+KbSvxPz/jP3OXx3FHSxD9L3x75MAAAAAAAAAAAAAAAAAAAAAAAAAAAAAAAAAAAAAAAAAABMHoDOI+jOj9B4V9tfpPCvpXhz6N7YAACYCiaYmJgoCYoAoJpigAJqCiYKAmAAACgJgAAAAAAAAoCYAAKAAAAAAmJgoACYKAoACgAAAAAADOoNCaYKADOADQAM4m0M6Y0JgKJppgomCYAJgJgAAJgAmNdoFGcTExMTBNMTTTUhzebQz2k7T2Dgq+avnbVLq8O3ie28KzfK+deG8zi7ODOzqgAAAAAAAAAAA1JfKpE5Py1PCD+brsxGcxyM57PWxHeUKdrF04Y/WiB9i/UeztH9I8C5TNLLdX7FldSKtbo+aLg9k/U1sbzSDs4saUuwg7OI4ndWEo5lko5bkPZxE2wmKCbYTFBNQFAUTAUUBQAFBNRMAFABMUUExQEwBb3kmIqKKCYoKM4moo2E02u0Bvxu52UZ3CbQCYw8T4Dv2ZjoAympjFQTFFFE2O59abnZkm4FBMUcQ9vBRNUBMAOf8Yd3I6OAE0xRoEwExMBMTAABMAEwEwTUBQTExRNMTUUTUTE1AAGM0EU2hrpiaYmmOrmbOKarRms0bOkuvmoQjDT5XsKPCubsdvd1V5b28uHSru/c75Goh0h5jk6XX6vimS+A4z6Zk+I4mn/rv0ZfHvmQAAAAAAAAAAAAAAAAAAAAAAAAAAAAAAAAAAAAAAAAAAEwfPeXj6M+T1P0rIPbZfqHD3pIeJvaeoAAAmJgJiYoKAmCiYAKAmAAAAAACgmCiYAKAAmCgAmAmKAAmACgAMoROwxUAAAABMAFATBQUTAFAAAUZxNoAAEwAAAAAUEwUTBMAEwTAExRMAEwUBnTAAATAAE0wBMBMTEwE2dNNRN5PhibqU3S8Kyw2nuDBU7m0vlbL5y29g3PLpacn5WrzmB2AAAAAAAAAAAJg+eOyeZyUHNfzNMaZSKzqR51bttIl0/CeX+o5D1siqTcvxD2cgrTZzLV/MteV7y5UyRyL9vClvbyJNLaTT74/rPJqWuz9XwYZnrDyG5IWijeyTOrvdRr0NWsuNW34/xO7js7iF7GrK692bY4bDOooJjQL6nXoZ02ymAmoDcZxNRRQTFBQAFGcFABsJjXUUBMAA3302OrkdnAKAAKKJiYKAmAGuU6VATBQTBnufptQdnO+emwcDhwKCYoTOn2hRM1ynSm7ayoOqep9HxqCiYAAKB4kABuJs53BwmmoJpjQJb56bHR2cu7qM4mACO59YLAmCYJigmCaigJpiYoAmKJgmCgJiibOo1wa4NWdt4Ju0bOvnbeCa/ZpzWNCd2rMeeytK8JnO8m4x23TXnM5ud4cFR+9/yOrCpD7HpBm18YvqTa/kfA8Tx/aWj4Pif9vD77fLvnwAAAAAAAAAAAAAAAAAAAAAAAAAAAAAAAAAAAAAAAAAAEwfPeXr6M6fBqv0DIfbH6hw96R4m+keoAAmAJpqJiYAKACgCYmCigJgAACYKAAAmCigmACgCYAmoCYoAAAACYKAKAAmCgAJiYKAKACiYAAoAAAACYAJqAmJgoCgKCYmJqCaigmJgmAAomCYJgmAmAmKCgmmmoAAomJpgM4AmCaaYmOwuSbqU3gjaefae0sF3z5Xy1qk8S1ie0sLzKVpoq+X2l5OKNYeQO6AAAAAAAAACYAPxL+SYs6iyxZlDw1mt3NM7fAuuP3QxDo+ycv2Fn+R+y/ZzlM4seumk/80/+36TwXV+KtHjx/i/Mm64Hf793pz0fT69HmsGFCom8qW/ChaOaijlt6jTpc6qNtwNhRRsM6aiganTpV6jc1Po+NmATUE1AUTAUUBQTUAUBMAFABRMTFGwmm11BMUUBQTTUABNRQTAEwUAAAAAE1BRMExNRQ+HcHf8AxdP8By4AE1FBMTBQFABzzblzbQcAAA0wZzNvB1nd2/hcuzqoziYJgAmACYAJpqCYCibQDOJpqJiigJgmAAmomKNdMa4NWaDQmbeDOo0eRt4MNzZNpW+ynW8y3szuveRcZLTqb52cXkRuzP6FuwBwdT7Glgvl1+r8u1tPPofnnE3uUPz7O/277YfOvMAAAAAAAAAAAAAAAAAAAAAAAAAAAAAAAAAAAAAAAAAAATB895evozp8Gq/QMh9sfqHD3pHib6R6gACYAmmomJgAACgACgmmKAAAmAoKAmCiYAmCgAJgooCYKAmAAAJgoCYKAKAmJgoAoCYmoKJgoAKJgCgJgoAAAACYJqAmAJg2BMAAUEwBNNNoTUBMFEwTABMTAEwUTTAFFExMBME1AZwTEwAE2dlC2V6nF3ZLDs83wVN8j5208O29v4Km6OZ8la3eHbeZxdnBnQVAAAAAAAABMHjGVHKDceS/J7euOL8mdohXTd1rKkW/RyKLVq8YZ0harW5vSH8s2dblutc4jLrivLrfN4Uk8i+76tbWw0e5va+R/sP6y4ZyaaM/DHR+20aeOvXnwPq6y64PM+rpyxRLyNyi7qDt4MaErC6jQNhMbAKA2EwUFBNRNNlB28HEO0tqGg6pqAoNhnBoBnBQFAATUAAPf3xO/wDV0/oOXAAmoommKDHc+twMXQY751tAsAmAJqDOHt4AwBQCHs4puSY6zudmXvx1cOPE+AJKKACiYCiYJhD2cXaXaNx2dWwmJeOcWgc+btGhyJuABNNRrqJthnE1BNQTBsM4mCYJgAJijONdRQTaBRNNMGcTaGgBMEwTBRnGu0NCbONcGlM28HTsNCYjDtG7QnbOLJGzq05Gzi8u4ztHl+xq8O2yWt3jt8zKQ3mMz+k3sLtz9xuxvZN4ldlvc/Itvw6vzDNfWz/g/N8z9RD6ueSxgAAAAAAAAAAAAAAAAAAAAAAAAAAAAAAAAAAAAAAAAAAJg+dsvP0f8n+TV+lZB7a/TuHfSQ8Ye09YAABMTATEwAABQUATAAAEwFBRMAAAAAAAFATBQEwABNQUTABQEwUAABMTBQEwUBMFAFABRMUTGu0CiYoAAAM4NCYJqAmAKAozs6bQ0CiYCaaiagJgJpqAJgACaYJiYAAAAmoCYmoJpgAmJiaaYJsbyTDE2uuvGsstp7ZwVOfK2Xzlt7Nufc6dbzmBtAAAAAAAAAmD84fkjPOxnZHM1LkZFMEXh2i+MbW1bC2r735Hs33X2fZRhv5tGr7bgur+tffz/A/Cez8W4P6kpbvvPq82uWFo5qIsLu4e3gOI2bcJWHRtO42AbEPZxdf4Xb+FuIuo0KKCYC/h7y0bU0uyqbooCYKM6igmKAKKCYoAAKAmCiYmoLbmziLQMvhibnuyTcKAmoCgJgAAmCgAmKCiaiYJgoJigom2GcQ/U7kDhoAGc32VE3MbORwKAAAAAmANdQExSZs4pjTaBsM4mCYAJgAmmKJqJgmm0KAmJpgCiYoAmACYJs7QA0waE7ZxdIGhNQl2l187bwZYdWjb+B51zdN1N5eF4DyLOzxnGkzvK3eag/qS7Gpc1MN5iOS25fDTB0b/ALD8nzXF/aWj88tT/wBd76YWQAAAAAAAAAAAAAAAAAAAAAAAAAAAAAAAAAAAAAAAAAABMHztl5+j/k/yav0rIPbX6dw76SHjD2nrAAAJiYCYmKAmAAKAAAAKAmCgJgoJgoAmCgJiYCgJgoKJgAACYKAKAAAAAAmCgJgoCYKAmCgAomAKAAAADOmNACagAAomACjOmm0AAJgACaagCYAAJiYJpgAJqKAmKCYCYJgmJqAmJiabOOwuWb+RG08+09oYKm6OZ8rafN23tnDEynL5NaPmYlhxRrDu3ZEAAAAAAABqzZ1IcLXK+QH83/Zpc52zzkM+S99SndvurDWm6bv+xV+U9vf05wJk80sqnE/ZcrqctlMzHb/n+75hw/A5tNX6RM6u2KXmsKFp98MaerfUctuHt4KOs7tkdmwzpthoUUTTUUFFBRNNQGwzpgCaigmAACigm2ExrtAAomAAJigomomJzFBRMPEnHZz3OeHuTk6Hv74lATcAJqDOb7KibmNnKjhzD2V6kIcxu4d3DHcndyydHB4kCUPbwUHIAAEzZxBluQMgAAAAAATABhB2cSHMuBwmmo55tyc/0derhw6iYAmACYCYmmoJqAAomJiYlz77z7BRgooA4m+yo5GDgTBjNFEU1AGmmNWaOe7rZjNDmN2jO28GR2h1Nv4HlW9mN0t4PFuPPtvG7877sXh2ma16Z/WPmc3T3DzXcBXL9hwtFp57Oj8n8fu/Nrfq3s9JEAAAAAAAAAAAAAAAAAAAAAAAAAAAAAAAAAAAAAAAAAABMHztl6+mLTrfoGQe3P1Hh/2p4o+kemoACYAmmomAoCYCYoAACYKAAmCgJgoAAAAAACYAAKAAmCgACgAAAAAAAAAJiYKAmCgCgAomAKM6g0JgAJgAmoAAACYAAmoCYAmoCYKJgmAACaiYmmmAm0AmACgAmmCYJiagJiaYDOxg75xdcKFx7EwVNfJ2njW3uDBc3mfPWd3h293lzMzgAAAAAAJg9DdkZzibvzYM03F2U2ZPpHto922tld9ffHL9g97helN7Moj6S9vIq02M18J/MPOvKVe2MLe+b7vLWLa1t6Wsjk08FraP63yinyGUfC/YLeseFy+m7yW4oPyvJ0eFumdHkzu8lg7OLiNnSd2+yurYaFG3ChM7owbHDcTFAUUFE01AbCaagKJigJpgDnfOocsxwmKKAoJpb56bFBVMATUFEwhusbuew7OEveXQoOU1FFEwADcvTaBuXptA8dABMFAY751gxBQBMFBMGwzjXaA1Po+MAGeu8ryA5AABMGW+dYMfHQN99NgJgAmmoy1300jp1Yw9nF1j8wOrhjrvppBiADHfAYgmmCagAmomAAmJiiaigACYJigzptdoaE2ca4o6+Zs4us7ptCds4oQo6+ds4sjiHUSXmW2R086Z5Xh3Hn23j/Kia3fkKH9nvCzsv+seJmzPZ9M/rwyQQKXLkvw9c9fF7ji0/wCro/IX5e8mAAAAAAAAAAAAAAAAAAAAAAAAAAAAAAAAAAAAAAAAAAABMHztl6+mLTrfoGQe3P1Hh/2p4w+kemAAACaYmmCgAAACgAoJiaiYJqCiYAAAAAmCgAJqACiYKAmAACgAAAAJgoAAACYmCgCgJgoAAKJgCgzg0DOoNCaYAAJqAAmJgoCYAAJqAmAAzigACYAmmAJgCagomJtAAmCaYAJgmJpgmmmMbynBU3zPGsstp7kwVNpofK2Xzlt7Ci7ODzmBUAAAAAAEwfjr8kuZy3IvC1wtmtXPT1mRy9fvjR4KaNPI9Ol+z/ZdlUzj8w+j9T4LrTTq+L4/06vykuKB8rNq/dccvcvS8ng7eCjI8mZ01tRr0NejnVZ0cKA2FBsAoM6kPZxThaN1E3VlCUdZ3bcL2NUI3dWbgAUZxrtAymgsmCgAM4oAoCYKCYozmbeDid3Tsz+BOjhioJigomAoABMAAAAAAAZxNoGW+gxBQE/EgUBP4bwAABQE/EgZ7l1gwAABNNQmJpigmKAmJiYAAJgAA1wUZ1AUEwFExMTExRNRQABMGuKJgmKCY1wdfM2cUo2UdTO28EFp3aMzZxeeytGS8a4xvH758LzGCE8mUPuxlYwfctPq+KIVl/1jxs13hjzP0z+u3DP7AQvgtk/IH5s7EAAAAAAAAAAAAAAAAAAAAAAAAAAAAAAAAAAAAAAAAAAAEwfO2Xr6YtPg79AyD25+o8P+1PFH0j01AAUBMTTEwAAEwUAUFEwGcFBQTTUZb6dIgYgAAAAAAAmoKAJgoJgomJgoAoCYKAmJgoAoAAACYoACagAy5t9T/oMVBRMUBzzzKuPyIdZlw5XGdQUTE1E2hNQEwTUFExME1ATAAEwAATUZ1EwUATEwUTTBRnE1AUAAEwATTE1BRnABnUTE0003a3LM/Ijaefae28nk3yPlbT5u29qXLLpyoVK18D5t5bsAAAAAAAdPiO/IWGrjkXxL5rCPYVtLeq1aItRH9Vq2HmbXww/mQ7I3nESc5HOrxTlSs52sWFteWpXfo+oWdhzv604Mybksql+7UqfL1Z8D/n0eu7khaKaH1MvImXdQYNKOjq7iHt4M7r2bLY4TBQGwmNgGwozqMbQNDO3FBRnFIaYAJqKCbYTEwTUBQE1FPEhNNQUTBQTBRMcb56bHR2cu7qmKCiZ3kAACgAAAAMfD3kDIAEwUBPc/TaAAAAACgJgAAAJgCYoommmCbQHjqYJiYJgAAAmmJgKANBM2cUJBwCagJppqCigDXBMEwa4oCiaaiaabr5h3UdbNZ1IdXNY2d1d8+F5nZjdDMeHDO8nzNbm9U2eHkyub3RjqD+cfOcQ+2w8/Mf2EP6z4G5WP3h+UvzNtAAAAAAAAAAAAAAAAAAAAAAAAAAAAAAAAAAAAAAAAAAAAmD50zg/o/j/B36Bwl7Y/T+HvSPGn0j1QAAEwUE0xMUAFBMTTBQFATUZ002hQFE1AAATABQEwBNQExQEwUAAUBMAATBQBQEwUAAABMUAZ0xoUTUAAAAFExQAAZwaEwAAAAUBrgAmoCYAmAAAomCYAmmJpigKCYKM4m0AAmCYmoCYmAAAmJpiibOzheyqzpvY2Cpj5208O29wYYmaYOl85hjV4d55GgzgAAAAJg+U+y95w9nm/ZmGKb0izKUnTYuqQPvnKfUcE5RN7MYh9TwvWm1mb+c2z1+fTT4w/rSr0fp1zSHlMOEo8+Zdyog2ExRQbAKAoCiY2FBRnFIezi5hPuvD28HWE3LoNwEwAE1FExQTZTQRFGwJtdoBNRRNMUBQExMUFEwFAASh7eCg5ABzC3uoM0xPcvTaAAAAABuXptAABxD28Acbn1gyAAABMAFAGcTUCZs4uI2dp3UdHVrgoCYKA1wTBQEwTBNNQTFE1E2gEwBNMBQTE1FAEwTBMUa7OoKCYNdNRoTtnF1ncddM2cUVI2dfM2cWNPu6W9Nnp5Xl2tnnuhmPDYOz3R2KTDPqn7Izkhg+XFlja/gVfK8V+3vIzr07+ph+YvgVAAAAAAAAAAAAAAAAAAAAAAAAAAAAAAAAAAAAAAAAAAAATB895xH0wrD4M/Qci9sl+k8JemeJvo3tqAmCgJiaaiYAACgmJijOmm0NACgzpigAKJqAAAAAmJqCgCYKAmJgKCiYAmCgACgAAAAAJiYKAoCYCgAAAAomAKAM7ONDQmAAACgDOom0JpqAmAJgAmACYKDOKACYzqAAmAAAmJqAmAAoJpiYAmoCYommmMbzDBM3v3g8Sy8y29wYKm10Pk7TxbbzeLs4POYFQAAATBGbLpCifLeHQD8UPkhXOW9WeUzD+Qy45/rF08rW7w++P3/7Ocoijl2r9e4ZrctXfnRcUH5Xk6PC/ZJnRed3ksKFpg6HDpO7sNRp0udIcayu5cKA2AUBQFAUTGwmKDOoCiYAoAAmAKAKDYZxrqAoCaigmAAAmoAAG++mwBQATUAFGcYc25c21ocrs7hMHO+gzhgmAAAAADHfOsGQJgAAAAATNnEE01FBMTEwAAATBMAEwExMUTFFExNQAGcAGcTUUTUUUBMGuoNcUE1EwGcaYo0Z23g6w7Q6+dt4Iuzr5LHbY52dFe3h6v8Hi3NmeHjsiZTU3k22B9cdgZwx6teybYC5P2qsp0v8AAs3wnFP53hZz6d/Si+CfDqAAAAAAAAAAAAAAAAAAAAAAAAAAAAAAAAAAAAAAAAAAAmAD56zlPphR/g9X6Dwp7Y/SeFfSvGH0b2wExNQGuomAomACiYAmmozqJqKCiYJgKM4m0ANCagAAAAJiYKKAmCgJgoCYAAAAAKAAAAAAmAJgoAoAAAAKJgCgAmCgCYAKAAAAmAACYmmoCaiYAAmKJgAmCaYAACYJiagAKCYCaiiaYmAAAmKJuzwtM796dDzrTHae38ns18TafO2nseJLpy6PNmNWCY1XQQAUABLXq9APWWWrK9cmCMKzr7nc9hHjWlrpfQ5ZlE3cL3Morcxa0+j+bXOpyuW+XjOkvzHcq8aSPl5tr2jk08vbaP60yjJ5y/Jtfq/Vp+KpQnFPd1UKFXfm3qwS7OD385cT0bTl1XhQvDVw5X3Jy4WBQFdRp0gz1OnSCkzZxcQKOgommoJqJjLcgYgoAAmOd9HLMcACgAJgAKMtd9NI6dWQ4TUEwAAUUE1BzuTsOHUAUTBMZwtPiQMIYG++mwAHGuV6Acgx3PrBzqdegHIOIWnxIHE0GIAAAAAAJpqCYzmbeA6dnI4a4AAJgAoCaYjufWDFNQTUBQUTTATGOu+mk1hzpLEcJiigomCYJg1wTFAUTZ1GmKNOZs4jl10zbwZO7q1b62vOZHjN67ODzLjJDx6RM8SeVbY9H6B/IzmGu7PZAbxxP9QujB1tX8Olo/POKN3yudaw/oLfFPlFAAAAAAAAAAAAAAAAAAAAAAAAAAAAAAAAAAAAAAAAAAAATB8/5y30a3f6eB9rwv8Aml+lcKejeJvr3tAmAmJgAAmozpptCgJgAKM6gJptAAADQKJiagCagAAAJiagomAJgKAACiYAAmCgACgJgAoAACYKAAmAACgAomAKM7ONDQAmCagomKAACYCYAAmmooJjXFAATFE0wUBMTABMTAEwTUFGMTbAABRNQTTEwAUTBNswt8r1PLw7p3HtHJ5M8rwbT5629oXNLrqWl4HiYdZ1eP1dswII65TyU86/ww0aQ1dcr0ORqVvqkPa0z4cYnDxzE+Nud6tWjEK1Mb4N7LVl/l5M836+baJO9em8ntVhpfqvBGUaxH1faZJVnFc0ju/F6BA3fTvFPGX7pL7CZeYwoWljY3cQu/RNzqNOlzo51XHDKEDIFAbgAOYOziQLppiY2E0wFATTUUTTTUUUUTEwFFBMAAAAAABMUFEwBQUTE1A7yUBMUABx7y6Ac88PcgEwAAAABMFAATA3z02AAmAAADnm3Lm2g4AZwFE2hQZ0xMTUExMAABNMTUBnaFE1AE1ExMExNQT8dcdlByomACYNdRRNMTFE2dRrijTmDtLrZrLLpDrb328Ga3syS8Yvbw9TwbjNDx6ZMeaxP1m+RSMF8mZlAysY/wCXssIcKJYca/L/AOD8s4nt6PiM5h+2T5l4CgAAAAAAAAAAAAAAAAAAAAAAAAAAAAAAAAAAAAAAAAAAAJg9E50VKd2YEylX3HC0a436DwpP6m8NfSPpxRna6iYJgKM6abQoCYAoACYAAAKACYooAAAmomoAAACYAKCYCYAAoACagomAJqCiYAmoKJgAoAACYAAAAKCiYoAM4NCYAAAAKACYAAJpgmooA101ABRNMTUAATE1ExME0wE1AUEwAUYwaBNQUZwBRMBMExNN57gqbs8rx7LwLe72theZ4KvmbmHR5eHq7nXK9DzUnXzZulo2aHSzb707KPSw1fiS1dFfWKPK3U6fRxixavXuUPGup00PpcqpRMNdbE/JDsx+XDk5Q8fQMk8KfosIXrsjqfsnCVXksT9Eyqt8VfV8pwYOh9pu9SZ1eUMzEoDcBQEwUBQFAUTF4e3g47unZy6OFYXsappswAUZxNoHMzZTqTczu4UcCaiiiagJgJpqeOuO7juxmkuWLkE0waHMPZXqUc93Cjg95fGCgJqAAAAAB7++JRyDgBRMUTEwYzNtOsGIAAAEzZxABQEwTAmbOIHiQJgAz9+9Cbt0VTdWuNDXaBsM6aYMZrlRkkNdRMATBMATFFE1AE1E001ATE1E1AZ1E2hRMTATFExRNnExRpijUnbOI7Ru6qZs4ssbOrqb1m/lebbSeL3rM2vBtvIdPd/fk3v3295ttF+4/wAisZPuTdGaBi/Kfyvbr+xjacj/AOXY2dn/AL35JmU6YYfneZepfqe8p5qgAAAAAAAAAAAAAAAAAAAAAAAAAAAAAAAAAAAAAAAAAAAJg9J518Onc+75lPBeFH13Csxs+64S9TD1++2fVKM7OmoJqJqJiaiYAoAAAAAACYAmoAA0KJgM4NCagAAJiYKAAAmoCYKCiYAAAAmAoKJgCYAKAAAAmAoKJgAoAKJigAJgAAAAAAoAJjOmNA11FAGumoAKJpiagAJgACYmCYCaagAmoKM4oCagAJgmKKJiaaibO8gwvN0U0UeZaZLT2jhe+u89HhfPXaTw8OJ3Pdqnlr5mXk4Q+KXVX1fXQ11KkYYdcWJ43MvvQ9XDgjCm8TxRiimh7lOm24sWj0dlsyhwrluSfNm13d9rldbu0Vqr8actWPJmUHLRf2J5lNY+Vt9j9PqU9er9Ipx+po3FuTTK07u0cuigztgFAUBQFAExsCaiYommAoAAmCgAAozjGEo7TuyHVRNnTaFFE000waATUBQAUEwTBRoBnFFBNQUTABQY6l6aBzrLIcEPZxTHHjnFMcTQZAx+GAyAAABMEwZ6Ke46+YHIAAM9cr0M45BMAExQFAGuCbQJs4ymkpsQEwTUEwFBRMBRNRpiZM2cU1BQBRMAEwTUUExrigmJpjrxoas1x3GnNQhKNnjmJdnB5dxnh4ffWx4UMUNWJM1SFbvCuMFp/SL2ArJLXJP2MnAEeVWnb74sLa8bf+va2lP8H5Nmkxt9H53b6eP0fazEyAAAAAAAAAAAAAAAAAAAAAAAAAAAAAAAAAAAAAAAAAAAAJg9T50cOk3BOue55D3chj+0ofWcJT+taPVfiT9G7vueyjlJNNME01EwBQAAAAAAAEwZ1BQFE01FAFAE1E1AAAATAAABQEwUAEwAAEwAUFEwUBMAAAAFATBQTBRMFABRMAUBMAAAE1ABRMAUAExMTUTTUUa6agACaiYJqAJiagAJgmJtDOJqKJppqACiYAmoAAm3E02uDYTZ2cKbqcxPDHRG488wxfVPI8e1hiXhW3cd2adPnZ/usLz9ZdPfd9c+hqqYYxL4p0eLX1inRV61OmnixPAsUYo09T6GnTepixPj/shGWPk4SyV3hFrOp6/TtT9EyKrEvXyuprOj86biuKuo8+8Pr31s4uryGF3mzLT1bjl2BNRNNRRNsAAAoDYTTUTFE0wFATTUUTTTaAATUUEwFABMAExMAFFE1FFGcZzNvBoGAJqAoAAANhnEwUABrtAAA2GcTAAABjM9xVoB7zBiAAADKECKajKZ34OjJNwAmAKAomCYEwdZa46uPD37oByKJpjYZ1E1ExNRQExNMBME1E2hRNQAExME1FExRME0xrpqNcGlO8PUmu0JmzizQzw8bxH4HhW2eHhd+vMhijZW5Lql40vSDg6H7des+NFsP/nWnyj5HNo5GXh5nGs6P60s1/J5HyS5vOCcnUKnNdOG4NlWvT2uny/+L8qfnr2CCgAAAAAAAAAAAAAAAAAAAAAAAAAAAAAAAAAAAAAAAAAAAJg9f5wkXXsnU7+Jo9PIp0xRD3+H50u6PRFxzK9xY+n8j9PjDrL9Gtyu7MyiaYCaiYoAAAAAAAACYAAmoAJptDYGdNRoAEwUAABMTBQAAAAEwAAAAFBRMFATEwUABMBQExQABQAAUTAAFEwTUTaEwE1AABRMUBMTUE2uooA101AAAZxQAATTBQAGdRNRNRnBRnGgGcEwAUE1E2wmmAmCgztcHcXNfWimmqUVPhjV5FzE7/u1Rg5KGHWHjN9X09WpU0MWJ4hfWKHtU6bvixPAMUX3ohPpKlRpxYn569kiykd1bzg4WhT9te+I79Ayyprj0fVZP1xPRkGDqDa9WZ1dsztTmds4koxuzHVQTAU34AFAU1OnS41NYUdE2wmKJpgAAAACajYTTa6ijLxH08jv2dO7J0cMtz63RNk7iaaYCgAo12hRQFAATUBQbDOI7krsMUhRQUTE1BhuSg4ATHPiPeXEGaYx3IGQONcr0A5BMAAHMyEDgEwTBRnUGhMZwBjufWDEUca5Xoc6qOUhNQTEwExRNMTBRMFATGWu+mlN20liOoAziaigoomCbQCYJiaiiYomDXBNNRppqOvmbOKY0pm3gzpvFb7mU8L5648+28St/A8W3sxQ+iOxG5E/m+dkRyW4G1L1mHeVL1n/AHuxs+2f9t8JxTa+LE+Zzu1ri1f1KPgXxwCgAAAAAAAAAAAAAAAAAAAAAAAAAAAAAAAAAAAAAAAAAAAJg8fyhw6TMGToVfDYaFss6Zm3ZVOluHzFcm5bd3fruGez9XtuxcswmmAmomKAAAAAAAAAAACYJiigAmJtACagomCgAJgAAAAAACYAAAACgomJgoAoCYAmAoKJiYKAKACiYAoAzqCiaagAmoAAKJgAJgmmooA1xQTABRMEwEwAAAEwUBnTFExQGcEwAUATBNQAEwa6jO19c6fiaGdn3ao56MPV1t9X1SsLna+UiUZmHhl9X1TbzPd5TWFPiet8omKdThW83S+iq1NGvFifnFnAYn9WuV6fM9zvrJn9J9XU2dFDOz0JbCrq2E01BMBQFEwUFAUE1ExWF7Gqbp3ZpuFAAATAAATUAUTFGhMTBRnExNMAABRRRRMUFE3Ndlh1KBzblzbQcKAAAAAAmAACYAAyhAxAABMGcPvOgOQTABNNQUTZ/AtCbns5TcKAmCYo12hRRnAExnUBpptCagJgmKAJijOJtAmAmAoKKJqCagJgmJiiaiiaYlM28HPZRB3UdbO28EJGqkOvvyboeWlDxDEc14tt5UPGOVXXZmnpeDbYLT9WfkW/N/8AVFloxznC3zA02GH7ts7qgW+n6rafq+W/LM7s6y+Pzqy/cV4TwFAAAAAAAAAAAAAAAAAAAAAAAAAAAAAAAAAAAAAAAAAAAAATUUakylJcK25NK+B2iNJd9tIfKXJh6nie97mp4ZD9KpTERq/V5nnI1bjYiKCaiYAoAAAAAAAAAJgoCYJiigAoJiagJgoKJgAAAACYKAmCigJgCagJigACgJgoAKJiYJqCiYAAKAAACiYAAAAAmoAAKJgAJgCgmmomCagJiYCiagmmAAAmCYDOKAAmACYAKAJqCagANOZt4KIxum0Orqp23g0Izu6mZNbGd0Uy+pjdGkbIS8UxRffko9qpURxYnpLL5ijuLhefOfUZZOkPTrPz9iTtdm29+e6JNq9y2+vqbO3g7OIvO7bGVjr1ehnaFk02womoAzqCiagm2BNRMUBRMAATBRnE1FBRMTUFE1AAUZwUTBMUBMQ8c4K93bszSdk1FFATBWF7GrmNxw7gB4koAACYAAJgBrlOkAAGXvMGIJgoADjxziBM28Acg4h7eDOMFATHMLR4kCTQKM4AnMO6iYoomNdRMTE1AFGuCaYJiiagAAJgomJgooAKJqCYoJiYomoNMAGumo05mzijG607uumbeDqh3dPe03S8u2zvDMRTHhW3kw6qNM9vfNW3l2n9F/yPdkM5OSXseVy4q5VdE7F8q1vW3+9cr2D8mzWZ+HR8VZiItdX3cxMagAAAAAAAAAAAAAAAAAAAAAAAAAAAAAAAAAAAAAAAAAAAAAJStnAHzPlfualy5X7auneIz77ILemXaS/UsgjnMqdY95uTaGMAExnTGhQAAAUTBoEwUAEwEwUAExRRNRMAFAAAATAUFEwUBMTBRQTTFAAATUFExMFAFABQTE00xoTBQAABQEwUAAFEwh7eDidgcpgKCiYJqACiYommmoAoKM6abQmACagJgommAmmKACYCaagmAAJgmAACgCYJqAmJptibr1B1M1oTdBNmvQZ3jN9THpSm8KxRfXke7Ul3xPmXPFxTqWFLeHC9vfT5ZPZ6dXrL5ZgwdRhaKLPqddZd1CcS6y51OvQq4YKCjOooM7YE2e/JuuzkdVYXsausbi6KbYAABQAEwTBuM411FGx4kmmmoCgJqKCYmziijiHt4A5EwUBRNQUBQEwAFBOHs4gAA2ExME4eziADjcusHGpemgGQEPZxAmbOIJgoADiHt4A5AABNNQTATAUBMExQBMUa4NgZ0wSmbeA57MB3SmbeCajBMTTUUBQTBQABMTUFE1BRNRME1FBMa6iiYCY1xRpg05mzinGzvDSmbeCafd0GJJv5HhW2eHhV775xfMW3iQ2sO3RLxJIsLnhwfX5sizi2H9e0fK8QbvFzLd/WNmvZMfmQ5vOC8mNpC5Nh3Iw7GiW9h5LTkWdNPxvzF8S9igAAAAAAAAAAAAAAAAAAAAAAAAAAAAAAAAAAAAAAAAAAAAAAA9CZ19y0iXtdGKqV5tY7VbvruFrOur7vhS1Pp3hT659KDGm0AmzigKAmCYmooKAmAoKCgJpijOom0JpqKCaiiiaaaigAAJqAmAACgomJgoCYKKAmACgJgACYKAAoM6aigmoAAAmCgJgoAoAAKJijOzgJtDQmoAAKJgAAACYAJgAAmCYmCYoAJiYmAKJpgCYAAAKCaiaiYCYDTaE0Jmziom6S+fC1U9nXHs8Xvqbzcz1qjJLxW+prfUTxbPW+Nr7p4m+kq1HfFifJedxfWuyrC5H01frL3Ke71VBg0o6vXmXa6n0fG56uExoUGdDUadLj9J31ScujYTFoTtG6azqm2GcAUBQFAE1ATTFBRNRMUTGuooAoJgooomJgozps7Qm0Jq+DvJNy4Ud1AUBMAAFATBNQAEwAABjM8OpfGDIAEwUAAAAAABMAE01AATE1AAUBNMUTABj5+36XVNi6iYCajXBrqCiYJigKAmKAmACgKAJqKJiibQJs4A1JvsaOndSNmjO8PU4du0NCZs4oxs7NKZt4MqbxjEc3nq8S28yIeJzdneTyLm7zbT6R7FNkXplyz+8muB5sLt9hZ33S8Lw+9WL8z4ps6y+Mv2er+od8S8NQAAAAAAAAAAAAAAAAAAAAAAAAAAAAAAAAAAAAAAAAAAAAAAAHrfORwzyb9ydyKU8Xr2163D9nXMoh73D1rk7D0Zcc3XblsJr9Fwv0C5suqiDOKAJigJiYAoKAmoJiiaibQmKAmCgAmKKAJqAAAJgAKCiYAKAmAAAAJqCiYmCgJgooCYmDYUTE00xoTBQBQEwUBMFAAABRMAAATUAAAAAAABMAFE0wATTUTEwTAFBNNMUTUZwAAATAABQTaBRnAZ01BrzGhNpTtvBqndL+J0F+ba9bVTZMWzxa/PZVelT2dMTwzFE3Uu36XpVJVxPVmN5vt76Gq7zv1fGuWa+u7WUO3p7ne9M/pPpabpoRLfLa1ynSanRjrvppcayjpDJ1ciiagANgZ001FBMFGwzptgFAExRMa6igJs5vsqJuXKjhRMTUAE1BRMAEwAAUE1BQFAAY751g51yvQDkGO5gxABPXKdIKAAAAAAmAAAABrnT8QMveYMQAATTUFEwHGuV6E1ejlNwmKJqAmJgoDHfXCbF0AUTTE01Guom10wBuCgJqAM4m0KAAoAmKANdRQBrpjUnbOLtG6jr52zi6qRs0pmzizqd2jImeX8jy7bzniN/+Dg8yd2G1u6Xl73xfM23lWn6k/IwGQ2mJs4bHGXibCpq+H7ss4FjWvgtLf/8A5vyfPbemCXwWYYdbb9zXkMgAAAAAAAAAAAAAAAAAAAAAAAAAAAAAAAAAAAAAAAAAAAAAAADrL3u7k3xclrd8mmilrTwOuP8AThWpM1fEiXy5qdML31PwvSvNYSH6jVxRd6v1up+tU2T2WMZ00wUUTFBNMAFBMUUFBMAFAAAAABQExoExMFFBMAFAEwUBMATUFAEwUABMAAAAAAATBRQEwUFExNQAAAAAAAAAAAAAUTE1AAATEwUAEwTTFEwTUFBNMBMGcTUTUE02gAUZwAAAAUTEwUTTUEJvsaOZHVTNvBrZ3RX1sbE3hV87lV7CEvX2KJmh71SXXE9N5Vb6rctzW83T4X0FaXp1HyJbzddvuRNpT29sh9BTWdXYUUTBuJgomoJiYommoomCjYTTbCYAoADDXqdLrrDtpLh2dRNRRRMATFExQGuooA57z6FE2aYmoKM6gomx+BqDIAEwUBl3j6aAYgAmCgAAAAAMfHvTygxAAABMFATBQAAEwAV3PqBIExRhN9jR07KOHAAJgCbQDOziaiYoJiaYmKJiYoCaigAmoAAKJiiagJiajQmCYNcGtM28HE7O0bupnbOJDRG7UmssIw6i+5vNzvLZ3i98zO/HhMDRhb1xfI293h5o/oR+R3c3/wCZLmHw8dTYPaL0xreNreFv96p+o5H+L8mtaeYTq+Es9LD9AkkQAAAAAAAAAAAAAAAAAAAAAAAAAAAAAAAAAAAAAAAAAAAAAAAEwfOucLclLkygx76g8+v00PtsgsfDPw4n6Dw7a5ulGjx19M9NNRNNoTUZxNQATUFATTUUUUTBRMTUAAFAAAEwGgAABMAFAAAATUBMFATBQAExQAABQEwABRRMEwUABNMaAFEwAABNQAAAAAAUTFATABNQAExRRMTTTAFGuCYmooAJpgmAmNCYzgAoAAKCYoJpigmmoANOZt4Lym6qdt4KpujvrY109053eD4p2U6qPcp7pS9WY2m+3/73s1VMT5gzqsbalcVYcKvt76itu9upu9I3LuK8vXnduuXdrpppqBrnT8Tjo7aNhy6gm2E01EwhqJ925D2cUY3TUdhRMbEPZxBjNBiCYAKAoAzqJtCagKM4m0Amo2E001BRMTUE1ABQAEwUAAAABOZs4goDHn/6cDc+sGQAJgAAAmACgAAJgAozibQAJigCYKM6aY0AAAAztcUTTUUTE0xME1AaBRnAFE1ATABRMUTBNRQTUTBrqCYNCb7Gjj+JzOzRmbeBOzmN3T2/sKdTLc7uzp71m1eDcee8ZvmY8Jgh5LkayfzMq2VHCmTG5Pb8S3xZXdH/AK9p2t8ZntrXE+Yz2NZf1a5BMl0PIrkhwzkrumtK2FwXPZRKenXpfmD5F5qAAAAAAAAAAAAAAAAAAAAAAAAAAAAAAAAAAAAAAAAAAAAAAAACYPW2cHg3kX9hWk7k19eg+u0e5kNuYxaT3fS8PW4q23pHXNdhP0jR9uzTYxoTEwFEwAUUTTZ2gUE1BRnBQFAATFFABMUUATUTUBMAAFBQBMTAAUBMAFATAABQEwUFEwAGcFE1FFE01BMUUa6aiigoJgCagM4NCagomAAJqAACiYozpptAJqCgmoKCYmmJqJqCagmmmKACYCYJpgmAAKCiYKCgmCYACiY02gabYm0b58LtT2Rx7PC77m+R6ybwPE22nW9ioni3enMqV9alS3630FWWud3xXl0xt6qMbajCrz2Hi735nWXu046auihTdPPRy9FYdGU0UhimmKCgKJpqKJthnGwmzqKKNuHt4JpuQUAAABMFAAE1FE0xQAFAATUAcwdnF3jZ0ndw5cAAAKAAmCgJgoCYLQgYgAAmBMAABOYACYKAAAAAmAAADHXq9DrrLtpDJF1a7Q0KJiaYoAmJqAmmKJppqJpqCYmoJtAozgAoKJgAmomJpjQKDXaAZ2gTGuoNeZs4ncdZO2cU3MNCah3cNG22V62S6lLxu9ZrxLbI8fkbeLybezG/Q/5HhzSfmzZ2vJyzXzA7fcWAo/b7G39+8v2v8F+XZ3Z1nV8RnlnSH9AL494SgAAAAAAAAAAAAAAAAAAAAAAAAAAAAAAAAAAAAAAAAAAAAAAAANcGtfUWk2DaxK+Gjr4nVWrMYcT5evq5peF8UT7mmbLCR3u/Ucruc5Ey/Uq1vmqaL2XQTTTATATAFATaAAAUTaEwFEwTBQUBNRRQE01AAAAABQEwAUFATABQEwEwAAAABRRMABNNRQZ1FFAGumo2FEwEwAAUATUFGcFBNMUUTFAFEwE1BMZxNoaAAZwExQBNQTBQTTBMBNNMFFExnAFAFAE1BNsJiagomJqDXUHXTtvBrjZ0l1N9bWypszTs8RxNsp1PTqOmPZ62xtM7ye1UUxPl/OLxrS5rlt9SfUV5aar5FuTRMm29+TvGG17TuHdoBQFAFAUBMZ2wJqJjYGd2DOKKCiYAoACYAAACaiiaYoooomAAAAAAAoCYOd86gZgAAAAAAAAxmd5gxBMFATBMAAAAFATBQEwc/qdyBwACaaigJqKCYmAmAACaYomJifiSa/cHKagJgAAAAoCYJqJiiYNdRRRMTUUdeDUmzXDmIaM6dSiUQ4ddO28EUo2dNe02lNjy7Zo8dkTdO5PDtsDXjUlz+TWHDr2+2t/zjwrdvkXl2o1l/Sd2F7NLhZp2ZFhu651yavfmJ7Duvf8Az/VOX7XT8B+L2LfOYX55bjD49rq+u0ElAAAAAAAAAAAAAAAAAAAAAAAAAAAAAAAAAAAAAAAAAAAAAAAAATAB6UzksL6nLsMVQvBvD6/h61pu+z4etzMcu9acn2dX3GHZ9DcZOiaaYKJgAomCiYCgKJqJgAKAAAJgooooJpqAAAAAAAAACgJgAoCYAKAmKAKJgmCgAmCgAoAmmAmNACagoJgKJpiigACYKAAJqAAKCYCYomoKJgomJppqKJpgomAmJppgCaiaiagmmAKKKCbYTZxQAUTAE1BrqDSnbeDXh2cS8avubzNVN1xPC8UTXu00sT0/lRvnvN7VWUsT4dzmcT1mXx3EhT31+OdZenSeBQoPeOpEPYmeqrl2BoabQKJigKJpqJpqKJrQnWBuQnVNvQ9nFCEzx1p7DZ3PqZhw4ACZMBMADXKdIMtd9NIMgAUABQADU6dIAAAAAAAKAAmCgMdz6wYgAy8R9PIDEAHG5dYOQAT8dBMHGp16AVBMAFATAZwaBQEd9dXZi7OrjU69AOU2gBMDXOn4h20E3VLcnDlVy4TE1BMTExQTUFBMFEwAAAATUTUE01EwTUUTFGuDr2gRms0bO07utmM8OrTmMUJTs8ZvWb5HmW0HQzNnF5iMPsfsIeZhyc7vPHgSb7g/8msGV7rXzo9rtrTT+os+Nf1T864ozXksWr5HO7HxdX9H8SJTkU01fnD49tAAAAAAAAAAAAAAAAAAAAAAAAAAAAAAAAAAAAAAAAAAAAAAAAAAAmDx7HuGLPE1w213y600W1NFKL1rXJYdW6jbirajR80zIkyHLt7ml1021hTTSr9UpYo01fo8zqzVSTBNoTEwTAFBQGgAUTTZwUAFFAAAFFFBNNQAAAAAAAAAAAAUFEwAUBMUGdNRQABNNRQFFGdMAUAE1AE1BRMATUBMUUTAUTTAAAFFAFE1EwBMFAABRNNNQUTTAEwTTTBNNNoABMAAUAaE1E0wFAExRMa7QNcHVTZuht2ZXjl9TOfS9Kn9FMTwbFHsqvTp7OuJ8/5ecUVhXNbvq61XSGfFL4TxfMm31ie3m0e5vL3qezmHs4u7eC42KDGNNoFGcbCaagmmom3Iezi6zsS7B1Tb2o16E3TWVhw2ExrgmKAAmmACu5A5hAyBQFAAAAAAAAAFAATBQc7643HDkAAc771Oo4dQAABMAAAEwAUBMAGG+uN3LNBwmoopDUTTTUE0xRQUUTTBQE1BNMFE1ExNNQTAE1ABMBQABMAAAE1BNNoTFBMa6ijTBozRzDr523gmQ0Jm3gxuvdoX5sr1MHZ0eMTd7o8pnata0t7etfq9tTvd4luGG3+qVX9HfYVcyWHmf5o12WuJbjpHxZi6PZ3jf1eV7ZyafU7D+r/i/Fc0sc5h67PzS1a+/svspgZFAAAAAAAAAAAAAAAAAAAAAAAAAAAAAAAAAAAAAAAAAAAAAAAAAAAASlbOAPQ2XrBXca+e7kLmsJG8PueH7T7rh+1rDwV9e9pNNMEwEwUFABNQFAE1ExMAFBRnUGhMBQUTFAAAAAAAAAAABQUTAAAE1BsJs6aiigmmKAJgommKCYoAoAAAACgmmACgJgCgAAJgoomAKM6abQoKCYAAAJgDOACaaYmoKAAmM6goCagAKM4NAmACYNCZM0NWHDozusmtuHZN4rfr0Y2czu8HxtN7ye5UJ3fG2eBjTUoMiHCn+30fUeDLtUfMcKF3lpbdn0LOE2xu9Du3mFN17Yo2ExjO28FHEbLM7kE0xnAbiY7CHs4ifd3DOmo2CbOommNaZt4CjBRMTTUBMGwACgKAoAAoCYAAAKAB7x+MAAABQAEwAaAZwTAAEwAATABQAEwTBMFE1FFEwGE3v2vB17u3Y3zqScpO6qiYm0AmNdQbDOG5em1w7Dl1TE1BMBQABME1ExRsJjXUE1ATAExRNRRNNRMUTTGmoOtnbeCcDrZmzijGw07HbwZLm6U7OixRN0U0vLhxhdLb7avMuIvqvsNOZdTPKzy7qg3zT/k5hTtV7Yg/jacj2Fn/AFn5xxXm3I5Zq+Szuxri1f0mwYnJhcnVKV5tG1+dPiG2AAAAAAAAAAAAAAAAAAAAAAAAAAAAAAAAAAAAAAAAAAAAAAAAAAAACYPGsfYX9U1x20GvkehltnksWrflNvlXzdSFMuSZbwZnt9g/TMNvDbjSH384eaZNjqmzqCiaagozqJqCiYCgAKAJqJqAJqCiYANAAAAAAAAAAoCYAoCiiYmmKKCaYCaigACYAKCYAAACYoAAAoJgCYKAAmJjQoommmooommmooomommAmo0AAmmmo2FGdNMFBMTUTExMATBQTUATUFAZwFExRMTaBMEwa7QOumTV4iIhCZ1aMzZxaUnjczZxep3TescqN+alCt3r1KnRXFifnhnBYn9WuUG30+0WD7mtOuJ6NN4lBg0o4evMuNRr0NHR3ZanTpc9XPRxqdehN3Y6jTpBx46j2duzYdkXGp16HHUcajXocaSm19Rr0OqerchQtPNRy6uyhQnBMtwdlAExMUTTGu0CjOMt9EXOp16B1cgoCgNdoGwmAJqKNhNMAAABRMFBNQAY801yMncGcAAAAATAATAAEwAUBMAAEwUAABMEwUZ2gGdNRoEwUUE0wBMTUFE0wBRMTUATBQUTBRMUTUa7QmmKCYmoomoomzqNMGvM2cXHcdZO2cUHeHWTZulk2dGnNY4Th0Nv4HmW92d1uv0k8n5amyR/1zw7kaShbjlJf0L9gdzMZWatmeWOKsU3JSPiTG9v3QnUr7ZZRtlhZ/g/q+L8RzOzN3C/Nszsff2n3OxvLUAAAAAAAAAAAAAAAAAAAAAAAAAAAAAAAAAAAAAAAAAAAAAAAAAAAABMEp23gD0fnCYLpc8umKoUGlfdFX2PD1rSX2WVW9cLwB9u+iGdMTTTUAExRQAUE1BRMAAUBNQATE2hRQAAAAAAAFAFATAABRNRNNNRQTUFEwABNMUAAAAAAAAAAAAAAFATTE1FAGwJtcUE1FFEwAFAATATUAUUZ0wTTTEwUFATEwFEwaE01BMTUTFEwABrqCYNCbNadh1s2a1pusbGN45iia9Km0Y3zHnT5UoWFrkt4Vfb32mWVdCtOsvh2F37Nt5s72+Q9N7+zsdTp0taq2pemgEU1GwmmmCYKAanTpddYNWWpemg0TNS9NBpLrqtBguIhxMtxw4bDOJqNDGaDFMAS9+9DuOXRNRRNTU+j40wBrtCiiaagAACgomCgAJigAAAJqAoCYoziagAANAM4moKM4moExMAAATABQEwcfqtyByACYJg2Aa6aigJqKCYJgAAAmCgoCYAAJpgACgJgCiYM5m3gh2UQdxCb7Ggokmo01BqzWcddM2U6k3bs6eds4saUburt5jzbiTpZFloebbuJvpvsROaByc8bPIuDCN8Qu3Ybw5+u2IZHRYew5H9blvzrirNfjxavk87zPWdZf0qwocKBDsYMKnabKwp2qwpR+cPh2yCgAAAAAAAAAAAAAAAAAAAAAAAAAAAAAAAAAAAAAAAAAAAAAAAAAAAAAJg6PGmFoeJbltoEzZbU0LVrXJdW6pbmrifN8u5pmF76t7kmbLB+m1bfOv0Gra5oVctdoTEwBNQBRRNRNQTaBRnBQE1ATBRNQBRQAAAAAABQUTEwUUBMAFGcFFE1E1E1BNNMFBQEwUBMAAAAAAAAFATAAAATBQEwUAExRRNNMaFFEwBNQAAUTTBQTTE1BNMFAEwAUTBNMAFAUZwUGuoNdQa6g6ybNaNk3VTJi246CZNekm8SxtfUOFC53uVN3XFL4Lz0ca1vq+LC5YVdr7DwJ1l6FTd6hhQtHNR6D1naQgWBNME2c3Fxs77jlyz1LleVx1Geo16DRRZ0ZwACHs4qNDKEmMQUTBMT1OnSCagy1GvQ7aS6dGTs4UEwExRRNMBnM28HEjlpBjBQFABRMAAEw3302KCagAomJqAAmAACYxhKDFQExxuXW4HLoAJgAAAAAmmoAAKJpg2GcTBNRoFAATUE0wAAAE0xQAE1ATBQUBMAUTTUTTE2hRrs4mmo1ZoQ0ZmzijG7rO7rZLJbdJdLM2cWTu6OrmTHmJuvn2HJk8n5blbLd81m1uaUvKs2eVf0N9g3zGORmfZpMK/sUQtGK8ax7O8L3r9UsLLl+wsP6r8ezKzzmF+eZnZ5i1o+3WBjUAAAAAAAAAAAAAAAAAAAAAAAAAAAAAAAAAAAAAAAAAAAAAAAAAAAAAAABMHqbL/AJPqTbv5OKrk9vg+30+y2fke/kFmMOOMM930eVZrOGNHqeFNrNhd5PvX2erkRBNNQEwFAUTABMUUEwBRRMUE1BRNRNQUTEwaAAABQAAAAAFFGdMUATBQTAUBMExNQUTEwAABMFAAABQUAAAUBMAFAATAABMUAUAAAABMAZwFBMBRnE1BRMTaEwTTABQAEwTUGuoNXXqdKmkGrqJs1oTdNfU3U6NVNeXrzFOKaQqPpalR2xYnzhnE5f8Ak3HBt61ncz6qrV0jSGqaur5HmTZuKb7t78nPXaOkQ7OHt4Cqup06QE1ExMZ02Wo16HOjpqpNhaXLhzC9lUndy2XZwmmGp9Hxu+sA5AUBRMFEwTAEwUUTcwdnFSHWd2Y6iYAM4KAAmKNAM4m0KAmKCiYJgACagAomAJgANAM4JgACagAJgCYAAAAJpqKCYADXUGwCaYJqJigoAomomy8PeTqMkQAaAZwTE1FABNMAUUAATFBMGcaag1xRrijXBqzWNndZbzK6Hl20ujpLeZX0o8m3sg6mTEpSnN7Q8a3cOafanYPux+cnO9zmPV/lBuPt+BcFW9nMldvp63LmfuLN+VZ9mXxS+Jv5jL+hKFD5ECLSFD5rGxpoo+bfMtwAAAAAAAAAAAAAAAAAAAAAAAAAAAAAAAAAAAAAAAAAAAAAAAAAAAAAAAAAGrNg0mQtTr5AfO2VDBfzPMT67D3Gf7Ro+o2r9Aym1N3pO79Bym1zTonuPTBNMTTUBNRMUAAUZ1E1AExRRNoUGdQaEwAFAAGcGgAUUTAAAUE0xQAABMFBMAE0wUEwAAABNQZ002wBRQTABRMAFBQBQEwAAAAAAATFAAAAATTBQTUEwBMAFE1E001BMAAAEwa6g11BpTtvBRxLoJs3RzUei5eK4pvv3a9SpTMWJ6Hyv427iw7elZ76urU0acUvijKTiiZlExPb09zvfqTrLZs14cJpXbIKAmAmKJs5DdZGw7CYCYAAKKKCag0NdNNRRRQE00wBQE01FBRMATBMUUUTTTGUIc92Q4FAABxz770Ov9RxvrgZOBMGVNtv1uYGTuJpgDGEO07sk3UmAeJJgCagAAAJgCYKAmAAAmCYmooAACaYoAKKCYCiaiaiYJgAACYoCYmJqKKAAmKACYmmNcGuoJs6jTFEJkxnTdfImstx1nd1MiZ0vLt7MLpJPIeFbts7yTJbkhxhluylXFkkyYwe335f146pHp9j/wBPl/yXxmZ5nNOXzOZZl8T+lfMIzO8F5kebdceRbB8Pk1kWNh26+Z9fbJcrl+ztPyPy+3Ouz5HC94uwAAAAAAAAAAAAAAAAAAAAAAAAAAAAAAAAAAAAAAAAAAAAAAAAAAAAAAAAAAmDx/KBguFja47e5ZleatFqtrkm6pb5WdXzvfNzzcL31Iwtfft8fd/46zfoWVXOcmZfoVa1Fqmm9RRMTTUBNRMAEwE1AABQTaFFAAAAAAUAAAAE1FExMATGgUTABMAEwFBMAYxNsAFGMTaBRnE2gFEwFBQABMUAUFATAATAAAAAAAFFAAAATEwFBMAEwATAAATAABMGuoJqDS16vQo6auvm+yo0OHTTWqN2h67yize8rd9LUc4nxbnTZVaUp3FhT/X32Faq9Ges6PR9ywvBR6KztAW1L00AyZxNQNTp0uOoOiYmmmDcUEwABQFATUAEwDfh22B2UEwGM1x3HMPbwJ2HMwjYJmzi4nYHUFBNMUUE01FGdNNsFAEwUEwUBNMAFAATEwTFGwomMYmoOIe3gDkFExMEwAAAAATTUUTTYQdnFohzLgcKAmmommDQo2GdnTFGuooooJpiiagAJgomAJpigmmKNACYACYmKJibXTGumDO0NMTSmbeDLLp2dResxktsMPHpFdDw7dxDmpcXFdXIvS97GHChdvtreR2qwsPqlraf6D4rNc0mXgWMy1fu52EjsXvzp+T2uX3LVd9jXHWJI/e0a3pz3RGr+4/l8r90/Mc0sRc6PkfHsxYfoMzoKAAAAAAAAAAAAAAAAAAAAAAAAAAAAAAAAAAAAAAAAAAAAAAAAAAAAAAAAAAAmADwXK3kwhY2ubvGvaJthTveR5KvWyuzyOPTs9XKc3mrL0ZSsuDKt4UyvaLew9vjv0OJw28MabP0HXm2Du7AmmACYJigJgAoCgoACgAAAAAAAoJqM4m0JigAAAJgoAAmAoJgJgCYKCYKJgCgJpgKDQmCgJgoAAAAACaagomACgAAKAAmAAoAJgAmAmJgAAAAJqAmJqCM10kdfNm6OerWOu13k+Rodf0UJs2nlcxU1cavFcUYohQoWmr0qlRTFiekcuOVWFBuS37/AH1mVVmmvVfBeLr6nYoxRbzaPsqm71OkLQ3SHHZR2cGuU6QGcZa9XoBvA05mzi6zsmOyaaYoAADLn3J3d+jJ0cigCigzgCYooKJiYJf+O7irkTTBQUBMBMAAAAUUAAEwc82+821x0EnIJiYooAJgJiigmJgmCgAJiYAAAAAJgAAAmKACYJppqNCiYmJiigAKACiYzibQKM4mKAomAAAKJgjrlfJXzuukumktplcOvUE2dQTTaeuU6RxpCM2boE3UTJjGg669uVSmyjw7dxn5tp2F2y7OFrkx8Tm2a6vGsWNX6qdgu7FhCxVWDnq5w2E66tHkacD3PIptr7r5fI/7L84zSzES+P8AHs6P2GeQyAKAAAAAAAAAAAAAAAAAAAAAAAAAAAAAAAAAAAAAAAAAAAAAAAAAAAAAAAAAAAAAmD13leyQxMbRO7dyaLC9bCne8j7K9bLMzmlL3MqzXFVxf0ekeTBmQZupX1B7Rb2G8R36JgsYbfTC+65vmqfVk7OwJpgmKAmmAAANACbQAAAAAKJqCiYomAommAKACYAKAmAJgKCYAJgCgJpgAoCYAAAAKAooM6YooKJiagomAmAACgAAAAAoCYAoDOAAKAmmmoKJgAACYJqCYONZ5PpRX4BpzZvgo4cOsmzdKg6qbN1J6Uyq8GxtjabDpqVHt1KjvixPUOVLK/qUPmnPo6tXSHbFifMeVDKpMxPrEJ681dWzXV661LUv8GldgoMNep0pu+jWFWwJqCagACaagmmCkPZxdp2B1FFAFFBNjr1ehxq7aQajXocaS41ZOzg3L02uuwOwomJgKAAAmKKCaYy3zrdtxk6iYG++mx23B1ADXOn4nfSAciiY1wFBNNRRNMABNQUZxNoExRRNNn4nxTGAAAAJgoCYAAJpqCgmACjOonvvpsW3E3UFABNMZb67DJ1UAAE0wFATBRMTUaExRMTUFE000Nep0gkmMNep0pjWmzQY676aWdNlvvpsHDr5mziEbOe1zJtdryubZ3U3jGpC2PDt22K1aaljdsPkU1yX53zma5r1eJZsav0F7ET2JfEuc3iWDl4zhLkkQMnsCR226bpkU7XaXvacj/wf+0/OM0zN8r4/jzMv25ua54Fw3dYXRcsCwjx43J7XYR49PW7Gj55mbwKAAAAAAAAAAAAAAAAAAAAAAAAAAAAAAAAAAAAAAAAAAAAAAAAAAAAAAAAAAAAAA1wUB4VlPyTQcokOkuHWlhOsN3keRvyvM5pPWyrNpq/4PQ98w75wxM7i4og0sLf89/Gch+h07eG9HR9zVtxbT1On1tPM184v8LBw6gomJpigJgAomNAomAAAmoKJgoAmAoJgDODQACgmCgAAmCagAAmCaYAKAmKAAKJqJqJqCaYKAKAmoCgomAAJqKAmJgmAAAmooJgCgooCYzgCgAmAmKAAAmCagmCYJqDRmrRum0Vh1N9bl52qnsvi2fPGXzG/cWml9rWq9NV60vlXKHlVmTK6lSe+gmpq9PrL173a79aXCoNdMFBNMFBQE0xQAFBME1FATAFFBQE0wAABQFATUEwIbrIOwAJgACigmmAAKKCaYAAmAAmKJiagAAAAmCiYAAAmmoKJgKAmCaahrnT8TnqCQm0AKNcFAATAAAATBMAFFABNMUUExMAUATAmzU01GcaWuV6HfU0auvU6XRxpLnXfTSg66SxcO6Vns4VZbu7iN2trlfJXzuqDXs7b/wA3m22fm2xbWNKU7zeHbtvKtWmtAuKVen8fbfULCP8AZHxua59q8ixmL9KuxjdhHvrKLNg5d88e4awLnsPXbowhI9tmfWWlt5OR/oPhrOa888K1Y+B+vdy3Ld9yXNYXFc0GwjR49hSyj2FhXmsrN5DI3gUAAAAAAAAAAAAAAAAAAAAAAAAAAAAAAAAAAAAAAAAAAAAAAAAAAAAAAAAAAAAAAABMAHjGP8nmGsodx6jf0LTXR6xIpT1yyXr2cNLFrGy1S3bqz0eg8aYLxRkwl0hYpg9vun6hfP8Ax/Y329LOYxR0fd1M1qXN2k9567XEwUTEwAABjUGxNNRoExNQFAUTEwAEwFE1ABRMZwaBNQUAEwFBMExQABNNMUBQExQBRNRRnE2xME0wAAAUBMBQUTAUABNMAAAAFAAAATAUBMAAAAAFE0xQTE2ga4NeYod2rNB0kyZqTQm9Y5RMomp9v7+fS1KjVixPkPONyy0vimpwvX31Narq9GrV1ekNer0PaVdCDb12kKv5WNy7DfRwwbATEwUUBNMZ01FFGWu+mk1TZKCiYomJqCaigCmudPxCaijOmANAmNhQQ16nSm50cKOHGuV6ExyAAACYKKCiY1wU1zp+IAAABMTAABNMUUAAABMAAcQ9vAHIKAnrnT8TOJqKAKCaYomzqDQDOJtAKCYAKMYm0CYACYACgANCbQxqM4moKJiYDQDOoJpteZMTEtd5XkTEBRh3n0M6XRLXKdLO6NXXfTSmM5s1ncNXkcjRso8u3bQdvd93fK05vaXztrNdXi2bDyrJlkBymZZsf2GT3JFhORe8+32R41P+s5fL/cch8JmmaPC8fx37Edjw7DRkzzY+TBypZb+TYYmx17bTk225Xbaf6HI+qcv/AE3x9uzDyMNrXZ92IIgKAAAAAAAAAAAAAAAAAAAAAAAAAAAAAAAAAAAAAAAAAAAAAAAAAAAAAAAAAAAAAAAAAAAmDQvq6rvva76w58Pt9ha7bGribc08WsbuMP8A0J/Reg8p+bdifBla4oyOV7fB8Zw7I/8ABfT5Zn2kdH1uVcQTr+sPBLkxTCvmbqW7z7DeLvk+2WT7XphfZa85LacsoozibQAAmmoKCaYomJtAKCaiYoKJgACaYooCgJgCjOJtACYomoJigAJigmmCiiYmoKAKACYoJpgAAAAAAAAoACYAAAAAJgoAoCYAAAAAmoCYAmoCgmCag1xMFHU31M8jRpom9M5YMsOF8Ew5Guzu0PpK1aIhqrVtHxjlXzjZeOL5t4Nxz/WH1NatOKXsVas1Xhu+b6u4eO31t4LOsui3J2dkdcr0B0dzDmDMKKCYKACag2GdMABQABQbCYA11ABQAAE2gUZwE01BRnUBMUBRQTTAFExNRzrvJ8jj9Jx0cOXQFBNRNQAEwAAAABRMTUEwUAAATBMTaAZ1BQbCabXaGgBNMTAAUAAEwE1BMTExoBMUTExQAUGuom2GcYTZoMNd9NLro7aSnrvppdjWWKbqJjXTTR1300jjSGjrnT8TNq5bniTII9rpp1zSzc4ztSZNZBSDawqU2POt22GLTsORApB3x8pazV5tmw+p8yLsXucHni3zY3zAu/uFg3WO+MQ3jTmtfvPIfDWOIIeHZ8Z+zealmW5B8zvBnqYyWYYpYyK8nv8AvmTzyZn8vlvlpt/V4/wvb7sKAAAAAAAAAAAAAAAAAAAAAAAAAAAAAAAAAAAAAAAAAAAAAAAAAAAAAAAAAAAAAAAAAAAAAmAADwjKfkJwTlRhab7hdom0p6xeEb1u0suLdWzKaWLps3VM1uVXojGmSLK5kxpplwfVRdHuiNvNjZ/6fI+qPsKnED7OpxBUuOouW/IV97lP/wD9lj/Ue98b1OT1VGYGgABMAE01BRMUAUFEwEwGcGgUAUBMAFATTBMUFBMAAABQATAAAAUTBQTBQAAAAAAAAAAAAABMUTE2gFBRMTUBMAATUBMATBNQFBNQTBrgA1506kKi1WrEQ6TOr0JnTZ2mFskEG3h6/wBvnfYH0mVZX0ejX8D6PztyqZYsT5Zb5kTJc7vf7A+yqVJovZnXeWnh/U4VOYZbjvfVNqbLqhq8am31rk1d2aNJtZru5nTVrNDu2Bnb2u+mkGQCaiiiaagomAAAGuU6R10k1ynSOrPXK9A7aya5XoHOsMFHKiaYKACgprlOlMNcp0jppJrnT8Q4BMABNQUTAFATAAAAAFEwAAAAGdNNoUUTFATABPXKdKgozqCgAomNcUFEwAUAATTAE1Bjrvppd9YddJZOjsmAKDOmKKCYmoAACYoACagJptfXKdLv1dE3RdpqKNxjZxnGtMmurO1flK+WjpziekIzNvBBNGZM8oHIsNb+8vNt29WDmi3uyXyad5Pm7WazKdqy8myZZMsY49xLYYLwVhSRe16z93j3fG9cfGZpxA8ix40y/WDMG7Btc2G9Ryo532r3rNp67AwrTd7L7/8AX8t8PYsxLyrNp+kd0XLclwXdY3Lct32EOPGp6zGjcntfIs+FGBibwAKAAAAAAAAAAAAAAAAAAAAAAAAAAAAAAAAAAAAAAAAAAAAAAAAAAAAAAAAAAAAAAAAAAAAAmCgAJg41WnloD1tlPza8nmUHTPiRKXTev2xu6nrlGyrmcUcT1ama3Kz03jXJFlfyeU78g+qCBT/OF3e2/wBfkPqqvEGKNn1tTiCncj9YdDCvuFffNCn/AAh9JHV7e6jskDOCgCagomJgKAAAAJigJqJqJqJgoCiYmACgy1300h1YiagAooDjXq9A6auR3BnAUTAABMGgAFATFATBQAAAAAAFGcTUFExNQFAAUBMATUBMTUAAEwa7QmCiYmmKCbQhO5WpQtdm17Rxapxx2VqU3x3nqdkmwpk25FvgrJfN1+9vaaW8b6k+pynKfjiImHsV68zOkPgiZjXFON76t77xVOkW9vbvrXbSDXdTAhTZtWNnVmzdcHGzQ1ynS1aM+srw9vBlOztJsLU4TXs6tRyL65XodOjr0bLu6qKAAAAmmw13k+RXq7/pM0nRPXOn4ltXbo13Z2biabjXeV5FHfTCz1300uukuNJYuzsAoJgoommx1yvkr5wZCYCO59ajhkm6Cga5TpTc9FB3FE3GuV6HX9FRg7AKAAAAMNcp5Ked06DhIFBlr1eh31DXK+SvndNRkmCgmooprnT8SfV11k1zp+I6msibsAm0KKM4m0AzhrnT8R1AHEzbwByAmCgAlrlegc9GA7gmx1300jtpLFN2Y676aVNU2SajjXK9AGuV6BxrDAcrQhRZnTabQKJifaadC/Ow6ayog7sdS9NCbprLRHAmmTNnFGd02x8t78ZU9XXzNM11Tabsmxk2czyvMt20Ihxybt0czzbdqUYtN6DclOTTXJj5TNs1ZcNh9EZmPY8suueffdhBwphKRBw3p/XDFF4xvWrH+R9fy353mvEOjzPH8Z+0GZd2PXITmX4WsoeCbkpPvm3p39iKVya6xa/8DwMWLDcw6y8WI+F79dwBQAAAAAAAAAAAAAAAAAAAAAAAAAAAAAAAAAAAAAAAAAAAAAAAAAAAAAAAAAAAAAAAAAAAAAAAAAAAEwAeCY/zfMl+UXk6b7uGljI0b/Fr2u0ehVzfMac9JbatqxW26vUuKM1/KhhamnBN/Rr/AI9PqF5bz/0j36fEEYo/XH0tXiD/APM9fX1fc7BM3Usb3DeNz/CIvrf4dm+kqW8V7q9yrap2Vod9wpu5T48j4O0rNgZ2u2NDYY2drqKAAAAACiYKACaYoCgAAAAoAJgAKAACagCYoAAAoAKAAM4KAAoAAAKM4moAAACgAAAAmoJpgoCgAmCYNdQAa7QmvWuhkxYnpU6b19lvzmsj+btha3xVlUxfGu+lKe019stf6jZUyuZxfox0+r1q1eI3fmDnl9ljyg5fuTIwPkZ5Ui4bj0c0nxmZ1PrqlPkZ1c4pmZ/S2emsldlWkK3m37eGsSHo85COL+jtu1QfraOOck6tGdJ782kXIdYhWHMcjsGhmcanXocdB2Fyw9Scu27avqboHDp9z6hFfXOn4hxotrvppUdNIbuuV6FdU9YYa5TpcOeqiiaeudPxAmoAolrlegddJZ65za5pddXDJ1cAKAKKJqDcE0xQTTNcp0uusijqAAAmKJpqAmKAmoKM6jXUUU8SUc9xN3Y65XyV846dWQ7gJiYCgomAmADQoMYKAoKJgmCgmCiYCgAJgAoAmJuJm3gKMFFGumooJigJiYKJgmM+51ejzKc4M9Rr0JhufWOWSbhRNNxqdeg0caQwHKfeSaYJtdQa0yYxjVmXzzujOzmTEmdo65rs3mZN5GXI5HfjNbtu0Q72FhWlIffk189bzRkiw8pyS5GMpmWW+rDBORXAl4X9OkeCNG9b/r8v2D4LNOIWHx/G1fp5mR9gfwzhithlBzwJthfk3Rpj4WjbtF/l1/dvhbNiXlWLOsv0Uw1g3C2CLisMMYTuKPAgR6drsI0Wna+RZ06EdPq893TUAAAAAAAAAAAAAAAAAAAAAAAAAAAAAAAAAAAAAAAAAAAAAAAAAAAAAAAAAAAAAAAAAAAAAAAAAAAAAAAJgAA077uW5L8hahfd3x5Fh9hkU5getsTZouSC/O/IVxUuiRo3i7K9r/2PYN05jOKOrdTza3UetcT5ouV+5u/cEY8u697D3PeUXtVp+G+kq8WS9urn7wi+cL5XsEc2NsmN49o90XbTWnsYeIOb6YYet5nUtbush43wvN8f7R73ke2vT51u0drrsKYOBrAFGMTbABNMbCYAAmoCiYAACgJiiiiaiaaYoCagKAAoACiYKAAJqCiYmomoCYKAKAAAmAAACgJqJigmmooCYCiaaaiagKJiijXE1BRrgJtClYkKFC12+5/aLCP7fIke1us4tNurfo+G8/ns02S3N/5Fvk7zcuRHxRievrNtNpu0T/jevRyWL3S70ht+OcU/of6vyyygZcMqmcbja3xxlnxbIn2tvzU5MinrVf5Fm+w1w+HGmFObcYdt2zckGFTcaMSE6u7hTJkPwjh23dDkeSnmcc5LPzUpTJHfu1xzkDsoU3S1De1ivS55sbUOZ5Glw35l9Go0Nc1xx01Fnd0FE1Ncp0ifVXXKeSnnUdNZXUSbPa6eT4nTm1OrjXOn4mrqdWu5TBRMAHGuV6Gjq66Ks7sAtvrqMXYUBNQUTFAAUTTAFE0wBNNRRRMS3z02O7ly6O6iYm0Dnxzg47uezNy4cfqt9dP6u/XZy4cgNdQUFBMAAATUFEwATUBNjrlfJXzimsLCYmKJiYMtcr5K+cTZAmKEPvwctrU9TBpzVo3WjZF2ctNQUAGgBnM28GMVGdaEOWOp06XHVw2EFGvMJ2cdzXOn4jWDqoxoNhQa8zZxZ3HdKHt4OI2cq95OjO6iZZ107fjObHWTJkwZ3X6zL1zRoZOaR+Hq3dR1zwPO5p2dpctyUlfxDxLWbO0YXm+T/IzlAyz3zYYKySYFvG/p3gpd0b2r+Xy3xlniCKbBZ8bl36CZpHYEL5vuthjXO9xb8pYVr9C9zba/fuW+OsZj5g8m1mfwbv0nyLZvOR/N6wzY4TyP4Hu+54dlyfF7D9Va9PK5bE8p5uACgAAAAAAAAAAAAAAAAAAAAAAAAAAAAAAAAAAAAAAAAAAAAAAAAAAAAAAAAAAAAAAAAAAAAAAAAAAAAAAAAAAAAAJg8bxLkxyfYp5H/KjCF3yenlRzmPDju5izcju8BvvMqyJ33uMGRd/83SXseb343ls80svEL3zHr5i8j5bCuU630eCwvGNpo9CrxZmuGNZerOf4e8aPGL5zbs5W5ueFCuW+Pg8ntT0I4i17t3zBTdFMwvlswx+zeSK8v7P669TzTLLrf5rWtOgmY21L9mrhvGB8JivSp28s0Vm3WWhZRcLza6azmnWF9W/3buX3e5PihXXfTSOeqwAAAzgON9ByBrlehzqaDgUABsM4m0ADYZxNoAFAUZxNoTUTFBMTEwUUUAE0xQAUABMAAABRQBNRNRNQTTTUUUUGumCgmoAomzjPUa9DX8UONGnNmQrlhW9933OjwLCw3i3ketWbr8UQu+OM67s6Gapm8y52C8nesY1xJYeL3dTvaytf9PlqVcq+jiceuz8ys57slGdVnmy5EHEmPJF0XV4vh65ZXarOr6KrUmgriid8T1ThS4tQg6KUWxTrKWKdZdjr0GFNcOrvoV6RNT0QhxzamsV6Q5tl3a10caaHdTUvAc2bt+HiLm2HNmjd7s6406uHcQ8TQ9TdokSpiPXJm1xzY2YeJoehzqNvXK+JNLO3O7NejztPQNboahrdDUX1ynS19RsQ5gzndj00Ax1300tOsuvRjMmOGk1ynSHU1ynSHU1ynSHVXXKeSnndtJadINcp5Kec0k0hXXfTS46ONYNd9NJ0NYV1yvQ51c9WDUmz1zU2NFyOrjXK9A7dHI6qChMc9nHdlr1ehzrLL0RdXDHXK+SvnbNYaTXK+SvnNYDc+scOdcrqbG7dDXK9AdFdc6fic9HPU1zp+I6HVxrlehrdejljd3EOY2OiDOu2Nc6ficdVOqmuU6TSHGkJ650/EdXPVTXKdJpDjSE3LlTXKdLjSHGkOd86jdy4dEwE1FGwxiOu+mkGINy5rOjmGXm4Zdz5vl+NDRPm1dYp5K+Z1debV+U/0fiDm2Pcym+6Dm1+aa2pVm0HKsKbqYNuZfMNn10HUX9N5ud6FReXUa7yvI0NOhrvK8gaJa76aQV13leQNGvMmuVG9DsqMyXNnc3k+T4w5tKHM1McTDst8Z3K3frGgr6lZsym125sZUuObDmaZjLzQ2ZgNWHSbMBzMuSZDpzfkZ+ac6OhvnXIbQ4a938iX5GW3bc6O3gwZcvxH295tu2jENqFkwvi+JmiHC6nm282dowO5hZv82VM3Lt9t9geJb4hd48KrL6ByRdifznstUSwmYWwDqMGv+cLx9as3ylnP/iefazDk932hm2dgOyQ4Q5NjfecPiK3xNOptu6LXtUenX9e+ZtZjNx4FrMuYfcmTDInkiyJ3HZYYyV4Du654VjTmjwIzC8p5YCgAAAAAAAAAAAAAAAAAAAAAAAAAAAAAAAAAAAAAAAAAAAAAAAAAAAAAAAAAAAAAAAAAAAAAAAAAAAAAAAAAAAAAAAAJgAAAAmDSnXPAmU0TYVLfifduOc+joL5yP5Lb555+Arukf2ZaLGHvLRzd2Hi985qOQaZT6Ee0fB5Vo1+Z5kt5rZeOTcyfJfN3GdfUf8A+qPS+YczX8zsurmZk+n9hMpt49Umi8cQzO6/mcOrm5m2UOFuWUyPb/CYzTGfzK3zA6qbmpZeYfPCnXbbtPzcv5nDS+YNl6hf5hjSP7S9H5vyxv8AMKzqZuC8tkPfcmMhqjNcsnZ181rtCbEyhwt9wFeMf+ytPm+WL8xXa3di+oW+3DeP4raOeaxnN0z1UV9wSPxY5vE55qmr6pofkq0dF+qvqoieU1NHPqnh+7q+c1k0htd2ofu6pq40c92oflp5mtz1Z92eljHOvQ+hsddZbOudPxMbsa50/EC2vU6XOrjQ16nSami2udPxO6BrnT8QKa5XoZOga5XoOgNYoxgACjYKM7OA1wAFFFFFE00wABQAE1FFBMEwTABCZqULv2bP7RYJtD1VlNz082HIxDt5mNcq9zWHaPF6Se22j0OWnv0dJxxD5Ay6dnzw1E7fcubxkmkX9Ot/aLwvDnjLTlsaOk+JL4HzoM8fPfzqKW8LK7juRAur7UXfXtcf/q2+rWmXXlsOvXq9FQMIwLirr03vivS0zimWmcc4ukO01GDv05fWXTWdoVgzfEYLjq4mJ7tvuz7tr1sujM24eua3rjMzqa3fGj+OBuw7jlzOaHX43PNjzvB2QqViSZpmYpjwbb7BIQixqjzT2NEzPrj8byq3cj5jH1R5m48Qy0ZuN8YOiaMF46j3t2hetY07rTa0eq/Urlo1zTqdPWG/qvzeFrdz8rf2iodTmo+rOHdmWiZN/YSjnm5c81hea3VYYyueH+vML15pqW5h0m0w9UWJdc0dxJD0tZcc03od/Yl2dxJBzknNN/t17+45H4sc2c1LHurO9wyGnnIcaSv3VmfXU87XzkuNFe6tfLTzHOwMfVNT3a0jj1TU8lAc+qaF7tcaw0aQp6pae76OXGjnux6aHGpon6qOn4mrVf4Vu7VPd1GZ2O7VPd1AW9VHT8Q6/Cx7q18lGrnHOkK92qHU0lz3Y9NDjVBx6puSay40hn3Z6WY0Y92PTQ06uXHqm5JrLjSGfqlmufilA7s9J8QeqWafFIeqevlr52bWRx3Vp5KtPOQOe7PSfEMPVNLcayvpDnuz45ocOVO7MzyU8znWTSHPdjooamkHqmm+X4jU0O7HRQ1NIO7VXPRXQ7sdFHGqWkHdjooamkHqm5TgW9UnX5nfU5uT1SdfmNTm5V9UdOhlcc2eqjp+Jwv8LjuzXxJr1hwt3aqyOdIc0vqsLY5idGfRLuzE6POanwsPVKzOxMvmGCXdmvR5weVXNfPebzYlnbcyT6aHbm0NHV6z35odebXTvm9faP8Ac5m4ho9hZP8ABMvElza79Ro+WtZnMskWWz8zCZWZ3nCo0+Zr8yTMl8yH4i48zOZdZLwTM9f7xaeZcc06n1Dy5ngW801buZZ/Msl+SnmavNDmWtMyby/I4nNJX5l49MwlfGu88F6PNStza8PAszTuLLzUuead3hbJXLlzO/Hn2s0liiy84hZFaQvC+et5+xx47f8AmSQofPqDP5o78w8XvjIlLrucF7Hn7X9+XPksvfc9SI4gPv3cw8kV7a5YanBef8wI/fvMbnyZXvM2QavF80T5iUpmQnEkvxFo+YF/vpdZCzcMS0manMglviAw+M81ubNYl1h2GpwnmfNsO/3stv51eXMrqWhn+YEPvnQ3zmlV09+0dPmGG+fFb0PM+uaHvlO38Wf5ghH72HluCsxXK7jXtEPBGTOTb/YJGq/9951zP0ozB9NZCuwz4np2iblixdHu+P7gu/2x5FjO9Xl2s+iH17kizG82vJBSwrhjAUeRIsPGbxr220fOcz4cvN5q49wciJEiU06NDPMRDOo1igAAAAAAAAAAAAAAAAAAAAAAAAAAAAAAAAAAAAAAAAAAAAAAAAAAAAAAAAAAAAAAAAAAAAAAAAAAAAAAAAAAAAAAAAAAAAAAAJgAAlqNegEtRp0gxBPU69AAJgAjqNOkGpNuWHM8Qj+dpi5o6/C0JuCcLTf8wRvxVxz2jT8LQm5MMETN+uCO18y45uHX/MIyZfchGPN8ycczZa3zu+TD7k6L+bR/Rp5i467527Jd9oWvzTMPq6+a2fow+dSyd+4JPndfmHA0eZXHX/OoYI+uk+dr+YcDjzO41fnT8M03KfI8688RZjHdfzOy1Zuah/z9Ic/MOBx5nca3zqEz7rqNfzA480R+ddxP9vqHzAeaJ/O2Y3+31PO0fMEr+Zo/O9ZRYXj8c+YTzNq/MVyh9LV5+48zPmQ5Q4f+b3X5giWjzNL5nuUP7QyHHmsfU82T9RON/tBJ8zX5vhOYk9TGNfufkOnmv9GjmqaWo4m+0El25rLXXm6yXy037n5DVzWJxzVI16d7io68ziaebpq92veNPO5+F25yDu1Ccup3ahAd2oQHdqE0C2twmX4hxrnT8TTpAa50/EaQLa76aUNRFoFAAZa76aXHww0MXLOn8O4H+A9c5T86HJ3k97ypBvG9532C7o3bGSbcQc29TYly05/WVCHqWQbNpkwKW+73hfFGOc26dIZ+axS9UYy7GL2V/OB7zyh5b5N1WFv4vA5TJ81YtNNejNz+Kd3rGb8jGZx99Yo7t31lPkT6++OVzOvzrpG7tz+KI0eysF/I6GW+LE1Puxd1hY9NUPmiGbn3eU+Rp8qd88985VLssOOln+dMwR5+wV+RVtc33K/Z+Y+dL8d3MZ3ZjZ3kP5FewhKiaJeWm0pX4KxWuK7+LadXMX8Hd2sL5FcyPV33LTN/FU/mi+z+YWHb/pWnN61TR81qf2/y6rzIfM99Ln7Dp5nyLbgOnPDy+TfxZf5nwrc88ZmfIsMjW9bhZw1nX+zVcfM+Fxz8Onvr5F5yqf8AwxnA3ZX7/HavmePq48wh0Mv5GTzuac8PL7clvTp5TR80R/yHXzB08z5G6z4Ie55T7lt/7W0/NMT3c/eNP9L09kDh7cRXPb/2qjR85f1W55x+gO9kR2avdFv/AGpz85z9XHPH6BZ2Qf7UQfxmh86x9UPjbsPsI3ZBItObDkHzufnVx943/wBBFz+fubgfjNHPzq7fHDyG5+wo58Nd8uy56ddXm/NbmfFiHktzdhbzr4m+Xbh78Jz825h9YQ+8wvIofYZs6KtPYYd86HzbB95DKnYM84mZz1vrDlh/WdJ4uzD6ufjwNG+OwAZe7433KNhyw4ufnfMpPjwPHpnyL9lDl05846HYf2ar0Pn++rz1mWj+lZMoX8Jyz/u2v/GfP2YHPWU/0qtj/wDhUWf921/41/xAvfWTn7Lj9Ks5Qv4TkT+7K/8AGfP936s/P23H6VUx9/Cbif3bX/jc/iVf+rRz9r6n6VWylfwqYv8Adtf+Nx+JGZfVzzsfVx+lXspf8KiJ/d1f+Np/Eq99XXnba36Vhyk/wqov921/4z8SMxc87hb8T5FjxlTfc6zk/wB21/42f8SMxOcwuzh/Ir8rxzOttP7sqT9pWYf1cc9Z+qn6Vs5H8J+0/uyrn8Sr31k52yrT5Fs5Nd7zoLSvVdjiftKv69yL1ntLn9K1QP4T9p/dbn8S7/8AV2520fpWuB/Cfm/3XU/Eq/8AWXXn7LP9KwXL/Crm/wB1/wDm4/Eu/wD1c89Zbf6Vvwx/Cgnf3YfiTmX9XXnIU/SuGGP4UE7+7f8AzPxJzH6S7c7Dn9K9YY/hQTv7sPxKzL+rrzkH6V6wx/Cgnf3YfiVmX9TnIP0r1hj+FBO/uw/ErMv6nOQl+le8Mfwn5392H4lZj/zRzzuE/SvVzfwoZv8Adbt+JOZf1c87hT/SvNy/woZ392VdfxJzD+rjnYS/St8D+FFN/u1z+JGY/wBXbncKP6Vr5P8ACgtP7tX/ABKvf1/7OnPWWH6V3lfwnbX+7P8A7jt+JOYfWXPO4fq4/SvV7/wnuT/dlf8AjcfiVmH1k53D9Wv+lfcTfwoP/wAur/xun4sZh/K/7Oebw/3kJfyMVlEr/wDzRR+N26P++7fiVE/+1cc5/wDydb+lgsrX8I67f7v/APW0fi1d/lv9nHN2/q1a/IxOXalO885KD+LV/wCN2/FT/wDqnOf1aNfkZPOdpTTEzhbn0feV/wAVsP8AKuIua92hM+RoM7eu5Zdbgt/67mftV0/9qc5/VrTPka3PNrsypYcr1cujmftUiO5zkw1v0uLnz/vhYe/G2j8S/wCv/aVuelrTPkdTP0h8/qkw9b/2uhH2lfF/Ec7LVm/I93ZAYfP27D9v/aqH4k69znpaf6X87IFD/wA23Pb/ANqdfxLyz6r87iasvsC/ZDon/wAPQJHVJPxLy36nO4mrL7Bn2Q2Lz8nANjWnRJPxLy2O5zuKU/0E3sgv72Nj+MNfz7lv1cc9jT/QWOyCfvZcv8YcfP2Wueex/RjD7Cvn67fmY8vzH4l5b9Tncbfh9haz6tc0TMmXL8zN8/Zac7jeUXP2FvPfiV+gDlcaIxx/lcd0Odxu5h9hdzxtP0G18zzfnXDHd25+SZ2E/PG0954NsD51w/U5+XWTOwiZ78uZ9Blh+Mk8aYd9Tn5eW4czV8oebhF9ROUW79Xt/JVjw5tF2GL7v4XZ/Mlia5rsLS181Dr8MNqZkyr7iObPhh0N85GNcmc8FxObOfgdZMyGal4i0eZrcyfMYm+4KnmrP92fMZl75qJ5m0cw6eZm/aZmisFo8/hx98rc2QzyQWa3mbnDZeX3NkN0+JPG80hPmHmNzZF4cPbAedzaXwqzci1za7zwa9odOchp+F2lzZF7n1PcnHONHwtX5hlza737BPNTmHlty5CcMVh7lVl5h25qHc3NkXuavPCuJl5xz8Lye5M22dN2YRkfizPzKHNOZuajjnxLAMl05lp5pv4YzNcsEyZz4R1ew981d+aZuaecXJ2Py/Zv7N39Hj8/i7LzTtzTvrn7Gvkt5FNN+XlJtyLLibej2XgvNUyHYI5rkwJH0/ZpPrlfjZ4sI8ziewIMGFDpohwaWHB2ZlwAExQBQAAAAAAAAAAAAAAAAAAAAAAAAAAAAAAAAAAAAAAAAAAAAAAAAAAAAAAAAAAAAAAAAAAAAAAAAAAAAAAAAAAAAAAAAAAAAAAAAAAATBMAE9Tr0A41GvQDAAEtRr0OdRzqdehwJajXoBLUadIGo06QNRp0gajTpU0ZOpqNOlNrNRp0gajTpBHU69AGp16ANTr0AanXoA1Snlr5nHOnwJ6lXy187Vzrr8KmqU8tfMy867fAw1OnS16SGp06TSRj3GieX43POw6/Cw7iQvtfXzuHZD1LXH7gp+C185iT+BP5neFPcEZ151q+CEvmY4W+0MZx5tP1c8y1JmSLBE3mrcJGbT3cTZdf8xXA33Ptfm0uvMtX5g+CfcLR5vLRzMJ/O9YJ9wufmTNT73w0vneMK+WnmPN4ccxKPzvFx+Q83g5iU/nebn93SPO1eby45iHPzvEP7YSHPm8HMQl871D93VPNcJzEI/O8Q/t3J8y/m+L6OOZPneoX2/kIfMkOfv3YQ8g0LTp1+QTm/wBDmYbPzCMLbZvKpb8WLzjNHbmfDdzcmSHBFyd+wcH3dHt/dGrPO5lHm4eXQoWo7WR2dhqNOlnZ1dRr0AqACgJgoACYKAmACgJgAAAAoCYAAKAAAAAAAAAmCgAAAAAAAAAAAAAAAAAAJgoCYAAAAAAAAAAAAAAAAAPmnPLzbMUZXr7umdcUDWNXj98PRpXYowtiw/G9Z3Lmh44hQtPcCT5nrecwn902vnXsb/chXzKecn3br5ua9jj7kE/OYPu0/nXMon3I1OcPhX+dPyqfchXzO3O4HPwSvDzQcqVOeFhDRxY+diHPwpVzDcr8vnrCjU66nnOrj4Iju2YXY8MonK55k+NYcXPO4Z7uYw/R5TD7Hdfnjl/R+FXl84j8Lv7lzCIsLnm4v81TnT4Xf8nMVye1p39fsq366nOnwu+uTNCyVXLyNWrEkW9PLXlHOYj4XZws2DI1D9jhTk16+Uy85Ln4Yd3DyQZOIG6YRi06445dtCwtckGmmFcMew6gdhqtPLQHIAAKAAAAAAAAAAAAAAAAAAAAAAAAAAAAAAAAAAAAAAAAAAAAAAAAAAAAAAAAAAAAAAAAAAAAAAAAAAAAAAAAAAAAAAAAAAAAAAAAAAAAAAAAAAAAAAmAACYKAjqXpoBjqfR8YM9Rr0AlqNOkT1canTpd9U2Go06XGkO2suNTp0urs41Po+NTqjoanXocdTSB0WYalyfKKONTr0AanXoA1OvQAAJijOom2JgoAACYAAAONRr0AajXoA1GvQBqNegDUa9AMNTr0NWkBqdeg0gZ6jXoZQ1GvQDLU6dLSM9Up5a+Zl50+BRyNgGwAAACYKAAAAAAmCgAAAAAAAAAAAAAAAAAAAAAAAAAAAAAAAAAAAAAAAAAAAAAAAAAJgoCYKAmCgANcFAAAAAAAGMUbAAAAAAAAABMFAAAAAAAAAAAAAAAAAAAAAAAAAAAAAAAAAAAAAAAAAAAAAAAAAAAAAAAAAAAAAAAAAAAAAAAAAAAAAAAAAAAAAAAAAAAAAAAAAAAAAAAAAAAAAAAAAAAATAAAEwAExRQE9T6PjEwExRlqNOkHGp06QcanXoA1OvQAAJqACiYAAAJgAAAAAy1GnSBqXpoBYENTp0udBw4GwCYNgAFAAAAAAAAAAAAAAAAAAAAAAAAAAAAAAAAAAAAAAAAAAAAAAAAAAAAAAAAAAAAAAAAAAAAAAAAAAAAAAEwUAAAAAAAAAAAAAAAAAAAAAAAAAAAAAAAAAAAAAAAAAAAAAAAAAAAAAAAAAAAAAAAAAAAAAAAAAAAAAAAAAAAAAAAAAAAAAAAAAAAAAAAAAAAAAAAAAAAAAAAAAAAAAAAAAAAAAAAAAAAEwAUBMFAATAAAAAAAAAAAAAAAABQAAAAAAAAAAAAAAAAAAAAAAAAAAAAAAAAAAAAAAAAAAAAAAAAAAAAAAAAAAAAAAAAAAAAAAAAAAAAAAAAAAAAAAAAAAAAAAAAAAAAAAAAAAAAAAAAAAAAAAAAAAAAAAAAAAAAAAAAAAAAAAAAAAAAAAAAAAAAAAAAAAAAAAAAAAAAAAAAAAAAAAAAAAAAAAAAAAAAAAAAAAAAAAAAAAAAAAAAAAAAAAAAAAAAAAAAAAAAAAAAAAAAAAAAAAAAAAAAAAAAAAAAAAAAAAAAAAAAAAAAAAAAAAAAAAAAAAAAAAAAAAAAAAAAAAAAAAAAAAAAAAAAAAAAAAAAAAAAAAAAAAAAAAAAAAAAAAAAAAAAAAAAAAAAAAAAAAAAAAAAAAAAAAAAAAAAAAAAAAAAAAAAAAAAAAAAAAAAAAAAAAAAAAAAAAAAAAAAAAAAAAAAAAAAAAAAAAAAAAAAAAAAAAAAAAAAAAAAAAAAAAAAAAAAAAAAAAAAAAAAAAAAAAAAAAAAAAAAAAAAAAAAAAAAAAAAAAAAAAAAAAAAAAAAAAAAAAAAAAAAAAAAAAAAAAAAAAAAAAAAAAAAAAAAAAAAAAAAAAAAAAAAAAAAAAAAAAAAAAAAAAAAAAAAAAAAAAAAAAAAAAAAAAAAAAAAAAAAAAAAAAAAAAAAAAAAAAAAAAAAAAAAAAAAAAAAAAAAAAAAAAAAAAAAAAAAAAAAAAAAAAAAAAAAAAAAAAAAAAAAAAAAAAAAAAAAAAAAAAAAAAAAAAAAAAAAAAAAAAAAAAAAAAAAAAAAAAAAAAAAAAAAAAAAAAAAAAAAAAAAAAAAAAAAAAAAAAAAAAAAAAAAAAAAAAAAAAAAAAAAAAAAAAAAAAAAAAAAAAAAAAAAAAAAAAAAAAAAAAAAAAAAAAAAAAAAAAAAAAAAAAAAAAAAAAAAAAAAAAAAAAAAAAAAAAAAAAAAAAAAAAAAAAAAAAAAAAAAAAAAAAAAAAAAAAAAAAAAAAAAAAAAAAAAAAAAAAAAAAAAAAAAAAAAAAAAAAAAAAAAAAAAAAAAAAAAAAAAAAAAAAAAAAAAAAAAAAAAAAAAAAAAAAAAAAAAAAAAAAAAAAAAAAAAAAAAAAAAAAAAAAAAAAAAAAAAAAAAAAAAAAAAAAAAAAAAAAAAAAAAAAAAAAAAAAAAAAAAAAAAAAAAAAAAAAAAAAAAAAAAAAAAAAAAAAAAAAAAAAAAAAAAAAAAAAAAAAAAAAAAAAAAAAAAAAAAAAAAAAAAAAAAAAAAAAAAAAAAAAAAAAAAAAAAAAAAAAAAAAAAAAAAAAAAAAAAAAAAAAAAAAAAAAAAAAAAAAAAAAAAAAAAAAAAAAAAAAAAAAAAAAAAAAAAAAAAAAAAAAAAAAAAAAAAAAAAAAAAAAAAAAAAAAAAAAAAAAAAAAAAAAAAAAAAAAAAAAAAAAAAAAAAAAAAAAAAAAAAAAAAAAAAAAAAAAAAAAAAAAAAAAAAAAAAAAAAAAAAAAAAAAAAAAAAAAAAAAAAAAAAAAAAAAAAAAAAAAAAAAAAAAAAAAAAAAAAAAAAAAAAAAAAAAAAAAAAAAAAAAAAAAAAAAAAAAAAAAAAAAAAAAAAAAAAAAAAAAAAAAAAAAAAAAAAAAAAAAAAAAAAAAAAAAAAAAAAAAAAAAAAAAAAAAAAAAAAAAAAAAAAAAAAAAAAAAAAAAAAAAAAAAAAAAAAAAAAAAAAAAAAAAAAAAAAAAAAAAAAAAAAAAAAAAAAAAAAAAAAAAAAAAAAAAAAAAAAAAAAAAAAAAAAAAAAAAAAAAAAAAAAAAAAAAAAAAAAAAAAAAAAAAAAAAAAAAAAAAAAAAAAAAAAAAAAAAAAAAAAAAAAAAAAAAAAAAAAAAAAAAAAAAAAAAAAAAAAAAAAAAAAAAAAAAAAAAAAAAAAAAAAAAAAAAAAAAAAAAAAAAAAAAAAAAAAAAAAAAAAAAAAAAAAAAAAAAAAAAAAAAAAAAAAAAAAAAAAAAAAAAAAAAAAAAAAAAAAAAAAAAAAAAAAAAAAAAAAAAAAAAAAAAAAAAAAAAAAAAAAAAAAAAAAAAAAAAAAAAAAAAAAAAAAAAAAAAAAAAAAAAAAAAAAAAAAAAAAAAAAAAAAAAAAAAAAAAAAAAAAAAAAAAAAAAAAAAAAAAAAAAAAAAAAAAAAAAAAAAAAAAAAAAAAAAAAAAAAAAAAAAAAAAAAAAAAAAAAAAAAAAAAAAAAAAAAAAAAAAAAAAAAAAAAAAAAAAAAAAAAAAAAAAAAAAAAAAAAAAAAAAAAAAAAAAAAAAAAAAAAAAAAAAAAAAAAAAAAAAAAAAAAAAAAAAAAAAAAAAAAAAAAAAAAAAAAAAAAAAAAAAAAAAAAAAAAAAAAAAAAAAAAAAAAAAAAAAAAAAAAAAAAAAAAAAAAAAAAAAAAAAAAAAAAAAAAAAAAAAAAAAAAAAAAAAAAAAAAAAAAAAAAAAAAAAAAAAAAAAAAAAAAAAAAAAAAAAAAAAAAAAAAAAAAAAAAAAAAAAAAAAAAAAAAAAAAAAAAAAAAAAAAAAAAAAAAAAAAAAAAAAAAAAAAAAAAAAAAAAAAAAAAAAAAAAAAAAAAAAAAAAAAAAAAAAAAAAAAAAAAAAAAAAAAAAAAAAAAAAAAAAAAAAAAAAAAAAAAAAAAAAAAAAAAAAAAAAAAAAAAAAAAAAAAAAAAAAAAAAAAAAAAAAAAAAAAAAAAAAAAAAAAAAAAAAAAAAAAAAAAAAAAAAAAAAAAAAAAAAAAAAAAAAAAAAAAAAAAAAAAAAAAAAAAAAAAAAAAAAAAAAAAAAAAAAAAAAAAAAAAAAAAAAAAAAAAAAAAAAAAAAAAAAAAAAAAAAAAAAAAAAAAAAAAAAAAAAAAAAAAAAAAAAAAAAAAAAAAAAAAAAAAAAAAAAAAAAAAAAAAAAAAAAAAAAAAAAAAAAAAAAAAAAAAAAAAAAAAAAAAAAAAAAAAAAAAAAAAAAAAAAAAAAAAAAAAAAAAAAAAAAAAAAAAAAAAAAAAAAAAAAAAAAAAAAAAAAAAAAAAAAAAAAAAAAAAAAAAAAAAAAAAAAAAAAAAAAAAAAAAAAAAAAAAAAAAAAAAAAAAAAAAAAAAAAAAAAAAAAAAAAAAAAAAAAAAAAAAAAAAAAAAAAAAAAAAAAAAAAAAAAAAAAAAAAAAAAAAAAAAAAAAAAAAAAAAAAAAAAAAAAAAAAAAAAAAAAAAAAAAAAAAAAAAAAAAAAAAAAAAAAAAAAAAAAAAAAAAAAAAAAAAAAAAAAAAAAAAAAAAAAAAAAAAAAAAAAAAAAAAAAAAAAAAAAAAAAAAAAAAAAAAAAAAAAAAAAAAAAAAAAAAAAAAAAAAAAAAAAAAAAAAAAAAAAAAAAAAAAAAAAAAAAAAAAAAAAAAAAAAAAAAAAAAAAAAAAAAAAAAAAAAAAAAAAAAAAAAAAAAAAAAAAAAAAAAAAAAAAAAAAAAAAAAAAAAAAAAAAAAAAAAAAAAAAAAAAAAAAAAAAAAAAAAAAAAAAAAAAAAAAAAAAAAAAAAAAAAAAAAAAAAAAAAAAAAAAAAAAAAAAAAAAAAAAAAAAAAAAAAAAAAAAAAAAAAAAAAAAAAAAAAAAAAAAAAAAAAAAAAAAAAAAAAAAAAAAAAAAAAAAAAAAAAAAAAAAAAAAAAAAAAAAAAAAAAAAAAAAAAAAAAAAAAAAAAAAAAAAAAAAAAAAAAAAAAAAAAAAAAAAAAAAAAAAAAAAAAAAAAAAAAAAAAAAAAAAAAAAAAAAAAAAAAAAAAAAAAAAAAAAAAAAAAAAAAAAAAAAAAAAAAAAAAAAAAAAAAAAAAAAAAAAAAAAAAAAAAAAAAAAAAAAAAAAAAAAAAAAAAAAAAAAAAAAAAAAAAAAAAAAAAAAAAAAAAAAAAAAAAAAAAAAAAAAAAAAAAAAAAAAAAAAAAAAAAAAAAAAAAAAAAAAAAAAAAAAAAAAAAAAAAAAAAAAAAAAAAAAAAAAAAAAAAAAAAAAAAAAAAAAAAAAAAAAAAAAAAAAAAAAAAAAAAAAAAAAAAAAAAAAAAAAAAAAAAAAAAAAAAAAAAAAAAAAAAAAAAAAAAAAAAAAAAAAAAAAAAAAAAAAAAAAAAAAAAAAAAAAAAAAAAAAAAAAAAAAAAAAAAAAAAAAAAAAAAAAAAAAAAAAAAAAAAAAAAAAAAAAAAAAAAAAAAAAAAAAAAAAAAAAAAAAAAAAAAAAAAAAAAAAAAAAAAAAAAAAAAAAAAAAAAAAAAAAAAAAAAAAAAAAAAAAAAAAAAAAAAAAAAAAAAAAAAAAAAAAAAAAAAAAAAAAAAAAAAAAAAAAAAAAAAAAAAAAAAAAAAAAAAAAAAAAAAAAAAAAAAAAAAAAAAAAAAAAAAAAAAAAAAAAAAAAAAAAAAAAAAAAAAAAAAAAAAAAAAAAAAAAAAAAAAAAAAAAAAAAAAAAAAAAAAAAAAAAAAAAAAAAAAAAAAAAAAAAAAAAAAAAAAAAAAAAAAAAAAAAAAAAAAAAAAAAAAAAAAAAAAAAAAAAAAAAAAAAAAAAAAAAAAAAAAAAAAAAAAAAAAAAAAAAAAAAAAAAAAAAAAAAAAAAAAAAAAAAAAAAAAAAAAAAAAAAAAAAAAAAAAAAAAAAAAAAAAAAAAAAAAAAAAAAAAAAAAAAAAAAAAAAAAAAAAAAAAAAAAAAAAAAAAAAAAAAAAAAAAAAAAAAAAAAAAAAAAAAAAAAAAAAAAAAAAAAAAAAAAAAAAAAAAAAAAAAAAAAAAAAAAAAAAAAAAAAAAAAAAAAAAAAAAAAAAAAAAAAAAAAAAAAAAAAAAAAAAAAAAAAAAAAAAAAAAAAAAAAAAAAAAAAAAAAAAAAAAAAAAAAAAAAAAAAAAAAAAAAAAAAAAAAAAAAAAAAAAAAAAAAAAAAAAAAAAAAAAAAAAAAAAAAAAAAAAAAAAAAAAAAAAAAAAAAAAAAAAAAAAAAAAAAAAAAAAAAAAAAAAAAAAAAAAAAAAAAAAAAAAAAAAAAAAAAAAAAAAAAAAAAAAAAAAAAAAAAAAAAAAAAAAAAAAAAAAAAAAAAAAAAAAAAAAAAAAAAAAAAAAAAAAAAAAAAAAAAAAAAAAAAAAAAAAAAAAAAAAAAAAAAAAAAAAAAAAAAAAAAAAAAAAAAAAAAAAAAAAAAAAAAAAAAAAAAAAAAAAAAAAAAAAAAAAAAAAAAAAAAAAAAAAAAAAAAAAAAAAAAAAAAAAAAAAAAAAAAAAAAAAAAAAAAAAAAAAAAAAAAAAAAAAAAAAAAAAAAAAAAAAAAAAAAAAAAAAAAAAAAAAAAAAAAAAAAAAAAAAAAAAAAAAAAAAAAAAAAAAAAAAAAAAAAAAAAAAAAAAAAAAAAAAAAAAAAAAAAAAAAAAAAAAAAAAAAAAAAAAAAAAAAAAAAAAAAAAAAAAAAAAAAAAAAAAAAAAAAAAAAAAAAAAAAAAAAAAAAAAAAAAAAAAAAAAAAAAAAAAAAAAAAAAAAAAAAAAAAAAAAAAAAAAAAAAAAAAAAAAAAAAAAAAAAAAAAAAAAAAAAAAAAAAAAAAAAAAAAAAAAAAAAAAAAAAAAAAAAAAAAAAAAAAAAAAAAAAAAAAAAAAAAAAAAAAAAAAAAAAAAAAAAAAAAAAAAAAAAAAAAAAAAAAAAAAAAAAAAAAAAAAAAAAAAAAAAAAAAAAAAAAAAAAAAAAAAAAAAAAAAAAAAAAAAAAAAAAAAAAAAAAAAAAAAAAAAAAAAAAAAAAAAAAAAAAAAAAAAAAAAAAAAAAAAAAAAAAAAAAAAAAAAAAAAAAAAAAAAAAAAAAAAAAAAAAAAAAAAAAAAAAAAAAAAAAAAAAAAAAAAAAAAAAAAAAAAAAAAAAAAAAAAAAAAAAAAAAAAAAAAAAAAAAAAAAAAAAAAAAAAAAAAAAAAAAAAAAAAAAAAAAAAAAAAAAAAAAAAAAAAAAAAAAAAAAAAAAAAAAAAAAAAAAAAAAAAAAAAAAAAAAAAAAAAAAAAAAAAAAAAAAAAAAAAAAAAAAAAAAAAAAAAAAAAAAAAAAAAAAAAAAAAAAAAAAAAAAAAAAAAAAAAAAAAAAAAAAAAAAAAAAAAAAAAAAAAAAAAAAAAAAAAAAAAAAAAAAAAAAAAAAAAAAAAAAAAAAAAAAAAAAAAAAAAAAAAAAAAAAAAAAAAAAAAAAAAAAAAAAAAAAAAAAAAAAAAAAAAAAAAAAAAAAAAAAAAAAAAAAAAAAAAAAAAAAAAAAAAAAAAAAAAAAAAAAAAAAAAAAAAAAAAAAAAAAAAAAAAAAAAAAAAAAAAAAAAAAAAAAAAAAAAAAAAAAAAAAAAAAAAAAAAAAAAAAAAAAAAAAAAAAAAAAAAAAAAAAAAAAAAAAAAAAAAAAAAAAAAAAAAAAAAAAAAAAAAAAAAAAAAAAAAAAAAAAAAAAAAAAAAAAAAAAAAAAAAAAAAAAAAAAAAAAAAAAAAAAAAAAAAAAAAAAAAAAAAAAAAAAAAAAAAAAAAAAAAAAAAAAAAAAAAAAAAAAAAAAAAAAAAAAAAAAAAAAAAAAAAAAAAAAAAAAAAAAAAAAAAAAAAAAAAAAAAAAAAAAAAAAAAAAAAAAAAAAAAAAAAAAAAAAAAAAAAAAAAAAAAAAAAAAAAAAAAAAAAAAAAAAAAAAAAAAAAAAAAAAAAAAAAAAAAAAAAAAAAAAAAAAAAAAAAAAAAAAAAAAAAAAAAAAAAAAAAAAAAAAAAAAAAAAAAAAAAAAAAAAAAAAAAAAAAAAAAAAAAAAAAAAAAAAAAAAAAAAAAAAAAAAAAAAAAAAAAAAAAAAAAAAAAAAAAAAAAAAAAAAAAAAAAAAAAAAAAAAAAAAAAAAAAAAAAAAAAAAAAAAAAAAAAAAAAAAAAAAAAAAAAAAAAAAAAAAAAAAAAAAAAAAAAAAAAAAAAAAAAAAAAAAAAAAAAAAAAAAAAAAAAAAAAAAAAAAAAAAAAAAAAAAAAAAAAAAAAAAAAAAAAAAAAAAAAAAAAAAAAAAAAAAAAAAAAAAAAAAAAAAAAAAAAAAAAAAAAAAAAAAAAAAAAAAAAAAAAAAAAAAAAAAAAAAAAAAAAAAAAAAAAAAAAAAAAAAAAAAAAAAAAAAAAAAAAAAAAAAAAAAAAAAAAAAAAAAAAAAAAAAAAAAAAAAAAAAAAAAAAAAAAAAAAAAAAAAAAAAAAAAAAAAAAAAAAAAAAAAAAAAAAAAAAAAAAAAAAAAAAAAAAAAAAAAAAAAAAAAAAAAAAAAAAAAAAAAAAAAAAAAAAAAAAAAAAAAAAAAAAAAAAAAAAAAAAAAAAAAAAAAAAAAAAAAAAAAAAAAAAAAAAAAAAAAAAAAAAAAAAAAAAAAAAAAAAAAAAAAAAAAAAAAAAAAAAAAAAAAAAAAAAAAAAAAAAAAAAAAAAAAAAAAAAAAAAAAAAAAAAAAAAAAAAAAAAAAAAAAAAAAAAAAAAAAAAAAAAAAAAAAAAAAAAAAAAAAAAAAAAAAAAAAAAAAAAAAAAAAAAAAAAAAAAAAAAAAAAAAAAAAAAAAAAAAAAAAAAAAAAAAAAAAAAAAAAAAAAAAAAAAAAAAAAAAAAAAAAAAAAAAAAAAAAAAAAAAAAAAAAAAAAAAAAAAAAAAAAAAAAAAAAAAAAAAAAAAAAAAAAAAAAAAAAAAAAAAAAAAAAAAAAAAAAAAAAAAAAAAAAAAAAAAAAAAAAAAAAAAAAAAAAAAAAAAAAAAAAAAAAAAAAAAAAAAAAAAAAAAAAAAAAAAAAAAAAAAAAAAAAAAAAAAAAAAAAAAAAAAAAAAAAAAAAAAAAAAAAAAAAAAAAAAAAAAAAAAAAAAAAAAAAAAAAAAAAAAAAAAAAAAAAAAAAAAAAAAAAAAAAAAAAAAAAAAAAAAAAAAAAAAAAAAAAAAAAAAAAAAAAAAAAAAAAAAAAAAAAAAAAAAAAAAAAAAAAAAAAAAAAAAAAAAAAAAAAAAAAAAAAAAAAAAAAAAAAAAAAAAAAAAAAAAAAAAAAAAAAAAAAAAAAAAAAAAAAAAAAAAAAAAAAAAAAAAAAAAAAAAAAAAAAAAAAAAAAAAAAAAAAAAAAAAAAAAAAAAAAAAAAAAAAAAAAAAAAAAAAAAAAAAAAAAAAAAAAAAAAAAAAAAAAAAAAAAAAAAAAAAAAAAAAAAAAAAAAAAAAAAAAAAAAAAAAAAAAAAAAAAAAAAAAAAAAAAAAAAAAAAAAAAAAAAAAAAAAAAAAAAAAAAAAAAAAAAAAAAAAAAAAAAAAAAAAAAAAAAAAAAAAAAAAAAAAAAAAAAAAAAAAAAAAAAAAAAAAAAAAAAAAAAAAAAAAAAAAAAAAAAAAAAAAAAAAAAAAAAAAAAAAAAAAAAAAAAAAAAAAAAAAAAAAAAAAAAAAAAAAAAAAAAAAAAAAAAAAAAAAAAAAAAAAAAAAAAAAAAAAAAAAAAAAAAAAAAAAAAAAAAAAAAAAAAAAAAAAAAAAAAAAAAAAAAAAAAAAAAAAAAAAAAAAAAAAAAAAAAAAAAAAAAAAAAAAAAAAAAAAAAAAAAAAAAAAAAAAAAAAAAAAAAAAAAAAAAAAAAAAAAAAAAAAAAAAAAAAAAAAAAAAAAAAAAAAAAAAAAAAAAAAAAAAAAAAAAAAAAAAAAAAAAAAAAAAAAAAAAAAAAAAAAAAAAAAAAAAAAAAAAAAAAAAAAAAAAAAAAAAAAAAAAAAAAAAAAAAAAAAAAAAAAAAAAAAAAAAAAAAAAAAAAAAAAAAAAAAAAAAAAAAAAAAAAAAAAAAAAAAAAAAAAAAAAAAAAAAAAAAAAAAAAAAAAAAAAAAAAAAAAAAAAAAAAAAAAAAAAAAAAAAAAAAAAAAAAAAAAAAAAAAAAAAAAAAAAAAAAAAAAAAAAAAAAAAAAAAAAAAAAAAAAAAAAAAAAAAAAAAAAAAAAAAAAAAAAAAAAAAAAAAAAAAAAAAAAAAAAAAAAAAAAAAAAAAAAAAAAAAAAAAAAAAAAAAAAAAAAAAAAAAAAAAAAAAAAAAAAAAAAAAAAAAAAAAAAAAAAAAAAAAAAAAAAAAAAAAAAAAAAAAAAAAAAAAAAAAAAAAAAAAAAAAAAAAAAAAAAAAAAAAAAAAAAAAAAAAAAAAAAAAAAAAAAAAAAAAAAAAAAAAAAAAAAAAAAAAAAAAAAAAAAAAAAAAAAAAAAAAAAAAAAAAAAAAAAAAAAAAAAAAAAAAAAAAAAAAAAAAAAAAAAAAAAAAAAAAAAAAAAAAAAAAAAAAAAAAAAAAAAAAAAAAAAAAAAAAAAAAAAAAAAAAAAAAAAAAAAAAAAAAAAAAAAAAAAAAAAAAAAAAAAAAAAAAAAAAAAAAAAAAAAAAAAAAAAAAAAAAAAAAAAAAAAAAAAAAAAAAAAAAAAAAAAAAAAAAAAAAAAAAAAAAAAAAAAAAAAAAAAAAAAAAAAAAAAAAAAAAAAAAAAAAAAAAAAAAAAAAAAAAAAAAAAAAAAAAAAAAAAAAAAAAAAAAAAAAAAAAAAAAAAAAAAAAAAAAAAAAAAAAAAAAAAAAAAAAAAAAAAAAAAAAAAAAAAAAAAAAAAAAAAAAAAAAAAAAAAAAAAAAAAAAAAAAAAAAAAAAAAAAAAAAAAAAAAAAAAAAAAAAAAAAAAAAAAAAAAAAAAAAAAAAAAAAAAAAAAAAAAAAAAAAAAAAAAAAAAAAAAAAAAAAAAAAAAAAAAAAAAAAAAAAAAAAAAAAAAAAAAAAAAAAAAAAAAAAAAAAAAAAAAAAAAAAAAAAAAAAAAAAAAAAAAAAAAAAAAAAAAAAAAAAAAAAAAAAAAAAAAAAAAAAAAAAAAAAAAAAAAAAAAAAAAAAAAAAAAAAAAAAAAAAAAAAAAAAAAAAAAAAAAAAAAAAAAAAAAAAAAAAAAAAAAAAAAAAAAAAAAAAAAAAAAAAAAAAAAAAAAAAAAAAAAAAAAAAAAAAAAAAAAAAAAAAAAAAAAAAAAAAAAAAAAAAAAAAAAAAAAAAAAAAAAAAAAAAAAAAAAAAAAAAAAAAAAAAAAAAAAAAAAAAAAAAAAAAAAAAAAAAAAAAAAAAAAAAAAAAAAAAAAAAAAAAAAAAAAAAAAAAAAAAAAAAAAAAAAAAAAAAAAAAAAAAAAAAAAAAAAAAAAAAAAAAAAAAAAAAAAAAAAAAAAAAAAAAAAAAAAAAAAAAAAAAAAAAAAAAAAAAAAAAAAAAAAAAAAAAAAAAAAAAAAAAAAAAAAAAAAAAAAAAAAAAAAAAAAAAAAAAAAAAAAAAAAAAAAAAAAAAAAAAAAAAAAAAAAAAAAAAAAAAAAAAAAAAAAAAAAAAAAAAAAAAAAAAAAAAAAAAAAAAAAAAAAAAAAAAAAAAAAAAAAAAAAAAAAAAAAAAAAAAAAAAAAAAAAAAAAAAAAAAAAAAAAAAAAAAAAAAAAAAAAAAAAAAAAAAAAAAAAAAAAAAAAAAAAAAAAAAAAAAAAAAAAAAAAAAAAAAAAAAAAAAAAAAAAAAAAAAAAAAAAAAAAAAAAAAAAAAAAAAAAAAAAAAAAAAAAAAAAAAAAAAAAAAAAAAAAAAAAAAAAAAAAAAAAAAAAAAAAAAAAAAAAAAAAAAAAAAAAAAAAAAAAAAAAAAAAAAAAAAAAAAAAAAAAAAAAAAAAAAAAAAAAAAAAAAAAAAAAAAAAAAAAAAAAAAAAAAAAAAAAAAAAAAAAAAAAAAAAAAAAAAAAAAAAAAAAAAAAAAAAAAAAAAAAAAAAAAAAAAAAAAAAAAAAAAAAAAAAAAAAAAAAAAAAAAAAAAAAAAAAAAAAAAAAAAAAAAAAAAAAAAAAAAAAAAAAAAAAAAAAAAAAAAAAAAAAAAAAAAAAAAAAAAAAAAAAAAAAAAAAAAAAAAAAAAAAAAAAAAAAAAAAAAAAAAAAAAAAAAAAAAAAAAAAAAAAAAAAAAAAAAAAAAAAAAAAAAAAAAAAAAAAAAAAAAAAAAAAAAAAAAAAAAAAAAAAAAAAAAAAAAAAAAAAAAAAAAAAAAAAAAAAAAAAAAAAAAAAAAAAAAAAAAAAAAAAAAAAAAAAAAAAAAAAAAAAAAAAAAAAAAAAAAAAAAAAAAAAAAAAAAAAAAAAAAAAAAAAAAAAAAAAAAAAAAAAAAAAAAAAAAAAAAAAAAAAAAAAAAAAAAAAAAAAAAAAAAAAAAAAAAAAAAAAAAAAAAAAAAAAAAAAAAAAAAAAAAAAAAAAAAAAAAAAAAAAAAAAAAAAAAAAAAAAAAAAAAAAAAAAAAAAAAAAAAAAAAAAAAAAAAAAAAAAAAAAAAAAAAAAAAAAAAAAAAAAAAAAAAAAAAAAAAAAAAAAAAAAAAAAAAAAAAAAAAAAAAAAAAAAAAAAAAAAAAAAAAAAAAAAAAAAAAAAAAAAAAAAAAAAAAAAAAAAAAAAAAAAAAAAAAAAAAAAAAAAAAAAAAAAAAAAAAAAAAAAAAAAAAAAAAAAAAAAAAAAAAAAAAAAAAAAAAAAAAAAAAAAAAAAAAAAAAAAAAAAAAAAAAAAAAAAAAAAAAAAAAAAAAAAAAAAAAAAAAAAAAAAAAAAAAAAAAAAAAAAAAAAAAAAAAAAAAAAAAAAAAAAAAAAAAAAAAAAAAAAAAAAAAAAAAAAAAAAAAAAAAAAAAAAAAAAAAAAAAAAAAAAAAAAAAAAAAAAAAAAAAAAAAAAAAAAAAAAAAAAAAAAAAAAAAAAAAAAAAAAAAAAAAAAAAAAAAAAAAAAAAAAAAAAAAAAAAAAAAAAAAAAAAAAAAAAAAAAAAAAAAAAAAAAAAAAAAAAAAAAAAAAAAAAAAAAAAAAAAAAAAAAAAAAAAAAAAAAAAAAAAAAAAAAAAAAAAAAAAAAAAAAAAAAAAAAAAAAAAAAAAAAAAAAAAAAAAAAAAAAAAAAAAAAAAAAAAAAAAAAAAAAAAAAAAAAAAAAAAAAAAAAAAAAAAAAAAAAAAAAAAAAAAAAAAAAAAAAAAAAAAAAAAAAAAAAAAAAAAAAAAAAAAAAAAAAAAAAAAAAAAAAAAAAAAAAAAAAAAAAAAAAAAAAAAAAAAAAAAAAAAAAAAAAAAAAAAAAAAAAAAAAAAAAAAAAAAAAAAAAAAAAAAAAAAAAAAAAAAAAAAAAAAAAAAAAAAAAAAAAAAAAAAAAAAAAAAAAAAAAAAAAAAAAAAAAAAAAAAAAAAAAAAAAAAAAAAAAAAAAAAAAAAAAAAAAAAAAAAAAAAAAAAAAAAAAAAAAAAAAAAAAAAAAAAAAAAAAAAAAAAAAAAAAAAAAAAAAAAAAAAAAAAAAAAAAAAAAAAAAAAAAAAAAAAAAAAAAAAAAAAAAAAAAAAAAAAAAAAAAAAAAAAAAAAAAAAAAAAAAAAAAAAAAAAAAAAAAAAAAAAAAAAAAAAAAAAAAAAAAAAAAAAAAAAAAAAAAAAAAAAAAAAAAAAAAAAAAAAAAAAAAAAAAAAAAAAAAAAAAAAAAAAAAAAAAAAAAAAAAAAAAAAAAAAAAAAAAAAAAAAAAAAAAAAAAAAAAAAAAAAAAAAAAAAAAAAAAAAAAAAAAAAAAAAAAAAAAAAAAAAAAAAAAAAAAAAAAAAAAAAAAAAAAAAAAAAAAAAAAAAAAAAAAAAAAAAAAAAAAAAAAAAAAAAAAAAAAAAAAAAAAAAAAAAAAAAAAAAAAAAAAAAAAAAAAAAAAAAAAAAAAAAAAAAAAAAAAAAAAAAAAAAAAAAAAAAAAAAAAAAAAAAAAAAAAAAAAAAAAAAAAAAAAAAAAAAAAAAAAAAAAAAAAAAAAAAAAAAAAAAAAAAAAAAAAAAAAAAAAAAAAAAAAAAAAAAAAAAAAAAAAAAAAAAAAAAAAAAAAAAAAAAAAAAAAAAAAAAAAAAAAAAAAAAAAAAAAAAAAAAAAAAAAAAAAAAAAAAAAAAAAAAAAAAAAAAAAAAAAAAAAAAAAAAAAAAAAAAAAAAAAAAAAAAAAAAAAAAAAAAAAAAAAAAAAAAAAAAAAAAAAAAAAAAAAAAAAAAAAAAAAAAAAAAAAAAAAAAAAAAAAAAAAAAAAAAAAAAAAAAAAAAAAAAAAAAAAAAAAAAAAAAAAAAAAAAAAAAAAAAAAAAAAAAAAAAAAAAAAAAAAAAAAAAAAAAAAAAAAAAAAAAAAAAAAAAAAAAAAAAAAAAAAAAAAAAAAAAAAAAAAAAAAAAAAAAAAAAAAAAAAAAAAAAAAAAAAAAAAAAAAAAAAAAAAAAAAAAAAAAAAAAAAAAAAAAAAAAAAAAAAAAAAAAAAAAAAAAAAAAAAAAAAAAAAAAAAAAAAAAAAAAAAAAAAAAAAAAAAAAAAAAAAAAAAAAAAAAAAAAAAAAAAAAAAAAAAAAAAAAAAAAAAAAAAAAAAAAAAAAAAAAAAAAAAAAAAAAAAAAAAAAAAAAAAAAAAAAAAAAAAAAAAAAAAAAAAAAAAAAAAAAAAAAAAAAAAAAAAAAAAAAAAAAAAAAAAAAAAAAAAAAAAAAAAAAAAAAAAAAAAAAAAAAAAAAAAAAAAAAAAAAAAAAAAAAAAAAAAAAAAAAAAAAAAAAAAAAAAAAAAAAAAAAAAAAAAAAAAAAAAAAAAAAAAAAAAAAAAAAAAAAAAAAAAAAAAAAAAAAAAAAAAAAAAAAAAAAAAAAAAAAAAAAAAAAAAAAAAAAAAAAAAAAAAAAAAAAAAAAAAAAAAAAAAAAAAAAAAAAAAAAAAAAAAAAAAAAAAAAAAAAAAAAAAAAAAAAAAAAAAAAAAAAAAAAAAAAAAAAAAAAAAAAAAAAAAAAAAAAAAAAAAAAAAAAAAAAAAAAAAAAAAAAAAAAAAAAAAAAAAAAAAAAAAAAAAAAAAAAAAAAAAAAAAAAAAAAAAAAAAAAAAAAAAAAAAAAAAAAAAAAAAAAAAAAAAAAAAAAAAAAAAAAAAAAAAAAAAAAAAAAAAAAAAAAAAAAAAAAAAAAAAAAAAAAAAAAAAAAAAAAAAAAAAAAAAAAAAAAAAAAAAAAAAAAAAAAAAAAAAAAAAAAAAAAAAAAAAAAAAAAAAAAAAAAAAAAAAAAAAAAAAAAAAAAAAAAAAAAAAAAAAAAAAAAAAAAAAAAAAAAAAAAAAAAAAAAAAAAAAAAAAAAAAAAAAAAAAAAAAAAAAAAAAAAAAAAAAAAAAAAAAAAAAAAAAAAAAAAAAAAAAAAAAAAAAAAAAAAAAAAAAAAAAAAAAAAAAAAAAAAAAAAAAAAAAAAAAAAAAAAAAAAAAAAAAAAAAAAAAAAAAAAAAAAAAAAAAAAAAAAAAAAAAAAAAAAAAAAAAAAAAAAAAAAAAAAAAAAAAAAAAAAAAAAAAAAAAAAAAAAAAAAAAAAAAAAAAAAAAAAAAAAAAAAAAAAAAAAAAAAAAAAAAAAAAAAAAAAAAAAAAAAAAAAAAAAAAAAAAAAAAAAAAAAAAAAAAAAAAAAAAAAAAAAAAAAAAAAAAAAAAAAAAAAAAAAAAAAAAAAAAAAAAAAAAAAAAAAAAAAAAAAAAAAAAAAAAAAAAAAAAAAAAAAAAAAAAAAAAAAAAAAAAAAAAAAAAAAAAAAAAAAAAAAAAAAAAAAAAAAAAAAAAAAAAAAAAAAAAAAAAAAAAAAAAAAAAAAAAAAAAAAAAAAAAAAAAAAAAAAAAAAAAAAAAAAAAAAAAAAAAAAAAAAAAAAAAAAAAAAAAAAAAAAAAAAAAAAAAAAAAAAAAAAAAAAAAAAAAAAAAAAAAAAAAAAAAAAAAAAAAAAAAAAAAAAAAAAAAAAAAAAAAAAAAAAAAAAAAAAAAAAAAAAAAAAAAAAAAAAAAAAAAAAAAAAAAAAAAAAAAAAAAAAAAAAAAAAAAAAAAAAAAAAAAAAAAAAAAAAAAAAAAAAAAAAAAAAAAAAAAAAAAAAAAAAAAAAAAAAAAAAAAAAAAAAAAAAAAAAAAAAAAAAAAAAAAAAAAAAAAAAAAAAAAAAAAAAAAAAAAAAAAAAAAAAAAAAAAAAAAAAAAAAAAAAAAAAAAAAAAAAAAAAAAAAAAAAAAAAAAAAAAAAAAAAAAAAAAAAAAAAAAAAAAAAAAAAAAAAAAAAAAAAAAAAAAAAAAAAAAAAAAAAAAAAAAAAAAAAAAAAAAAAAAAAAAAAAAAAAAAAAAAAAAAAAAAAAAAAAAAAAAAAAAAAAAAAAAAAAAAAAAAAAAAAAAAAAAAAAAAAAAAAAAAAAAAAAAAAAAAAAAAAAAAAAAAAAAAAAAAAAAAAAAAAAAAAAAAAAAAAAAAAAAAAAAAAAAAAAAAAAAAAAAAAAAAAAAAAAAAAAAAAAAAAAAAAAAAAAAAAAAAAAAAAAAAAAAAAAAAAAAAAAAAAAAAAAAAAAAAAAAAAAAAAAAAAAAAAAAAAAAAAAAAAAAAAAAAAAAAAAAAAAAAAAAAAAAAAAAAAAAAAAAAAAAAAAAAAAAAAAAAAAAAAAAAAAAAAAAAAAAAAAAAAAAAAAAAAAAAAAAAAAAAAAAAAAAAAAAAAAAAAAAAAAAAAAAAAAAAAAAAAAAAAAAAAAAAAAAAAAAAAAAAAAAAAAAAAAAAAAAAAAAAAAAAAAAAAAAAAAAAAAAAAAAAAAAAAAAAAAAAAAAAAAAAAAAAAAAAAAAAAAAAAAAAAAAAAAAAAAAAAAAAAAH/9k=;clipPath=inset(17% 8.77% 21% 9.65%);movable=1;resizable=1;rotatable=1;deletable=1;editable=1;locked=0;connectable=1;fillColor=light-dark(#f1b8fd, #ededed);imageBorder=none;imageBackground=none;gradientColor=light-dark(#f3baff, #EDEDED);" parent="1" vertex="1">
          <mxGeometry x="374" y="160" width="80" height="80" as="geometry" />
        </mxCell>
        <mxCell id="aw91FghNOW1bZm03r1ly-5" value="" style="rounded=1;whiteSpace=wrap;html=1;fillColor=light-dark(#8747c7, #212100);movable=1;resizable=1;rotatable=1;deletable=1;editable=1;locked=0;connectable=1;strokeColor=#36393d;gradientColor=light-dark(#ffffff, #ededed);" parent="1" vertex="1">
          <mxGeometry x="480" y="160" width="80" height="80" as="geometry" />
        </mxCell>
        <mxCell id="aw91FghNOW1bZm03r1ly-4" value="" style="verticalLabelPosition=bottom;verticalAlign=top;html=1;shape=mxgraph.basic.4_point_star_2;dx=0.71;strokeColor=light-dark(#000000,#FFFFFF);movable=1;resizable=1;rotatable=1;deletable=1;editable=1;locked=0;connectable=1;" parent="1" vertex="1">
          <mxGeometry x="490" y="170" width="60" height="60" as="geometry" />
        </mxCell>
        <mxCell id="aw91FghNOW1bZm03r1ly-6" value="" style="verticalLabelPosition=bottom;verticalAlign=top;html=1;shape=mxgraph.basic.arc;startAngle=0.25318267455048643;endAngle=0.48184268430889704;movable=1;resizable=1;rotatable=1;deletable=1;editable=1;locked=0;connectable=1;" parent="1" vertex="1">
          <mxGeometry x="500" y="220" width="20" height="20" as="geometry" />
        </mxCell>
        <mxCell id="aw91FghNOW1bZm03r1ly-7" value="" style="verticalLabelPosition=bottom;verticalAlign=top;html=1;shape=mxgraph.basic.arc;startAngle=0.25318267455048643;endAngle=0.48184268430889704;rotation=90;movable=1;resizable=1;rotatable=1;deletable=1;editable=1;locked=0;connectable=1;fillColor=light-dark(#dbd2d2, #ededed);" parent="1" vertex="1">
          <mxGeometry x="480" y="180" width="20" height="20" as="geometry" />
        </mxCell>
        <mxCell id="aw91FghNOW1bZm03r1ly-8" value="" style="verticalLabelPosition=bottom;verticalAlign=top;html=1;shape=mxgraph.basic.arc;startAngle=0.25318267455048643;endAngle=0.48184268430889704;rotation=-180;movable=1;resizable=1;rotatable=1;deletable=1;editable=1;locked=0;connectable=1;" parent="1" vertex="1">
          <mxGeometry x="520" y="160" width="20" height="20" as="geometry" />
        </mxCell>
        <mxCell id="aw91FghNOW1bZm03r1ly-9" value="" style="verticalLabelPosition=bottom;verticalAlign=top;html=1;shape=mxgraph.basic.arc;startAngle=0.25318267455048643;endAngle=0.48184268430889704;rotation=-90;movable=1;resizable=1;rotatable=1;deletable=1;editable=1;locked=0;connectable=1;" parent="1" vertex="1">
          <mxGeometry x="540" y="200" width="20" height="20" as="geometry" />
        </mxCell>
        <mxCell id="aw91FghNOW1bZm03r1ly-12" value="" style="rounded=1;whiteSpace=wrap;html=1;fillColor=light-dark(#cf91eb, #212100);movable=1;resizable=1;rotatable=1;deletable=1;editable=1;locked=0;connectable=1;strokeColor=none;gradientColor=light-dark(#FFC6CB,#EDEDED);gradientDirection=north;" parent="1" vertex="1">
          <mxGeometry x="580" y="160" width="80" height="80" as="geometry" />
        </mxCell>
        <mxCell id="aw91FghNOW1bZm03r1ly-13" value="" style="verticalLabelPosition=bottom;verticalAlign=top;html=1;shape=mxgraph.basic.4_point_star_2;dx=0.71;strokeColor=none;movable=1;resizable=1;rotatable=1;deletable=1;editable=1;locked=0;connectable=1;fillColor=default;" parent="1" vertex="1">
          <mxGeometry x="590" y="170" width="60" height="60" as="geometry" />
        </mxCell>
        <mxCell id="LDqQD1f-1w2Ohx5Y3aXz-2" value="" style="group" vertex="1" connectable="0" parent="1">
          <mxGeometry x="140" y="460" width="80" height="80" as="geometry" />
        </mxCell>
        <mxCell id="aw91FghNOW1bZm03r1ly-19" value="" style="rounded=1;whiteSpace=wrap;html=1;fillColor=light-dark(#b525e9, #ededed);movable=1;resizable=1;rotatable=1;deletable=1;editable=1;locked=0;connectable=1;strokeColor=none;gradientColor=light-dark(#141f71, #EDEDED);gradientDirection=east;" parent="LDqQD1f-1w2Ohx5Y3aXz-2" vertex="1">
          <mxGeometry width="80" height="80" as="geometry" />
        </mxCell>
        <mxCell id="aw91FghNOW1bZm03r1ly-21" value="" style="shape=switch;whiteSpace=wrap;html=1;rotation=-45;strokeColor=none;" parent="LDqQD1f-1w2Ohx5Y3aXz-2" vertex="1">
          <mxGeometry x="15" y="15" width="50" height="50" as="geometry" />
        </mxCell>
      </root>
    </mxGraphModel>
  </diagram>
</mxfile>
